<?xml version="1.0" encoding="utf-8"?>
<!-- Generator: Adobe Illustrator 17.0.0, SVG Export Plug-In . SVG Version: 6.00 Build 0)  -->
<!DOCTYPE svg PUBLIC "-//W3C//DTD SVG 1.1//EN" "http://www.w3.org/Graphics/SVG/1.1/DTD/svg11.dtd">
<svg version="1.1" id="Layer_1" xmlns="http://www.w3.org/2000/svg" xmlns:xlink="http://www.w3.org/1999/xlink" x="0px" y="0px"
	 width="33.9px" height="28.6px" viewBox="0 0 33.9 28.6" enable-background="new 0 0 33.9 28.6" xml:space="preserve">
<g>
	<path fill="#231F20" d="M33.9,28.6H0V0h33.9V28.6z M1,27.6h31.9V1H1V27.6z"/>
</g>
<g id="Layer_2">
</g>
<rect x="0.5" y="0.5" fill="#FFFFFF" width="32.9" height="27.6"/>
<rect x="0" y="23.418" fill="none" width="33.9" height="4.682"/>
<g enable-background="new    ">
	<path d="M10.932,23.498l1.02,2.774c0.033,0.094,0.063,0.171,0.09,0.232c0.027,0.062,0.055,0.118,0.085,0.168
		c0.03,0.05,0.065,0.098,0.105,0.143c0.04,0.045,0.09,0.098,0.15,0.157h-1.525c0.083-0.066,0.14-0.122,0.17-0.168
		c0.03-0.045,0.045-0.096,0.045-0.152c0-0.036-0.005-0.076-0.015-0.12c-0.01-0.043-0.03-0.107-0.06-0.194l-0.14-0.42h-1.05
		l-0.145,0.42c-0.03,0.08-0.051,0.145-0.062,0.194c-0.012,0.051-0.018,0.094-0.018,0.131c0,0.053,0.012,0.098,0.035,0.135
		c0.023,0.036,0.077,0.095,0.16,0.175H8.693c0.057-0.06,0.103-0.112,0.14-0.157s0.069-0.093,0.098-0.143s0.055-0.108,0.08-0.175
		c0.025-0.067,0.054-0.152,0.087-0.256l0.71-2.064c0.023-0.066,0.042-0.12,0.055-0.16c0.013-0.04,0.023-0.072,0.03-0.098
		c0.007-0.024,0.011-0.045,0.013-0.06c0.001-0.016,0.002-0.031,0.002-0.048c0-0.057-0.014-0.107-0.042-0.152s-0.081-0.1-0.158-0.162
		H10.932z M10.312,24.383l-0.35,1.045h0.72L10.312,24.383z"/>
	<path d="M12.463,26.973c0.086-0.094,0.147-0.19,0.183-0.293c0.035-0.102,0.052-0.238,0.052-0.412v-1.95
		c0-0.1-0.004-0.186-0.012-0.257c-0.009-0.072-0.024-0.138-0.048-0.198c-0.023-0.06-0.054-0.118-0.092-0.175
		c-0.039-0.057-0.089-0.12-0.152-0.189h1.085l1.64,2.17v-1.465c0-0.091-0.003-0.169-0.01-0.235c-0.007-0.066-0.02-0.127-0.038-0.18
		c-0.019-0.054-0.042-0.103-0.072-0.147c-0.03-0.046-0.068-0.093-0.115-0.143h1.01c-0.047,0.046-0.085,0.093-0.115,0.14
		s-0.053,0.098-0.07,0.152c-0.017,0.055-0.029,0.116-0.038,0.183s-0.013,0.144-0.013,0.23v2.875c-0.287-0.058-0.54-0.158-0.76-0.303
		c-0.22-0.146-0.415-0.341-0.585-0.588l-1.07-1.415v1.495c0,0.087,0.004,0.163,0.013,0.23c0.008,0.066,0.021,0.126,0.038,0.18
		c0.017,0.054,0.04,0.104,0.07,0.15c0.03,0.046,0.068,0.095,0.115,0.145H12.463z"/>
	<path d="M19.442,26.878c-0.187,0.053-0.38,0.094-0.58,0.122c-0.199,0.028-0.39,0.043-0.569,0.043c-0.317,0-0.603-0.043-0.858-0.128
		s-0.473-0.205-0.653-0.36c-0.18-0.154-0.319-0.342-0.417-0.562c-0.098-0.22-0.147-0.466-0.147-0.739c0-0.271,0.05-0.517,0.15-0.74
		c0.1-0.224,0.241-0.415,0.423-0.575c0.182-0.16,0.398-0.285,0.65-0.375c0.251-0.09,0.528-0.135,0.828-0.135
		c0.153,0,0.304,0.009,0.452,0.027s0.283,0.044,0.403,0.077v0.73c-0.117-0.087-0.25-0.154-0.4-0.202
		c-0.15-0.049-0.304-0.073-0.46-0.073c-0.323,0-0.571,0.097-0.742,0.29c-0.172,0.193-0.258,0.469-0.258,0.825
		c0,0.217,0.023,0.412,0.07,0.585c0.046,0.174,0.115,0.321,0.206,0.442c0.09,0.122,0.198,0.215,0.327,0.28
		c0.128,0.065,0.272,0.098,0.433,0.098c0.036,0,0.069-0.002,0.098-0.005c0.028-0.004,0.063-0.012,0.107-0.025v-0.84
		c0-0.113-0.015-0.202-0.043-0.265c-0.028-0.063-0.082-0.129-0.162-0.195h1.145V26.878z"/>
	<path d="M21.123,26.393c0.073,0.026,0.152,0.046,0.237,0.058s0.196,0.018,0.333,0.018c0.183,0,0.332-0.021,0.447-0.065
		c0.115-0.043,0.221-0.118,0.317-0.225l-0.195,0.795h-2.33c0.051-0.037,0.09-0.072,0.118-0.107s0.051-0.077,0.067-0.128
		c0.017-0.05,0.027-0.11,0.032-0.183c0.005-0.071,0.008-0.164,0.008-0.277v-2.085c0-0.08-0.001-0.146-0.003-0.2
		c-0.001-0.053-0.005-0.097-0.01-0.132s-0.011-0.065-0.018-0.09c-0.007-0.025-0.017-0.051-0.03-0.078
		c-0.02-0.043-0.041-0.078-0.064-0.104c-0.023-0.027-0.057-0.057-0.101-0.09h1.9c0.047,0,0.082-0.002,0.105-0.006
		c0.022-0.003,0.048-0.011,0.074-0.024v0.77c-0.066-0.086-0.138-0.145-0.215-0.175c-0.076-0.03-0.189-0.045-0.34-0.045h-0.335v0.85
		h0.555c0.033,0,0.062-0.001,0.083-0.005c0.021-0.003,0.046-0.012,0.072-0.024v0.734c-0.023-0.036-0.047-0.067-0.07-0.092
		c-0.023-0.025-0.05-0.045-0.08-0.061c-0.029-0.015-0.064-0.024-0.104-0.029c-0.04-0.006-0.089-0.008-0.146-0.008h-0.31V26.393z"/>
	<path d="M23.843,26.383c0.087,0.033,0.168,0.056,0.245,0.067c0.076,0.012,0.177,0.018,0.3,0.018c0.073,0,0.141-0.004,0.202-0.013
		c0.062-0.008,0.12-0.021,0.176-0.037c0.055-0.017,0.109-0.04,0.165-0.07c0.055-0.03,0.112-0.066,0.172-0.11l-0.2,0.735h-2.25
		c0.051-0.037,0.09-0.072,0.118-0.107s0.051-0.077,0.067-0.128c0.017-0.05,0.027-0.11,0.032-0.183
		c0.005-0.071,0.008-0.164,0.008-0.277v-2.09c0-0.08-0.001-0.146-0.003-0.197c-0.001-0.052-0.005-0.096-0.01-0.133
		c-0.005-0.036-0.011-0.066-0.018-0.09s-0.017-0.048-0.03-0.075c-0.02-0.046-0.041-0.082-0.064-0.107
		c-0.023-0.024-0.057-0.054-0.101-0.087h1.415c-0.046,0.036-0.084,0.072-0.112,0.107s-0.053,0.079-0.072,0.133
		c-0.01,0.02-0.018,0.042-0.022,0.064c-0.005,0.023-0.009,0.052-0.01,0.086c-0.002,0.033-0.004,0.074-0.005,0.122
		c-0.002,0.049-0.003,0.108-0.003,0.178V26.383z"/>
</g>
<g>
	<path d="M29.812,17.295l-3.065-2.822c0.05-0.252,0.018-0.506-0.094-0.746c-0.092-0.196-0.317-0.291-0.522-0.22
		c-0.102,0.035-0.21,0.07-0.32,0.104l-1.791-1.649c0.34-0.446,0.512-0.948,0.566-1.328c0.404-1.41-0.016-2.514-1.156-3.031
		c-0.913-0.414-2.207-0.356-3.049,0.037c-0.024-0.067-0.058-0.129-0.113-0.177l-5.677-4.98c-0.1-0.088-0.237-0.124-0.368-0.096
		c-0.089,0.019-0.873,0.204-1.112,0.83c-0.099,0.26-0.135,0.684,0.261,1.227C13.613,4.775,13.6,5,13.585,5.286
		c-0.007,0.134-0.008,0.265,0.007,0.392c-0.489,0.276-1.266,0.611-1.692,0.478c-0.128-0.04-0.288-0.093-0.472-0.153
		c-2.029-0.667-3.15-0.955-3.645-0.684c-0.281,0.155-0.457,0.454-0.48,0.822C7.257,6.839,7.741,7.666,8.534,8.248
		c0.024,0.018,0.05,0.033,0.078,0.045c0.269,0.12,0.33,0.259,0.453,0.536c0.328,0.74,0.808,1.455,3.047,2.052
		c0.75,0.2,1.09,0.522,1.239,0.888c-0.299,0.234-0.929,0.528-2.128-0.103c-1.148-0.605-2.154-0.158-3.04,0.236
		c-0.734,0.326-1.368,0.607-2.03,0.343c-0.702-0.281-1.264-0.273-1.67,0.025c-0.579,0.426-0.535,1.232-0.528,1.323
		c0.012,0.153,0.106,0.276,0.234,0.34l2.635,3.607c-0.61,0.518-1.805,1.543-2.038,1.823c-0.229,0.276-0.185,0.7,0.111,1.057
		c0.114,0.137,0.265,0.259,0.438,0.346c0.016,0.091,0.051,0.187,0.114,0.285c0.211,0.325,0.699,0.622,1.212,0.622
		c0.201,0,0.406-0.046,0.599-0.153c0.476-0.264,1.22-0.798,1.655-1.118l1.096,1.501c0.06,0.082,0.148,0.14,0.247,0.163
		c0.053,0.012,0.704,0.158,1.645,0.158c0.938,0,2.165-0.145,3.373-0.71c1.956-0.915,4.081-3.388,4.839-4.323
		c0.534,0.397,1.658,0.944,3.624,0.699c0.177-0.022,0.321-0.152,0.36-0.326l0.248-1.087c0.097-0.039,0.219-0.09,0.355-0.153
		l2.046,3.372c0.078,0.128,0.216,0.204,0.362,0.204c0.032,0,0.064-0.004,0.095-0.011c0.076-0.018,1.871-0.449,2.698-2.091
		C29.989,17.628,29.951,17.423,29.812,17.295z M21.595,12.165c-0.182-0.125-0.537-0.338-0.913-0.401l-0.02-0.293
		c0.049,0.002,0.099,0.004,0.152,0.004c0.655,0,1.53-0.193,1.916-0.66c0.131-0.159,0.563-0.111,0.943,0.001
		C23.509,11.323,23.01,12.231,21.595,12.165z M22.628,12.902l0.963,1.588c-0.081,0.055-0.159,0.113-0.232,0.176
		c-0.371-0.308-0.825-0.796-0.817-1.187c0.003-0.182-0.06-0.358-0.155-0.519C22.47,12.944,22.549,12.924,22.628,12.902z
		 M24.343,14.097l-0.941-1.551l0.001-0.001l1.473,1.356C24.696,13.961,24.517,14.025,24.343,14.097z M23.081,8.375
		c0.641,0.29,0.904,0.833,0.785,1.615c-0.524-0.148-1.339-0.257-1.788,0.286c-0.227,0.275-1.087,0.397-1.472,0.349l-0.139-2.053
		C20.844,8.23,22.13,7.944,23.081,8.375z M7.325,18.224l0.384,0.526c-0.438,0.361-1.247,1.011-1.693,1.259
		c-0.06,0.033-0.155,0.071-0.291,0.006c-0.106-0.05-0.179-0.133-0.214-0.191C5.792,19.541,6.645,18.801,7.325,18.224z M6.848,20.777
		c-0.101,0.056-0.222,0.064-0.36,0.022c-0.033-0.01-0.058-0.025-0.087-0.038c0.009-0.005,0.018-0.008,0.026-0.013
		c0.493-0.274,1.315-0.93,1.782-1.314l0.205,0.281C7.996,20.023,7.281,20.536,6.848,20.777z M23.843,15.762
		c-0.136,0.049-0.238,0.164-0.271,0.304l-0.231,1.012c-2.149,0.184-2.911-0.727-2.94-0.763c-0.08-0.105-0.205-0.167-0.337-0.168
		h-0.001c-0.132,0-0.256,0.062-0.337,0.167c-0.014,0.019-0.843,1.098-1.957,2.219c-0.054-0.015-0.111-0.019-0.17-0.011
		c-0.547,0.076-1.146-0.131-1.675-0.314c-0.25-0.087-0.465-0.169-0.565-0.304c-0.14-0.188-0.405-0.227-0.593-0.087
		c-0.188,0.139-0.227,0.405-0.087,0.592c0.264,0.356,0.671,0.496,0.968,0.599c0.372,0.129,0.802,0.278,1.257,0.343
		c-0.162,0.144-0.327,0.284-0.493,0.418c-0.031-0.007-0.062-0.012-0.095-0.012c-0.002,0-0.004,0-0.006,0
		c-0.342,0.005-0.684-0.042-1.014-0.138c-0.489-0.142-0.963-0.4-1.423-0.648c-0.205-0.111-0.462-0.035-0.574,0.171
		c-0.111,0.206-0.035,0.463,0.171,0.574c0.498,0.27,1.013,0.549,1.589,0.717c0.099,0.029,0.199,0.054,0.3,0.076
		c-0.149,0.087-0.297,0.167-0.443,0.235c-1.834,0.858-3.777,0.615-4.32,0.522l-5.788-7.923c0.018-0.141,0.065-0.312,0.178-0.393
		c0.147-0.107,0.457-0.078,0.852,0.08c0.995,0.398,1.895-0.002,2.689-0.355c0.418-0.186,0.808-0.358,1.194-0.426
		c-0.265,0.288-0.483,0.619-0.638,0.98c-0.092,0.215,0.007,0.464,0.222,0.556c0.054,0.023,0.111,0.034,0.167,0.034
		c0.164,0,0.321-0.096,0.39-0.256c0.191-0.445,0.512-0.827,0.906-1.106c-0.252,0.525-0.417,1.082-0.483,1.663
		c-0.026,0.232,0.141,0.442,0.373,0.468c0.016,0.002,0.032,0.003,0.048,0.003c0.212,0,0.396-0.16,0.42-0.376
		c0.059-0.519,0.21-1.018,0.446-1.483c0.593,0.191,1.257,0.247,1.879-0.044c-0.002,0.04-0.004,0.08-0.007,0.119
		c-0.014,0.232-0.026,0.432,0.029,0.623c0.185,0.65,0.549,1.928,2.692,1.928c0.259,0,0.545-0.019,0.859-0.06
		c0.232-0.03,0.395-0.243,0.365-0.475s-0.238-0.393-0.474-0.365c-2.187,0.284-2.432-0.572-2.631-1.274
		c-0.011-0.049-0.001-0.21,0.006-0.327c0.017-0.279,0.039-0.674-0.057-1.087c0-0.001,0-0.002-0.001-0.003
		c-0.155-0.66-0.615-1.363-1.903-1.706c-0.15-0.04-0.287-0.08-0.418-0.12c0.266-0.157,0.51-0.35,0.715-0.582
		c0.155-0.175,0.139-0.443-0.036-0.598s-0.443-0.139-0.598,0.036c-0.232,0.262-0.528,0.463-0.856,0.582
		c-0.096,0.035-0.17,0.102-0.218,0.183c-0.187-0.092-0.337-0.183-0.461-0.273c0.319-0.193,0.617-0.419,0.888-0.676
		c0.17-0.161,0.176-0.429,0.015-0.599c-0.161-0.17-0.429-0.177-0.599-0.015c-0.258,0.245-0.546,0.456-0.856,0.631
		C9.882,8.583,9.86,8.534,9.839,8.486C9.695,8.16,9.532,7.793,9.002,7.54C8.385,7.076,8.127,6.52,8.148,6.196
		C8.153,6.112,8.176,6.07,8.173,6.07c0.389-0.115,2.347,0.527,2.99,0.739c0.188,0.062,0.352,0.116,0.483,0.157
		c0.79,0.248,1.835-0.248,2.359-0.545c0.183,0.152,0.441,0.298,0.804,0.437c0.604,0.231,0.578,0.515,0.404,1.378
		c-0.126,0.625-0.283,1.402,0.088,2.17c0.121,0.25,0.209,0.541,0.296,0.849c0.001,0.078,0.022,0.151,0.06,0.215
		c0.394,1.413,0.912,3.151,4.28,3.775c0.228,0.042,0.451-0.109,0.493-0.339c0.043-0.23-0.109-0.451-0.339-0.494
		c-2.569-0.476-3.151-1.609-3.506-2.783c0.256-0.06,0.5-0.169,0.708-0.333c0.184-0.144,0.216-0.411,0.071-0.595
		c-0.144-0.184-0.411-0.215-0.594-0.071c-0.12,0.094-0.267,0.155-0.42,0.184c-0.043-0.144-0.089-0.286-0.14-0.424
		c0.256-0.005,0.51-0.066,0.742-0.183c0.209-0.105,0.293-0.36,0.187-0.569c-0.106-0.209-0.36-0.292-0.569-0.187
		c-0.183,0.092-0.401,0.117-0.6,0.07c-0.015-0.004-0.03-0.004-0.045-0.006c-0.032-0.364,0.041-0.742,0.116-1.112
		c0.157-0.776,0.371-1.839-0.932-2.337c-0.705-0.27-0.699-0.387-0.68-0.734c0.018-0.323,0.044-0.811-0.373-1.386
		c-0.132-0.182-0.189-0.337-0.155-0.426c0.035-0.093,0.172-0.183,0.311-0.243l5.365,4.706l0.197,2.917c0,0,0,0,0,0.001v0.001
		l0.09,1.326c0.009,0.13,0.09,0.244,0.198,0.317s0.256,0.088,0.381,0.048c0.033-0.01,0.226-0.008,0.569,0.201
		c0.416,0.253,0.665,0.576,0.682,0.667c-0.021,1.091,1.318,2.015,1.471,2.116c0.183,0.121,0.428,0.083,0.565-0.088
		c0.387-0.484,1.253-0.745,2.017-0.976c0.032-0.01,0.064-0.019,0.095-0.029C25.537,15.003,24.477,15.535,23.843,15.762z
		 M27.299,18.971l-1.846-3.043c0.317-0.193,0.632-0.425,0.874-0.69l2.662,2.451C28.494,18.44,27.715,18.815,27.299,18.971z"/>
</g>
</svg>
