<?xml version="1.0" encoding="utf-8"?>
<!-- Generator: Adobe Illustrator 17.0.0, SVG Export Plug-In . SVG Version: 6.00 Build 0)  -->
<!DOCTYPE svg PUBLIC "-//W3C//DTD SVG 1.1//EN" "http://www.w3.org/Graphics/SVG/1.1/DTD/svg11.dtd">
<svg version="1.1" id="Layer_1" xmlns="http://www.w3.org/2000/svg" xmlns:xlink="http://www.w3.org/1999/xlink" x="0px" y="0px"
	 width="33.9px" height="28.6px" viewBox="0 0 33.9 28.6" enable-background="new 0 0 33.9 28.6" xml:space="preserve">
<g>
	<path fill="#231F20" d="M33.9,28.6H0V0h33.9V28.6z M1,27.6h31.9V1H1V27.6z"/>
</g>
<g id="Layer_2">
</g>
<rect x="0.5" y="0.5" fill="#FFFFFF" width="32.9" height="27.6"/>
<rect x="0" y="23.418" fill="none" width="33.9" height="4.682"/>
<g enable-background="new    ">
	<path d="M13.133,23.492c0.146,0,0.281,0.021,0.402,0.061s0.227,0.097,0.315,0.171c0.088,0.073,0.157,0.16,0.205,0.261
		s0.073,0.212,0.073,0.336c0,0.171-0.045,0.311-0.135,0.419s-0.23,0.196-0.42,0.264c0.243,0.047,0.432,0.149,0.565,0.31
		s0.2,0.36,0.2,0.601c0,0.156-0.03,0.302-0.09,0.438c-0.06,0.135-0.146,0.25-0.26,0.347c-0.117,0.101-0.242,0.171-0.375,0.213
		s-0.302,0.062-0.505,0.062h-1.61c0.05-0.037,0.089-0.071,0.118-0.105c0.028-0.033,0.051-0.075,0.067-0.125s0.028-0.111,0.033-0.183
		s0.007-0.164,0.007-0.278v-2.093c0-0.08-0.001-0.146-0.002-0.2s-0.005-0.098-0.01-0.133c-0.005-0.035-0.011-0.064-0.018-0.09
		c-0.007-0.025-0.017-0.051-0.03-0.078c-0.02-0.043-0.042-0.078-0.065-0.104c-0.023-0.027-0.057-0.057-0.1-0.091H13.133z
		 M12.668,24.838c0.02,0.007,0.037,0.012,0.05,0.015c0.013,0.004,0.032,0.005,0.055,0.005c0.126,0,0.23-0.042,0.31-0.127
		c0.08-0.085,0.12-0.196,0.12-0.333c0-0.116-0.035-0.212-0.105-0.287c-0.07-0.075-0.158-0.112-0.265-0.112
		c-0.026,0-0.051,0.001-0.075,0.005c-0.023,0.003-0.053,0.012-0.09,0.024V24.838z M12.668,26.418
		c0.073,0.043,0.155,0.064,0.245,0.064c0.15,0,0.268-0.054,0.353-0.162s0.127-0.261,0.127-0.458c0-0.373-0.198-0.56-0.595-0.56
		c-0.014,0-0.032,0-0.055,0s-0.048,0.002-0.075,0.005V26.418z"/>
	<path d="M15.912,26.393c0.074,0.026,0.153,0.046,0.238,0.058s0.196,0.018,0.333,0.018c0.183,0,0.333-0.021,0.447-0.065
		c0.115-0.043,0.221-0.118,0.318-0.225l-0.195,0.795h-2.33c0.05-0.037,0.089-0.072,0.118-0.107s0.051-0.077,0.067-0.128
		c0.017-0.05,0.028-0.11,0.033-0.183c0.005-0.071,0.007-0.164,0.007-0.277v-2.085c0-0.08-0.001-0.146-0.002-0.2
		c-0.001-0.053-0.005-0.097-0.01-0.132c-0.005-0.035-0.011-0.065-0.018-0.09c-0.007-0.025-0.017-0.051-0.03-0.078
		c-0.02-0.043-0.042-0.078-0.065-0.104c-0.023-0.027-0.057-0.057-0.1-0.09h1.9c0.046,0,0.082-0.002,0.105-0.006
		c0.023-0.003,0.048-0.011,0.075-0.024v0.77c-0.066-0.086-0.138-0.145-0.215-0.175s-0.19-0.045-0.34-0.045h-0.335v0.85h0.555
		c0.033,0,0.061-0.001,0.083-0.005c0.021-0.003,0.046-0.012,0.073-0.024v0.734c-0.023-0.036-0.047-0.067-0.07-0.092
		c-0.023-0.025-0.05-0.045-0.08-0.061c-0.03-0.015-0.065-0.024-0.105-0.029c-0.04-0.006-0.088-0.008-0.145-0.008h-0.31V26.393z"/>
	<path d="M18.633,26.383c0.087,0.033,0.168,0.056,0.245,0.067c0.076,0.012,0.177,0.018,0.3,0.018c0.073,0,0.141-0.004,0.202-0.013
		c0.062-0.008,0.12-0.021,0.176-0.037c0.055-0.017,0.109-0.04,0.165-0.07c0.055-0.03,0.112-0.066,0.172-0.11l-0.2,0.735h-2.25
		c0.051-0.037,0.09-0.072,0.118-0.107s0.051-0.077,0.067-0.128c0.017-0.05,0.027-0.11,0.032-0.183
		c0.005-0.071,0.008-0.164,0.008-0.277v-2.09c0-0.08-0.001-0.146-0.003-0.197c-0.001-0.052-0.005-0.096-0.01-0.133
		c-0.005-0.036-0.011-0.066-0.018-0.09s-0.017-0.048-0.03-0.075c-0.02-0.046-0.041-0.082-0.064-0.107
		c-0.023-0.024-0.057-0.054-0.101-0.087h1.415c-0.046,0.036-0.084,0.072-0.112,0.107s-0.053,0.079-0.072,0.133
		c-0.01,0.02-0.018,0.042-0.022,0.064c-0.005,0.023-0.009,0.052-0.01,0.086c-0.002,0.033-0.004,0.074-0.005,0.122
		c-0.002,0.049-0.003,0.108-0.003,0.178V26.383z"/>
	<path d="M21.307,26.383c0.087,0.033,0.168,0.056,0.245,0.067c0.076,0.012,0.177,0.018,0.3,0.018c0.073,0,0.141-0.004,0.202-0.013
		c0.062-0.008,0.12-0.021,0.176-0.037c0.055-0.017,0.109-0.04,0.165-0.07c0.055-0.03,0.112-0.066,0.172-0.11l-0.2,0.735h-2.25
		c0.051-0.037,0.09-0.072,0.118-0.107s0.051-0.077,0.067-0.128c0.017-0.05,0.027-0.11,0.032-0.183
		c0.005-0.071,0.008-0.164,0.008-0.277v-2.09c0-0.08-0.001-0.146-0.003-0.197c-0.001-0.052-0.005-0.096-0.01-0.133
		c-0.005-0.036-0.011-0.066-0.018-0.09s-0.017-0.048-0.03-0.075c-0.02-0.046-0.041-0.082-0.064-0.107
		c-0.023-0.024-0.057-0.054-0.101-0.087h1.415c-0.046,0.036-0.084,0.072-0.112,0.107s-0.053,0.079-0.072,0.133
		c-0.01,0.02-0.018,0.042-0.022,0.064c-0.005,0.023-0.009,0.052-0.01,0.086c-0.002,0.033-0.004,0.074-0.005,0.122
		c-0.002,0.049-0.003,0.108-0.003,0.178V26.383z"/>
</g>
<g>
	<path d="M26.642,16.721c-0.139-0.065-0.285-0.086-0.426-0.106c-0.326-0.046-0.858-0.124-1.384-1.256
		c-0.003-0.008-0.007-0.016-0.011-0.024c-0.376-0.819-0.748-2.178-1.041-4.456c-0.597-4.644-2.623-6.091-4.304-6.541
		c-0.006-1.099-1.159-1.96-2.63-1.96c-1.475,0-2.63,0.865-2.63,1.968c0,0.017,0.004,0.034,0.004,0.051
		c-1.638,0.513-3.527,2.024-4.1,6.481c-0.292,2.273-0.664,3.632-1.039,4.452c-0.005,0.01-0.01,0.02-0.014,0.03
		c-0.526,1.13-1.057,1.208-1.383,1.254c-0.141,0.02-0.287,0.041-0.426,0.106c-0.408,0.19-0.594,0.748-0.461,1.389
		c0.197,0.953,1.063,1.991,2.904,2.044c0.449,0.013,0.792-0.028,1.071-0.104c0.557,0.233,2.511,0.945,5.585,0.945
		c0.638,0,1.326-0.032,2.057-0.104c0.453,0.794,1.306,1.331,2.284,1.331c1.282,0,2.351-0.922,2.583-2.138
		c0.214,0.045,0.459,0.074,0.758,0.074c0.052,0,0.106-0.001,0.161-0.003c1.841-0.053,2.707-1.091,2.904-2.044
		C27.236,17.47,27.05,16.912,26.642,16.721z M10.808,12.128v-0.001c0.483-3.53,6.057-3.193,6.113-3.189
		c0.019,0.001,0.04,0.001,0.059,0c0.056-0.003,5.631-0.341,6.113,3.189l0,0c0.205,1.267,0.444,2.23,0.704,2.962H10.104
		C10.364,14.357,10.603,13.395,10.808,12.128z M16.846,3.238c0.868,0,1.612,0.415,1.747,0.939c-0.401-0.042-0.754-0.043-1.024-0.043
		c-0.122,0-0.239,0.001-0.35,0.003c-0.191,0.003-0.35,0.002-0.54,0c-0.11-0.001-0.227-0.003-0.35-0.003
		c-0.317,0-0.749,0-1.239,0.069C15.208,3.667,15.963,3.238,16.846,3.238z M16.33,4.994c0.119,0,0.232,0.001,0.339,0.003
		c0.197,0.002,0.363,0.002,0.561,0c0.107-0.001,0.221-0.003,0.339-0.003c1.368,0,4.091,0.004,5.123,4.649
		c-0.633-0.568-1.489-0.994-2.559-1.261c-1.518-0.379-2.955-0.316-3.184-0.302c-0.23-0.014-1.666-0.077-3.184,0.302
		c-1.087,0.271-1.954,0.707-2.59,1.289C11.576,7.63,12.629,4.994,16.33,4.994z M11.781,19.496c0.012-0.009,0.024-0.018,0.035-0.027
		c0.649-0.504,1.457-1.132,5.134-1.132c0.531,0,0.996,0.014,1.415,0.038c-0.194,0.371-0.298,0.786-0.298,1.216
		c0,0.158,0.016,0.312,0.043,0.462C15.084,20.317,12.883,19.837,11.781,19.496z M20.698,21.362c-0.977,0-1.771-0.795-1.771-1.771
		c0-0.419,0.145-0.815,0.41-1.133c1.707,0.207,2.272,0.641,2.747,1.01c0.123,0.096,0.245,0.189,0.378,0.276
		C22.383,20.649,21.623,21.362,20.698,21.362z M26.153,18.255c-0.177,0.372-0.67,1.002-1.979,1.04
		c-0.871,0.026-1.133-0.171-1.564-0.506c-0.713-0.554-1.69-1.313-5.661-1.313s-4.948,0.759-5.661,1.313
		c-0.408,0.317-0.653,0.508-1.427,0.508l0,0c-0.044,0-0.089-0.001-0.136-0.002c-1.308-0.038-1.802-0.668-1.979-1.04
		c-0.171-0.358-0.143-0.667-0.098-0.763c0.04-0.009,0.105-0.019,0.156-0.026c0.643-0.091,1.328-0.335,1.935-1.517h14.42
		c0.607,1.182,1.293,1.426,1.935,1.517c0.051,0.007,0.117,0.017,0.156,0.026C26.296,17.588,26.324,17.897,26.153,18.255z"/>
</g>
</svg>
