<?xml version="1.0" encoding="utf-8"?>
<!-- Generator: Adobe Illustrator 17.0.0, SVG Export Plug-In . SVG Version: 6.00 Build 0)  -->
<!DOCTYPE svg PUBLIC "-//W3C//DTD SVG 1.1//EN" "http://www.w3.org/Graphics/SVG/1.1/DTD/svg11.dtd">
<svg version="1.1" id="Layer_1" xmlns="http://www.w3.org/2000/svg" xmlns:xlink="http://www.w3.org/1999/xlink" x="0px" y="0px"
	 width="33.9px" height="28.6px" viewBox="0 0 33.9 28.6" enable-background="new 0 0 33.9 28.6" xml:space="preserve">
<g>
	<path fill="#231F20" d="M33.9,28.6H0V0h33.9V28.6z M1,27.6h31.9V1H1V27.6z"/>
</g>
<g id="Layer_2">
</g>
<rect x="0.5" y="0.5" fill="#FFFFFF" width="32.9" height="27.6"/>
<rect x="0" y="23.418" fill="none" width="33.9" height="4.682"/>
<g enable-background="new    ">
	<path d="M10.213,26.913c-0.164,0.046-0.322,0.079-0.475,0.1c-0.153,0.02-0.337,0.03-0.55,0.03c-0.13,0-0.25-0.006-0.36-0.018
		s-0.212-0.03-0.308-0.056c-0.095-0.024-0.186-0.057-0.272-0.097c-0.086-0.04-0.173-0.089-0.26-0.146
		c-0.26-0.17-0.462-0.385-0.605-0.645c-0.144-0.261-0.215-0.545-0.215-0.855c0-0.27,0.056-0.525,0.167-0.768
		c0.112-0.241,0.266-0.442,0.463-0.603c0.173-0.14,0.382-0.246,0.627-0.319s0.507-0.11,0.788-0.11c0.126,0,0.255,0.006,0.385,0.018
		s0.258,0.029,0.385,0.053l0.04,0.734c-0.15-0.097-0.291-0.166-0.422-0.207c-0.132-0.042-0.274-0.062-0.427-0.062
		c-0.304,0-0.534,0.104-0.693,0.31c-0.158,0.207-0.237,0.507-0.237,0.9c0,0.206,0.027,0.392,0.08,0.555s0.129,0.304,0.228,0.42
		c0.098,0.117,0.217,0.206,0.357,0.268s0.298,0.093,0.475,0.093c0.083,0,0.165-0.006,0.245-0.018c0.08-0.012,0.163-0.03,0.248-0.055
		c0.085-0.025,0.177-0.059,0.275-0.101c0.098-0.041,0.208-0.093,0.327-0.152L10.213,26.913z"/>
	<path d="M12.707,23.498l1.02,2.774c0.033,0.094,0.063,0.171,0.09,0.232c0.027,0.062,0.055,0.118,0.085,0.168
		c0.03,0.05,0.065,0.098,0.105,0.143c0.04,0.045,0.09,0.098,0.15,0.157h-1.525c0.083-0.066,0.14-0.122,0.17-0.168
		c0.03-0.045,0.045-0.096,0.045-0.152c0-0.036-0.005-0.076-0.015-0.12c-0.01-0.043-0.03-0.107-0.06-0.194l-0.14-0.42h-1.05
		l-0.145,0.42c-0.03,0.08-0.051,0.145-0.062,0.194c-0.012,0.051-0.018,0.094-0.018,0.131c0,0.053,0.012,0.098,0.035,0.135
		c0.023,0.036,0.077,0.095,0.16,0.175h-1.085c0.057-0.06,0.103-0.112,0.14-0.157s0.069-0.093,0.098-0.143s0.055-0.108,0.08-0.175
		c0.025-0.067,0.054-0.152,0.087-0.256l0.71-2.064c0.023-0.066,0.042-0.12,0.055-0.16c0.013-0.04,0.023-0.072,0.03-0.098
		c0.007-0.024,0.011-0.045,0.013-0.06c0.001-0.016,0.002-0.031,0.002-0.048c0-0.057-0.014-0.107-0.042-0.152s-0.081-0.1-0.158-0.162
		H12.707z M12.087,24.383l-0.35,1.045h0.72L12.087,24.383z"/>
	<path d="M14.238,26.973c0.086-0.094,0.147-0.19,0.183-0.293c0.035-0.102,0.052-0.238,0.052-0.412v-1.95
		c0-0.1-0.004-0.186-0.012-0.257c-0.009-0.072-0.024-0.138-0.048-0.198c-0.023-0.06-0.054-0.118-0.092-0.175
		c-0.039-0.057-0.089-0.12-0.152-0.189h1.085l1.64,2.17v-1.465c0-0.091-0.003-0.169-0.01-0.235c-0.007-0.066-0.02-0.127-0.038-0.18
		c-0.019-0.054-0.042-0.103-0.072-0.147c-0.03-0.046-0.068-0.093-0.115-0.143h1.01c-0.047,0.046-0.085,0.093-0.115,0.14
		c-0.029,0.047-0.053,0.098-0.069,0.152c-0.018,0.055-0.029,0.116-0.038,0.183c-0.008,0.066-0.013,0.144-0.013,0.23v2.875
		c-0.287-0.058-0.54-0.158-0.76-0.303c-0.22-0.146-0.415-0.341-0.585-0.588l-1.07-1.415v1.495c0,0.087,0.004,0.163,0.013,0.23
		c0.008,0.066,0.021,0.126,0.038,0.18c0.017,0.054,0.04,0.104,0.07,0.15c0.03,0.046,0.068,0.095,0.115,0.145H14.238z"/>
	<path d="M19.232,23.498c0.211,0,0.388,0.004,0.533,0.012c0.145,0.009,0.271,0.024,0.38,0.048s0.204,0.055,0.287,0.093
		c0.084,0.038,0.169,0.089,0.255,0.152c0.221,0.16,0.392,0.364,0.513,0.612c0.122,0.248,0.183,0.522,0.183,0.822
		c0,0.174-0.021,0.34-0.062,0.498s-0.101,0.305-0.178,0.439c-0.076,0.136-0.17,0.256-0.279,0.363c-0.11,0.106-0.233,0.193-0.37,0.26
		c-0.07,0.036-0.142,0.065-0.213,0.087c-0.071,0.022-0.152,0.04-0.242,0.053c-0.09,0.014-0.194,0.022-0.312,0.027
		s-0.26,0.008-0.423,0.008h-1.26c0.05-0.037,0.089-0.071,0.117-0.105c0.028-0.033,0.051-0.074,0.067-0.125
		c0.017-0.05,0.028-0.11,0.033-0.182c0.005-0.072,0.007-0.164,0.007-0.278v-2.074c0-0.087-0.001-0.158-0.002-0.213
		c-0.002-0.055-0.005-0.1-0.01-0.135c-0.006-0.035-0.012-0.065-0.018-0.09c-0.007-0.025-0.018-0.051-0.03-0.078
		c-0.021-0.046-0.042-0.082-0.065-0.107c-0.023-0.024-0.057-0.054-0.1-0.087H19.232z M19.232,26.393
		c0.051,0.017,0.097,0.028,0.141,0.035c0.043,0.007,0.093,0.01,0.149,0.01c0.157,0,0.284-0.024,0.383-0.072
		c0.099-0.049,0.185-0.131,0.258-0.248c0.144-0.223,0.215-0.511,0.215-0.864c0-0.187-0.02-0.356-0.058-0.508
		s-0.094-0.28-0.167-0.388c-0.074-0.106-0.161-0.188-0.263-0.247s-0.216-0.088-0.343-0.088c-0.047,0-0.094,0.003-0.14,0.008
		c-0.047,0.005-0.105,0.016-0.176,0.032V26.393z"/>
	<path d="M22.937,26.383c0.087,0.033,0.168,0.056,0.245,0.067c0.076,0.012,0.177,0.018,0.3,0.018c0.073,0,0.141-0.004,0.202-0.013
		c0.062-0.008,0.12-0.021,0.176-0.037c0.055-0.017,0.109-0.04,0.165-0.07c0.055-0.03,0.112-0.066,0.172-0.11l-0.2,0.735h-2.25
		c0.051-0.037,0.09-0.072,0.118-0.107s0.051-0.077,0.067-0.128c0.017-0.05,0.027-0.11,0.032-0.183
		c0.005-0.071,0.008-0.164,0.008-0.277v-2.09c0-0.08-0.001-0.146-0.003-0.197c-0.001-0.052-0.005-0.096-0.01-0.133
		c-0.005-0.036-0.011-0.066-0.018-0.09s-0.017-0.048-0.03-0.075c-0.02-0.046-0.041-0.082-0.064-0.107
		c-0.023-0.024-0.057-0.054-0.101-0.087h1.415c-0.046,0.036-0.084,0.072-0.112,0.107s-0.053,0.079-0.072,0.133
		c-0.01,0.02-0.018,0.042-0.022,0.064c-0.005,0.023-0.009,0.052-0.01,0.086c-0.002,0.033-0.004,0.074-0.005,0.122
		c-0.002,0.049-0.003,0.108-0.003,0.178V26.383z"/>
	<path d="M25.612,26.393c0.074,0.026,0.153,0.046,0.238,0.058s0.195,0.018,0.332,0.018c0.184,0,0.333-0.021,0.447-0.065
		c0.115-0.043,0.221-0.118,0.318-0.225l-0.195,0.795h-2.33c0.05-0.037,0.089-0.072,0.117-0.107s0.051-0.077,0.067-0.128
		c0.017-0.05,0.028-0.11,0.033-0.183c0.005-0.071,0.007-0.164,0.007-0.277v-2.085c0-0.08-0.001-0.146-0.002-0.2
		c-0.002-0.053-0.005-0.097-0.01-0.132c-0.006-0.035-0.012-0.065-0.018-0.09c-0.007-0.025-0.018-0.051-0.03-0.078
		c-0.021-0.043-0.042-0.078-0.065-0.104c-0.023-0.027-0.057-0.057-0.1-0.09h1.9c0.046,0,0.081-0.002,0.104-0.006
		c0.023-0.003,0.048-0.011,0.075-0.024v0.77c-0.066-0.086-0.139-0.145-0.215-0.175c-0.077-0.03-0.19-0.045-0.34-0.045h-0.336v0.85
		h0.556c0.033,0,0.061-0.001,0.082-0.005c0.021-0.003,0.046-0.012,0.073-0.024v0.734c-0.023-0.036-0.047-0.067-0.07-0.092
		c-0.023-0.025-0.05-0.045-0.08-0.061c-0.03-0.015-0.065-0.024-0.105-0.029c-0.04-0.006-0.088-0.008-0.145-0.008h-0.311V26.393z"/>
</g>
<g>
	<path d="M26.907,17.412c-0.08-0.109-0.208-0.174-0.343-0.174H21.3V9.102c0-0.001,0-0.002,0-0.003c0-0.033-0.004-0.066-0.013-0.098
		c-0.002-0.008-0.005-0.016-0.008-0.024c-0.005-0.016-0.009-0.033-0.016-0.049c-0.003-0.007-0.007-0.012-0.011-0.019
		c-0.005-0.01-0.01-0.019-0.016-0.028c-0.012-0.02-0.026-0.039-0.041-0.057c-0.006-0.007-0.012-0.014-0.018-0.021
		c-0.023-0.023-0.047-0.044-0.075-0.061l-0.001-0.001l0,0C21.1,8.74,21.099,8.74,21.098,8.739c-1.335-0.839-2.599-1.185-3.722-1.256
		V7.372C18.163,7.18,18.75,6.47,18.75,5.624c0-0.844-1.204-2.703-1.445-3.067c-0.158-0.238-0.552-0.238-0.71,0
		C16.354,2.921,15.15,4.78,15.15,5.624c0,0.846,0.587,1.555,1.374,1.747v0.107c-2.243,0.126-3.738,1.269-3.762,1.288l-0.001,0.001
		c-0.024,0.019-0.046,0.04-0.065,0.065c-0.005,0.006-0.009,0.013-0.013,0.019C12.671,8.868,12.66,8.883,12.65,8.9
		c-0.002,0.003-0.002,0.006-0.004,0.009c-0.005,0.009-0.008,0.019-0.012,0.029c-0.008,0.019-0.015,0.038-0.02,0.057
		c-0.003,0.01-0.004,0.02-0.006,0.03c-0.004,0.021-0.006,0.041-0.007,0.062c0,0.005-0.002,0.01-0.002,0.015v8.137H7.336
		c-0.136,0-0.263,0.065-0.343,0.174s-0.104,0.25-0.063,0.38c0.14,0.444,1.43,4.345,3.636,4.429h12.769c0.006,0,0.011,0,0.016,0
		c2.189-0.084,3.479-3.984,3.619-4.429C27.011,17.663,26.988,17.522,26.907,17.412z M16.002,5.624c0-0.345,0.48-1.263,0.949-2.036
		c0.503,0.83,0.948,1.72,0.948,2.036c0,0.523-0.426,0.948-0.949,0.948S16.002,6.147,16.002,5.624z M16.95,9.122
		c0.235,0,0.426-0.191,0.426-0.426V8.334c0.768,0.057,1.612,0.262,2.504,0.7c-2.579,0.877-4.81,0.374-5.915-0.006
		c0.565-0.288,1.454-0.633,2.559-0.7v0.368C16.524,8.932,16.715,9.122,16.95,9.122z M13.451,14.521
		c0.033,0.03,0.076,0.051,0.134,0.051c0.275,0,0.275-0.426,0-0.426c-0.058,0-0.101,0.021-0.134,0.051v-1.066
		c0.033,0.03,0.076,0.051,0.134,0.051c0.275,0,0.275-0.426,0-0.426c-0.058,0-0.101,0.021-0.134,0.051v-0.381
		c0.008,0.001,0.013,0.004,0.021,0.004c0.275,0,0.275-0.426,0-0.426c-0.008,0-0.014,0.004-0.021,0.004V9.753
		c0.697,0.268,1.926,0.631,3.475,0.631c1.051,0,2.248-0.169,3.522-0.648v3.881c-0.031-0.062-0.089-0.109-0.179-0.109
		c-0.275,0-0.275,0.426,0,0.426c0.09,0,0.148-0.048,0.179-0.109v3.414H19.52c0.273-0.002,0.272-0.426-0.002-0.426
		s-0.274,0.424-0.002,0.426h-0.869c0.06-0.126,0.002-0.313-0.181-0.313s-0.241,0.187-0.181,0.313h-1.47
		c0.273-0.002,0.272-0.426-0.002-0.426s-0.274,0.424-0.002,0.426h-3.362v-2.718H13.451z M24.039,21.088
		c-0.012-0.095-0.077-0.182-0.201-0.182c-0.216,0-0.259,0.26-0.136,0.373c-0.124,0.051-0.249,0.084-0.376,0.09h-0.434
		c0.06-0.126,0.002-0.313-0.181-0.313s-0.241,0.187-0.181,0.313H11.834c0.012-0.114-0.054-0.238-0.202-0.238
		s-0.214,0.124-0.202,0.238h-0.848c-1.156-0.044-2.167-2.044-2.644-3.28h18.023c-0.146,0.374-0.345,0.826-0.584,1.273
		c-0.031-0.02-0.066-0.034-0.112-0.034c-0.237,0-0.268,0.316-0.097,0.403c-0.128,0.215-0.263,0.422-0.407,0.614
		c-0.136,0.009-0.198,0.125-0.187,0.235C24.404,20.782,24.224,20.955,24.039,21.088z"/>
	<path d="M9.229,18.465c-0.275,0-0.275,0.426,0,0.426C9.503,18.891,9.503,18.465,9.229,18.465z"/>
	<path d="M10.093,18.878c-0.275,0-0.275,0.426,0,0.426C10.367,19.304,10.367,18.878,10.093,18.878z"/>
	<path d="M11.107,19.53c0.275,0,0.275-0.426,0-0.426C10.832,19.104,10.832,19.53,11.107,19.53z"/>
	<path d="M12.196,19.404c-0.275,0-0.275,0.426,0,0.426C12.47,19.83,12.47,19.404,12.196,19.404z"/>
	<path d="M13.247,19.817c-0.275,0-0.275,0.426,0,0.426C13.522,20.243,13.522,19.817,13.247,19.817z"/>
	<path d="M12.196,20.531c-0.275,0-0.275,0.426,0,0.426C12.47,20.957,12.47,20.531,12.196,20.531z"/>
	<path d="M13.435,20.869c-0.275,0-0.275,0.426,0,0.426S13.71,20.869,13.435,20.869z"/>
	<path d="M14.449,20.869c-0.275,0-0.275,0.426,0,0.426S14.724,20.869,14.449,20.869z"/>
	<path d="M10.806,20.756c-0.275,0-0.275,0.426,0,0.426C11.081,21.182,11.081,20.756,10.806,20.756z"/>
	<path d="M11.182,20.155c-0.275,0-0.275,0.426,0,0.426C11.456,20.581,11.456,20.155,11.182,20.155z"/>
	<path d="M10.205,19.78c-0.275,0-0.275,0.426,0,0.426C10.48,20.206,10.48,19.78,10.205,19.78z"/>
	<path d="M10.28,20.568c-0.275,0-0.275,0.426,0,0.426C10.555,20.994,10.555,20.568,10.28,20.568z"/>
	<path d="M9.417,19.442c-0.275,0-0.275,0.426,0,0.426C9.691,19.868,9.691,19.442,9.417,19.442z"/>
	<path d="M8.741,18.954c-0.275,0-0.275,0.426,0,0.426C9.015,19.379,9.015,18.954,8.741,18.954z"/>
	<path d="M8.403,18.127c-0.275,0-0.275,0.426,0,0.426C8.677,18.553,8.677,18.127,8.403,18.127z"/>
	<path d="M20.27,20.681c-0.275,0-0.275,0.426,0,0.426S20.545,20.681,20.27,20.681z"/>
	<path d="M20.984,20.193c-0.275,0-0.275,0.426,0,0.426S21.258,20.193,20.984,20.193z"/>
	<path d="M21.847,19.742c-0.275,0-0.275,0.426,0,0.426S22.122,19.742,21.847,19.742z"/>
	<path d="M22.373,19.292c-0.275,0-0.275,0.426,0,0.426C22.648,19.717,22.648,19.292,22.373,19.292z"/>
	<path d="M23.725,18.954c-0.275,0-0.275,0.426,0,0.426C24,19.379,24,18.954,23.725,18.954z"/>
	<path d="M24.401,18.353c-0.275,0-0.275,0.426,0,0.426S24.676,18.353,24.401,18.353z"/>
	<path d="M25.378,18.628c0.275,0,0.275-0.426,0-0.426S25.103,18.628,25.378,18.628z"/>
	<path d="M24.101,20.23c-0.275,0-0.275,0.426,0,0.426C24.375,20.656,24.375,20.23,24.101,20.23z"/>
	<path d="M24.138,19.554c-0.275,0-0.275,0.426,0,0.426S24.413,19.554,24.138,19.554z"/>
	<path d="M23.162,19.78c-0.275,0-0.275,0.426,0,0.426S23.436,19.78,23.162,19.78z"/>
	<path d="M23.237,20.418c-0.275,0-0.275,0.426,0,0.426C23.511,20.844,23.511,20.418,23.237,20.418z"/>
	<path d="M22.561,20.381c-0.275,0-0.275,0.426,0,0.426S22.835,20.381,22.561,20.381z"/>
	<path d="M20.908,20.831c-0.275,0-0.275,0.426,0,0.426S21.183,20.831,20.908,20.831z"/>
	<path d="M21.847,20.831c-0.275,0-0.275,0.426,0,0.426S22.122,20.831,21.847,20.831z"/>
	<path d="M14.073,12.995c0.275,0,0.275-0.426,0-0.426C13.799,12.569,13.799,12.995,14.073,12.995z"/>
	<path d="M14.374,13.057c-0.275,0-0.275,0.426,0,0.426C14.648,13.483,14.648,13.057,14.374,13.057z"/>
	<path d="M14.599,14.723c0.275,0,0.275-0.426,0-0.426C14.325,14.297,14.325,14.723,14.599,14.723z"/>
	<path d="M15.425,15.061c0.275,0,0.275-0.426,0-0.426C15.151,14.635,15.151,15.061,15.425,15.061z"/>
	<path d="M14.562,15.311c-0.275,0-0.275,0.426,0,0.426C14.836,15.737,14.836,15.311,14.562,15.311z"/>
	<path d="M15.388,15.799c-0.275,0-0.275,0.426,0,0.426C15.662,16.225,15.662,15.799,15.388,15.799z"/>
	<path d="M14.524,15.987c-0.275,0-0.275,0.426,0,0.426S14.799,15.987,14.524,15.987z"/>
	<path d="M14.749,16.738c-0.275,0-0.275,0.426,0,0.426C15.024,17.164,15.024,16.738,14.749,16.738z"/>
	<path d="M15.538,16.663c-0.275,0-0.275,0.426,0,0.426S15.813,16.663,15.538,16.663z"/>
	<path d="M16.402,16.4c-0.275,0-0.275,0.426,0,0.426C16.676,16.826,16.676,16.4,16.402,16.4z"/>
	<path d="M17.829,17.013c0.275,0,0.275-0.426,0-0.426S17.554,17.013,17.829,17.013z"/>
	<path d="M18.693,16.638c0.275,0,0.275-0.426,0-0.426C18.418,16.212,18.418,16.638,18.693,16.638z"/>
	<path d="M19.481,16.675c0.275,0,0.275-0.426,0-0.426S19.207,16.675,19.481,16.675z"/>
	<path d="M20.045,16.588c-0.275,0-0.275,0.426,0,0.426C20.319,17.013,20.319,16.588,20.045,16.588z"/>
	<path d="M19.819,15.549c0.275,0,0.275-0.426,0-0.426C19.545,15.123,19.545,15.549,19.819,15.549z"/>
	<path d="M19.106,15.774c0.275,0,0.275-0.426,0-0.426C18.831,15.348,18.831,15.774,19.106,15.774z"/>
	<path d="M20.007,14.647c0.275,0,0.275-0.426,0-0.426S19.733,14.647,20.007,14.647z"/>
	<path d="M13.735,16.4c-0.275,0-0.275,0.426,0,0.426C14.01,16.826,14.01,16.4,13.735,16.4z"/>
	<path d="M13.698,15.248c0.275,0,0.275-0.426,0-0.426C13.423,14.823,13.423,15.248,13.698,15.248z"/>
	<path d="M13.886,15.611c-0.275,0-0.275,0.426,0,0.426C14.16,16.037,14.16,15.611,13.886,15.611z"/>
	<path d="M13.698,13.621c-0.275,0-0.275,0.426,0,0.426C13.972,14.047,13.972,13.621,13.698,13.621z"/>
	<path d="M16.064,15.649c-0.275,0-0.275,0.426,0,0.426C16.338,16.075,16.338,15.649,16.064,15.649z"/>
	<path d="M17.266,16.638c0.275,0,0.275-0.426,0-0.426C16.991,16.212,16.991,16.638,17.266,16.638z"/>
	<path d="M18.317,15.999c0.275,0,0.275-0.426,0-0.426S18.043,15.999,18.317,15.999z"/>
	<path d="M19.256,15.023c0.275,0,0.275-0.426,0-0.426S18.981,15.023,19.256,15.023z"/>
</g>
</svg>
