<?xml version="1.0" encoding="utf-8"?>
<!-- Generator: Adobe Illustrator 17.0.0, SVG Export Plug-In . SVG Version: 6.00 Build 0)  -->
<!DOCTYPE svg PUBLIC "-//W3C//DTD SVG 1.1//EN" "http://www.w3.org/Graphics/SVG/1.1/DTD/svg11.dtd">
<svg version="1.1" id="Layer_1" xmlns="http://www.w3.org/2000/svg" xmlns:xlink="http://www.w3.org/1999/xlink" x="0px" y="0px"
	 width="33.9px" height="28.6px" viewBox="0 0 33.9 28.6" enable-background="new 0 0 33.9 28.6" xml:space="preserve">
<g>
	<path fill="#231F20" d="M33.9,28.6H0V0h33.9V28.6z M1,27.6h31.9V1H1V27.6z"/>
</g>
<g id="Layer_2">
</g>
<rect x="0.5" y="0.5" fill="#FFFFFF" width="32.9" height="27.6"/>
<rect x="0" y="23.418" fill="none" width="33.9" height="4.682"/>
<g enable-background="new    ">
	<path d="M13.11,26.913c-0.164,0.046-0.322,0.079-0.475,0.1c-0.153,0.02-0.337,0.03-0.55,0.03c-0.13,0-0.25-0.006-0.36-0.018
		s-0.212-0.03-0.308-0.056c-0.095-0.024-0.186-0.057-0.272-0.097c-0.086-0.04-0.173-0.089-0.26-0.146
		c-0.26-0.17-0.462-0.385-0.605-0.645c-0.144-0.261-0.215-0.545-0.215-0.855c0-0.27,0.056-0.525,0.167-0.768
		c0.112-0.241,0.266-0.442,0.463-0.603c0.173-0.14,0.382-0.246,0.627-0.319s0.507-0.11,0.788-0.11c0.126,0,0.255,0.006,0.385,0.018
		s0.258,0.029,0.385,0.053l0.04,0.734c-0.15-0.097-0.291-0.166-0.422-0.207c-0.132-0.042-0.274-0.062-0.427-0.062
		c-0.304,0-0.534,0.104-0.693,0.31c-0.158,0.207-0.237,0.507-0.237,0.9c0,0.206,0.027,0.392,0.08,0.555s0.129,0.304,0.228,0.42
		c0.098,0.117,0.217,0.206,0.357,0.268s0.298,0.093,0.475,0.093c0.083,0,0.165-0.006,0.245-0.018c0.08-0.012,0.163-0.03,0.248-0.055
		c0.085-0.025,0.177-0.059,0.275-0.101c0.098-0.041,0.208-0.093,0.327-0.152L13.11,26.913z"/>
	<path d="M15.605,23.498l1.02,2.774c0.033,0.094,0.063,0.171,0.09,0.232c0.027,0.062,0.055,0.118,0.085,0.168
		c0.03,0.05,0.065,0.098,0.105,0.143c0.04,0.045,0.09,0.098,0.15,0.157H15.53c0.083-0.066,0.14-0.122,0.17-0.168
		c0.03-0.045,0.045-0.096,0.045-0.152c0-0.036-0.005-0.076-0.015-0.12c-0.01-0.043-0.03-0.107-0.06-0.194l-0.14-0.42h-1.05
		l-0.145,0.42c-0.03,0.08-0.051,0.145-0.062,0.194c-0.012,0.051-0.018,0.094-0.018,0.131c0,0.053,0.012,0.098,0.035,0.135
		c0.023,0.036,0.077,0.095,0.16,0.175h-1.085c0.057-0.06,0.103-0.112,0.14-0.157s0.069-0.093,0.098-0.143s0.055-0.108,0.08-0.175
		c0.025-0.067,0.054-0.152,0.087-0.256l0.71-2.064c0.023-0.066,0.042-0.12,0.055-0.16c0.013-0.04,0.023-0.072,0.03-0.098
		c0.007-0.024,0.011-0.045,0.013-0.06c0.001-0.016,0.002-0.031,0.002-0.048c0-0.057-0.014-0.107-0.042-0.152s-0.081-0.1-0.158-0.162
		H15.605z M14.985,24.383l-0.35,1.045h0.72L14.985,24.383z"/>
	<path d="M17.145,26.973c0.05-0.037,0.089-0.071,0.118-0.105c0.028-0.033,0.051-0.074,0.067-0.125
		c0.017-0.05,0.028-0.11,0.033-0.182c0.005-0.072,0.007-0.164,0.007-0.278v-2.095c0-0.08-0.001-0.146-0.002-0.197
		s-0.005-0.096-0.01-0.133c-0.005-0.036-0.011-0.066-0.018-0.09c-0.007-0.023-0.017-0.048-0.03-0.075
		c-0.02-0.046-0.042-0.082-0.065-0.107c-0.023-0.024-0.057-0.054-0.1-0.087h0.991c0.236,0,0.424,0,0.562,0.002
		c0.138,0.002,0.249,0.006,0.332,0.013s0.15,0.018,0.2,0.032c0.05,0.016,0.104,0.036,0.16,0.062c0.16,0.07,0.286,0.176,0.38,0.317
		c0.093,0.142,0.14,0.298,0.14,0.468c0,0.2-0.055,0.369-0.165,0.508c-0.109,0.138-0.281,0.257-0.515,0.357
		c0.533,0.923,0.934,1.486,1.2,1.689c-0.141,0.018-0.269,0.028-0.385,0.035c-0.117,0.007-0.232,0.01-0.346,0.01
		c-0.104,0-0.19-0.005-0.263-0.015c-0.071-0.01-0.136-0.03-0.192-0.06c-0.057-0.03-0.108-0.07-0.154-0.12
		c-0.047-0.05-0.097-0.115-0.15-0.195c-0.073-0.106-0.158-0.252-0.255-0.438c-0.097-0.185-0.22-0.436-0.37-0.752v0.869
		c0,0.11,0.003,0.201,0.008,0.272c0.005,0.072,0.016,0.133,0.032,0.183c0.017,0.051,0.039,0.093,0.067,0.128s0.067,0.07,0.117,0.107
		H17.145z M18.315,25.208c0.184-0.037,0.327-0.113,0.433-0.23c0.104-0.116,0.157-0.26,0.157-0.43c0-0.127-0.031-0.237-0.095-0.33
		c-0.063-0.094-0.146-0.153-0.245-0.18c-0.037-0.011-0.074-0.017-0.112-0.021c-0.038-0.003-0.084-0.005-0.138-0.005V25.208z"/>
	<path d="M21.729,23.498c0.211,0,0.388,0.004,0.533,0.012c0.145,0.009,0.271,0.024,0.38,0.048s0.204,0.055,0.287,0.093
		c0.084,0.038,0.169,0.089,0.255,0.152c0.221,0.16,0.392,0.364,0.513,0.612c0.122,0.248,0.183,0.522,0.183,0.822
		c0,0.174-0.021,0.34-0.062,0.498s-0.101,0.305-0.178,0.439c-0.076,0.136-0.17,0.256-0.279,0.363c-0.11,0.106-0.233,0.193-0.37,0.26
		c-0.07,0.036-0.142,0.065-0.213,0.087c-0.071,0.022-0.152,0.04-0.242,0.053c-0.09,0.014-0.194,0.022-0.312,0.027
		s-0.26,0.008-0.423,0.008h-1.26c0.05-0.037,0.089-0.071,0.117-0.105c0.028-0.033,0.051-0.074,0.067-0.125
		c0.017-0.05,0.028-0.11,0.033-0.182c0.005-0.072,0.007-0.164,0.007-0.278v-2.074c0-0.087-0.001-0.158-0.002-0.213
		c-0.002-0.055-0.005-0.1-0.01-0.135c-0.006-0.035-0.012-0.065-0.018-0.09c-0.007-0.025-0.018-0.051-0.03-0.078
		c-0.021-0.046-0.042-0.082-0.065-0.107c-0.023-0.024-0.057-0.054-0.1-0.087H21.729z M21.729,26.393
		c0.051,0.017,0.097,0.028,0.141,0.035c0.043,0.007,0.093,0.01,0.149,0.01c0.157,0,0.284-0.024,0.383-0.072
		c0.099-0.049,0.185-0.131,0.258-0.248c0.144-0.223,0.215-0.511,0.215-0.864c0-0.187-0.02-0.356-0.058-0.508
		s-0.094-0.28-0.167-0.388c-0.074-0.106-0.161-0.188-0.263-0.247s-0.216-0.088-0.343-0.088c-0.047,0-0.094,0.003-0.14,0.008
		c-0.047,0.005-0.105,0.016-0.176,0.032V26.393z"/>
</g>
<g>
	<g id="XMLID_1_">
		<g>
			<path d="M20.683,11.512l0.73,0.165c0.061,0.014,0.107,0.067,0.11,0.127c0.006,0.064-0.029,0.122-0.087,0.145l-0.802,0.336
				l-0.162,0.652c-0.017,0.064-0.075,0.11-0.142,0.11s-0.125-0.046-0.139-0.113l-0.162-0.715l-0.794-0.266
				c-0.061-0.02-0.098-0.078-0.098-0.142c0.003-0.064,0.049-0.116,0.11-0.133l0.759-0.188v-0.76c0-0.067,0.046-0.125,0.113-0.139
				c0.064-0.014,0.133,0.017,0.162,0.078L20.683,11.512z"/>
			<path d="M20.666,18.653c0.061,0.014,0.104,0.067,0.11,0.127c0.006,0.064-0.029,0.122-0.087,0.145l-0.802,0.336l-0.165,0.655
				c-0.014,0.064-0.072,0.107-0.139,0.107s-0.125-0.046-0.139-0.11l-0.165-0.718l-0.791-0.264c-0.061-0.02-0.101-0.078-0.098-0.142
				c0.003-0.064,0.046-0.119,0.11-0.133l0.759-0.191v-0.756c0-0.067,0.046-0.127,0.113-0.142c0.064-0.014,0.13,0.017,0.159,0.078
				l0.406,0.843L20.666,18.653z"/>
			<path d="M17.992,15.594c0.003-0.235-0.009-0.466-0.041-0.698c-0.003,0.003-0.006,0.006-0.012,0.009
				c-0.148,0.093-0.339,0.246-0.414,0.458c-0.061,0.174-0.02,0.377,0.098,0.469c0.052,0.043,0.139,0.061,0.217,0.043
				c0.032-0.009,0.096-0.029,0.122-0.087C17.986,15.739,17.989,15.663,17.992,15.594z M14.508,15.544
				c0.064-0.165,0.049-0.371,0.035-0.553c-0.023-0.316-0.055-0.637-0.119-0.939c-0.046,0.061-0.084,0.127-0.116,0.194
				c-0.194,0.437-0.151,0.97-0.113,1.437c0.003,0.02,0.006,0.052,0.009,0.067c0.003,0,0.003,0,0.003,0
				c0.003,0,0.012,0.003,0.02,0.003C14.342,15.773,14.461,15.657,14.508,15.544z M21.187,15.434
				c-0.087-0.017-0.174-0.038-0.258-0.058c-0.194-0.049-0.377-0.093-0.562-0.107c-0.194-0.014-0.368,0.006-0.51,0.061
				c0.02,0.177,0,0.359-0.064,0.524c-0.084,0.223-0.238,0.359-0.423,0.379c-0.084,0.009-0.165-0.035-0.206-0.113
				c-0.156-0.313-0.061-0.721,0.223-0.979c-0.058-0.133-0.151-0.252-0.269-0.33c-0.229-0.148-0.513-0.154-0.776-0.084
				c0.046,0.287,0.064,0.579,0.058,0.872c0,0.113-0.009,0.24-0.067,0.365c-0.072,0.154-0.22,0.269-0.403,0.31
				c-0.052,0.012-0.104,0.017-0.156,0.017c-0.151,0-0.295-0.049-0.408-0.139c-0.156-0.127-0.252-0.322-0.272-0.533
				c-0.014-0.13,0-0.266,0.046-0.397c0.093-0.255,0.287-0.481,0.579-0.666c0.052-0.032,0.104-0.064,0.156-0.09
				c-0.003-0.012-0.006-0.02-0.006-0.032c-0.058-0.246-0.203-0.672-0.516-0.742c-0.148-0.032-0.33,0.026-0.478,0.154
				c-0.159,0.136-0.275,0.336-0.371,0.51c-0.052,0.096-0.104,0.194-0.151,0.301c0.084,0.301,0.159,0.603,0.188,0.915
				c0.003,0.026,0.006,0.052,0.006,0.078c0.006,0.319-0.142,0.556-0.382,0.597c-0.078,0.014-0.162-0.02-0.206-0.09
				c-0.142-0.217-0.214-0.487-0.209-0.779c0.003-0.093,0.012-0.185,0.029-0.281c0.029-0.162,0.078-0.319,0.136-0.469
				c-0.116-0.397-0.284-0.805-0.614-0.93c-0.171-0.067-0.359-0.035-0.527,0.052c0.101,0.388,0.145,0.802,0.174,1.208
				c0.009,0.119,0.02,0.252,0.012,0.391c-0.009,0.113-0.029,0.232-0.075,0.345c-0.107,0.272-0.391,0.519-0.724,0.463
				c-0.13-0.02-0.24-0.09-0.304-0.188c-0.058-0.09-0.067-0.188-0.072-0.252c-0.041-0.492-0.093-1.104,0.148-1.64
				c0.081-0.182,0.206-0.353,0.359-0.49c-0.09-0.243-0.214-0.463-0.388-0.649c-0.177-0.188-0.452-0.336-0.663-0.243
				c-0.096,0.043-0.185,0.136-0.272,0.287c-0.278,0.466-0.35,1.057-0.194,1.576c0.032,0.107-0.029,0.223-0.136,0.255
				c-0.11,0.035-0.223-0.029-0.258-0.136c-0.188-0.629-0.101-1.338,0.235-1.903c0.084-0.145,0.226-0.348,0.458-0.452
				c0.423-0.188,0.872,0.064,1.13,0.336c0.194,0.206,0.336,0.443,0.44,0.695c0.249-0.113,0.533-0.145,0.805-0.038
				c0.362,0.136,0.576,0.446,0.724,0.797c0.107-0.197,0.24-0.411,0.437-0.579c0.246-0.211,0.559-0.301,0.831-0.243
				c0.391,0.087,0.681,0.452,0.823,1.031c0.388-0.096,0.776-0.052,1.078,0.145c0.174,0.113,0.313,0.278,0.403,0.466
				c0.232-0.081,0.472-0.09,0.658-0.072c0.214,0.017,0.423,0.067,0.623,0.116c0.081,0.02,0.165,0.038,0.246,0.055
				c0.374,0.078,0.753,0.107,1.133,0.09c0.101-0.006,0.243-0.02,0.298-0.087c0.07-0.09,0.2-0.101,0.287-0.032
				c0.09,0.072,0.101,0.203,0.032,0.29c-0.156,0.191-0.4,0.229-0.597,0.238C22.01,15.553,21.593,15.521,21.187,15.434z"/>
			<path d="M25.164,21.401L21.506,6.684L8.746,6.953l3.931,14.449h12.487V21.401z M11.967,21.917L7.816,6.663
				C7.813,6.66,7.813,6.657,7.813,6.655C7.81,6.64,7.81,6.629,7.808,6.614C7.805,6.6,7.802,6.588,7.802,6.573
				c0-0.003,0-0.006,0-0.009c0-0.009,0-0.017,0-0.026c0.003-0.017,0.003-0.032,0.006-0.046c0-0.012,0.003-0.026,0.009-0.038
				C7.82,6.442,7.823,6.428,7.826,6.416C7.832,6.402,7.838,6.39,7.843,6.378c0.005-0.01,0.011-0.022,0.017-0.033
				c0.006-0.012,0.014-0.02,0.02-0.029c0.009-0.012,0.017-0.023,0.026-0.035c0.009-0.009,0.017-0.017,0.026-0.023
				c0.012-0.012,0.02-0.02,0.032-0.029c0.009-0.009,0.02-0.014,0.032-0.02C8.007,6.2,8.019,6.194,8.031,6.188
				c0.012-0.006,0.026-0.012,0.038-0.017c0.009-0.003,0.014-0.006,0.023-0.009l12.262-3.766c0.125-0.038,0.258-0.014,0.362,0.061
				s0.168,0.194,0.168,0.324l0.067,3.03l0.895,0.043c0.006,0,0.012,0.003,0.02,0.003c0.029,0.006,0.055,0.012,0.084,0.02
				c0.017,0.006,0.035,0.012,0.052,0.02c0.023,0.012,0.043,0.023,0.061,0.035c0.014,0.009,0.026,0.02,0.038,0.029
				c0.023,0.023,0.046,0.046,0.064,0.072c0.006,0.009,0.012,0.02,0.017,0.029c0.017,0.029,0.029,0.061,0.041,0.093
				c0,0.003,0.003,0.006,0.003,0.009l3.861,15.546c0.032,0.122,0.003,0.252-0.075,0.353c-0.075,0.098-0.197,0.156-0.322,0.156
				H12.364C12.179,22.221,12.016,22.097,11.967,21.917z"/>
			<path d="M13.36,9.07c0.061,0.014,0.107,0.067,0.113,0.127c0.003,0.064-0.032,0.122-0.09,0.145l-0.802,0.333l-0.162,0.655
				c-0.017,0.064-0.075,0.11-0.139,0.11c-0.003,0-0.003,0-0.003,0c-0.067,0-0.125-0.046-0.139-0.113l-0.162-0.715l-0.794-0.266
				c-0.061-0.02-0.098-0.078-0.096-0.142c0-0.064,0.046-0.116,0.107-0.133l0.759-0.188v-0.76c0-0.067,0.049-0.125,0.113-0.139
				c0.067-0.014,0.133,0.017,0.162,0.078l0.403,0.843L13.36,9.07z"/>
		</g>
	</g>
</g>
</svg>
