<?xml version="1.0" encoding="utf-8"?>
<!-- Generator: Adobe Illustrator 17.0.0, SVG Export Plug-In . SVG Version: 6.00 Build 0)  -->
<!DOCTYPE svg PUBLIC "-//W3C//DTD SVG 1.1//EN" "http://www.w3.org/Graphics/SVG/1.1/DTD/svg11.dtd">
<svg version="1.1" id="Layer_1" xmlns="http://www.w3.org/2000/svg" xmlns:xlink="http://www.w3.org/1999/xlink" x="0px" y="0px"
	 width="33.9px" height="28.6px" viewBox="0 0 33.9 28.6" enable-background="new 0 0 33.9 28.6" xml:space="preserve">
<g>
	<path fill="#231F20" d="M33.9,28.6H0V0h33.9V28.6z M1,27.6h31.9V1H1V27.6z"/>
</g>
<g id="Layer_2">
</g>
<rect x="0.5" y="0.5" fill="#FFFFFF" width="32.9" height="27.6"/>
<rect x="0" y="23.418" fill="none" width="33.9" height="4.682"/>
<g enable-background="new    ">
	<path d="M8.305,26.913c-0.164,0.046-0.322,0.079-0.475,0.1c-0.153,0.02-0.337,0.03-0.55,0.03c-0.13,0-0.25-0.006-0.36-0.018
		s-0.212-0.03-0.308-0.056c-0.095-0.024-0.186-0.057-0.272-0.097c-0.086-0.04-0.173-0.089-0.26-0.146
		c-0.26-0.17-0.462-0.385-0.605-0.645c-0.144-0.261-0.215-0.545-0.215-0.855c0-0.27,0.056-0.525,0.167-0.768
		c0.112-0.241,0.266-0.442,0.463-0.603c0.173-0.14,0.382-0.246,0.627-0.319s0.507-0.11,0.788-0.11c0.126,0,0.255,0.006,0.385,0.018
		s0.258,0.029,0.385,0.053l0.04,0.734c-0.15-0.097-0.291-0.166-0.422-0.207c-0.132-0.042-0.274-0.062-0.427-0.062
		c-0.304,0-0.534,0.104-0.693,0.31c-0.158,0.207-0.237,0.507-0.237,0.9c0,0.206,0.027,0.392,0.08,0.555s0.129,0.304,0.228,0.42
		C6.741,26.265,6.86,26.354,7,26.415s0.298,0.093,0.475,0.093c0.083,0,0.165-0.006,0.245-0.018c0.08-0.012,0.163-0.03,0.248-0.055
		c0.085-0.025,0.177-0.059,0.275-0.101c0.098-0.041,0.208-0.093,0.327-0.152L8.305,26.913z"/>
	<path d="M9.955,23.498c0.21,0,0.388,0.004,0.533,0.012c0.145,0.009,0.271,0.024,0.38,0.048s0.204,0.055,0.288,0.093
		s0.168,0.089,0.255,0.152c0.22,0.16,0.391,0.364,0.513,0.612s0.183,0.522,0.183,0.822c0,0.174-0.021,0.34-0.062,0.498
		c-0.042,0.158-0.101,0.305-0.178,0.439c-0.077,0.136-0.17,0.256-0.28,0.363c-0.11,0.106-0.233,0.193-0.37,0.26
		c-0.07,0.036-0.141,0.065-0.212,0.087c-0.072,0.022-0.153,0.04-0.243,0.053c-0.09,0.014-0.194,0.022-0.312,0.027
		s-0.259,0.008-0.422,0.008h-1.26c0.05-0.037,0.089-0.071,0.118-0.105c0.028-0.033,0.051-0.074,0.067-0.125
		c0.017-0.05,0.028-0.11,0.033-0.182c0.005-0.072,0.007-0.164,0.007-0.278v-2.074c0-0.087-0.001-0.158-0.002-0.213
		s-0.005-0.1-0.01-0.135c-0.005-0.035-0.011-0.065-0.018-0.09c-0.007-0.025-0.017-0.051-0.03-0.078
		c-0.02-0.046-0.042-0.082-0.065-0.107c-0.023-0.024-0.057-0.054-0.1-0.087H9.955z M9.955,26.393c0.05,0.017,0.097,0.028,0.14,0.035
		s0.093,0.01,0.15,0.01c0.157,0,0.284-0.024,0.383-0.072c0.098-0.049,0.184-0.131,0.257-0.248c0.144-0.223,0.215-0.511,0.215-0.864
		c0-0.187-0.019-0.356-0.057-0.508c-0.039-0.151-0.094-0.28-0.167-0.388c-0.074-0.106-0.161-0.188-0.263-0.247
		s-0.216-0.088-0.342-0.088c-0.047,0-0.094,0.003-0.14,0.008c-0.047,0.005-0.105,0.016-0.175,0.032V26.393z"/>
	<path d="M14.12,26.268c0,0.087,0.004,0.163,0.012,0.23c0.008,0.066,0.021,0.127,0.038,0.182c0.017,0.056,0.04,0.106,0.07,0.153
		c0.03,0.046,0.068,0.093,0.115,0.14H12.93c0.05-0.037,0.089-0.072,0.117-0.107s0.051-0.077,0.068-0.125
		c0.017-0.049,0.027-0.108,0.032-0.18c0.005-0.072,0.008-0.164,0.008-0.278v-0.885l-0.75-1.39c-0.04-0.077-0.074-0.141-0.103-0.192
		s-0.056-0.096-0.083-0.133c-0.027-0.036-0.055-0.069-0.085-0.098c-0.03-0.028-0.067-0.058-0.11-0.087h1.225l0.62,1.265l0.32-0.66
		c0.037-0.076,0.062-0.138,0.078-0.183s0.022-0.087,0.022-0.127c0-0.061-0.013-0.113-0.04-0.158s-0.07-0.091-0.13-0.137h0.95
		l-0.95,1.899V26.268z"/>
	<path d="M18.121,26.913c-0.164,0.046-0.322,0.079-0.476,0.1c-0.153,0.02-0.337,0.03-0.55,0.03c-0.13,0-0.25-0.006-0.36-0.018
		s-0.212-0.03-0.308-0.056c-0.095-0.024-0.186-0.057-0.272-0.097c-0.086-0.04-0.173-0.089-0.26-0.146
		c-0.26-0.17-0.462-0.385-0.605-0.645c-0.144-0.261-0.215-0.545-0.215-0.855c0-0.27,0.056-0.525,0.167-0.768
		c0.112-0.241,0.266-0.442,0.463-0.603c0.173-0.14,0.382-0.246,0.627-0.319s0.507-0.11,0.788-0.11c0.126,0,0.255,0.006,0.385,0.018
		c0.13,0.012,0.258,0.029,0.385,0.053l0.04,0.734c-0.15-0.097-0.291-0.166-0.423-0.207c-0.132-0.042-0.274-0.062-0.427-0.062
		c-0.304,0-0.534,0.104-0.693,0.31c-0.158,0.207-0.237,0.507-0.237,0.9c0,0.206,0.027,0.392,0.08,0.555s0.129,0.304,0.228,0.42
		c0.098,0.117,0.217,0.206,0.357,0.268s0.298,0.093,0.475,0.093c0.083,0,0.166-0.006,0.245-0.018c0.08-0.012,0.163-0.03,0.248-0.055
		c0.085-0.025,0.177-0.059,0.275-0.101c0.098-0.041,0.207-0.093,0.327-0.152L18.121,26.913z"/>
	<path d="M20.615,23.498l1.021,2.774c0.033,0.094,0.063,0.171,0.09,0.232s0.055,0.118,0.085,0.168s0.065,0.098,0.105,0.143
		c0.039,0.045,0.09,0.098,0.149,0.157h-1.524c0.083-0.066,0.14-0.122,0.17-0.168c0.029-0.045,0.045-0.096,0.045-0.152
		c0-0.036-0.005-0.076-0.016-0.12c-0.01-0.043-0.029-0.107-0.06-0.194l-0.14-0.42H19.49l-0.145,0.42
		c-0.03,0.08-0.051,0.145-0.062,0.194c-0.012,0.051-0.018,0.094-0.018,0.131c0,0.053,0.012,0.098,0.035,0.135
		c0.023,0.036,0.076,0.095,0.16,0.175h-1.085c0.057-0.06,0.103-0.112,0.14-0.157c0.036-0.045,0.069-0.093,0.098-0.143
		s0.055-0.108,0.08-0.175c0.024-0.067,0.054-0.152,0.087-0.256l0.71-2.064c0.023-0.066,0.042-0.12,0.056-0.16
		c0.013-0.04,0.022-0.072,0.029-0.098c0.007-0.024,0.011-0.045,0.013-0.06c0.002-0.016,0.003-0.031,0.003-0.048
		c0-0.057-0.015-0.107-0.043-0.152s-0.081-0.1-0.157-0.162H20.615z M19.995,24.383l-0.35,1.045h0.72L19.995,24.383z"/>
	<path d="M22.145,26.973c0.087-0.094,0.147-0.19,0.183-0.293c0.035-0.102,0.053-0.238,0.053-0.412v-1.95
		c0-0.1-0.004-0.186-0.013-0.257c-0.009-0.072-0.024-0.138-0.048-0.198c-0.023-0.06-0.054-0.118-0.092-0.175
		c-0.039-0.057-0.09-0.12-0.152-0.189h1.085l1.64,2.17v-1.465c0-0.091-0.004-0.169-0.01-0.235c-0.007-0.066-0.02-0.127-0.038-0.18
		c-0.019-0.054-0.042-0.103-0.072-0.147c-0.03-0.046-0.068-0.093-0.115-0.143h1.011c-0.047,0.046-0.086,0.093-0.115,0.14
		c-0.03,0.047-0.054,0.098-0.07,0.152s-0.029,0.116-0.037,0.183c-0.009,0.066-0.013,0.144-0.013,0.23v2.875
		c-0.287-0.058-0.54-0.158-0.76-0.303c-0.221-0.146-0.415-0.341-0.585-0.588l-1.07-1.415v1.495c0,0.087,0.004,0.163,0.013,0.23
		c0.008,0.066,0.021,0.126,0.037,0.18s0.04,0.104,0.07,0.15c0.03,0.046,0.068,0.095,0.115,0.145H22.145z"/>
	<path d="M27.14,26.393c0.073,0.026,0.152,0.046,0.237,0.058s0.196,0.018,0.333,0.018c0.183,0,0.332-0.021,0.447-0.065
		c0.115-0.043,0.221-0.118,0.317-0.225l-0.195,0.795h-2.33c0.051-0.037,0.09-0.072,0.118-0.107s0.051-0.077,0.067-0.128
		c0.017-0.05,0.027-0.11,0.032-0.183c0.005-0.071,0.008-0.164,0.008-0.277v-2.085c0-0.08-0.001-0.146-0.003-0.2
		c-0.001-0.053-0.005-0.097-0.01-0.132s-0.011-0.065-0.018-0.09c-0.007-0.025-0.017-0.051-0.03-0.078
		c-0.02-0.043-0.041-0.078-0.064-0.104c-0.023-0.027-0.057-0.057-0.101-0.09h1.9c0.047,0,0.082-0.002,0.105-0.006
		c0.022-0.003,0.048-0.011,0.074-0.024v0.77c-0.066-0.086-0.138-0.145-0.215-0.175c-0.076-0.03-0.189-0.045-0.34-0.045H27.14v0.85
		h0.555c0.033,0,0.062-0.001,0.083-0.005c0.021-0.003,0.046-0.012,0.072-0.024v0.734c-0.023-0.036-0.047-0.067-0.07-0.092
		c-0.023-0.025-0.05-0.045-0.08-0.061c-0.029-0.015-0.064-0.024-0.104-0.029c-0.04-0.006-0.089-0.008-0.146-0.008h-0.31V26.393z"/>
</g>
<g>
	<path fill="none" d="M22.192,15.556c-0.712-0.416-1.474-0.86-2.247-1.308c-0.415,1.341-0.405,3.364-0.34,4.687
		c0.676,0.368,1.331,0.718,1.952,1.042C21.406,18.404,21.859,16.612,22.192,15.556z"/>
	<path fill="none" d="M11.855,9.091c-0.021-0.071-0.035-0.141-0.044-0.21c-1.494-0.135-3.642,0.352-4.8,0.658
		c0.216,1.101,0.768,2.066,1.608,2.682c0.15,0.11,0.309,0.224,0.471,0.339C9.807,11.098,11.116,9.77,11.855,9.091z"/>
	<path fill="none" d="M12.991,7.298c-0.388-1.528-1.38-3.355-1.753-4.012c-1.88,0.106-3.376,1.335-4.032,3.34
		c-0.09,0.272-0.158,0.547-0.207,0.821C8.875,6.455,11.987,7.063,12.991,7.298z"/>
	<path fill="none" d="M15.68,8.395c0.856,0,1.381-0.629,1.586-1.218c0.187-0.536,0.191-1.331-0.412-1.81
		c-0.87-0.699-1.883-1.429-3.271-1.814c0.939,1.34,1.147,3.503,1.189,4.618C15.086,8.315,15.391,8.395,15.68,8.395z"/>
	<path fill="none" d="M13.303,10.536c-0.066-0.031-0.128-0.064-0.189-0.097c-0.814,0.736-1.57,2.164-2.122,3.405
		c0.804,0.522,1.678,1.069,2.588,1.622c-0.01-1.504,0.581-3.173,1.043-4.242C14.062,10.921,13.604,10.679,13.303,10.536z"/>
	<path fill="none" d="M16.276,12.145c-0.423,1.397-0.464,3.419-0.44,4.664c0.489,0.285,0.98,0.568,1.47,0.845
		c-0.006-1.591,0.601-3.342,1.013-4.346C17.607,12.9,16.915,12.506,16.276,12.145z"/>
	<path fill="none" d="M23.962,21.133c0.368,0.123,0.721,0.192,1.049,0.192c1.173,0,1.777-0.798,1.938-1.48
		c0.153-0.649,0.004-1.572-0.92-2.034c-0.01-0.005-0.019-0.01-0.028-0.015c-0.03-0.018-0.882-0.522-2.139-1.26
		C23.613,17.941,23.796,19.895,23.962,21.133z"/>
	<path d="M26.446,17.015c-0.165-0.098-1.066-0.631-2.327-1.371c-0.494-0.29-1.045-0.613-1.627-0.953
		c-0.692-0.404-1.428-0.833-2.173-1.265c-0.546-0.316-1.095-0.633-1.634-0.943c-0.718-0.412-1.415-0.81-2.06-1.172
		c-0.599-0.337-1.148-0.642-1.624-0.901c-0.334-0.182-0.631-0.34-0.881-0.469c-0.143-0.074-0.272-0.138-0.382-0.191
		c-0.016-0.008-0.035-0.017-0.05-0.024c-0.087-0.042-0.167-0.084-0.242-0.128c-0.019,0.008-0.037,0.016-0.056,0.024
		c-0.04-0.04-0.084-0.088-0.131-0.144c-0.128-0.089-0.232-0.179-0.315-0.269c-0.008-0.009-0.017-0.017-0.025-0.026
		c-0.149-0.169-0.22-0.332-0.222-0.469c-0.001-0.032,0-0.063,0.006-0.092c0.035-0.156,0.184-0.253,0.387-0.253
		c0.018,0,0.041,0.003,0.062,0.005c0.118,0.01,0.284,0.056,0.488,0.181c0.026,0.016,0.049,0.027,0.076,0.045
		c0.267,0.184,0.534,0.33,0.799,0.441c0.394,0.164,0.784,0.249,1.166,0.249c1.093,0,2.047-0.714,2.433-1.819
		c0.373-1.071,0.099-2.173-0.699-2.806C16.076,3.59,14.42,2.445,11.7,2.383c-0.051-0.001-0.1-0.005-0.153-0.005h-0.044
		c-0.366,0-0.721,0.04-1.066,0.11C8.548,2.874,7.031,4.277,6.353,6.347C6.128,7.034,6.02,7.695,6.001,8.32
		C5.985,8.85,6.034,9.355,6.138,9.826c0.302,1.37,1.057,2.464,1.95,3.119c0.208,0.152,0.429,0.31,0.661,0.473
		c0.568,0.398,1.204,0.823,1.887,1.265c0.956,0.618,2.003,1.268,3.09,1.92c0.705,0.423,1.426,0.848,2.149,1.265
		c0.519,0.3,1.038,0.596,1.553,0.885c0.766,0.431,1.52,0.847,2.247,1.239c0.744,0.401,1.458,0.777,2.123,1.118
		c0.402,0.206,0.787,0.399,1.149,0.577c0.398,0.195,0.786,0.332,1.163,0.42c0.308,0.072,0.61,0.114,0.901,0.114
		c1.396,0,2.5-0.852,2.811-2.171C28.118,18.8,27.565,17.583,26.446,17.015z M16.854,5.367c0.603,0.479,0.599,1.274,0.412,1.81
		c-0.205,0.589-0.73,1.218-1.586,1.218c-0.289,0-0.594-0.08-0.908-0.224c-0.042-1.116-0.25-3.278-1.189-4.618
		C14.971,3.939,15.985,4.669,16.854,5.367z M7.205,6.626c0.656-2.004,2.153-3.234,4.032-3.34c0.373,0.657,1.365,2.484,1.753,4.012
		c-1.004-0.235-4.116-0.843-5.993,0.149C7.048,7.173,7.116,6.898,7.205,6.626z M9.089,12.56c-0.163-0.115-0.321-0.229-0.471-0.339
		C7.778,11.606,7.226,10.64,7.01,9.54c1.159-0.306,3.306-0.793,4.8-0.658c0.009,0.069,0.023,0.138,0.044,0.209
		C11.116,9.77,9.807,11.098,9.089,12.56z M13.58,15.468c-0.91-0.553-1.784-1.1-2.588-1.622c0.552-1.241,1.308-2.669,2.122-3.405
		c0.061,0.033,0.123,0.065,0.189,0.096c0.301,0.143,0.76,0.384,1.32,0.69C14.161,12.295,13.57,13.963,13.58,15.468z M17.305,17.654
		c-0.489-0.278-0.98-0.56-1.47-0.845c-0.024-1.245,0.017-3.267,0.44-4.664c0.64,0.361,1.331,0.755,2.042,1.164
		C17.906,14.312,17.299,16.063,17.305,17.654z M21.557,19.976c-0.621-0.324-1.276-0.674-1.952-1.042
		c-0.065-1.322-0.075-3.346,0.34-4.687c0.773,0.448,1.536,0.892,2.247,1.308C21.859,16.612,21.406,18.404,21.557,19.976z
		 M26.95,19.844c-0.161,0.683-0.765,1.48-1.938,1.48c-0.329,0-0.681-0.069-1.049-0.192c-0.167-1.237-0.349-3.192-0.1-4.598
		c1.257,0.738,2.11,1.243,2.139,1.26c0.009,0.005,0.018,0.011,0.028,0.015C26.955,18.272,27.103,19.194,26.95,19.844z"/>
	<path fill="#231F20" d="M13.258,9.478c0.047,0.056,0.091,0.104,0.131,0.144c0.019-0.008,0.037-0.016,0.056-0.024
		C13.377,9.559,13.316,9.519,13.258,9.478z"/>
</g>
</svg>
