<?xml version="1.0" encoding="utf-8"?>
<!-- Generator: Adobe Illustrator 17.0.0, SVG Export Plug-In . SVG Version: 6.00 Build 0)  -->
<!DOCTYPE svg PUBLIC "-//W3C//DTD SVG 1.1//EN" "http://www.w3.org/Graphics/SVG/1.1/DTD/svg11.dtd">
<svg version="1.1" id="Layer_1" xmlns="http://www.w3.org/2000/svg" xmlns:xlink="http://www.w3.org/1999/xlink" x="0px" y="0px"
	 width="33.9px" height="28.6px" viewBox="0 0 33.9 28.6" enable-background="new 0 0 33.9 28.6" xml:space="preserve">
<g>
	<path fill="#231F20" d="M33.9,28.6H0V0h33.9V28.6z M1,27.6h31.9V1H1V27.6z"/>
</g>
<g id="Layer_2">
</g>
<rect x="0.5" y="0.5" fill="#FFFFFF" width="32.9" height="27.6"/>
<rect x="0" y="23.418" fill="none" width="33.9" height="4.682"/>
<g enable-background="new    ">
	<path d="M12.065,23.498c0.21,0,0.388,0.004,0.533,0.012c0.145,0.009,0.271,0.024,0.38,0.048s0.204,0.055,0.288,0.093
		s0.168,0.089,0.255,0.152c0.22,0.16,0.391,0.364,0.513,0.612s0.183,0.522,0.183,0.822c0,0.174-0.021,0.34-0.062,0.498
		c-0.042,0.158-0.101,0.305-0.178,0.439c-0.077,0.136-0.17,0.256-0.28,0.363c-0.11,0.106-0.233,0.193-0.37,0.26
		c-0.07,0.036-0.141,0.065-0.212,0.087c-0.072,0.022-0.153,0.04-0.243,0.053c-0.09,0.014-0.194,0.022-0.312,0.027
		s-0.259,0.008-0.422,0.008h-1.26c0.05-0.037,0.089-0.071,0.118-0.105c0.028-0.033,0.051-0.074,0.067-0.125
		c0.017-0.05,0.028-0.11,0.033-0.182c0.005-0.072,0.007-0.164,0.007-0.278v-2.074c0-0.087-0.001-0.158-0.002-0.213
		s-0.005-0.1-0.01-0.135c-0.005-0.035-0.011-0.065-0.018-0.09c-0.007-0.025-0.017-0.051-0.03-0.078
		c-0.02-0.046-0.042-0.082-0.065-0.107c-0.023-0.024-0.057-0.054-0.1-0.087H12.065z M12.065,26.393
		c0.05,0.017,0.097,0.028,0.14,0.035s0.093,0.01,0.15,0.01c0.157,0,0.284-0.024,0.383-0.072c0.098-0.049,0.184-0.131,0.257-0.248
		c0.144-0.223,0.215-0.511,0.215-0.864c0-0.187-0.019-0.356-0.057-0.508c-0.039-0.151-0.094-0.28-0.167-0.388
		c-0.074-0.106-0.161-0.188-0.263-0.247s-0.216-0.088-0.342-0.088c-0.047,0-0.094,0.003-0.14,0.008
		c-0.047,0.005-0.105,0.016-0.175,0.032V26.393z"/>
	<path d="M15.77,26.393c0.074,0.026,0.153,0.046,0.238,0.058s0.196,0.018,0.333,0.018c0.183,0,0.333-0.021,0.447-0.065
		c0.115-0.043,0.221-0.118,0.318-0.225l-0.195,0.795h-2.33c0.05-0.037,0.089-0.072,0.118-0.107s0.051-0.077,0.067-0.128
		c0.017-0.05,0.028-0.11,0.033-0.183c0.005-0.071,0.007-0.164,0.007-0.277v-2.085c0-0.08-0.001-0.146-0.002-0.2
		c-0.001-0.053-0.005-0.097-0.01-0.132c-0.005-0.035-0.011-0.065-0.018-0.09c-0.007-0.025-0.017-0.051-0.03-0.078
		c-0.02-0.043-0.042-0.078-0.065-0.104c-0.023-0.027-0.057-0.057-0.1-0.09h1.9c0.046,0,0.082-0.002,0.105-0.006
		c0.023-0.003,0.048-0.011,0.075-0.024v0.77c-0.066-0.086-0.138-0.145-0.215-0.175s-0.19-0.045-0.34-0.045H15.77v0.85h0.555
		c0.033,0,0.061-0.001,0.083-0.005c0.021-0.003,0.046-0.012,0.073-0.024v0.734c-0.023-0.036-0.047-0.067-0.07-0.092
		c-0.023-0.025-0.05-0.045-0.08-0.061c-0.03-0.015-0.065-0.024-0.105-0.029c-0.04-0.006-0.088-0.008-0.145-0.008h-0.31V26.393z"/>
	<path d="M18.49,26.393c0.073,0.026,0.152,0.046,0.237,0.058s0.196,0.018,0.333,0.018c0.183,0,0.332-0.021,0.447-0.065
		c0.115-0.043,0.221-0.118,0.317-0.225l-0.195,0.795H17.3c0.05-0.037,0.089-0.072,0.118-0.107s0.051-0.077,0.068-0.128
		c0.017-0.05,0.027-0.11,0.032-0.183c0.005-0.071,0.008-0.164,0.008-0.277v-2.085c0-0.08-0.001-0.146-0.003-0.2
		c-0.001-0.053-0.005-0.097-0.01-0.132s-0.011-0.065-0.018-0.09c-0.007-0.025-0.017-0.051-0.03-0.078
		c-0.02-0.043-0.042-0.078-0.065-0.104c-0.023-0.027-0.057-0.057-0.1-0.09h1.9c0.047,0,0.082-0.002,0.105-0.006
		c0.022-0.003,0.048-0.011,0.074-0.024v0.77c-0.066-0.086-0.138-0.145-0.215-0.175c-0.076-0.03-0.189-0.045-0.34-0.045H18.49v0.85
		h0.555c0.033,0,0.062-0.001,0.083-0.005c0.021-0.003,0.046-0.012,0.072-0.024v0.734c-0.023-0.036-0.047-0.067-0.07-0.092
		c-0.023-0.025-0.05-0.045-0.08-0.061c-0.029-0.015-0.064-0.024-0.104-0.029c-0.04-0.006-0.089-0.008-0.146-0.008h-0.31V26.393z"/>
	<path d="M20.02,26.973c0.05-0.037,0.089-0.071,0.117-0.105c0.028-0.033,0.051-0.074,0.067-0.125c0.017-0.05,0.028-0.11,0.033-0.182
		c0.005-0.072,0.007-0.164,0.007-0.278v-2.095c0-0.08-0.001-0.146-0.002-0.197c-0.002-0.052-0.005-0.096-0.01-0.133
		c-0.006-0.036-0.012-0.066-0.018-0.09c-0.007-0.023-0.018-0.048-0.03-0.075c-0.021-0.046-0.042-0.082-0.065-0.107
		c-0.023-0.024-0.057-0.054-0.1-0.087h0.99c0.236,0,0.424,0,0.562,0.002c0.138,0.002,0.249,0.006,0.332,0.013s0.15,0.018,0.2,0.032
		c0.05,0.016,0.104,0.036,0.16,0.062c0.16,0.07,0.286,0.176,0.38,0.317c0.093,0.142,0.14,0.298,0.14,0.468
		c0,0.2-0.055,0.369-0.165,0.508c-0.109,0.138-0.281,0.257-0.515,0.357c0.533,0.923,0.934,1.486,1.2,1.689
		c-0.141,0.018-0.269,0.028-0.385,0.035c-0.117,0.007-0.232,0.01-0.346,0.01c-0.104,0-0.19-0.005-0.263-0.015
		c-0.071-0.01-0.136-0.03-0.192-0.06c-0.057-0.03-0.108-0.07-0.154-0.12c-0.047-0.05-0.097-0.115-0.15-0.195
		c-0.073-0.106-0.158-0.252-0.255-0.438c-0.097-0.185-0.22-0.436-0.37-0.752v0.869c0,0.11,0.003,0.201,0.008,0.272
		c0.005,0.072,0.016,0.133,0.032,0.183c0.017,0.051,0.039,0.093,0.067,0.128s0.067,0.07,0.117,0.107H20.02z M21.19,25.208
		c0.184-0.037,0.327-0.113,0.433-0.23c0.104-0.116,0.157-0.26,0.157-0.43c0-0.127-0.031-0.237-0.095-0.33
		c-0.063-0.094-0.146-0.153-0.245-0.18c-0.037-0.011-0.074-0.017-0.112-0.021c-0.038-0.003-0.084-0.005-0.138-0.005V25.208z"/>
</g>
<g>
	<ellipse transform="matrix(-0.9303 0.3668 -0.3668 -0.9303 29.0574 21.3494)" cx="12.5" cy="13.435" rx="0.515" ry="0.692"/>
	<path d="M29.852,18.485c-3.693-0.077-5.56-2.619-5.79-2.954c-0.197-0.485-1.592-3.659-5.029-5.297l3.562-2.642
		c0.149-0.111,0.222-0.29,0.204-0.467c0.006-0.055,0.006-0.11-0.005-0.166c-0.042-0.202-0.199-0.359-0.401-0.402
		c-0.194-0.041-0.382-0.074-0.568-0.104l1.368-1.001c0.173-0.127,0.211-0.371,0.084-0.544c-0.127-0.173-0.37-0.211-0.544-0.084
		l-1.284,0.94l-2.074,0.039l0.806-1.448l1.447-1.296c0.16-0.143,0.174-0.389,0.03-0.55c-0.144-0.16-0.389-0.174-0.55-0.03l-1.117,1
		L19.637,2.77c-0.097-0.192-0.33-0.27-0.523-0.173c-0.192,0.097-0.27,0.33-0.173,0.523l0.491,0.978L18.66,5.484L18.066,4.67
		l0.69-0.647c0.157-0.147,0.165-0.393,0.018-0.55c-0.147-0.157-0.393-0.165-0.55-0.018l-0.611,0.573l-0.45-0.656
		C17.042,3.195,16.8,3.15,16.622,3.271c-0.177,0.122-0.222,0.364-0.101,0.541l0.706,1.03c0.001,0.002,0.003,0.003,0.005,0.005
		c0.001,0.001,0.001,0.003,0.002,0.005l0.924,1.262l-1.352,0.96c-0.365,0.18-0.678,0.376-0.945,0.569l0.158-0.926
		c0.019-0.111-0.011-0.224-0.082-0.311l-0.626-0.771l0.951-1.182c0.135-0.168,0.108-0.413-0.059-0.547
		c-0.167-0.135-0.412-0.109-0.547,0.059L14.81,5.018l-0.52-0.641c-0.135-0.167-0.38-0.193-0.548-0.057
		c-0.167,0.135-0.192,0.38-0.057,0.548l1.537,1.894l-0.293,1.715c-0.007,0.008-0.015,0.016-0.021,0.023l-0.963-0.143
		c-0.183-0.026-0.364,0.044-0.48,0.187l-0.242,0.3l-0.802-1.325l0.943-1.382c0.095-0.139,0.09-0.324-0.013-0.457l-0.973-1.26
		l1.649-1.35c0.166-0.136,0.191-0.381,0.055-0.548c-0.137-0.167-0.381-0.191-0.548-0.055l-1.942,1.589
		c-0.163,0.133-0.19,0.372-0.062,0.539l1.032,1.336l-0.741,1.085l-1.639-0.742l0.153-0.916l0.729-2.48
		c0.061-0.206-0.057-0.423-0.264-0.483s-0.423,0.058-0.483,0.264L9.789,4.455L8.196,2.521c-0.137-0.166-0.382-0.19-0.548-0.053
		C7.482,2.604,7.458,2.85,7.595,3.016L9.542,5.38L9.416,6.136L7.515,6.25L6.696,4.932C6.583,4.749,6.343,4.693,6.16,4.807
		C5.977,4.92,5.921,5.16,6.034,5.343L6.87,6.687L6.291,8.061C6.207,8.259,6.3,8.488,6.498,8.571c0.049,0.021,0.1,0.031,0.151,0.031
		c0.152,0,0.296-0.09,0.359-0.238l0.563-1.337L9.677,6.9l2.012,0.911l1.015,1.677l-0.049,0.06c-0.158-0.2-0.363-0.419-0.632-0.629
		c-0.691-0.539-1.938-1.112-3.948-0.777C7.813,8.186,7.626,8.42,7.642,8.686c0.059,0.958,0.718,2.83,2.714,3.711l-2.717,3.367
		C7.5,14.761,6.641,13.987,5.6,13.987c-1.138,0-2.06,0.922-2.06,2.06s0.922,2.06,2.06,2.06c0.2,0,0.392-0.03,0.575-0.083
		c0.025,0.056,0.059,0.109,0.104,0.155c0.068,0.07,1.698,1.707,3.897,1.493c0.801-0.078,1.562-0.388,2.277-0.926
		c0.648,0.289,2.147,0.811,3.56,0.23c0.405-0.167,0.768-0.408,1.087-0.722l-0.124,1.223c-0.02,0.196,0.073,0.387,0.24,0.492
		c0.061,0.039,0.129,0.058,0.199,0.069c0.003,0.005,0.003,0.01,0.006,0.015l1.322,2.049c0.05,0.077,0.133,0.119,0.218,0.119
		c0.044,0,0.089-0.011,0.129-0.035l6.502-3.753c0.036-0.021,0.064-0.05,0.086-0.084c1.046,0.622,2.423,1.137,4.152,1.173
		c0.004,0,0.007,0,0.011,0c0.282,0,0.513-0.225,0.519-0.508C30.366,18.729,30.138,18.491,29.852,18.485z M8.765,9.1
		c2.036-0.173,2.912,0.807,3.215,1.284l-0.946,1.172C9.473,10.999,8.943,9.779,8.765,9.1z M15.623,18.014
		c-0.812,0.336-1.714,0.155-2.312-0.048c0.343-0.368,0.674-0.794,0.992-1.278c0.157-0.24,0.091-0.561-0.149-0.719
		c-0.24-0.158-0.561-0.09-0.719,0.149c-0.428,0.651-0.875,1.179-1.338,1.58c-0.035,0.023-0.068,0.051-0.097,0.082
		c-0.612,0.504-1.252,0.791-1.916,0.858c-1.184,0.117-2.203-0.5-2.713-0.889l4.993-6.187c0.495,0.403,1.281,0.969,1.693,0.868
		c0.629-0.154,0.439-0.628,0.289-0.911c-0.094-0.177-1.021-0.265-1.701-0.306l1.442-1.787l1.825,0.27
		c0.153,0.023,0.306-0.023,0.421-0.125c0.66-0.587,2.316-1.092,3.792-1.44l-2.443,1.812c-0.154,0.114-0.232,0.303-0.204,0.492
		c0.028,0.189,0.157,0.348,0.337,0.413c3.095,1.12,4.637,3.736,5.125,4.724l-4.826,2.966l0.274-2.711
		c0.027-0.268-0.155-0.512-0.419-0.562s-0.523,0.109-0.597,0.368C17.02,16.879,16.431,17.68,15.623,18.014z"/>
</g>
</svg>
