<?xml version="1.0" encoding="utf-8"?>
<!-- Generator: Adobe Illustrator 17.0.0, SVG Export Plug-In . SVG Version: 6.00 Build 0)  -->
<!DOCTYPE svg PUBLIC "-//W3C//DTD SVG 1.1//EN" "http://www.w3.org/Graphics/SVG/1.1/DTD/svg11.dtd">
<svg version="1.1" id="Layer_1" xmlns="http://www.w3.org/2000/svg" xmlns:xlink="http://www.w3.org/1999/xlink" x="0px" y="0px"
	 width="33.9px" height="28.6px" viewBox="0 0 33.9 28.6" enable-background="new 0 0 33.9 28.6" xml:space="preserve">
<g>
	<path fill="#231F20" d="M33.9,28.6H0V0h33.9V28.6z M1,27.6h31.9V1H1V27.6z"/>
</g>
<g id="Layer_2">
</g>
<rect x="0.5" y="0.5" fill="#FFFFFF" width="32.9" height="27.6"/>
<rect x="0" y="23.418" fill="none" width="33.9" height="4.682"/>
<g enable-background="new    ">
	<path d="M14.462,26.393c0.074,0.026,0.153,0.046,0.238,0.058s0.196,0.018,0.333,0.018c0.183,0,0.333-0.021,0.447-0.065
		c0.115-0.043,0.221-0.118,0.318-0.225l-0.195,0.795h-2.33c0.05-0.037,0.089-0.072,0.118-0.107s0.051-0.077,0.067-0.128
		c0.017-0.05,0.028-0.11,0.033-0.183c0.005-0.071,0.007-0.164,0.007-0.277v-2.085c0-0.08-0.001-0.146-0.002-0.2
		c-0.001-0.053-0.005-0.097-0.01-0.132c-0.005-0.035-0.011-0.065-0.018-0.09c-0.007-0.025-0.017-0.051-0.03-0.078
		c-0.02-0.043-0.042-0.078-0.065-0.104c-0.023-0.027-0.057-0.057-0.1-0.09h1.9c0.046,0,0.082-0.002,0.105-0.006
		c0.023-0.003,0.048-0.011,0.075-0.024v0.77c-0.066-0.086-0.138-0.145-0.215-0.175s-0.19-0.045-0.34-0.045h-0.335v0.85h0.555
		c0.033,0,0.061-0.001,0.083-0.005c0.021-0.003,0.046-0.012,0.073-0.024v0.734c-0.023-0.036-0.047-0.067-0.07-0.092
		c-0.023-0.025-0.05-0.045-0.08-0.061c-0.03-0.015-0.065-0.024-0.105-0.029c-0.04-0.006-0.088-0.008-0.145-0.008h-0.31V26.393z"/>
	<path d="M17.182,26.383c0.087,0.033,0.168,0.056,0.245,0.067s0.177,0.018,0.3,0.018c0.073,0,0.141-0.004,0.202-0.013
		c0.062-0.008,0.12-0.021,0.176-0.037c0.055-0.017,0.109-0.04,0.165-0.07c0.055-0.03,0.112-0.066,0.172-0.11l-0.2,0.735h-2.25
		c0.05-0.037,0.089-0.072,0.118-0.107s0.051-0.077,0.067-0.128c0.017-0.05,0.028-0.11,0.033-0.183
		c0.005-0.071,0.007-0.164,0.007-0.277v-2.09c0-0.08-0.001-0.146-0.002-0.197s-0.005-0.096-0.01-0.133
		c-0.005-0.036-0.011-0.066-0.018-0.09c-0.007-0.023-0.017-0.048-0.03-0.075c-0.02-0.046-0.042-0.082-0.065-0.107
		c-0.023-0.024-0.057-0.054-0.1-0.087h1.415c-0.046,0.036-0.084,0.072-0.112,0.107s-0.053,0.079-0.073,0.133
		c-0.01,0.02-0.017,0.042-0.022,0.064c-0.005,0.023-0.008,0.052-0.01,0.086c-0.002,0.033-0.003,0.074-0.005,0.122
		c-0.002,0.049-0.003,0.108-0.003,0.178V26.383z"/>
	<path d="M19.857,26.268c0,0.174,0.018,0.312,0.053,0.415s0.096,0.2,0.183,0.29h-1.425c0.05-0.037,0.089-0.072,0.117-0.107
		s0.051-0.077,0.067-0.125c0.017-0.049,0.028-0.109,0.033-0.183s0.007-0.165,0.007-0.275v-2.09c0-0.08-0.001-0.146-0.002-0.2
		c-0.002-0.053-0.005-0.097-0.01-0.132c-0.006-0.035-0.012-0.065-0.018-0.09c-0.007-0.025-0.018-0.051-0.03-0.078
		c-0.021-0.043-0.042-0.078-0.065-0.104c-0.023-0.027-0.057-0.057-0.1-0.09h1.9c0.046,0,0.08-0.002,0.102-0.006
		c0.022-0.003,0.048-0.011,0.078-0.024v0.77c-0.033-0.043-0.066-0.079-0.101-0.107c-0.033-0.028-0.071-0.051-0.114-0.067
		c-0.044-0.017-0.093-0.028-0.147-0.035c-0.056-0.006-0.119-0.01-0.192-0.01h-0.336v0.93h0.455c0.037,0,0.065-0.001,0.085-0.005
		c0.021-0.003,0.044-0.012,0.07-0.024v0.689c-0.043-0.073-0.093-0.123-0.149-0.149c-0.058-0.027-0.141-0.04-0.25-0.04h-0.211V26.268
		z"/>
</g>
<g>
	<path d="M16.95,7.478c0.112,0,0.213-0.047,0.285-0.123c0.066-0.07,0.106-0.164,0.106-0.268c0-0.216-0.175-0.391-0.391-0.391
		s-0.391,0.175-0.391,0.391C16.559,7.303,16.734,7.478,16.95,7.478z"/>
	<path d="M17.989,7.672c0-0.102-0.082-0.184-0.184-0.184s-0.184,0.082-0.184,0.184c0,0.29-0.301,0.526-0.671,0.526
		c-0.37,0-0.672-0.236-0.672-0.526c0-0.102-0.082-0.184-0.184-0.184c-0.102,0-0.184,0.082-0.184,0.184
		c0,0.493,0.466,0.894,1.039,0.894S17.989,8.165,17.989,7.672z"/>
	<path d="M23.9,15.461c0.412-0.004,0.557-0.212,0.557-0.389c-0.001-0.198-0.175-0.359-0.388-0.359c-0.013,0-0.027,0.001-0.044,0.002
		c-0.074,0-0.222-0.052-0.391-0.123c0.001-0.002,0.002-0.004,0.003-0.006c0.04-0.125,0.01-0.262-0.079-0.36l-4.466-4.888
		l1.584,0.387l-0.118-1.533c0.264-0.015,0.551-0.082,0.817-0.26c0.574-0.384,0.865-1.133,0.865-2.228V3.811
		c0-0.177-0.126-0.329-0.3-0.361s-0.347,0.063-0.41,0.228c-0.182,0.468-0.499,1.104-0.809,1.524
		c-0.264-0.86-1.149-2.795-3.785-2.823c-2.654-0.043-3.516,1.991-3.765,2.876c-0.322-0.419-0.659-1.089-0.848-1.577
		c-0.064-0.165-0.237-0.261-0.41-0.228c-0.174,0.033-0.3,0.184-0.3,0.361v1.892c0,1.095,0.291,1.845,0.865,2.228
		c0.284,0.19,0.592,0.255,0.87,0.263l-0.118,1.53l1.541-0.376l-4.456,4.877c-0.089,0.097-0.119,0.235-0.079,0.36
		c0.002,0.006,0.005,0.01,0.008,0.016c-0.159,0.066-0.298,0.113-0.37,0.113c-0.006-0.001-0.035-0.002-0.04-0.002
		c-0.213,0-0.387,0.161-0.388,0.359C9.443,15.25,9.588,15.458,10,15.461h0.03c0.021,0,0.041,0,0.06-0.001
		c-0.137,0.114-0.239,0.197-0.269,0.215c-0.095,0.054-0.136,0.166-0.104,0.286c0.045,0.169,0.223,0.343,0.445,0.343
		c0.098,0,0.194-0.033,0.284-0.097c0.051-0.037,0.106-0.078,0.162-0.122c-0.058,0.128-0.11,0.233-0.146,0.284
		c-0.074,0.103-0.084,0.223-0.029,0.331c0.069,0.134,0.234,0.223,0.41,0.223c0.161,0,0.301-0.074,0.385-0.204
		c0.031-0.049,0.066-0.112,0.102-0.185c0.001,0.05,0.002,0.095,0.003,0.133c0.007,0.205,0.161,0.348,0.375,0.348
		c0.136,0,0.272-0.057,0.363-0.152c0.078-0.081,0.118-0.185,0.113-0.293c-0.006-0.127,0.01-0.454,0.028-0.766
		c0.086-0.006,0.169-0.042,0.232-0.104l1.03-1.008v1.928c0,0.116,0.056,0.221,0.147,0.29v2.087c0,0.203,0.164,0.368,0.368,0.368
		h0.014v0.124c0,0.125,0.063,0.235,0.158,0.301c-0.177,0.17-0.419,0.309-0.717,0.248c-0.384-0.079-0.626-0.266-0.683-0.528
		c-0.055-0.253,0.063-0.537,0.296-0.708c0.111-0.082,0.167-0.219,0.145-0.356c-0.022-0.136-0.119-0.249-0.251-0.291
		c-0.063-0.02-0.627-0.186-1.139,0.168c-0.415,0.288-0.645,0.814-0.683,1.565c-0.042,0.82,0.358,1.536,1.097,1.963
		c0.426,0.246,0.923,0.369,1.411,0.369c0.501,0,0.993-0.129,1.393-0.386c0.652-0.42,1.004-1.119,1.014-1.99
		c0.16-0.04,0.278-0.183,0.278-0.355v-0.132c0.166-0.035,0.291-0.183,0.291-0.359v-2.145l0.324-0.435l0.324,0.435v2.145
		c0,0.177,0.125,0.324,0.291,0.359v0.132c0,0.172,0.119,0.315,0.278,0.355c0.01,0.872,0.362,1.57,1.014,1.99
		c0.399,0.257,0.892,0.386,1.393,0.386c0.489,0,0.986-0.123,1.411-0.369c0.738-0.427,1.138-1.142,1.097-1.963
		c-0.038-0.751-0.267-1.277-0.683-1.565c-0.511-0.354-1.076-0.188-1.139-0.168c-0.132,0.042-0.228,0.155-0.251,0.291
		c-0.022,0.136,0.034,0.274,0.145,0.356c0.232,0.17,0.351,0.455,0.296,0.708c-0.057,0.262-0.3,0.45-0.683,0.528
		c-0.298,0.06-0.54-0.078-0.717-0.248c0.095-0.066,0.158-0.176,0.158-0.301v-0.124h0.014c0.203,0,0.368-0.165,0.368-0.368V16.91
		c0.09-0.069,0.147-0.174,0.147-0.29v-1.928l1.03,1.008c0.07,0.069,0.165,0.104,0.261,0.103c0.018,0.313,0.033,0.64,0.028,0.767
		c-0.005,0.108,0.035,0.212,0.113,0.293c0.091,0.095,0.227,0.152,0.362,0.152c0.214,0,0.368-0.143,0.375-0.348
		c0.001-0.038,0.003-0.083,0.003-0.133c0.036,0.072,0.071,0.136,0.102,0.185c0.083,0.13,0.223,0.204,0.384,0.204
		c0.177,0,0.342-0.09,0.41-0.223c0.055-0.107,0.045-0.228-0.029-0.331c-0.036-0.05-0.089-0.155-0.146-0.284
		c0.056,0.044,0.11,0.085,0.162,0.122c0.09,0.065,0.186,0.097,0.284,0.097c0.222,0,0.4-0.175,0.445-0.343
		c0.032-0.12-0.009-0.232-0.103-0.285c-0.03-0.018-0.133-0.102-0.27-0.216c0.02,0,0.04,0.001,0.06,0.001L23.9,15.461z M14.24,6.547
		c0-1.486,1.209-2.695,2.695-2.695s2.695,1.209,2.695,2.695s-1.209,2.695-2.695,2.695S14.24,8.033,14.24,6.547z M21.504,5.361v0.343
		c0,0.82-0.185,1.378-0.535,1.615c-0.232,0.157-0.513,0.161-0.729,0.13c0.079-0.288,0.124-0.59,0.124-0.903
		c0-0.064-0.006-0.126-0.01-0.189c0.033-0.006,0.066-0.008,0.099-0.018C20.849,6.225,21.211,5.814,21.504,5.361z M12.347,5.704
		V5.361c0.294,0.454,0.656,0.864,1.05,0.98c0.039,0.012,0.078,0.015,0.118,0.021c-0.003,0.062-0.009,0.123-0.009,0.185
		c0,0.312,0.045,0.612,0.124,0.9c-0.216,0.033-0.505,0.034-0.743-0.125C12.533,7.086,12.347,6.527,12.347,5.704z M15.876,18.63
		h-1.521v-1.9l0.767-0.488l0.754,0.656V18.63z M14.629,21.217c-0.567,0.366-1.405,0.365-2.038-0.001
		c-0.289-0.167-0.768-0.556-0.731-1.289c0.016-0.319,0.073-0.575,0.168-0.757c-0.027,0.166-0.024,0.335,0.012,0.499
		c0.122,0.555,0.579,0.953,1.254,1.091c0.932,0.193,1.511-0.526,1.745-0.902h0.265C15.293,20.469,15.065,20.936,14.629,21.217z
		 M19.515,18.63h-1.521v-1.732l0.754-0.656l0.767,0.488V18.63z M20.576,20.759c0.675-0.138,1.132-0.536,1.254-1.091
		c0.036-0.164,0.039-0.333,0.012-0.499c0.094,0.182,0.151,0.438,0.168,0.757c0.037,0.733-0.442,1.122-0.731,1.289
		c-0.633,0.366-1.471,0.367-2.038,0.001c-0.435-0.281-0.664-0.748-0.675-1.36h0.266C19.066,20.233,19.647,20.951,20.576,20.759z
		 M20.287,13.557c-0.106-0.104-0.263-0.133-0.4-0.076c-0.136,0.057-0.225,0.191-0.225,0.339v2.132l-0.751-0.477
		c-0.137-0.087-0.315-0.074-0.439,0.033l-0.789,0.686l-0.454-0.61c-0.139-0.186-0.451-0.186-0.59,0l-0.454,0.61l-0.789-0.686
		c-0.123-0.107-0.302-0.12-0.439-0.033l-0.751,0.477V13.82c0-0.148-0.089-0.282-0.225-0.339c-0.137-0.057-0.294-0.028-0.4,0.076
		l-1.355,1.326c-0.281-0.278-0.663-0.468-0.98-0.59l4.24-4.641c0.44,0.206,0.929,0.324,1.447,0.324c0.517,0,1.007-0.118,1.447-0.324
		l4.24,4.641c-0.318,0.122-0.699,0.311-0.98,0.59L20.287,13.557z"/>
	<circle cx="16.095" cy="11.517" r="0.437"/>
	<circle cx="17.805" cy="11.517" r="0.437"/>
	<circle cx="16.935" cy="12.732" r="0.437"/>
	<path d="M17.569,6.089c0.029,0,0.058-0.009,0.082-0.029c0.072-0.059,0.141-0.099,0.207-0.128C17.847,5.96,17.84,5.99,17.84,6.021
		c0,0.064,0.025,0.121,0.065,0.164c0.044,0.046,0.106,0.075,0.175,0.075c0.132,0,0.24-0.107,0.24-0.24
		c0-0.038-0.01-0.072-0.026-0.104c0.114,0.045,0.187,0.115,0.203,0.132c0.048,0.051,0.13,0.053,0.181,0.005
		c0.052-0.049,0.054-0.13,0.005-0.182c-0.182-0.193-0.666-0.444-1.195-0.011c-0.055,0.045-0.063,0.126-0.018,0.181
		C17.494,6.073,17.531,6.089,17.569,6.089z"/>
	<path d="M16.061,6.021c0-0.038-0.01-0.072-0.026-0.104c0.114,0.045,0.187,0.115,0.203,0.132c0.049,0.051,0.13,0.053,0.181,0.005
		c0.052-0.049,0.054-0.13,0.005-0.182c-0.182-0.193-0.666-0.444-1.195-0.011c-0.055,0.045-0.063,0.126-0.018,0.181
		c0.025,0.031,0.062,0.047,0.1,0.047c0.029,0,0.057-0.009,0.082-0.029c0.072-0.059,0.141-0.099,0.206-0.128
		c-0.011,0.028-0.018,0.058-0.018,0.089c0,0.064,0.025,0.121,0.065,0.164c0.044,0.046,0.106,0.075,0.175,0.075
		C15.954,6.261,16.061,6.153,16.061,6.021z"/>
</g>
</svg>
