<?xml version="1.0" encoding="utf-8"?>
<!-- Generator: Adobe Illustrator 17.0.0, SVG Export Plug-In . SVG Version: 6.00 Build 0)  -->
<!DOCTYPE svg PUBLIC "-//W3C//DTD SVG 1.1//EN" "http://www.w3.org/Graphics/SVG/1.1/DTD/svg11.dtd">
<svg version="1.1" id="Layer_1" xmlns="http://www.w3.org/2000/svg" xmlns:xlink="http://www.w3.org/1999/xlink" x="0px" y="0px"
	 width="33.9px" height="28.6px" viewBox="0 0 33.9 28.6" enable-background="new 0 0 33.9 28.6" xml:space="preserve">
<g>
	<path fill="#231F20" d="M33.9,28.6H0V0h33.9V28.6z M1,27.6h31.9V1H1V27.6z"/>
</g>
<g id="Layer_2">
</g>
<rect x="0.5" y="0.5" fill="#FFFFFF" width="32.9" height="27.6"/>
<rect x="0" y="23.418" fill="none" width="33.9" height="4.682"/>
<g enable-background="new    ">
	<path d="M15.05,26.878c-0.187,0.053-0.38,0.094-0.58,0.122c-0.2,0.028-0.39,0.043-0.57,0.043c-0.317,0-0.603-0.043-0.857-0.128
		c-0.255-0.085-0.473-0.205-0.653-0.36c-0.18-0.154-0.319-0.342-0.417-0.562c-0.098-0.22-0.147-0.466-0.147-0.739
		c0-0.271,0.05-0.517,0.15-0.74c0.1-0.224,0.241-0.415,0.423-0.575c0.182-0.16,0.398-0.285,0.65-0.375
		c0.251-0.09,0.527-0.135,0.828-0.135c0.153,0,0.304,0.009,0.452,0.027s0.283,0.044,0.403,0.077v0.73
		c-0.117-0.087-0.25-0.154-0.4-0.202c-0.15-0.049-0.303-0.073-0.46-0.073c-0.323,0-0.571,0.097-0.742,0.29
		c-0.172,0.193-0.258,0.469-0.258,0.825c0,0.217,0.023,0.412,0.07,0.585c0.046,0.174,0.115,0.321,0.205,0.442
		c0.09,0.122,0.199,0.215,0.327,0.28s0.272,0.098,0.433,0.098c0.037,0,0.069-0.002,0.098-0.005c0.028-0.004,0.064-0.012,0.107-0.025
		v-0.84c0-0.113-0.014-0.202-0.042-0.265c-0.028-0.063-0.083-0.129-0.163-0.195h1.145V26.878z"/>
	<path d="M15.54,26.973c0.05-0.037,0.089-0.071,0.118-0.105c0.028-0.033,0.051-0.074,0.067-0.125c0.017-0.05,0.028-0.11,0.033-0.182
		c0.005-0.072,0.007-0.164,0.007-0.278v-2.095c0-0.08-0.001-0.146-0.002-0.197s-0.005-0.096-0.01-0.133
		c-0.005-0.036-0.011-0.066-0.018-0.09c-0.007-0.023-0.017-0.048-0.03-0.075c-0.02-0.046-0.042-0.082-0.065-0.107
		c-0.023-0.024-0.057-0.054-0.1-0.087h1.415c-0.046,0.036-0.084,0.072-0.112,0.107s-0.053,0.079-0.073,0.132
		c-0.01,0.021-0.017,0.042-0.022,0.065c-0.005,0.023-0.008,0.052-0.01,0.085c-0.002,0.033-0.003,0.074-0.005,0.122
		c-0.002,0.049-0.003,0.107-0.003,0.178v2.095c0,0.11,0.003,0.201,0.008,0.272c0.005,0.072,0.016,0.133,0.032,0.183
		c0.017,0.051,0.04,0.093,0.068,0.128s0.067,0.07,0.117,0.107H15.54z"/>
	<path d="M18.525,26.268c0,0.174,0.018,0.312,0.053,0.415s0.096,0.2,0.183,0.29h-1.426c0.05-0.037,0.089-0.072,0.118-0.107
		c0.028-0.035,0.051-0.077,0.067-0.125c0.017-0.049,0.027-0.109,0.032-0.183s0.008-0.165,0.008-0.275v-2.09
		c0-0.08-0.001-0.146-0.003-0.2c-0.001-0.053-0.005-0.097-0.01-0.132s-0.011-0.065-0.018-0.09c-0.007-0.025-0.017-0.051-0.03-0.078
		c-0.02-0.043-0.041-0.078-0.065-0.104c-0.023-0.027-0.057-0.057-0.1-0.09h1.9c0.047,0,0.081-0.002,0.103-0.006
		c0.021-0.003,0.048-0.011,0.077-0.024v0.77c-0.033-0.043-0.066-0.079-0.1-0.107s-0.071-0.051-0.115-0.067
		c-0.043-0.017-0.093-0.028-0.147-0.035c-0.055-0.006-0.119-0.01-0.192-0.01h-0.335v0.93h0.455c0.036,0,0.064-0.001,0.085-0.005
		c0.02-0.003,0.043-0.012,0.07-0.024v0.689c-0.044-0.073-0.094-0.123-0.15-0.149c-0.057-0.027-0.14-0.04-0.25-0.04h-0.21V26.268z"/>
	<path d="M21.325,26.268c0,0.087,0.005,0.163,0.013,0.23c0.009,0.066,0.021,0.127,0.037,0.182c0.018,0.056,0.04,0.106,0.07,0.153
		c0.03,0.046,0.068,0.093,0.115,0.14h-1.425c0.05-0.037,0.089-0.072,0.117-0.107s0.051-0.077,0.067-0.125
		c0.017-0.049,0.027-0.108,0.032-0.18c0.006-0.072,0.008-0.164,0.008-0.278v-2.189c-0.076-0.014-0.161-0.021-0.255-0.021
		c-0.066,0-0.126,0.004-0.178,0.011s-0.101,0.018-0.147,0.034c-0.047,0.018-0.096,0.04-0.147,0.068s-0.11,0.065-0.178,0.112
		l0.205-0.815l0.085,0.005l0.561,0.011h1.109c0.171,0,0.304,0,0.4,0s0.173-0.001,0.23-0.003c0.057-0.002,0.101-0.005,0.132-0.01
		c0.032-0.005,0.067-0.011,0.107-0.018l-0.18,0.83c-0.047-0.09-0.104-0.151-0.173-0.186c-0.068-0.033-0.169-0.05-0.302-0.05
		c-0.104,0-0.205,0.01-0.306,0.03V26.268z"/>
</g>
<g>
	<path d="M26.962,6.608l-4.91-1.738l-0.468-0.166l0,0L17.079,3.11c-0.084-0.03-0.174-0.03-0.258,0l-4.505,1.595l0,0L12.049,4.8
		l-5.11,1.809c-0.154,0.055-0.257,0.2-0.257,0.364v2.635c0,0.11,0.047,0.214,0.128,0.287l0.554,0.498v7.461
		c0,0.163,0.103,0.309,0.257,0.364l9.201,3.271c0.042,0.015,0.086,0.022,0.129,0.022s0.088-0.007,0.129-0.022l9.201-3.271
		c0.154-0.055,0.257-0.201,0.257-0.364v-7.461l0.554-0.498c0.081-0.073,0.128-0.178,0.128-0.287V6.972
		C27.219,6.809,27.116,6.663,26.962,6.608z M20.075,5.003L18.618,5.92l0.877-1.123L20.075,5.003z M14.406,4.798l0.877,1.123
		l-1.457-0.918L14.406,4.798z M10.884,18.559l-2.749-0.977v-6.836l2.749,0.855C10.884,11.601,10.884,18.559,10.884,18.559z
		 M11.838,18.858l-0.181-0.078v-6.938l0.181,0.056V18.858z M11.838,9.812v1.276l-0.181-0.056V9.871l0.182-0.089
		C11.838,9.792,11.838,9.802,11.838,9.812z M13.185,19.329l-0.051-0.023v-7.005l0.051,0.016V19.329z M13.185,10.335v1.173
		l-0.051-0.016v-1.179l0.055-0.03C13.186,10.3,13.185,10.317,13.185,10.335z M19.942,19.652l-2.992,1.064l-2.992-1.064v-7.095
		l2.877,0.895c0.075,0.023,0.155,0.023,0.229,0l2.877-0.895L19.942,19.652L19.942,19.652z M20.767,19.306l-0.052,0.023v-7.012
		l0.052-0.016V19.306z M20.767,11.492l-0.052,0.016v-1.173c0-0.018-0.001-0.035-0.004-0.052l0.055,0.03L20.767,11.492L20.767,11.492
		z M22.243,18.78l-0.181,0.078v-6.96l0.181-0.056V18.78z M22.243,11.032l-0.181,0.056V9.812c0-0.01,0-0.02-0.001-0.03l0.182,0.089
		V11.032z M25.765,17.582l-2.748,0.977v-6.958l2.748-0.855V17.582z M26.446,9.436l-0.491,0.442l-2.939,0.914V9.63
		c0-0.147-0.084-0.282-0.216-0.347l-3.336-1.637c-0.067,0.685-0.796,1.226-1.835,1.409l2.313,1.49v1.203l-2.992,0.931l-2.992-0.931
		v-1.203l2.271-1.463c-1.081-0.142-1.87-0.658-2.005-1.332L11.1,9.284c-0.132,0.065-0.216,0.2-0.216,0.347v1.161L7.945,9.877
		L7.454,9.436v-2.19l3.814-1.35l3.067,1.135c0.29-0.539,1.03-0.932,1.985-1.037l-1.154-1.478l1.784-0.632l1.785,0.632l-1.177,1.506
		c0.895,0.142,1.573,0.545,1.815,1.08l3.26-1.206l3.814,1.35L26.446,9.436L26.446,9.436z"/>
	<path d="M16.836,6.737c-1.137,0-1.863,0.477-1.863,0.806c0,0.329,0.726,0.806,1.863,0.806s1.863-0.477,1.863-0.806
		C18.699,7.215,17.974,6.737,16.836,6.737z"/>
</g>
</svg>
