<?xml version="1.0" encoding="utf-8"?>
<!-- Generator: Adobe Illustrator 17.0.0, SVG Export Plug-In . SVG Version: 6.00 Build 0)  -->
<!DOCTYPE svg PUBLIC "-//W3C//DTD SVG 1.1//EN" "http://www.w3.org/Graphics/SVG/1.1/DTD/svg11.dtd">
<svg version="1.1" id="Layer_1" xmlns="http://www.w3.org/2000/svg" xmlns:xlink="http://www.w3.org/1999/xlink" x="0px" y="0px"
	 width="33.9px" height="28.6px" viewBox="0 0 33.9 28.6" enable-background="new 0 0 33.9 28.6" xml:space="preserve">
<g>
	<path fill="#231F20" d="M33.9,28.6H0V0h33.9V28.6z M1,27.6h31.9V1H1V27.6z"/>
</g>
<g id="Layer_2">
</g>
<rect x="0.5" y="0.5" fill="#FFFFFF" width="32.9" height="27.6"/>
<rect x="0" y="23.418" fill="none" width="33.9" height="4.682"/>
<g enable-background="new    ">
	<path d="M7.54,26.878C7.354,26.931,7.16,26.972,6.96,27c-0.2,0.028-0.39,0.043-0.57,0.043c-0.317,0-0.603-0.043-0.857-0.128
		C5.278,26.83,5.06,26.71,4.88,26.555c-0.18-0.154-0.319-0.342-0.417-0.562c-0.098-0.22-0.147-0.466-0.147-0.739
		c0-0.271,0.05-0.517,0.15-0.74c0.1-0.224,0.241-0.415,0.423-0.575c0.182-0.16,0.398-0.285,0.65-0.375
		c0.251-0.09,0.527-0.135,0.828-0.135c0.153,0,0.304,0.009,0.452,0.027s0.283,0.044,0.403,0.077v0.73
		c-0.117-0.087-0.25-0.154-0.4-0.202c-0.15-0.049-0.303-0.073-0.46-0.073c-0.323,0-0.571,0.097-0.742,0.29
		c-0.172,0.193-0.258,0.469-0.258,0.825c0,0.217,0.023,0.412,0.07,0.585c0.046,0.174,0.115,0.321,0.205,0.442
		c0.09,0.122,0.199,0.215,0.327,0.28s0.272,0.098,0.433,0.098c0.037,0,0.069-0.002,0.098-0.005c0.028-0.004,0.064-0.012,0.107-0.025
		v-0.84c0-0.113-0.014-0.202-0.042-0.265c-0.028-0.063-0.083-0.129-0.163-0.195H7.54V26.878z"/>
	<path d="M8.03,26.973c0.05-0.037,0.089-0.071,0.118-0.105c0.028-0.033,0.051-0.074,0.067-0.125c0.017-0.05,0.028-0.11,0.033-0.182
		c0.005-0.072,0.007-0.164,0.007-0.278v-2.095c0-0.08-0.001-0.146-0.002-0.197s-0.005-0.096-0.01-0.133
		c-0.005-0.036-0.011-0.066-0.018-0.09c-0.007-0.023-0.017-0.048-0.03-0.075c-0.02-0.046-0.042-0.082-0.065-0.107
		c-0.023-0.024-0.057-0.054-0.1-0.087h0.99c0.237,0,0.424,0,0.562,0.002s0.249,0.006,0.333,0.013c0.083,0.007,0.15,0.018,0.2,0.032
		c0.05,0.016,0.104,0.036,0.16,0.062c0.16,0.07,0.287,0.176,0.38,0.317s0.14,0.298,0.14,0.468c0,0.2-0.055,0.369-0.165,0.508
		c-0.11,0.138-0.282,0.257-0.515,0.357c0.534,0.923,0.934,1.486,1.2,1.689c-0.14,0.018-0.269,0.028-0.385,0.035
		c-0.117,0.007-0.232,0.01-0.345,0.01c-0.104,0-0.191-0.005-0.263-0.015c-0.071-0.01-0.136-0.03-0.192-0.06
		c-0.057-0.03-0.108-0.07-0.155-0.12c-0.047-0.05-0.097-0.115-0.15-0.195c-0.074-0.106-0.159-0.252-0.255-0.438
		c-0.097-0.185-0.22-0.436-0.37-0.752v0.869c0,0.11,0.002,0.201,0.007,0.272c0.005,0.072,0.016,0.133,0.032,0.183
		c0.017,0.051,0.04,0.093,0.068,0.128s0.067,0.07,0.117,0.107H8.03z M9.201,25.208c0.183-0.037,0.327-0.113,0.432-0.23
		c0.105-0.116,0.158-0.26,0.158-0.43c0-0.127-0.032-0.237-0.095-0.33c-0.063-0.094-0.145-0.153-0.245-0.18
		c-0.037-0.011-0.074-0.017-0.113-0.021c-0.038-0.003-0.084-0.005-0.137-0.005V25.208z"/>
	<path d="M13.06,23.492c0.146,0,0.281,0.021,0.402,0.061s0.227,0.097,0.315,0.171c0.088,0.073,0.157,0.16,0.205,0.261
		s0.073,0.212,0.073,0.336c0,0.171-0.045,0.311-0.135,0.419s-0.23,0.196-0.42,0.264c0.243,0.047,0.432,0.149,0.565,0.31
		s0.2,0.36,0.2,0.601c0,0.156-0.03,0.302-0.09,0.438c-0.06,0.135-0.146,0.25-0.26,0.347c-0.117,0.101-0.242,0.171-0.375,0.213
		s-0.302,0.062-0.505,0.062h-1.61c0.05-0.037,0.089-0.071,0.118-0.105c0.028-0.033,0.051-0.075,0.067-0.125s0.028-0.111,0.033-0.183
		s0.007-0.164,0.007-0.278v-2.093c0-0.08-0.001-0.146-0.002-0.2s-0.005-0.098-0.01-0.133c-0.005-0.035-0.011-0.064-0.018-0.09
		c-0.007-0.025-0.017-0.051-0.03-0.078c-0.02-0.043-0.042-0.078-0.065-0.104c-0.023-0.027-0.057-0.057-0.1-0.091H13.06z
		 M12.596,24.838c0.02,0.007,0.037,0.012,0.05,0.015c0.013,0.004,0.032,0.005,0.055,0.005c0.126,0,0.23-0.042,0.31-0.127
		c0.08-0.085,0.12-0.196,0.12-0.333c0-0.116-0.035-0.212-0.105-0.287c-0.07-0.075-0.158-0.112-0.265-0.112
		c-0.026,0-0.051,0.001-0.075,0.005c-0.023,0.003-0.053,0.012-0.09,0.024V24.838z M12.596,26.418
		c0.073,0.043,0.155,0.064,0.245,0.064c0.15,0,0.268-0.054,0.353-0.162s0.127-0.261,0.127-0.458c0-0.373-0.198-0.56-0.595-0.56
		c-0.014,0-0.032,0-0.055,0s-0.048,0.002-0.075,0.005V26.418z"/>
	<path d="M14.65,26.973c0.05-0.037,0.089-0.071,0.118-0.105c0.028-0.033,0.051-0.074,0.067-0.125c0.017-0.05,0.028-0.11,0.033-0.182
		c0.005-0.072,0.007-0.164,0.007-0.278v-2.095c0-0.08-0.001-0.146-0.002-0.197s-0.005-0.096-0.01-0.133
		c-0.005-0.036-0.011-0.066-0.018-0.09c-0.007-0.023-0.017-0.048-0.03-0.075c-0.02-0.046-0.042-0.082-0.065-0.107
		c-0.023-0.024-0.057-0.054-0.1-0.087h0.99c0.237,0,0.424,0,0.562,0.002s0.249,0.006,0.333,0.013c0.083,0.007,0.15,0.018,0.2,0.032
		c0.05,0.016,0.104,0.036,0.16,0.062c0.16,0.07,0.287,0.176,0.38,0.317s0.14,0.298,0.14,0.468c0,0.2-0.055,0.369-0.165,0.508
		c-0.11,0.138-0.282,0.257-0.515,0.357c0.534,0.923,0.934,1.486,1.2,1.689c-0.14,0.018-0.269,0.028-0.385,0.035
		c-0.117,0.007-0.232,0.01-0.345,0.01c-0.104,0-0.191-0.005-0.263-0.015c-0.071-0.01-0.136-0.03-0.192-0.06
		c-0.057-0.03-0.108-0.07-0.155-0.12c-0.047-0.05-0.097-0.115-0.15-0.195c-0.074-0.106-0.159-0.252-0.255-0.438
		c-0.097-0.185-0.22-0.436-0.37-0.752v0.869c0,0.11,0.002,0.201,0.007,0.272c0.005,0.072,0.016,0.133,0.032,0.183
		c0.017,0.051,0.04,0.093,0.068,0.128s0.067,0.07,0.117,0.107H14.65z M15.821,25.208c0.183-0.037,0.327-0.113,0.432-0.23
		c0.105-0.116,0.158-0.26,0.158-0.43c0-0.127-0.032-0.237-0.095-0.33c-0.063-0.094-0.145-0.153-0.245-0.18
		c-0.037-0.011-0.074-0.017-0.113-0.021c-0.038-0.003-0.084-0.005-0.137-0.005V25.208z"/>
	<path d="M20.78,23.498h1.24c-0.077,0.076-0.129,0.139-0.155,0.188c-0.026,0.048-0.04,0.105-0.04,0.172c0,0.021,0,0.037,0,0.05
		c0,0.014,0.002,0.033,0.005,0.058c0.003,0.025,0.007,0.061,0.011,0.105c0.002,0.045,0.01,0.105,0.02,0.183l0.23,1.97
		c0.016,0.193,0.045,0.346,0.087,0.457c0.042,0.112,0.105,0.21,0.192,0.293H21c0.063-0.073,0.107-0.139,0.133-0.197
		c0.024-0.059,0.037-0.124,0.037-0.197c0-0.027-0.001-0.06-0.005-0.098c-0.004-0.039-0.008-0.083-0.016-0.133l-0.184-1.62
		l-0.691,2.305c-0.129-0.062-0.235-0.12-0.316-0.172c-0.082-0.052-0.151-0.106-0.208-0.165s-0.104-0.127-0.146-0.205
		c-0.039-0.078-0.081-0.178-0.125-0.298l-0.56-1.465l-0.159,1.555c-0.008,0.058-0.012,0.101-0.014,0.131
		c-0.001,0.029-0.003,0.053-0.004,0.069c-0.002,0.017-0.003,0.031-0.003,0.043s0,0.025,0,0.042c0,0.087,0.018,0.162,0.052,0.226
		c0.035,0.063,0.096,0.123,0.184,0.18h-1.041c0.044-0.043,0.08-0.085,0.11-0.125s0.056-0.086,0.075-0.138s0.035-0.11,0.047-0.178
		c0.012-0.066,0.023-0.149,0.033-0.25l0.245-2.029c0.007-0.07,0.011-0.125,0.015-0.165s0.006-0.077,0.006-0.11
		c0-0.097-0.017-0.183-0.049-0.258c-0.031-0.074-0.084-0.148-0.156-0.222h1.104l0.8,2.034L20.78,23.498z"/>
	<path d="M24.615,23.498l1.021,2.774c0.033,0.094,0.062,0.171,0.09,0.232c0.026,0.062,0.055,0.118,0.084,0.168
		c0.031,0.05,0.066,0.098,0.105,0.143c0.04,0.045,0.09,0.098,0.15,0.157H24.54c0.084-0.066,0.141-0.122,0.17-0.168
		c0.03-0.045,0.045-0.096,0.045-0.152c0-0.036-0.004-0.076-0.015-0.12c-0.01-0.043-0.03-0.107-0.06-0.194l-0.141-0.42h-1.05
		l-0.146,0.42c-0.029,0.08-0.051,0.145-0.062,0.194c-0.012,0.051-0.018,0.094-0.018,0.131c0,0.053,0.012,0.098,0.035,0.135
		c0.023,0.036,0.077,0.095,0.16,0.175h-1.084c0.057-0.06,0.103-0.112,0.139-0.157c0.037-0.045,0.07-0.093,0.098-0.143
		c0.029-0.05,0.056-0.108,0.08-0.175c0.025-0.067,0.055-0.152,0.088-0.256l0.71-2.064c0.023-0.066,0.042-0.12,0.056-0.16
		c0.013-0.04,0.022-0.072,0.029-0.098c0.007-0.024,0.011-0.045,0.013-0.06c0.001-0.016,0.003-0.031,0.003-0.048
		c0-0.057-0.015-0.107-0.043-0.152s-0.081-0.1-0.158-0.162H24.615z M23.995,24.383l-0.35,1.045h0.72L23.995,24.383z"/>
	<path d="M26.145,26.973c0.086-0.094,0.146-0.19,0.182-0.293c0.035-0.102,0.053-0.238,0.053-0.412v-1.95
		c0-0.1-0.004-0.186-0.012-0.257c-0.01-0.072-0.025-0.138-0.049-0.198c-0.023-0.06-0.054-0.118-0.092-0.175
		c-0.039-0.057-0.09-0.12-0.152-0.189h1.085l1.64,2.17v-1.465c0-0.091-0.004-0.169-0.01-0.235c-0.007-0.066-0.02-0.127-0.037-0.18
		c-0.02-0.054-0.043-0.103-0.072-0.147c-0.031-0.046-0.068-0.093-0.115-0.143h1.01c-0.047,0.046-0.086,0.093-0.115,0.14
		s-0.053,0.098-0.07,0.152c-0.017,0.055-0.029,0.116-0.037,0.183s-0.013,0.144-0.013,0.23v2.875c-0.286-0.058-0.54-0.158-0.76-0.303
		c-0.22-0.146-0.415-0.341-0.585-0.588l-1.07-1.415v1.495c0,0.087,0.004,0.163,0.013,0.23c0.009,0.066,0.021,0.126,0.038,0.18
		c0.016,0.054,0.039,0.104,0.069,0.15c0.03,0.046,0.068,0.095,0.115,0.145H26.145z"/>
</g>
<g>
	<circle cx="16.95" cy="12.631" r="0.649"/>
	<circle cx="21.284" cy="9.473" r="0.198"/>
	<circle cx="21.431" cy="10.043" r="0.198"/>
	<circle cx="21.579" cy="10.612" r="0.198"/>
	<circle cx="21.726" cy="11.182" r="0.198"/>
	<circle cx="22.049" cy="9.276" r="0.198"/>
	<circle cx="22.196" cy="9.845" r="0.198"/>
	<circle cx="22.343" cy="10.415" r="0.198"/>
	<circle cx="22.491" cy="10.984" r="0.198"/>
	<circle cx="12.616" cy="9.473" r="0.198"/>
	<circle cx="12.469" cy="10.043" r="0.198"/>
	<circle cx="12.322" cy="10.612" r="0.198"/>
	<circle cx="12.174" cy="11.182" r="0.198"/>
	<circle cx="11.852" cy="9.276" r="0.198"/>
	<circle cx="11.704" cy="9.845" r="0.198"/>
	<circle cx="11.557" cy="10.415" r="0.198"/>
	<circle cx="11.41" cy="10.984" r="0.198"/>
	<circle cx="21.676" cy="17.427" r="0.198"/>
	<circle cx="21.539" cy="18" r="0.198"/>
	<circle cx="21.402" cy="18.573" r="0.198"/>
	<circle cx="21.265" cy="19.145" r="0.198"/>
	<circle cx="21.128" cy="19.718" r="0.198"/>
	<circle cx="20.991" cy="20.291" r="0.198"/>
	<circle cx="22.511" cy="17.021" r="0.198"/>
	<circle cx="22.374" cy="17.594" r="0.198"/>
	<circle cx="22.237" cy="18.167" r="0.198"/>
	<circle cx="22.1" cy="18.739" r="0.198"/>
	<circle cx="21.963" cy="19.312" r="0.198"/>
	<circle cx="21.826" cy="19.885" r="0.198"/>
	<circle cx="21.689" cy="20.458" r="0.198"/>
	<circle cx="12.224" cy="17.427" r="0.198"/>
	<circle cx="12.361" cy="18" r="0.198"/>
	<circle cx="12.498" cy="18.573" r="0.198"/>
	<circle cx="12.635" cy="19.145" r="0.198"/>
	<circle cx="12.772" cy="19.718" r="0.198"/>
	<circle cx="12.909" cy="20.291" r="0.198"/>
	<circle cx="11.389" cy="17.021" r="0.198"/>
	<circle cx="11.526" cy="17.594" r="0.198"/>
	<circle cx="11.663" cy="18.167" r="0.198"/>
	<circle cx="11.8" cy="18.739" r="0.198"/>
	<circle cx="11.937" cy="19.312" r="0.198"/>
	<circle cx="12.074" cy="19.885" r="0.198"/>
	<circle cx="12.211" cy="20.458" r="0.198"/>
	<circle cx="16.95" cy="15.265" r="0.649"/>
	<path d="M18,7.685c-0.078-0.031-0.167-0.011-0.224,0.049c-0.004,0.004-0.381,0.395-0.86,0.395c-0.277,0-0.543-0.133-0.791-0.395
		c-0.057-0.061-0.146-0.08-0.224-0.049s-0.129,0.106-0.129,0.19c0,0.65,0.529,1.179,1.179,1.179s1.179-0.529,1.179-1.179
		C18.129,7.791,18.078,7.716,18,7.685z"/>
	<path d="M27.58,16.953c-0.382-1.028-1.353-1.774-2.309-1.774c-0.348,0-0.675,0.094-0.97,0.281c-0.561,0.354-1.16,0.533-1.78,0.533
		c-0.313,0-0.57-0.047-0.742-0.091l-0.12-3.256c1.238-0.171,3.26-0.943,3.512-1.04c0.021-0.008,0.04-0.017,0.059-0.028
		c1.418-0.829,2.084-1.99,1.782-3.104c-0.255-0.942-1.157-1.575-2.244-1.575c-0.569,0-1.165,0.177-1.723,0.512
		C22.24,7.894,21.485,8.15,20.8,8.173c0.221-0.515,0.336-1.07,0.336-1.633c0-2.294-1.866-4.161-4.161-4.161h-0.05
		c-2.295,0-4.161,1.867-4.161,4.161c0,0.563,0.115,1.118,0.337,1.633c-0.685-0.023-1.44-0.279-2.246-0.763
		C10.296,7.075,9.7,6.898,9.131,6.898c-1.087,0-1.988,0.633-2.244,1.575c-0.302,1.114,0.364,2.274,1.782,3.104
		c0.019,0.011,0.039,0.02,0.059,0.028c0.253,0.098,2.275,0.87,3.512,1.04l-0.12,3.256c-0.172,0.044-0.43,0.091-0.742,0.091
		c-0.62,0-1.219-0.179-1.78-0.533c-0.295-0.186-0.622-0.281-0.97-0.281c-0.956,0-1.927,0.746-2.309,1.774
		c-0.412,1.11-0.078,2.238,0.918,3.095c1.557,1.342,2.771,2.173,4.009,2.173c0.63,0,1.242-0.22,1.871-0.671
		c1.711-1.228,2.427-1.583,3.189-1.583h1.284c0.762,0,1.477,0.355,3.189,1.583c0.63,0.452,1.242,0.671,1.871,0.671
		c1.238,0,2.452-0.831,4.009-2.173C27.657,19.191,27.992,18.063,27.58,16.953z M26.128,19.428c-1.376,1.185-2.493,1.975-3.476,1.975
		c-0.317,0-0.627-0.081-0.951-0.246c0.019-0.023,0.035-0.049,0.043-0.08c0.025-0.106-0.04-0.213-0.146-0.238
		c-0.097-0.023-0.192,0.032-0.227,0.123c-0.037-0.025-0.075-0.049-0.113-0.076c-1.674-1.201-2.6-1.736-3.666-1.736h-1.284
		c-1.066,0-1.992,0.536-3.666,1.736c-0.038,0.027-0.075,0.051-0.112,0.076c-0.035-0.091-0.13-0.146-0.227-0.123
		c-0.106,0.025-0.172,0.132-0.146,0.238c0.007,0.031,0.023,0.057,0.043,0.08c-0.324,0.165-0.634,0.246-0.951,0.246
		c-0.982,0-2.1-0.789-3.476-1.975c-0.987-0.851-0.853-1.738-0.684-2.191c0.262-0.707,0.925-1.241,1.541-1.241
		c0.192,0,0.371,0.052,0.534,0.155c0.694,0.437,1.439,0.659,2.216,0.659c0.194,0,0.372-0.015,0.53-0.036
		c-0.017,0.038-0.025,0.081-0.015,0.125c0.025,0.106,0.132,0.172,0.238,0.146c0.106-0.025,0.172-0.132,0.146-0.238
		c-0.009-0.037-0.03-0.066-0.055-0.091c0.277-0.063,0.448-0.134,0.46-0.14c0.143-0.063,0.238-0.203,0.244-0.36l0.144-3.932
		c0.004-0.111-0.037-0.219-0.114-0.299c-0.077-0.08-0.183-0.125-0.295-0.125c-0.124,0-0.28-0.018-0.452-0.048
		c0.002-0.005,0.005-0.008,0.006-0.013c0.027-0.106-0.036-0.213-0.142-0.241c-0.106-0.027-0.213,0.036-0.241,0.142
		c-0.003,0.012-0.001,0.024-0.002,0.036c-0.127-0.029-0.261-0.063-0.397-0.099c0.006-0.012,0.014-0.022,0.017-0.035
		c0.027-0.106-0.036-0.213-0.142-0.241c-0.106-0.027-0.213,0.036-0.241,0.142c-0.003,0.011-0.001,0.021-0.002,0.032
		c-0.78-0.228-1.594-0.52-2.015-0.681c-1.061-0.629-1.575-1.437-1.377-2.167c0.157-0.581,0.742-0.971,1.454-0.971
		c0.421,0,0.871,0.137,1.302,0.395c0.47,0.282,0.93,0.495,1.377,0.643c0.017,0.067,0.067,0.125,0.139,0.143
		c0.068,0.018,0.134-0.005,0.182-0.049c0.148,0.038,0.295,0.07,0.439,0.093c0.014,0.072,0.067,0.134,0.143,0.154
		c0.095,0.025,0.189-0.026,0.227-0.113c0.087,0.006,0.175,0.011,0.261,0.011c0.216,0,0.427-0.019,0.626-0.057
		c0.133-0.026,0.244-0.115,0.298-0.239c0.054-0.124,0.043-0.266-0.029-0.381c-0.337-0.535-0.515-1.149-0.515-1.776
		c0-1.843,1.5-3.343,3.343-3.343h0.05c1.843,0,3.343,1.5,3.343,3.343c0,0.627-0.178,1.241-0.515,1.776
		c-0.072,0.114-0.083,0.257-0.029,0.381s0.165,0.213,0.298,0.239c0.199,0.038,0.41,0.057,0.626,0.057
		c0.086,0,0.173-0.005,0.26-0.011c0.038,0.087,0.132,0.138,0.227,0.113c0.076-0.02,0.129-0.082,0.143-0.154
		c0.145-0.023,0.291-0.055,0.439-0.093c0.048,0.044,0.114,0.067,0.182,0.05c0.072-0.019,0.122-0.076,0.139-0.143
		c0.447-0.147,0.907-0.36,1.377-0.642c0.431-0.258,0.881-0.395,1.302-0.395c0.713,0,1.297,0.39,1.454,0.971
		c0.198,0.729-0.317,1.538-1.378,2.167c-0.421,0.162-1.235,0.453-2.015,0.681c-0.001-0.011,0.001-0.021-0.002-0.032
		c-0.027-0.106-0.135-0.169-0.241-0.142c-0.106,0.027-0.169,0.135-0.142,0.241c0.003,0.013,0.011,0.024,0.017,0.035
		c-0.136,0.036-0.27,0.07-0.397,0.099c-0.001-0.012,0.001-0.024-0.002-0.036c-0.027-0.106-0.135-0.169-0.241-0.142
		c-0.106,0.027-0.169,0.135-0.142,0.241c0.001,0.005,0.005,0.008,0.006,0.013c-0.173,0.029-0.328,0.048-0.452,0.048
		c-0.111,0-0.217,0.045-0.295,0.125c-0.077,0.08-0.118,0.188-0.114,0.299l0.144,3.932c0.006,0.157,0.101,0.297,0.244,0.36
		c0.012,0.005,0.183,0.077,0.46,0.14c-0.025,0.025-0.046,0.054-0.055,0.091c-0.025,0.106,0.04,0.213,0.146,0.238
		c0.106,0.025,0.213-0.04,0.238-0.146c0.011-0.044,0.002-0.087-0.015-0.125c0.158,0.022,0.336,0.036,0.53,0.036
		c0.777,0,1.523-0.222,2.216-0.659c0.163-0.102,0.342-0.155,0.534-0.155c0.616,0,1.279,0.533,1.542,1.24
		C26.981,17.691,27.116,18.578,26.128,19.428z"/>
	<path d="M17.542,5.962c-0.061,0.05-0.07,0.14-0.02,0.201c0.028,0.035,0.069,0.053,0.111,0.053c0.032,0,0.064-0.011,0.091-0.032
		c0.08-0.066,0.157-0.111,0.23-0.142c-0.012,0.031-0.02,0.064-0.02,0.099c0,0.071,0.028,0.135,0.073,0.183
		c0.049,0.052,0.118,0.084,0.194,0.084c0.147,0,0.267-0.119,0.267-0.267c0-0.042-0.012-0.08-0.029-0.115
		c0.127,0.05,0.208,0.128,0.226,0.146c0.054,0.057,0.145,0.059,0.202,0.005s0.06-0.145,0.006-0.203
		C18.669,5.76,18.13,5.481,17.542,5.962z"/>
	<path d="M15.955,6.14c0-0.042-0.012-0.08-0.029-0.115c0.127,0.05,0.208,0.128,0.226,0.146c0.054,0.057,0.145,0.059,0.202,0.005
		s0.06-0.145,0.006-0.203c-0.203-0.214-0.741-0.493-1.329-0.012c-0.061,0.05-0.07,0.14-0.02,0.201
		c0.028,0.035,0.069,0.053,0.111,0.053c0.032,0,0.064-0.011,0.091-0.032c0.08-0.066,0.157-0.111,0.23-0.142
		c-0.012,0.031-0.02,0.064-0.02,0.099c0,0.071,0.028,0.135,0.073,0.183c0.049,0.052,0.118,0.084,0.194,0.084
		C15.836,6.407,15.955,6.288,15.955,6.14z"/>
</g>
</svg>
