<?xml version="1.0" encoding="utf-8"?>
<!-- Generator: Adobe Illustrator 17.0.0, SVG Export Plug-In . SVG Version: 6.00 Build 0)  -->
<!DOCTYPE svg PUBLIC "-//W3C//DTD SVG 1.1//EN" "http://www.w3.org/Graphics/SVG/1.1/DTD/svg11.dtd">
<svg version="1.1" id="Layer_1" xmlns="http://www.w3.org/2000/svg" xmlns:xlink="http://www.w3.org/1999/xlink" x="0px" y="0px"
	 width="33.9px" height="28.6px" viewBox="0 0 33.9 28.6" enable-background="new 0 0 33.9 28.6" xml:space="preserve">
<g>
	<path fill="#231F20" d="M33.9,28.6H0V0h33.9V28.6z M1,27.6h31.9V1H1V27.6z"/>
</g>
<g id="Layer_2">
</g>
<rect x="0.5" y="0.5" fill="#FFFFFF" width="32.9" height="27.6"/>
<rect x="0" y="23.418" fill="none" width="33.9" height="4.682"/>
<g enable-background="new    ">
	<path d="M10.225,26.282c0,0.11,0.003,0.201,0.008,0.272c0.005,0.072,0.015,0.133,0.03,0.183c0.015,0.051,0.038,0.093,0.068,0.128
		c0.03,0.035,0.068,0.07,0.115,0.107h-1.41c0.05-0.037,0.089-0.071,0.118-0.105c0.028-0.033,0.051-0.074,0.067-0.125
		c0.017-0.05,0.028-0.11,0.033-0.182c0.005-0.072,0.007-0.164,0.007-0.278v-2.095c0-0.08-0.001-0.146-0.002-0.197
		s-0.005-0.096-0.01-0.133c-0.005-0.036-0.011-0.066-0.018-0.09c-0.007-0.023-0.017-0.048-0.03-0.075
		c-0.02-0.046-0.042-0.082-0.065-0.107c-0.023-0.024-0.057-0.054-0.1-0.087h1.41c-0.047,0.036-0.083,0.072-0.11,0.107
		c-0.027,0.035-0.05,0.079-0.07,0.132c-0.01,0.021-0.017,0.042-0.022,0.065c-0.005,0.023-0.008,0.052-0.01,0.085
		c-0.002,0.033-0.003,0.074-0.005,0.122c-0.002,0.049-0.003,0.107-0.003,0.178v0.665h0.91v-0.665c0-0.08-0.001-0.146-0.002-0.197
		s-0.005-0.095-0.01-0.13c-0.005-0.035-0.011-0.065-0.018-0.09c-0.007-0.025-0.017-0.051-0.03-0.078
		c-0.02-0.046-0.042-0.082-0.065-0.107c-0.023-0.024-0.057-0.054-0.1-0.087h1.415c-0.046,0.036-0.084,0.072-0.112,0.107
		s-0.053,0.079-0.073,0.132c-0.01,0.021-0.017,0.041-0.022,0.062c-0.005,0.022-0.008,0.05-0.01,0.083
		c-0.002,0.033-0.003,0.074-0.005,0.122c-0.002,0.049-0.003,0.109-0.003,0.183v2.095c0,0.084,0.001,0.151,0.003,0.203
		c0.001,0.052,0.004,0.095,0.007,0.13s0.009,0.064,0.018,0.088c0.008,0.022,0.019,0.048,0.032,0.074
		c0.02,0.044,0.042,0.079,0.065,0.105c0.023,0.026,0.057,0.057,0.1,0.09H10.91c0.05-0.037,0.089-0.072,0.118-0.107
		s0.051-0.077,0.067-0.125c0.017-0.049,0.028-0.109,0.033-0.183s0.007-0.165,0.007-0.275v-0.895h-0.91V26.282z"/>
	<path d="M14.675,23.428c0.28,0,0.533,0.043,0.76,0.13s0.422,0.208,0.585,0.365c0.164,0.156,0.289,0.345,0.377,0.564
		c0.088,0.221,0.133,0.466,0.133,0.735c0,0.267-0.048,0.512-0.143,0.735c-0.095,0.223-0.229,0.415-0.4,0.574
		c-0.172,0.16-0.377,0.285-0.615,0.375c-0.238,0.091-0.499,0.136-0.782,0.136c-0.28,0-0.537-0.045-0.77-0.133
		c-0.233-0.088-0.434-0.212-0.6-0.37c-0.167-0.158-0.297-0.348-0.39-0.567s-0.14-0.462-0.14-0.725c0-0.271,0.048-0.517,0.145-0.74
		s0.233-0.415,0.408-0.575s0.384-0.284,0.627-0.372C14.113,23.472,14.382,23.428,14.675,23.428z M14.565,23.963
		c-0.13,0-0.248,0.028-0.355,0.085c-0.106,0.057-0.197,0.137-0.272,0.24c-0.075,0.103-0.133,0.228-0.175,0.372
		c-0.042,0.145-0.062,0.306-0.062,0.482c0,0.224,0.032,0.436,0.095,0.638c0.063,0.201,0.148,0.357,0.255,0.468
		c0.077,0.083,0.168,0.147,0.275,0.192c0.106,0.045,0.218,0.067,0.335,0.067c0.233,0,0.432-0.09,0.595-0.271
		c0.18-0.193,0.27-0.472,0.27-0.835c0-0.203-0.025-0.4-0.077-0.592c-0.052-0.192-0.123-0.353-0.212-0.482
		C15.068,24.084,14.845,23.963,14.565,23.963z"/>
	<path d="M18.09,26.383c0.087,0.033,0.168,0.056,0.245,0.067c0.076,0.012,0.177,0.018,0.3,0.018c0.073,0,0.141-0.004,0.202-0.013
		c0.062-0.008,0.12-0.021,0.176-0.037c0.055-0.017,0.109-0.04,0.165-0.07c0.055-0.03,0.112-0.066,0.172-0.11l-0.2,0.735H16.9
		c0.05-0.037,0.089-0.072,0.118-0.107s0.051-0.077,0.067-0.128c0.017-0.05,0.028-0.11,0.033-0.183
		c0.005-0.071,0.007-0.164,0.007-0.277v-2.09c0-0.08-0.001-0.146-0.002-0.197s-0.005-0.096-0.01-0.133
		c-0.005-0.036-0.011-0.066-0.018-0.09c-0.007-0.023-0.017-0.048-0.03-0.075c-0.02-0.046-0.042-0.082-0.065-0.107
		c-0.023-0.024-0.057-0.054-0.1-0.087h1.415c-0.046,0.036-0.084,0.072-0.112,0.107s-0.053,0.079-0.072,0.133
		c-0.01,0.02-0.018,0.042-0.022,0.064c-0.005,0.023-0.009,0.052-0.01,0.086c-0.002,0.033-0.004,0.074-0.005,0.122
		c-0.002,0.049-0.003,0.108-0.003,0.178V26.383z"/>
	<path d="M20.764,26.383c0.087,0.033,0.169,0.056,0.245,0.067c0.077,0.012,0.177,0.018,0.301,0.018c0.073,0,0.141-0.004,0.202-0.013
		c0.062-0.008,0.12-0.021,0.175-0.037s0.11-0.04,0.165-0.07s0.112-0.066,0.173-0.11l-0.2,0.735h-2.25
		c0.05-0.037,0.089-0.072,0.117-0.107s0.051-0.077,0.067-0.128c0.017-0.05,0.028-0.11,0.033-0.183
		c0.005-0.071,0.007-0.164,0.007-0.277v-2.09c0-0.08-0.001-0.146-0.002-0.197c-0.002-0.052-0.005-0.096-0.01-0.133
		c-0.006-0.036-0.012-0.066-0.018-0.09c-0.007-0.023-0.018-0.048-0.03-0.075c-0.021-0.046-0.042-0.082-0.065-0.107
		c-0.023-0.024-0.057-0.054-0.1-0.087h1.415c-0.047,0.036-0.084,0.072-0.112,0.107s-0.053,0.079-0.073,0.133
		c-0.01,0.02-0.017,0.042-0.022,0.064c-0.005,0.023-0.008,0.052-0.01,0.086c-0.002,0.033-0.003,0.074-0.005,0.122
		c-0.002,0.049-0.003,0.108-0.003,0.178V26.383z"/>
	<path d="M23.775,26.268c0,0.087,0.004,0.163,0.012,0.23c0.009,0.066,0.021,0.127,0.038,0.182c0.017,0.056,0.04,0.106,0.07,0.153
		c0.029,0.046,0.067,0.093,0.114,0.14h-1.425c0.05-0.037,0.089-0.072,0.117-0.107s0.051-0.077,0.068-0.125
		c0.017-0.049,0.027-0.108,0.032-0.18c0.005-0.072,0.008-0.164,0.008-0.278v-0.885l-0.75-1.39c-0.04-0.077-0.074-0.141-0.103-0.192
		s-0.057-0.096-0.083-0.133c-0.026-0.036-0.055-0.069-0.085-0.098s-0.066-0.058-0.11-0.087h1.226l0.62,1.265l0.319-0.66
		c0.037-0.076,0.062-0.138,0.078-0.183c0.015-0.045,0.022-0.087,0.022-0.127c0-0.061-0.014-0.113-0.04-0.158
		c-0.027-0.045-0.07-0.091-0.13-0.137h0.949l-0.949,1.899V26.268z"/>
</g>
<g>
	<path d="M28.248,6.683c-0.989-1.29-0.646-3.811-0.642-3.837c0.023-0.166-0.056-0.329-0.201-0.412
		c-0.145-0.084-0.326-0.071-0.458,0.033c-1.922,1.51-5.383,2.226-5.417,2.233c-0.12,0.024-0.223,0.101-0.281,0.21
		c-0.057,0.108-0.063,0.237-0.016,0.35c0.3,0.716,0.321,1.286,0.061,1.694c-0.499,0.782-1.877,0.844-1.89,0.844
		c-0.168,0.006-0.315,0.113-0.372,0.272c-0.057,0.158-0.011,0.335,0.115,0.446c0.357,0.314,0.22,0.639-0.44,1.594
		c-0.176,0.256-0.364,0.528-0.53,0.817c-0.677-0.231-2.433-0.941-2.433-2.1c0-0.113-0.047-0.221-0.129-0.298
		c-0.082-0.077-0.19-0.116-0.305-0.111C15.296,8.419,13.708,8.487,13,7.632c-0.372-0.448-0.453-1.104-0.241-1.95
		c0.029-0.117,0.005-0.242-0.066-0.34s-0.182-0.16-0.303-0.168c-0.033-0.002-3.299-0.25-4.471-1.813C7.82,3.23,7.65,3.17,7.49,3.21
		C7.33,3.251,7.21,3.384,7.186,3.547C7,4.805,6.441,6.995,5.733,7.518C5.623,7.6,5.561,7.731,5.568,7.868S5.65,8.13,5.768,8.2
		c0.618,0.367,2.229,1.55,2.259,2.598c0.012,0.416-0.237,0.79-0.761,1.142c-0.156,0.105-0.221,0.303-0.156,0.48
		c0.065,0.177,0.242,0.288,0.429,0.267c0.614-0.067,2.372-0.044,3.126,0.842c0.418,0.491,0.499,1.218,0.241,2.16
		c-0.033,0.121-0.009,0.25,0.065,0.351c0.074,0.101,0.19,0.162,0.315,0.167c0.868,0.031,3.001,0.197,4.386,0.605
		c-0.772,0.481-1.289,1.335-1.289,2.31c0,1.501,1.221,2.722,2.722,2.722c0.64,0,1.228-0.223,1.693-0.594
		c0.423,0.595,1.113,0.971,1.864,0.971c1.262,0,2.289-1.027,2.289-2.289c0-0.335-0.028-0.597-0.152-0.87
		c0.722-0.49,1.197-1.317,1.197-2.254c0-1.055-0.604-1.97-1.484-2.422c0.906-0.173,1.797-0.242,2.288-0.253
		c0.113-0.002,0.219-0.051,0.295-0.135c0.076-0.083,0.114-0.194,0.105-0.307c-0.045-0.583,0.091-1.058,0.405-1.41
		c0.619-0.697,1.744-0.75,1.754-0.75c0.14-0.005,0.268-0.081,0.339-0.202s0.075-0.269,0.012-0.394
		c-1.01-1.978,0.456-3.662,0.518-3.731C28.36,7.059,28.368,6.839,28.248,6.683z M11.807,15.413c0.176-0.993,0.002-1.804-0.519-2.415
		c-0.709-0.832-1.901-1.076-2.769-1.135c0.228-0.334,0.338-0.698,0.326-1.089c-0.038-1.314-1.472-2.477-2.228-3
		c0.65-0.851,1.043-2.37,1.237-3.313c1.238,1.011,3.143,1.367,4.016,1.481c-0.138,0.903,0.029,1.646,0.499,2.213
		c0.725,0.875,1.968,1.049,2.6,1.079c0.294,1.393,2.048,2.157,2.857,2.44c-0.016,0.06-0.031,0.122-0.046,0.185
		c0,0.001,0,0.001-0.001,0.002c0,0.001,0,0.002,0,0.002c-0.348,1.481-0.377,3.586-0.37,4.554c-0.1-0.011-0.201-0.018-0.303-0.018
		c-0.08,0-0.159,0.005-0.237,0.012C15.61,15.717,12.921,15.482,11.807,15.413z M17.106,21.025c-1.049,0-1.903-0.854-1.903-1.903
		s0.854-1.903,1.903-1.903s1.903,0.854,1.903,1.903S18.155,21.025,17.106,21.025z M22.132,19.932c0,0.81-0.659,1.469-1.469,1.469
		c-0.543,0-1.038-0.303-1.292-0.772c0.289-0.432,0.458-0.951,0.458-1.508c0-0.003-0.001-0.007-0.001-0.01
		c0.42,0.265,0.915,0.42,1.446,0.42c0.273,0,0.536-0.041,0.784-0.116C22.115,19.547,22.132,19.687,22.132,19.932z M23.177,16.809
		c0,1.049-0.854,1.903-1.903,1.903s-1.903-0.854-1.903-1.903c0-0.521,0.211-0.993,0.551-1.337c0.004-0.005,0.009-0.009,0.014-0.014
		c0.344-0.341,0.817-0.552,1.338-0.552C22.324,14.906,23.177,15.76,23.177,16.809z M26.757,10.793
		c-0.504,0.107-1.237,0.357-1.76,0.942c-0.386,0.432-0.595,0.969-0.622,1.6c-1.057,0.064-3.853,0.346-5.012,1.539
		c-0.013,0.013-0.025,0.026-0.038,0.039c-0.025,0.027-0.054,0.052-0.078,0.08c-0.003,0.004-0.004,0.009-0.007,0.012
		c-0.427,0.481-0.689,1.112-0.689,1.804c0,0.003,0.001,0.007,0.001,0.01c-0.103-0.065-0.209-0.123-0.32-0.173
		c-0.011-0.775-0.01-3.075,0.34-4.578c0-0.001,0-0.001,0.001-0.001c0.133-0.511,0.478-1.01,0.811-1.492
		c0.43-0.623,0.94-1.362,0.732-2.051c0.592-0.127,1.42-0.426,1.869-1.127c0.349-0.545,0.406-1.216,0.17-1.999
		c0.907-0.221,2.962-0.794,4.575-1.785c-0.024,0.893,0.06,2.281,0.687,3.302C26.994,7.499,26.123,9.004,26.757,10.793z"/>
	<path d="M15.667,13.615c-0.037-0.154-0.075-0.314-0.129-0.472c-0.407-1.175-1.583-1.776-2.563-2.168l-0.109-0.044
		c-0.42-0.167-0.816-0.324-1.105-0.593c-0.24-0.223-0.424-0.617-0.29-0.908c0.095-0.206,0.005-0.449-0.201-0.543
		c-0.206-0.095-0.449-0.005-0.543,0.201c-0.312,0.677,0.029,1.434,0.477,1.85c0.401,0.373,0.889,0.567,1.36,0.754l0.108,0.043
		c0.818,0.327,1.794,0.813,2.093,1.675c0.041,0.119,0.073,0.252,0.106,0.393c0.097,0.408,0.207,0.871,0.606,1.185
		c0.075,0.059,0.164,0.088,0.253,0.088c0.121,0,0.242-0.054,0.323-0.157c0.14-0.178,0.109-0.435-0.069-0.575
		C15.808,14.208,15.742,13.933,15.667,13.615z"/>
	<path d="M24.204,7.251c-0.5,0.425-0.703,1.011-0.899,1.576c-0.116,0.334-0.225,0.649-0.389,0.914
		c-0.125,0.203-0.29,0.388-0.465,0.584l-2.066,2.323c-0.15,0.169-0.135,0.428,0.034,0.578c0.078,0.069,0.175,0.104,0.272,0.104
		c0.113,0,0.225-0.046,0.306-0.137l2.066-2.323c0.19-0.214,0.387-0.435,0.55-0.698c0.212-0.342,0.341-0.716,0.466-1.077
		c0.167-0.483,0.326-0.94,0.656-1.22c0.172-0.147,0.193-0.405,0.047-0.578C24.635,7.125,24.376,7.104,24.204,7.251z"/>
	<path d="M17.36,19.779c-0.019,0.028-0.074,0.05-0.148,0.061c-0.187,0.026-0.383-0.02-0.538-0.127s-0.269-0.273-0.311-0.457
		c-0.025-0.11-0.135-0.179-0.246-0.153c-0.11,0.026-0.179,0.136-0.153,0.246c0.065,0.282,0.24,0.539,0.479,0.703
		c0.195,0.134,0.432,0.206,0.668,0.206c0.053,0,0.107-0.004,0.159-0.011c0.194-0.027,0.343-0.108,0.429-0.234
		c0.064-0.093,0.04-0.221-0.053-0.285C17.552,19.662,17.424,19.685,17.36,19.779z"/>
	<path d="M21.728,18.209c0.01,0,0.02-0.001,0.03-0.002c0.148-0.021,0.35-0.051,0.506-0.192c0.119-0.107,0.174-0.247,0.219-0.359
		l0.091-0.228c0.042-0.105-0.009-0.224-0.114-0.266s-0.224,0.009-0.266,0.114l-0.091,0.228c-0.032,0.08-0.065,0.163-0.113,0.207
		c-0.058,0.053-0.166,0.072-0.29,0.09c-0.112,0.016-0.19,0.12-0.173,0.232C21.54,18.136,21.628,18.209,21.728,18.209z"/>
	<path d="M21.191,20.582c-0.057,0.033-0.135,0.037-0.204,0.011c-0.106-0.039-0.224,0.013-0.264,0.119
		c-0.04,0.106,0.013,0.224,0.119,0.264c0.077,0.029,0.158,0.043,0.238,0.043c0.112,0,0.222-0.028,0.316-0.083
		c0.182-0.105,0.295-0.304,0.29-0.507c-0.003-0.113-0.093-0.199-0.211-0.199c-0.113,0.003-0.202,0.097-0.199,0.211
		C21.278,20.494,21.242,20.553,21.191,20.582z"/>
</g>
</svg>
