<?xml version="1.0" encoding="utf-8"?>
<!-- Generator: Adobe Illustrator 17.0.0, SVG Export Plug-In . SVG Version: 6.00 Build 0)  -->
<!DOCTYPE svg PUBLIC "-//W3C//DTD SVG 1.1//EN" "http://www.w3.org/Graphics/SVG/1.1/DTD/svg11.dtd">
<svg version="1.1" id="Layer_1" xmlns="http://www.w3.org/2000/svg" xmlns:xlink="http://www.w3.org/1999/xlink" x="0px" y="0px"
	 width="33.9px" height="28.6px" viewBox="0 0 33.9 28.6" enable-background="new 0 0 33.9 28.6" xml:space="preserve">
<g>
	<path fill="#231F20" d="M33.9,28.6H0V0h33.9V28.6z M1,27.6h31.9V1H1V27.6z"/>
</g>
<g id="Layer_2">
</g>
<rect x="0.5" y="0.5" fill="#FFFFFF" width="32.9" height="27.6"/>
<rect x="0" y="23.418" fill="none" width="33.9" height="4.682"/>
<g enable-background="new    ">
	<path d="M8.807,26.098c0.17,0.137,0.35,0.239,0.54,0.308s0.385,0.103,0.585,0.103c0.17,0,0.303-0.033,0.4-0.101
		c0.097-0.066,0.145-0.161,0.145-0.284c0-0.054-0.007-0.1-0.022-0.138s-0.042-0.077-0.083-0.115s-0.097-0.078-0.17-0.12
		c-0.073-0.041-0.17-0.091-0.29-0.147c-0.126-0.06-0.229-0.11-0.305-0.149c-0.077-0.04-0.141-0.075-0.192-0.105
		s-0.095-0.059-0.13-0.085s-0.073-0.059-0.112-0.095c-0.097-0.087-0.172-0.192-0.225-0.315c-0.054-0.123-0.08-0.255-0.08-0.395
		c0-0.157,0.031-0.299,0.092-0.426c0.062-0.126,0.149-0.234,0.263-0.324c0.113-0.091,0.25-0.159,0.41-0.208
		c0.16-0.048,0.34-0.072,0.54-0.072c0.316,0,0.615,0.052,0.895,0.155v0.614c-0.264-0.156-0.512-0.234-0.745-0.234
		c-0.144,0-0.258,0.029-0.343,0.09c-0.085,0.06-0.127,0.14-0.127,0.24c0,0.043,0.008,0.081,0.022,0.114
		c0.015,0.034,0.041,0.067,0.078,0.101s0.085,0.065,0.145,0.098c0.06,0.031,0.137,0.067,0.23,0.107
		c0.106,0.047,0.199,0.088,0.277,0.125c0.079,0.036,0.147,0.072,0.208,0.107s0.114,0.07,0.163,0.104
		c0.048,0.035,0.096,0.074,0.143,0.118c0.227,0.203,0.34,0.453,0.34,0.75c0,0.359-0.142,0.643-0.425,0.85
		c-0.137,0.097-0.285,0.167-0.445,0.21c-0.16,0.043-0.361,0.065-0.605,0.065c-0.17,0-0.334-0.016-0.492-0.045
		c-0.159-0.03-0.328-0.079-0.508-0.146L8.807,26.098z"/>
	<path d="M13.692,23.498l1.02,2.774c0.033,0.094,0.063,0.171,0.09,0.232c0.027,0.062,0.055,0.118,0.085,0.168
		c0.03,0.05,0.065,0.098,0.105,0.143c0.04,0.045,0.09,0.098,0.15,0.157h-1.525c0.083-0.066,0.14-0.122,0.17-0.168
		c0.03-0.045,0.045-0.096,0.045-0.152c0-0.036-0.005-0.076-0.015-0.12c-0.01-0.043-0.03-0.107-0.06-0.194l-0.14-0.42h-1.05
		l-0.145,0.42c-0.03,0.08-0.051,0.145-0.062,0.194c-0.012,0.051-0.018,0.094-0.018,0.131c0,0.053,0.012,0.098,0.035,0.135
		c0.023,0.036,0.077,0.095,0.16,0.175h-1.085c0.057-0.06,0.103-0.112,0.14-0.157s0.069-0.093,0.098-0.143s0.055-0.108,0.08-0.175
		c0.025-0.067,0.054-0.152,0.087-0.256l0.71-2.064c0.023-0.066,0.042-0.12,0.055-0.16c0.013-0.04,0.023-0.072,0.03-0.098
		c0.007-0.024,0.011-0.045,0.013-0.06c0.001-0.016,0.002-0.031,0.002-0.048c0-0.057-0.014-0.107-0.042-0.152s-0.081-0.1-0.158-0.162
		H13.692z M13.072,24.383l-0.35,1.045h0.72L13.072,24.383z"/>
	<path d="M15.222,26.973c0.086-0.094,0.147-0.19,0.183-0.293c0.035-0.102,0.052-0.238,0.052-0.412v-1.95
		c0-0.1-0.004-0.186-0.012-0.257c-0.009-0.072-0.024-0.138-0.048-0.198c-0.023-0.06-0.054-0.118-0.092-0.175
		c-0.039-0.057-0.089-0.12-0.152-0.189h1.085l1.64,2.17v-1.465c0-0.091-0.004-0.169-0.01-0.235c-0.007-0.066-0.02-0.127-0.038-0.18
		c-0.019-0.054-0.042-0.103-0.072-0.147c-0.03-0.046-0.068-0.093-0.115-0.143h1.011c-0.047,0.046-0.086,0.093-0.115,0.14
		c-0.03,0.047-0.054,0.098-0.07,0.152s-0.029,0.116-0.037,0.183c-0.009,0.066-0.013,0.144-0.013,0.23v2.875
		c-0.287-0.058-0.54-0.158-0.76-0.303c-0.221-0.146-0.416-0.341-0.585-0.588l-1.07-1.415v1.495c0,0.087,0.004,0.163,0.013,0.23
		c0.008,0.066,0.021,0.126,0.038,0.18c0.017,0.054,0.04,0.104,0.07,0.15c0.03,0.046,0.068,0.095,0.115,0.145H15.222z"/>
	<path d="M20.668,26.268c0,0.087,0.004,0.163,0.013,0.23c0.008,0.066,0.021,0.127,0.037,0.182c0.017,0.056,0.04,0.106,0.07,0.153
		c0.029,0.046,0.068,0.093,0.114,0.14h-1.425c0.05-0.037,0.09-0.072,0.118-0.107s0.051-0.077,0.067-0.125
		c0.017-0.049,0.027-0.108,0.032-0.18c0.005-0.072,0.008-0.164,0.008-0.278v-2.189c-0.077-0.014-0.162-0.021-0.255-0.021
		c-0.067,0-0.126,0.004-0.178,0.011s-0.102,0.018-0.147,0.034c-0.047,0.018-0.096,0.04-0.147,0.068s-0.111,0.065-0.178,0.112
		l0.205-0.815l0.085,0.005l0.56,0.011h1.11c0.17,0,0.304,0,0.4,0s0.173-0.001,0.229-0.003s0.101-0.005,0.133-0.01
		c0.031-0.005,0.067-0.011,0.107-0.018l-0.18,0.83c-0.047-0.09-0.104-0.151-0.173-0.186c-0.068-0.033-0.169-0.05-0.303-0.05
		c-0.104,0-0.205,0.01-0.305,0.03V26.268z"/>
	<path d="M23.628,23.498l1.02,2.774c0.033,0.094,0.063,0.171,0.09,0.232c0.027,0.062,0.056,0.118,0.085,0.168
		c0.03,0.05,0.065,0.098,0.105,0.143s0.09,0.098,0.15,0.157h-1.525c0.083-0.066,0.14-0.122,0.17-0.168
		c0.03-0.045,0.045-0.096,0.045-0.152c0-0.036-0.005-0.076-0.015-0.12c-0.01-0.043-0.03-0.107-0.061-0.194l-0.14-0.42h-1.05
		l-0.146,0.42c-0.029,0.08-0.051,0.145-0.062,0.194c-0.012,0.051-0.018,0.094-0.018,0.131c0,0.053,0.012,0.098,0.035,0.135
		c0.023,0.036,0.077,0.095,0.16,0.175h-1.085c0.057-0.06,0.104-0.112,0.14-0.157c0.037-0.045,0.069-0.093,0.098-0.143
		s0.056-0.108,0.08-0.175c0.025-0.067,0.055-0.152,0.088-0.256l0.71-2.064c0.023-0.066,0.041-0.12,0.055-0.16
		s0.023-0.072,0.03-0.098c0.007-0.024,0.011-0.045,0.013-0.06c0.001-0.016,0.002-0.031,0.002-0.048c0-0.057-0.014-0.107-0.042-0.152
		s-0.081-0.1-0.158-0.162H23.628z M23.008,24.383l-0.35,1.045h0.72L23.008,24.383z"/>
</g>
<g>
	<path d="M25.474,14.052c-0.099,0-0.196,0.008-0.292,0.019c0.48-4.7-0.653-8.045-3.381-9.938c-1.654-1.148-3.606-1.755-5.644-1.755
		c-2.683,0-5.343,1.082-6.778,2.756c-0.745,0.87-1.088,1.817-1.01,2.753C8.033,8.153,7.314,8.802,7.201,9.605
		c-0.076,0.536,0.139,1.479,0.838,1.816c-0.16,0.3-0.312,0.744-0.217,1.237c-0.452,0.036-0.974,0.154-1.589,0.397
		c-0.114,0.045-0.197,0.146-0.219,0.266c-0.022,0.121,0.02,0.244,0.111,0.326c0.222,0.201,0.699,0.611,1.34,1.041
		c-0.354,0.815-1.2,3.188-0.041,5.092c0.986,1.619,3.145,2.44,6.416,2.44c3.328,0,5.525-0.826,6.53-2.455
		c1.125-1.825,0.384-4.056,0.054-4.856c0.814-0.505,1.425-1.028,1.684-1.263c0.091-0.082,0.133-0.206,0.111-0.326
		S22.114,13.099,22,13.054c-0.636-0.252-1.173-0.37-1.635-0.402c-0.005-0.091-0.02-0.177-0.04-0.252
		c0.606-0.225,1.034-0.822,1.204-1.384c0.022-0.071,0.038-0.142,0.051-0.212c1.435,1.52,2.432,2.985,2.779,3.521
		c-0.773,0.404-1.302,1.212-1.302,2.143c0,1.333,1.084,2.418,2.418,2.418c1.333,0,2.417-1.084,2.417-2.418
		C27.892,15.136,26.807,14.052,25.474,14.052z M19.601,12.477c0.026,0.056,0.047,0.132,0.052,0.198
		c-0.651,0.089-1.119,0.354-1.51,0.578c-0.26,0.149-0.484,0.277-0.703,0.318c-0.493,0.092-0.731-0.069-1.032-0.272
		c-0.202-0.136-0.438-0.293-0.75-0.356c0.055-0.353-0.03-0.734-0.251-1.104c-0.145-0.242-0.506-0.706-0.838-0.729
		c-0.196-0.012-0.365,0.134-0.379,0.329c-0.012,0.173,0.102,0.326,0.264,0.368c0.157,0.1,0.678,0.69,0.456,1.185
		c-0.136,0.302-0.727,0.465-1.265,0.35c-0.199-0.043-0.661-0.187-0.661-0.599c0-0.196-0.159-0.355-0.354-0.355l0,0
		c-0.196,0-0.355,0.159-0.355,0.354c0,0.133,0.025,0.258,0.064,0.377c-0.219,0.06-0.393,0.161-0.545,0.251
		c-0.278,0.164-0.497,0.294-1.001,0.2c-0.218-0.041-0.443-0.169-0.703-0.318c-0.395-0.226-0.869-0.495-1.531-0.581
		c-0.202-0.55,0.186-1.067,0.265-1.164c0.506-0.105,1.068-0.496,1.679-1.173c0.905-1.004,2.262-1.504,3.724-1.374
		c1.654,0.148,3.151,1.056,4.004,2.43C18.696,12.139,19.189,12.41,19.601,12.477z M19.766,19.394
		c-0.866,1.405-2.86,2.118-5.926,2.118c-3.005,0-4.959-0.706-5.808-2.097c-0.937-1.534-0.281-3.547,0.044-4.343
		c0.967,0.563,2.175,1.063,3.418,1.063c0.484,0,0.974-0.076,1.456-0.254c-0.004,0.033-0.012,0.066-0.012,0.1
		c0,0.536,0.528,0.97,1.178,0.97s1.178-0.434,1.178-0.97c0-0.034-0.008-0.067-0.012-0.1c0.482,0.178,0.972,0.254,1.456,0.254
		c1.095,0,2.163-0.389,3.063-0.866C20.1,16.029,20.677,17.917,19.766,19.394z M19.815,14.452c-0.001,0-0.001,0-0.002,0.001
		c-0.002,0.001-0.004,0.003-0.006,0.004c-1.533,0.895-3.696,1.602-5.455,0.04c-0.013-0.011-0.029-0.016-0.043-0.025
		c-0.02-0.013-0.039-0.027-0.061-0.036c-0.021-0.009-0.042-0.012-0.064-0.017c-0.023-0.004-0.044-0.009-0.067-0.009
		c-0.023,0-0.044,0.005-0.066,0.009s-0.044,0.008-0.065,0.017c-0.022,0.009-0.041,0.022-0.061,0.035
		c-0.014,0.009-0.03,0.013-0.043,0.025c-2.39,2.123-5.528,0.055-6.815-0.979c1.368-0.395,2.056-0.001,2.671,0.351
		c0.303,0.173,0.588,0.337,0.925,0.4c0.766,0.143,1.169-0.095,1.493-0.287c0.24-0.142,0.405-0.237,0.724-0.194
		c0.175,0.111,0.379,0.198,0.616,0.249c0.162,0.035,0.334,0.053,0.507,0.053c0.491,0,0.992-0.146,1.313-0.464
		c0.278-0.019,0.45,0.096,0.696,0.262c0.348,0.235,0.781,0.528,1.559,0.382c0.336-0.063,0.622-0.227,0.925-0.4
		c0.615-0.352,1.303-0.746,2.671-0.351C20.829,13.789,20.362,14.132,19.815,14.452z M20.85,10.812
		c-0.154,0.51-0.548,0.917-0.936,0.968c-0.463,0.063-0.842-0.381-1.08-0.763c-0.97-1.562-2.669-2.595-4.544-2.763
		c-1.687-0.151-3.258,0.434-4.314,1.605c-0.679,0.753-1.272,1.089-1.625,0.925c-0.339-0.158-0.494-0.755-0.449-1.081
		c0.084-0.594,0.776-1.18,1.035-1.355c0.006-0.004,0.01-0.009,0.015-0.013C8.957,8.333,8.961,8.332,8.964,8.33
		c1.497-1.214,3.082-1.83,4.713-1.83c2.701,0,5.186,1.671,7.092,3.49C20.988,10.262,20.89,10.681,20.85,10.812z M21.197,9.409
		c-0.008-0.007-0.014-0.015-0.021-0.022c-0.002-0.002-0.005-0.002-0.007-0.004c-2.501-2.352-5.078-3.592-7.492-3.592
		c-1.592,0-3.135,0.524-4.597,1.56C9.149,6.76,9.433,6.164,9.918,5.597c1.305-1.524,3.754-2.508,6.239-2.508
		c1.893,0,3.705,0.563,5.24,1.628c2.37,1.644,3.425,4.536,3.142,8.602c-0.554-0.798-1.497-2.051-2.735-3.316
		C21.602,9.797,21.4,9.6,21.197,9.409z M25.474,18.213c-0.961,0-1.744-0.782-1.744-1.744s0.782-1.744,1.744-1.744
		c0.961,0,1.744,0.782,1.744,1.744S26.436,18.213,25.474,18.213z"/>
	<path d="M12.221,10.04c-0.351,0-0.937,0.145-1.729,0.839c-0.022,0.019-0.028,0.051-0.015,0.077s0.042,0.04,0.071,0.033
		c0.14-0.032,0.28-0.048,0.429-0.048c0.324,0,0.625,0.077,0.892,0.146c0.228,0.059,0.444,0.114,0.642,0.114l0,0
		c0.176,0,0.325-0.044,0.454-0.135c0.008-0.006,0.015-0.014,0.02-0.023c0.106-0.208,0.099-0.447-0.019-0.64
		C12.825,10.172,12.554,10.04,12.221,10.04z"/>
	<path d="M16.012,10.04c-0.333,0-0.604,0.132-0.745,0.362c-0.118,0.193-0.125,0.432-0.019,0.64c0.005,0.009,0.011,0.017,0.02,0.023
		c0.129,0.091,0.278,0.135,0.454,0.135c0.198,0,0.414-0.055,0.642-0.114c0.266-0.068,0.568-0.146,0.892-0.146
		c0.148,0,0.289,0.016,0.429,0.048c0.029,0.007,0.057-0.007,0.071-0.033c0.013-0.026,0.007-0.057-0.015-0.077
		C16.948,10.185,16.363,10.04,16.012,10.04z"/>
</g>
</svg>
