<?xml version="1.0" encoding="utf-8"?>
<!-- Generator: Adobe Illustrator 17.0.0, SVG Export Plug-In . SVG Version: 6.00 Build 0)  -->
<!DOCTYPE svg PUBLIC "-//W3C//DTD SVG 1.1//EN" "http://www.w3.org/Graphics/SVG/1.1/DTD/svg11.dtd">
<svg version="1.1" id="Layer_1" xmlns="http://www.w3.org/2000/svg" xmlns:xlink="http://www.w3.org/1999/xlink" x="0px" y="0px"
	 width="33.9px" height="28.6px" viewBox="0 0 33.9 28.6" enable-background="new 0 0 33.9 28.6" xml:space="preserve">
<g>
	<path fill="#231F20" d="M33.9,28.6H0V0h33.9V28.6z M1,27.6h31.9V1H1V27.6z"/>
</g>
<g id="Layer_2">
</g>
<rect x="0.5" y="0.5" fill="#FFFFFF" width="32.9" height="27.6"/>
<rect x="0" y="23.418" fill="none" width="33.9" height="4.682"/>
<g enable-background="new    ">
	<path d="M8.34,26.098c0.17,0.137,0.35,0.239,0.54,0.308s0.385,0.103,0.585,0.103c0.17,0,0.303-0.033,0.4-0.101
		c0.097-0.066,0.145-0.161,0.145-0.284c0-0.054-0.007-0.1-0.022-0.138s-0.042-0.077-0.083-0.115s-0.097-0.078-0.17-0.12
		c-0.073-0.041-0.17-0.091-0.29-0.147c-0.126-0.06-0.229-0.11-0.305-0.149c-0.077-0.04-0.141-0.075-0.192-0.105
		s-0.095-0.059-0.13-0.085s-0.073-0.059-0.112-0.095c-0.097-0.087-0.172-0.192-0.225-0.315C8.427,24.73,8.4,24.598,8.4,24.458
		c0-0.157,0.031-0.299,0.092-0.426c0.062-0.126,0.149-0.234,0.263-0.324c0.113-0.091,0.25-0.159,0.41-0.208
		c0.16-0.048,0.34-0.072,0.54-0.072c0.316,0,0.615,0.052,0.895,0.155v0.614c-0.264-0.156-0.512-0.234-0.745-0.234
		c-0.144,0-0.258,0.029-0.343,0.09c-0.085,0.06-0.127,0.14-0.127,0.24c0,0.043,0.008,0.081,0.022,0.114
		c0.015,0.034,0.041,0.067,0.078,0.101s0.085,0.065,0.145,0.098c0.06,0.031,0.137,0.067,0.23,0.107
		c0.106,0.047,0.199,0.088,0.277,0.125c0.079,0.036,0.147,0.072,0.208,0.107s0.114,0.07,0.163,0.104
		c0.048,0.035,0.096,0.074,0.143,0.118c0.227,0.203,0.34,0.453,0.34,0.75c0,0.359-0.142,0.643-0.425,0.85
		c-0.137,0.097-0.285,0.167-0.445,0.21c-0.16,0.043-0.361,0.065-0.605,0.065c-0.17,0-0.334-0.016-0.492-0.045
		c-0.159-0.03-0.328-0.079-0.508-0.146L8.34,26.098z"/>
	<path d="M12.495,26.383c0.087,0.033,0.168,0.056,0.245,0.067s0.177,0.018,0.3,0.018c0.073,0,0.141-0.004,0.202-0.013
		c0.062-0.008,0.12-0.021,0.175-0.037c0.055-0.017,0.11-0.04,0.165-0.07c0.055-0.03,0.112-0.066,0.172-0.11l-0.2,0.735h-2.25
		c0.05-0.037,0.089-0.072,0.118-0.107s0.051-0.077,0.067-0.128c0.017-0.05,0.028-0.11,0.033-0.183
		c0.005-0.071,0.007-0.164,0.007-0.277v-2.09c0-0.08-0.001-0.146-0.002-0.197s-0.005-0.096-0.01-0.133
		c-0.005-0.036-0.011-0.066-0.018-0.09c-0.007-0.023-0.017-0.048-0.03-0.075c-0.02-0.046-0.042-0.082-0.065-0.107
		c-0.023-0.024-0.057-0.054-0.1-0.087h1.415c-0.046,0.036-0.084,0.072-0.112,0.107s-0.053,0.079-0.073,0.133
		c-0.01,0.02-0.017,0.042-0.022,0.064c-0.005,0.023-0.008,0.052-0.01,0.086c-0.002,0.033-0.003,0.074-0.005,0.122
		c-0.002,0.049-0.003,0.108-0.003,0.178V26.383z"/>
	<path d="M15.17,26.393c0.074,0.026,0.153,0.046,0.238,0.058s0.196,0.018,0.333,0.018c0.183,0,0.333-0.021,0.447-0.065
		c0.115-0.043,0.221-0.118,0.318-0.225l-0.195,0.795h-2.33c0.05-0.037,0.089-0.072,0.118-0.107s0.051-0.077,0.067-0.128
		c0.017-0.05,0.028-0.11,0.033-0.183c0.005-0.071,0.007-0.164,0.007-0.277v-2.085c0-0.08-0.001-0.146-0.002-0.2
		c-0.001-0.053-0.005-0.097-0.01-0.132c-0.005-0.035-0.011-0.065-0.018-0.09c-0.007-0.025-0.017-0.051-0.03-0.078
		c-0.02-0.043-0.042-0.078-0.065-0.104c-0.023-0.027-0.057-0.057-0.1-0.09h1.9c0.046,0,0.082-0.002,0.105-0.006
		c0.023-0.003,0.048-0.011,0.075-0.024v0.77c-0.066-0.086-0.138-0.145-0.215-0.175s-0.19-0.045-0.34-0.045H15.17v0.85h0.555
		c0.033,0,0.061-0.001,0.083-0.005c0.021-0.003,0.046-0.012,0.073-0.024v0.734c-0.023-0.036-0.047-0.067-0.07-0.092
		c-0.023-0.025-0.05-0.045-0.08-0.061c-0.03-0.015-0.065-0.024-0.105-0.029c-0.04-0.006-0.088-0.008-0.145-0.008h-0.31V26.393z"/>
	<path d="M16.7,26.973c0.05-0.037,0.089-0.071,0.118-0.105c0.028-0.033,0.051-0.074,0.067-0.125c0.017-0.05,0.028-0.11,0.033-0.182
		c0.005-0.072,0.007-0.164,0.007-0.278v-2.095c0-0.08-0.001-0.146-0.002-0.197s-0.005-0.096-0.01-0.133
		c-0.005-0.036-0.011-0.066-0.018-0.09c-0.007-0.023-0.017-0.048-0.03-0.075c-0.02-0.046-0.042-0.082-0.065-0.107
		c-0.023-0.024-0.057-0.054-0.1-0.087h1.415c-0.046,0.036-0.084,0.072-0.112,0.107s-0.053,0.079-0.072,0.132
		c-0.01,0.021-0.018,0.042-0.022,0.065s-0.009,0.052-0.01,0.085c-0.002,0.033-0.004,0.074-0.005,0.122
		c-0.002,0.049-0.003,0.107-0.003,0.178v2.095c0,0.11,0.003,0.201,0.008,0.272c0.005,0.072,0.016,0.133,0.032,0.183
		c0.017,0.051,0.039,0.093,0.067,0.128s0.067,0.07,0.117,0.107H16.7z"/>
	<path d="M21.695,26.878c-0.187,0.053-0.38,0.094-0.58,0.122c-0.199,0.028-0.39,0.043-0.569,0.043c-0.317,0-0.603-0.043-0.857-0.128
		c-0.256-0.085-0.473-0.205-0.653-0.36c-0.18-0.154-0.318-0.342-0.417-0.562c-0.099-0.22-0.147-0.466-0.147-0.739
		c0-0.271,0.05-0.517,0.149-0.74c0.101-0.224,0.241-0.415,0.423-0.575s0.398-0.285,0.65-0.375c0.251-0.09,0.527-0.135,0.827-0.135
		c0.153,0,0.304,0.009,0.452,0.027s0.283,0.044,0.403,0.077v0.73c-0.117-0.087-0.25-0.154-0.4-0.202
		c-0.15-0.049-0.304-0.073-0.46-0.073c-0.323,0-0.571,0.097-0.742,0.29c-0.172,0.193-0.258,0.469-0.258,0.825
		c0,0.217,0.023,0.412,0.07,0.585c0.046,0.174,0.114,0.321,0.205,0.442c0.09,0.122,0.198,0.215,0.327,0.28
		c0.128,0.065,0.272,0.098,0.433,0.098c0.036,0,0.069-0.002,0.098-0.005c0.028-0.004,0.063-0.012,0.107-0.025v-0.84
		c0-0.113-0.015-0.202-0.043-0.265c-0.028-0.063-0.082-0.129-0.162-0.195h1.145V26.878z"/>
	<path d="M23.375,26.282c0,0.11,0.003,0.201,0.008,0.272c0.005,0.072,0.016,0.133,0.03,0.183c0.015,0.051,0.037,0.093,0.067,0.128
		s0.068,0.07,0.115,0.107h-1.41c0.05-0.037,0.089-0.071,0.117-0.105c0.028-0.033,0.051-0.074,0.067-0.125
		c0.017-0.05,0.028-0.11,0.033-0.182c0.005-0.072,0.007-0.164,0.007-0.278v-2.095c0-0.08-0.001-0.146-0.002-0.197
		c-0.002-0.052-0.005-0.096-0.01-0.133c-0.006-0.036-0.012-0.066-0.018-0.09c-0.007-0.023-0.018-0.048-0.03-0.075
		c-0.021-0.046-0.042-0.082-0.065-0.107c-0.023-0.024-0.057-0.054-0.1-0.087h1.41c-0.047,0.036-0.084,0.072-0.11,0.107
		s-0.05,0.079-0.07,0.132c-0.01,0.021-0.017,0.042-0.022,0.065c-0.005,0.023-0.008,0.052-0.01,0.085s-0.003,0.074-0.005,0.122
		c-0.002,0.049-0.003,0.107-0.003,0.178v0.665h0.91v-0.665c0-0.08-0.001-0.146-0.002-0.197c-0.002-0.052-0.005-0.095-0.01-0.13
		c-0.006-0.035-0.012-0.065-0.018-0.09c-0.007-0.025-0.018-0.051-0.03-0.078c-0.021-0.046-0.042-0.082-0.065-0.107
		c-0.023-0.024-0.057-0.054-0.1-0.087h1.415c-0.047,0.036-0.084,0.072-0.112,0.107s-0.053,0.079-0.073,0.132
		c-0.01,0.021-0.017,0.041-0.022,0.062c-0.005,0.022-0.008,0.05-0.01,0.083s-0.003,0.074-0.005,0.122
		c-0.002,0.049-0.003,0.109-0.003,0.183v2.095c0,0.084,0.001,0.151,0.003,0.203s0.004,0.095,0.008,0.13
		c0.003,0.035,0.009,0.064,0.018,0.088c0.008,0.022,0.019,0.048,0.032,0.074c0.02,0.044,0.042,0.079,0.064,0.105
		c0.023,0.026,0.057,0.057,0.101,0.09H24.06c0.05-0.037,0.089-0.072,0.117-0.107s0.051-0.077,0.067-0.125
		c0.017-0.049,0.028-0.109,0.033-0.183s0.007-0.165,0.007-0.275v-0.895h-0.91V26.282z"/>
</g>
<g>
	<path d="M28.722,14.894c-1.178-0.889-2.026-0.432-2.335-0.194c-0.692,0.532-1.004,1.651-0.682,2.444
		c0.244,0.6,0.805,0.909,1.502,0.828c0.828-0.097,1.014-0.604,1.056-0.818c0.091-0.468-0.192-0.999-0.674-1.263
		c-0.193-0.105-0.434-0.035-0.539,0.157s-0.035,0.433,0.157,0.539c0.193,0.106,0.299,0.3,0.276,0.415
		c-0.02,0.104-0.204,0.162-0.369,0.181c-0.345,0.04-0.566-0.07-0.674-0.338c-0.192-0.473,0.013-1.195,0.43-1.516
		c0.455-0.349,0.998-0.085,1.373,0.199c0.383,0.289,0.572,0.62,0.579,1.012c0.015,0.883-0.885,1.93-1.488,2.502
		c-0.014-0.003-0.026-0.008-0.041-0.008h-2.52c-0.003-0.006-0.004-0.013-0.008-0.019l-0.208-0.357
		c0.031-0.03,0.058-0.063,0.079-0.103c0.068-0.133,0.056-0.292-0.032-0.413l-0.835-1.156v-0.35h0.268
		c0.039,0,0.077-0.006,0.114-0.017c2.053-0.616,2.93-3.871,2.566-6.534c-0.312-2.283-1.429-3.664-2.987-3.695
		c-1.407-0.027-2.337,0.311-2.807,1.005c-0.576,0.852-0.177,1.876-0.16,1.92c0.04,0.1,0.119,0.18,0.219,0.22
		c0.1,0.041,0.212,0.039,0.31-0.005c0.11-0.049,0.228-0.073,0.353-0.073c0.381,0,0.764,0.239,0.89,0.557
		c0.152,0.382-0.104,0.736-0.347,0.966c-0.545,0.516-1.272,0.789-2.102,0.789c-2.001,0-4.208-1.551-5.904-4.149
		c-1.293-1.98-3.322-3.116-5.568-3.116c-2.182,0-4.041,1.068-4.325,2.485C4.256,7.164,4.342,7.341,4.5,7.421
		c1.83,0.929,2.944,2.024,3.312,3.254c0.505,1.685-0.457,3.369-1.094,4.484c-0.213,0.372-0.38,0.667-0.476,0.92
		c-0.002,0.004-0.003,0.007-0.005,0.011c-0.001,0.004-0.004,0.008-0.005,0.012C6.23,16.108,6.23,16.114,6.228,16.12
		c-0.006,0.02-0.011,0.04-0.014,0.061c-0.002,0.011-0.003,0.022-0.003,0.032c-0.001,0.009-0.003,0.017-0.003,0.025v2.135
		c0,0.219,0.178,0.397,0.397,0.397h0.569l-0.142,0.243c-0.004,0.006-0.005,0.013-0.008,0.019H5.17c-0.11,0-0.198,0.089-0.198,0.198
		v0.665c0,0.11,0.089,0.198,0.198,0.198h22.123c0.085,0,0.156-0.054,0.184-0.129c0.008-0.005,0.017-0.008,0.025-0.014
		c0.088-0.071,2.141-1.75,2.114-3.425C29.606,15.884,29.305,15.334,28.722,14.894z M22.976,16.916H7.003v-0.28h15.974L22.976,16.916
		L22.976,16.916z M8.616,5.298c1.159,0,3.338,0.358,4.903,2.756c2.506,3.838,5.158,4.447,6.366,4.503
		c-0.228,0.111-0.475,0.172-0.745,0.181c-0.024,0.001-0.047,0.001-0.071,0.001c-2.462,0-6.089-4.026-7.462-5.551
		C9.64,5.006,7.023,6.148,5.719,7.193C5.539,7.083,5.354,6.975,5.16,6.87C5.566,5.982,7.025,5.298,8.616,5.298z M7.408,15.553
		c0.704-1.232,1.767-3.095,1.165-5.106C8.265,9.419,7.544,8.486,6.422,7.662c0.867-0.617,2.954-1.763,4.595,0.058
		c2.444,2.714,5.559,5.814,8.053,5.814c0.032,0,0.064,0,0.095-0.002c0.823-0.026,1.518-0.391,2.065-1.082
		c0.012-0.015,0.016-0.034,0.026-0.05c0.559-0.163,1.06-0.445,1.48-0.843c0.586-0.555,0.782-1.224,0.538-1.836
		c-0.248-0.622-0.917-1.057-1.628-1.057c-0.076,0-0.151,0.005-0.225,0.015c-0.032-0.24-0.024-0.565,0.161-0.838
		c0.291-0.43,0.981-0.658,1.993-0.658l0.14,0.001c1.679,0.033,2.121,2.311,2.216,3.009c0.311,2.275-0.416,5.129-1.955,5.649H7.244
		C7.295,15.751,7.35,15.654,7.408,15.553z M7.003,17.312h16.032c0.006,0.011,0.01,0.024,0.017,0.034l0.456,0.631H7.003V17.312z
		 M8.638,18.771h14.523l0.175,0.262H8.463L8.638,18.771z"/>
	<circle cx="9.441" cy="15.052" r="0.416"/>
	<circle cx="11.728" cy="15.052" r="0.416"/>
	<circle cx="13.592" cy="14.636" r="0.416"/>
	<circle cx="15.861" cy="14.636" r="0.416"/>
	<circle cx="17.889" cy="15.052" r="0.416"/>
	<circle cx="20.503" cy="14.636" r="0.416"/>
	<circle cx="22.677" cy="15.052" r="0.416"/>
	<circle cx="24.283" cy="14.22" r="0.416"/>
</g>
</svg>
