<?xml version="1.0" encoding="utf-8"?>
<!-- Generator: Adobe Illustrator 17.0.0, SVG Export Plug-In . SVG Version: 6.00 Build 0)  -->
<!DOCTYPE svg PUBLIC "-//W3C//DTD SVG 1.1//EN" "http://www.w3.org/Graphics/SVG/1.1/DTD/svg11.dtd">
<svg version="1.1" id="Layer_1" xmlns="http://www.w3.org/2000/svg" xmlns:xlink="http://www.w3.org/1999/xlink" x="0px" y="0px"
	 width="33.9px" height="28.6px" viewBox="0 0 33.9 28.6" enable-background="new 0 0 33.9 28.6" xml:space="preserve">
<g>
	<path fill="#231F20" d="M33.9,28.6H0V0h33.9V28.6z M1,27.6h31.9V1H1V27.6z"/>
</g>
<g id="Layer_2">
</g>
<rect x="0.5" y="0.5" fill="#FFFFFF" width="32.9" height="27.6"/>
<g>
	<path d="M12.99,26.268c0,0.087,0.004,0.163,0.013,0.23c0.008,0.066,0.021,0.127,0.037,0.182c0.017,0.056,0.04,0.106,0.07,0.153
		c0.03,0.046,0.068,0.093,0.115,0.14H11.8c0.05-0.037,0.089-0.072,0.118-0.107s0.051-0.077,0.067-0.125
		c0.017-0.049,0.027-0.108,0.032-0.18c0.005-0.072,0.008-0.164,0.008-0.278v-2.189c-0.077-0.014-0.162-0.021-0.255-0.021
		c-0.067,0-0.126,0.004-0.178,0.011s-0.101,0.018-0.147,0.034c-0.047,0.018-0.096,0.04-0.147,0.068s-0.111,0.065-0.178,0.112
		l0.205-0.815l0.085,0.005l0.56,0.011h1.11c0.17,0,0.304,0,0.4,0s0.173-0.001,0.23-0.003c0.057-0.002,0.101-0.005,0.132-0.01
		s0.067-0.011,0.107-0.018l-0.18,0.83c-0.047-0.09-0.104-0.151-0.173-0.186c-0.068-0.033-0.169-0.05-0.302-0.05
		c-0.104,0-0.205,0.01-0.305,0.03V26.268z"/>
	<path d="M14.105,26.973c0.05-0.037,0.089-0.071,0.118-0.105c0.028-0.033,0.051-0.074,0.067-0.125
		c0.017-0.05,0.028-0.11,0.033-0.182c0.005-0.072,0.007-0.164,0.007-0.278v-2.095c0-0.08-0.001-0.146-0.002-0.197
		s-0.005-0.096-0.01-0.133c-0.005-0.036-0.011-0.066-0.018-0.09c-0.007-0.023-0.017-0.048-0.03-0.075
		c-0.02-0.046-0.042-0.082-0.065-0.107c-0.023-0.024-0.057-0.054-0.1-0.087h0.99c0.237,0,0.424,0,0.562,0.002
		s0.249,0.006,0.333,0.013c0.083,0.007,0.15,0.018,0.2,0.032c0.05,0.016,0.104,0.036,0.16,0.062c0.16,0.07,0.287,0.176,0.38,0.317
		s0.14,0.298,0.14,0.468c0,0.2-0.055,0.369-0.165,0.508c-0.11,0.138-0.282,0.257-0.515,0.357c0.534,0.923,0.934,1.486,1.2,1.689
		c-0.14,0.018-0.269,0.028-0.385,0.035c-0.117,0.007-0.232,0.01-0.345,0.01c-0.104,0-0.191-0.005-0.263-0.015
		c-0.071-0.01-0.136-0.03-0.192-0.06c-0.057-0.03-0.108-0.07-0.155-0.12c-0.047-0.05-0.097-0.115-0.15-0.195
		c-0.074-0.106-0.159-0.252-0.255-0.438c-0.097-0.185-0.22-0.436-0.37-0.752v0.869c0,0.11,0.002,0.201,0.007,0.272
		c0.005,0.072,0.016,0.133,0.032,0.183c0.017,0.051,0.04,0.093,0.068,0.128s0.067,0.07,0.117,0.107H14.105z M15.275,25.208
		c0.183-0.037,0.327-0.113,0.432-0.23c0.105-0.116,0.158-0.26,0.158-0.43c0-0.127-0.032-0.237-0.095-0.33
		c-0.063-0.094-0.145-0.153-0.245-0.18c-0.037-0.011-0.074-0.017-0.113-0.021c-0.038-0.003-0.084-0.005-0.137-0.005V25.208z"/>
	<path d="M18.69,26.393c0.072,0.026,0.152,0.046,0.236,0.058c0.086,0.012,0.197,0.018,0.334,0.018c0.184,0,0.332-0.021,0.447-0.065
		c0.115-0.043,0.221-0.118,0.316-0.225l-0.193,0.795H17.5c0.05-0.037,0.089-0.072,0.118-0.107c0.027-0.035,0.051-0.077,0.066-0.128
		c0.018-0.05,0.028-0.11,0.033-0.183c0.005-0.071,0.008-0.164,0.008-0.277v-2.085c0-0.08-0.002-0.146-0.003-0.2
		c-0.001-0.053-0.005-0.097-0.01-0.132s-0.011-0.065-0.018-0.09c-0.007-0.025-0.017-0.051-0.03-0.078
		c-0.02-0.043-0.041-0.078-0.064-0.104c-0.023-0.027-0.057-0.057-0.101-0.09h1.899c0.047,0,0.082-0.002,0.105-0.006
		c0.023-0.003,0.049-0.011,0.076-0.024v0.77c-0.068-0.086-0.139-0.145-0.217-0.175c-0.076-0.03-0.189-0.045-0.34-0.045H18.69v0.85
		h0.555c0.033,0,0.061-0.001,0.082-0.005c0.021-0.003,0.047-0.012,0.072-0.024v0.734c-0.023-0.036-0.047-0.067-0.068-0.092
		c-0.023-0.025-0.051-0.045-0.08-0.061c-0.031-0.015-0.066-0.024-0.105-0.029c-0.041-0.006-0.088-0.008-0.145-0.008H18.69V26.393z"
		/>
	<path d="M21.41,26.393c0.073,0.026,0.152,0.046,0.237,0.058s0.196,0.018,0.333,0.018c0.184,0,0.332-0.021,0.447-0.065
		c0.115-0.043,0.221-0.118,0.317-0.225l-0.194,0.795h-2.33c0.05-0.037,0.089-0.072,0.117-0.107s0.051-0.077,0.067-0.128
		c0.017-0.05,0.027-0.11,0.032-0.183c0.006-0.071,0.008-0.164,0.008-0.277v-2.085c0-0.08-0.001-0.146-0.002-0.2
		c-0.002-0.053-0.006-0.097-0.011-0.132s-0.011-0.065-0.018-0.09c-0.007-0.025-0.017-0.051-0.029-0.078
		c-0.021-0.043-0.042-0.078-0.065-0.104c-0.023-0.027-0.057-0.057-0.1-0.09h1.899c0.047,0,0.082-0.002,0.105-0.006
		c0.023-0.003,0.048-0.011,0.075-0.024v0.77c-0.067-0.086-0.139-0.145-0.216-0.175c-0.076-0.03-0.189-0.045-0.34-0.045H21.41v0.85
		h0.556c0.033,0,0.061-0.001,0.082-0.005c0.021-0.003,0.046-0.012,0.072-0.024v0.734c-0.023-0.036-0.047-0.067-0.069-0.092
		c-0.023-0.025-0.051-0.045-0.08-0.061c-0.03-0.015-0.065-0.024-0.105-0.029c-0.04-0.006-0.088-0.008-0.145-0.008H21.41V26.393z"/>
</g>
<g>
	<g>
		<g>
			<polygon points="16.086,4.168 16.95,3.714 17.814,4.168 17.65,3.206 18.348,2.524 17.383,2.383 16.95,1.508 16.518,2.383 
				15.552,2.524 16.251,3.206 			"/>
		</g>
	</g>
	<g>
		<g>
			<g>
				<path d="M16.95,5.341l3.897,3.896h-0.312l-6.069-1.412L16.95,5.341 M16.95,4.341c-0.256,0-0.512,0.098-0.707,0.293l-2.485,2.484
					c-0.257,0.257-0.354,0.633-0.254,0.982c0.1,0.349,0.381,0.617,0.735,0.699l6.069,1.412c0.074,0.017,0.15,0.026,0.227,0.026
					h0.312c0.404,0,0.769-0.244,0.924-0.617c0.155-0.374,0.069-0.804-0.217-1.09l-3.897-3.896
					C17.462,4.439,17.206,4.341,16.95,4.341L16.95,4.341z"/>
			</g>
		</g>
		<g>
			<g>
				<path d="M20.433,12.226l2.621,2.62h-2.482l0.537,0.538L11.046,14.65l0.921-0.921l3.666-0.651
					c-0.056,0.06-0.091,0.138-0.091,0.227c0,0.187,0.15,0.338,0.336,0.338c0.187,0,0.337-0.151,0.337-0.338
					c0-0.131-0.077-0.243-0.187-0.298l1.593-0.283c-0.202,0.099-0.344,0.302-0.344,0.542c0,0.335,0.271,0.607,0.607,0.607
					c0.335,0,0.607-0.271,0.607-0.607c0-0.319-0.247-0.57-0.558-0.598l1.261-0.224c-0.056,0.07-0.095,0.155-0.095,0.252
					c0,0.223,0.181,0.405,0.404,0.405c0.223,0,0.405-0.181,0.405-0.405c0-0.149-0.084-0.273-0.203-0.344L20.433,12.226
					 M20.433,11.226c-0.058,0-0.116,0.005-0.174,0.015l-0.725,0.128c-0.089,0.016-0.173,0.043-0.252,0.08
					c-0.028-0.002-0.057-0.004-0.086-0.004c-0.058,0-0.116,0.005-0.175,0.015l-1.261,0.224c-0.053,0.009-0.105,0.023-0.155,0.04
					c-0.052,0.001-0.105,0.006-0.157,0.015l-1.593,0.283c-0.068,0.012-0.133,0.031-0.195,0.056c-0.009,0-0.017,0-0.026,0
					c-0.058,0-0.116,0.005-0.175,0.015l-3.666,0.651c-0.202,0.036-0.388,0.133-0.532,0.277l-0.921,0.921
					c-0.277,0.277-0.367,0.689-0.23,1.056c0.136,0.367,0.474,0.62,0.864,0.649l10.063,0.734c0.024,0.002,0.049,0.003,0.073,0.003
					c0.372,0,0.714-0.207,0.886-0.538h1.058c0.404,0,0.769-0.244,0.924-0.617c0.155-0.374,0.069-0.804-0.217-1.09l-2.621-2.62
					C20.951,11.33,20.695,11.226,20.433,11.226L20.433,11.226z"/>
			</g>
		</g>
		<g>
			<g>
				<path d="M13.941,8.349l1.086,0.252c-0.136,0.09-0.23,0.236-0.23,0.411c0,0.277,0.225,0.502,0.501,0.502
					c0.277,0,0.502-0.225,0.502-0.502c0-0.092-0.031-0.173-0.075-0.248l1.216,0.283c-0.291,0.09-0.504,0.357-0.504,0.679
					c0,0.395,0.319,0.714,0.713,0.714c0.395,0,0.714-0.32,0.714-0.714c0-0.203-0.085-0.386-0.221-0.515l2.367,0.551l1.615,1.613
					l-8.882,1.577l1.165-1.166h-2.042l2.549-2.549h-1.361L13.941,8.349 M13.941,7.349c-0.262,0-0.517,0.103-0.707,0.293
					l-0.888,0.888c-0.286,0.286-0.372,0.716-0.217,1.09c0.046,0.112,0.111,0.212,0.191,0.297l-1.162,1.162
					c-0.286,0.286-0.372,0.716-0.217,1.09c0.141,0.34,0.455,0.572,0.815,0.611c-0.037,0.211-0.006,0.434,0.098,0.634
					c0.174,0.334,0.519,0.538,0.886,0.538c0.058,0,0.117-0.005,0.175-0.015l8.882-1.577c0.367-0.065,0.667-0.329,0.779-0.685
					s0.017-0.744-0.247-1.007l-1.615-1.613c-0.132-0.132-0.298-0.224-0.48-0.267l-2.367-0.551c-0.076-0.018-0.152-0.026-0.227-0.026
					c-0.047,0-0.094,0.003-0.14,0.01c-0.1-0.068-0.213-0.118-0.335-0.147l-1.216-0.283c-0.075-0.018-0.152-0.026-0.227-0.026
					c-0.046,0-0.091,0.003-0.136,0.009c-0.1-0.068-0.213-0.118-0.335-0.146l-1.086-0.252C14.092,7.358,14.016,7.349,13.941,7.349
					L13.941,7.349z"/>
			</g>
		</g>
		<g>
			<g>
				<path d="M12.77,15.406l1,0.073c-0.243,0.101-0.413,0.34-0.413,0.619c0,0.37,0.3,0.67,0.669,0.67c0.371,0,0.671-0.3,0.671-0.67
					c0-0.246-0.134-0.458-0.332-0.576l1.465,0.108c-0.105,0.076-0.177,0.193-0.177,0.333c0,0.233,0.188,0.42,0.419,0.42
					c0.232,0,0.42-0.188,0.42-0.42c0-0.115-0.047-0.218-0.122-0.293l2.98,0.218c-0.133,0.097-0.225,0.246-0.225,0.422
					c0,0.297,0.239,0.537,0.535,0.537c0.296,0,0.536-0.24,0.536-0.537c0-0.145-0.059-0.276-0.154-0.373l1.747,0.127l1.763,1.763v0
					h-5.8l0.461,2.556h-2.524l0.461-2.557H10.35L12.77,15.406 M12.77,14.406c-0.264,0-0.519,0.105-0.707,0.293l-2.42,2.421
					c-0.286,0.286-0.371,0.716-0.217,1.09c0.155,0.374,0.519,0.617,0.924,0.617h4.603l-0.248,1.38
					c-0.053,0.292,0.027,0.591,0.217,0.819c0.19,0.227,0.471,0.359,0.767,0.359h2.524c0.296,0,0.577-0.131,0.767-0.359
					s0.269-0.527,0.217-0.819l-0.249-1.379h4.603c0.404,0,0.769-0.244,0.924-0.617c0.155-0.374,0.069-0.804-0.217-1.09l-1.763-1.764
					c-0.17-0.17-0.395-0.273-0.635-0.29l-1.747-0.127c-0.024-0.002-0.049-0.003-0.073-0.003c-0.096,0-0.189,0.014-0.279,0.04
					c-0.105-0.048-0.22-0.078-0.34-0.086l-2.98-0.218c-0.025-0.002-0.049-0.003-0.073-0.003c-0.068,0-0.134,0.007-0.199,0.02
					c-0.085-0.031-0.174-0.05-0.267-0.057l-1.465-0.108c-0.025-0.002-0.049-0.003-0.074-0.003c-0.078,0-0.154,0.009-0.228,0.026
					c-0.092-0.036-0.191-0.059-0.294-0.067l-1-0.073C12.818,14.406,12.794,14.406,12.77,14.406L12.77,14.406z"/>
			</g>
		</g>
	</g>
</g>
</svg>
