<?xml version="1.0" encoding="utf-8"?>
<!-- Generator: Adobe Illustrator 17.0.0, SVG Export Plug-In . SVG Version: 6.00 Build 0)  -->
<!DOCTYPE svg PUBLIC "-//W3C//DTD SVG 1.1//EN" "http://www.w3.org/Graphics/SVG/1.1/DTD/svg11.dtd">
<svg version="1.1" id="Layer_1" xmlns="http://www.w3.org/2000/svg" xmlns:xlink="http://www.w3.org/1999/xlink" x="0px" y="0px"
	 width="33.9px" height="28.6px" viewBox="0 0 33.9 28.6" enable-background="new 0 0 33.9 28.6" xml:space="preserve">
<g>
	<path fill="#231F20" d="M33.9,28.6H0V0h33.9V28.6z M1,27.6h31.9V1H1V27.6z"/>
</g>
<g id="Layer_2">
</g>
<rect x="0.5" y="0.5" fill="#FFFFFF" width="32.9" height="27.6"/>
<rect x="0" y="23.418" fill="none" width="33.9" height="4.682"/>
<g enable-background="new    ">
	<path d="M9.24,26.268c0,0.087,0.004,0.163,0.013,0.23c0.008,0.066,0.021,0.127,0.037,0.182c0.017,0.056,0.04,0.106,0.07,0.153
		c0.03,0.046,0.068,0.093,0.115,0.14H8.05c0.05-0.037,0.089-0.072,0.118-0.107s0.051-0.077,0.067-0.125
		c0.017-0.049,0.027-0.108,0.032-0.18c0.005-0.072,0.008-0.164,0.008-0.278v-2.189c-0.077-0.014-0.162-0.021-0.255-0.021
		c-0.067,0-0.126,0.004-0.178,0.011s-0.101,0.018-0.147,0.034c-0.047,0.018-0.096,0.04-0.147,0.068s-0.111,0.065-0.178,0.112
		l0.205-0.815l0.085,0.005l0.56,0.011h1.11c0.17,0,0.304,0,0.4,0s0.173-0.001,0.23-0.003c0.057-0.002,0.101-0.005,0.132-0.01
		s0.067-0.011,0.107-0.018l-0.18,0.83c-0.047-0.09-0.104-0.151-0.173-0.186c-0.068-0.033-0.169-0.05-0.302-0.05
		c-0.104,0-0.205,0.01-0.305,0.03V26.268z"/>
	<path d="M12.465,26.648c-0.083,0.077-0.161,0.141-0.233,0.19c-0.071,0.05-0.143,0.09-0.215,0.12
		c-0.072,0.029-0.145,0.052-0.22,0.064c-0.075,0.014-0.159,0.021-0.253,0.021c-0.143,0-0.275-0.024-0.397-0.073
		c-0.122-0.048-0.229-0.117-0.322-0.207c-0.097-0.097-0.165-0.204-0.205-0.322s-0.06-0.271-0.06-0.458v-1.795
		c0-0.08-0.001-0.146-0.002-0.197s-0.005-0.096-0.01-0.133c-0.005-0.036-0.011-0.066-0.018-0.09
		c-0.007-0.023-0.017-0.048-0.03-0.075c-0.02-0.046-0.042-0.082-0.065-0.107c-0.023-0.024-0.057-0.054-0.1-0.087h1.41
		c-0.047,0.036-0.083,0.072-0.11,0.107c-0.027,0.035-0.05,0.079-0.07,0.132c-0.01,0.021-0.017,0.042-0.022,0.065
		c-0.005,0.023-0.008,0.052-0.01,0.085c-0.002,0.033-0.003,0.074-0.005,0.122c-0.002,0.049-0.002,0.107-0.002,0.178v1.575
		c0,0.153,0.008,0.269,0.025,0.345c0.017,0.077,0.048,0.144,0.095,0.2c0.083,0.09,0.193,0.135,0.33,0.135
		c0.09,0,0.168-0.02,0.235-0.06c0.067-0.04,0.117-0.099,0.15-0.175c0.023-0.051,0.04-0.119,0.05-0.208
		c0.01-0.088,0.015-0.192,0.015-0.312v-1.5c0-0.083-0.001-0.15-0.002-0.202c-0.002-0.052-0.004-0.095-0.008-0.13
		s-0.009-0.064-0.018-0.088s-0.019-0.048-0.032-0.075c-0.02-0.046-0.042-0.082-0.065-0.107c-0.023-0.024-0.055-0.054-0.095-0.087
		h1.41c-0.047,0.036-0.084,0.072-0.113,0.107s-0.052,0.079-0.072,0.132c-0.01,0.023-0.018,0.045-0.022,0.065
		c-0.005,0.02-0.008,0.046-0.01,0.077c-0.001,0.032-0.003,0.071-0.005,0.118c-0.001,0.046-0.002,0.109-0.002,0.189v2.095
		c0,0.087,0.001,0.156,0.002,0.208c0.002,0.052,0.004,0.094,0.008,0.127c0.003,0.034,0.009,0.062,0.017,0.086
		c0.008,0.022,0.02,0.048,0.033,0.074c0.02,0.044,0.042,0.079,0.065,0.105s0.057,0.057,0.1,0.09h-1.15V26.648z"/>
	<path d="M14.005,26.973c0.05-0.037,0.089-0.071,0.118-0.105c0.028-0.033,0.051-0.074,0.067-0.125
		c0.017-0.05,0.028-0.11,0.033-0.182c0.005-0.072,0.007-0.164,0.007-0.278v-2.095c0-0.08-0.001-0.146-0.002-0.197
		s-0.005-0.096-0.01-0.133c-0.005-0.036-0.011-0.066-0.018-0.09c-0.007-0.023-0.017-0.048-0.03-0.075
		c-0.02-0.046-0.042-0.082-0.065-0.107c-0.023-0.024-0.057-0.054-0.1-0.087h0.99c0.237,0,0.424,0,0.562,0.002
		s0.249,0.006,0.333,0.013c0.083,0.007,0.15,0.018,0.2,0.032c0.05,0.016,0.104,0.036,0.16,0.062c0.16,0.07,0.287,0.176,0.38,0.317
		s0.14,0.298,0.14,0.468c0,0.2-0.055,0.369-0.165,0.508c-0.11,0.138-0.282,0.257-0.515,0.357c0.534,0.923,0.934,1.486,1.2,1.689
		c-0.14,0.018-0.269,0.028-0.385,0.035c-0.117,0.007-0.232,0.01-0.345,0.01c-0.104,0-0.191-0.005-0.263-0.015
		c-0.071-0.01-0.136-0.03-0.192-0.06c-0.057-0.03-0.108-0.07-0.155-0.12c-0.047-0.05-0.097-0.115-0.15-0.195
		c-0.074-0.106-0.159-0.252-0.255-0.438c-0.097-0.185-0.22-0.436-0.37-0.752v0.869c0,0.11,0.002,0.201,0.007,0.272
		c0.005,0.072,0.016,0.133,0.032,0.183c0.017,0.051,0.04,0.093,0.068,0.128s0.067,0.07,0.117,0.107H14.005z M15.175,25.208
		c0.183-0.037,0.327-0.113,0.432-0.23c0.105-0.116,0.158-0.26,0.158-0.43c0-0.127-0.032-0.237-0.095-0.33
		c-0.063-0.094-0.145-0.153-0.245-0.18c-0.037-0.011-0.074-0.017-0.113-0.021c-0.038-0.003-0.084-0.005-0.137-0.005V25.208z"/>
	<path d="M20.31,26.333c0.063,0.103,0.117,0.188,0.162,0.257s0.085,0.126,0.12,0.173s0.067,0.086,0.098,0.117
		c0.03,0.032,0.063,0.062,0.1,0.093c-0.043,0.007-0.114,0.011-0.215,0.013c-0.1,0.001-0.203,0.002-0.31,0.002
		c-0.174,0-0.313-0.006-0.42-0.018c-0.107-0.011-0.198-0.036-0.272-0.074c-0.075-0.039-0.143-0.095-0.2-0.168
		c-0.059-0.073-0.124-0.173-0.197-0.3l-0.586-1v0.854c0,0.11,0.003,0.201,0.008,0.272c0.005,0.072,0.016,0.133,0.032,0.183
		c0.017,0.051,0.04,0.093,0.068,0.128s0.067,0.07,0.117,0.107H17.4c0.05-0.037,0.089-0.071,0.118-0.105
		c0.028-0.033,0.051-0.074,0.067-0.125c0.017-0.05,0.028-0.11,0.033-0.182c0.005-0.072,0.007-0.164,0.007-0.278v-2.095
		c0-0.08-0.001-0.146-0.002-0.197c-0.002-0.052-0.005-0.096-0.01-0.133c-0.006-0.036-0.012-0.066-0.018-0.09
		c-0.007-0.023-0.018-0.048-0.03-0.075c-0.021-0.046-0.042-0.082-0.065-0.107c-0.023-0.024-0.057-0.054-0.1-0.087h1.416
		c-0.047,0.036-0.084,0.072-0.112,0.107s-0.053,0.079-0.073,0.132c-0.01,0.021-0.017,0.042-0.022,0.065
		c-0.005,0.023-0.008,0.052-0.01,0.085s-0.003,0.074-0.005,0.122c-0.002,0.049-0.003,0.107-0.003,0.178v0.875l0.601-0.76
		c0.073-0.094,0.131-0.167,0.173-0.22c0.041-0.054,0.072-0.097,0.092-0.13c0.021-0.034,0.032-0.061,0.035-0.08
		c0.003-0.021,0.005-0.045,0.005-0.075c0-0.057-0.016-0.106-0.047-0.15c-0.032-0.043-0.088-0.093-0.168-0.149h1.295l-1.165,1.409
		L20.31,26.333z"/>
	<path d="M22.155,26.393c0.073,0.026,0.152,0.046,0.237,0.058s0.196,0.018,0.333,0.018c0.183,0,0.332-0.021,0.447-0.065
		c0.115-0.043,0.221-0.118,0.317-0.225l-0.195,0.795h-2.33c0.051-0.037,0.09-0.072,0.118-0.107s0.051-0.077,0.067-0.128
		c0.017-0.05,0.027-0.11,0.032-0.183c0.005-0.071,0.008-0.164,0.008-0.277v-2.085c0-0.08-0.001-0.146-0.003-0.2
		c-0.001-0.053-0.005-0.097-0.01-0.132s-0.011-0.065-0.018-0.09c-0.007-0.025-0.017-0.051-0.03-0.078
		c-0.02-0.043-0.041-0.078-0.064-0.104c-0.023-0.027-0.057-0.057-0.101-0.09h1.9c0.047,0,0.082-0.002,0.105-0.006
		c0.022-0.003,0.048-0.011,0.074-0.024v0.77c-0.066-0.086-0.138-0.145-0.215-0.175c-0.076-0.03-0.189-0.045-0.34-0.045h-0.335v0.85
		h0.555c0.033,0,0.062-0.001,0.083-0.005c0.021-0.003,0.046-0.012,0.072-0.024v0.734c-0.023-0.036-0.047-0.067-0.07-0.092
		c-0.023-0.025-0.05-0.045-0.08-0.061c-0.029-0.015-0.064-0.024-0.104-0.029c-0.04-0.006-0.089-0.008-0.146-0.008h-0.31V26.393z"/>
	<path d="M25.551,26.268c0,0.087,0.004,0.163,0.012,0.23c0.009,0.066,0.021,0.127,0.038,0.182c0.017,0.056,0.04,0.106,0.07,0.153
		c0.029,0.046,0.067,0.093,0.114,0.14H24.36c0.05-0.037,0.089-0.072,0.117-0.107s0.051-0.077,0.068-0.125
		c0.017-0.049,0.027-0.108,0.032-0.18c0.005-0.072,0.008-0.164,0.008-0.278v-0.885l-0.75-1.39c-0.04-0.077-0.074-0.141-0.103-0.192
		s-0.057-0.096-0.083-0.133c-0.026-0.036-0.055-0.069-0.085-0.098s-0.066-0.058-0.11-0.087h1.226l0.62,1.265l0.319-0.66
		c0.037-0.076,0.062-0.138,0.078-0.183c0.015-0.045,0.022-0.087,0.022-0.127c0-0.061-0.014-0.113-0.04-0.158
		c-0.027-0.045-0.07-0.091-0.13-0.137H26.5l-0.949,1.899V26.268z"/>
</g>
<g>
	<path d="M27.984,16.973c-0.285-0.829-1.332-1.307-1.793-1.483c-0.633-1.872-1.457-3.451-2.451-4.7
		c0.01-0.046,0.021-0.092,0.032-0.137c0.388-1.69,0.754-3.289,1.801-3.863c1.53-0.091,2.063-0.929,2.049-1.696
		c-0.017-0.874-0.771-1.809-1.868-1.809c-0.331,0-0.664,0.091-0.984,0.266c-0.598-1.009-1.294-1.173-1.684-1.173
		c-0.692,0-1.316,0.504-1.517,1.227c-0.158,0.569-0.045,1.342,0.695,1.91c-0.128,0.49-0.647,1.755-1.997,2.13
		c-0.173,0.048-0.359,0.109-0.551,0.177c-2.855-1.007-6.208-0.366-9.003,1.734c-2.326,1.748-3.705,4.147-3.663,6.325
		c-1.193,0.728-1.297,1.499-1.163,2.031c0.618,2.439,7.742,4.305,11.071,4.31c0.007,0,0.013,0,0.02,0
		c2.128,0,4.514-0.48,6.721-1.353c1.934-0.765,3.486-1.748,4.05-2.565C28.132,17.75,28.088,17.275,27.984,16.973z M20.494,8.461
		c2.052-0.57,2.676-2.681,2.65-3.17c-0.007-0.14-0.084-0.268-0.204-0.34c-0.669-0.403-0.61-0.917-0.554-1.119
		c0.098-0.351,0.392-0.606,0.701-0.606c0.402,0,0.818,0.407,1.142,1.118c0.055,0.12,0.162,0.208,0.29,0.237
		c0.129,0.03,0.263-0.002,0.365-0.086c0.292-0.241,0.585-0.363,0.871-0.363c0.574,0,1.013,0.516,1.021,0.978
		c0.009,0.5-0.475,0.806-1.331,0.838c-0.059,0.002-0.117,0.017-0.17,0.043c-1.466,0.716-1.885,2.541-2.328,4.472
		c-0.497,2.168-1.012,4.41-3.071,4.948c-0.285,0.074-0.575,0.112-0.862,0.112c-0.981,0-1.95-0.455-2.593-1.217
		c-0.529-0.628-0.767-1.375-0.652-2.05C16.072,10.479,18.768,8.94,20.494,8.461z M11.223,10.233
		c2.256-1.695,4.893-2.361,7.254-1.879c-1.603,0.807-3.265,2.125-3.544,3.761c-0.157,0.922,0.149,1.92,0.839,2.739
		c0.802,0.95,2.013,1.518,3.24,1.518c0.359,0,0.721-0.047,1.076-0.14c2.115-0.552,2.889-2.434,3.393-4.371
		c0.749,1.07,1.386,2.362,1.896,3.861c-1.037,1.093-6.984,6.522-17.484,0.155C7.849,13.965,9.107,11.822,11.223,10.233z
		 M27.054,17.822c-0.842,1.222-5.418,3.552-10.073,3.552c-0.006,0-0.013,0-0.02,0c-3.597-0.005-9.83-2.01-10.251-3.671
		c-0.091-0.358,0.17-0.724,0.77-1.091c3.832,2.317,7.12,3.111,9.821,3.111c4.92,0,7.892-2.62,8.674-3.407
		c0.414,0.17,1.066,0.516,1.209,0.933C27.221,17.359,27.249,17.539,27.054,17.822z"/>
	<path d="M13.066,13.818c-0.621-0.344-1.283-0.533-1.866-0.533c-0.662,0-1.16,0.242-1.404,0.681c-0.246,0.443-0.183,1,0.177,1.566
		c0.31,0.488,0.819,0.945,1.432,1.285c0.621,0.344,1.283,0.533,1.866,0.533c0.662,0,1.16-0.242,1.404-0.681
		c0.246-0.443,0.183-0.999-0.177-1.566C14.188,14.615,13.68,14.158,13.066,13.818z M13.934,16.259
		c-0.085,0.153-0.333,0.244-0.663,0.244c-0.435,0-0.966-0.156-1.456-0.427c-0.485-0.269-0.896-0.632-1.128-0.998
		c-0.18-0.284-0.237-0.547-0.151-0.702c0.085-0.153,0.333-0.244,0.663-0.244c0.435,0,0.966,0.156,1.456,0.427
		c0.485,0.269,0.896,0.632,1.128,0.998C13.964,15.841,14.02,16.104,13.934,16.259z"/>
</g>
</svg>
