<?xml version="1.0" encoding="utf-8"?>
<!-- Generator: Adobe Illustrator 17.0.0, SVG Export Plug-In . SVG Version: 6.00 Build 0)  -->
<!DOCTYPE svg PUBLIC "-//W3C//DTD SVG 1.1//EN" "http://www.w3.org/Graphics/SVG/1.1/DTD/svg11.dtd">
<svg version="1.1" id="Layer_1" xmlns="http://www.w3.org/2000/svg" xmlns:xlink="http://www.w3.org/1999/xlink" x="0px" y="0px"
	 width="33.9px" height="28.6px" viewBox="0 0 33.9 28.6" enable-background="new 0 0 33.9 28.6" xml:space="preserve">
<g>
	<path fill="#231F20" d="M33.9,28.6H0V0h33.9V28.6z M1,27.6h31.9V1H1V27.6z"/>
</g>
<g id="Layer_2">
</g>
<rect x="0.5" y="0.5" fill="#FFFFFF" width="32.9" height="27.6"/>
<rect x="0" y="23.418" fill="none" width="33.9" height="4.682"/>
<g enable-background="new    ">
	<path d="M8.548,23.498c-0.013,0.046-0.022,0.082-0.027,0.107c-0.005,0.024-0.008,0.051-0.008,0.077c0,0.04,0.006,0.089,0.018,0.146
		s0.031,0.13,0.058,0.22l0.575,1.875l0.52-1.695c0.027-0.08,0.043-0.139,0.05-0.178c0.006-0.038,0.01-0.075,0.01-0.112
		c0-0.087-0.018-0.165-0.055-0.234c-0.037-0.07-0.097-0.139-0.18-0.205h1.03l-1.17,3.56c-0.167-0.03-0.311-0.07-0.432-0.12
		c-0.122-0.05-0.228-0.112-0.318-0.188c-0.09-0.075-0.165-0.166-0.225-0.272c-0.06-0.106-0.11-0.231-0.15-0.375l-0.34-1.14
		l-0.57,2.095c-0.177-0.033-0.33-0.077-0.458-0.133c-0.128-0.055-0.238-0.125-0.33-0.21s-0.168-0.189-0.23-0.314
		c-0.062-0.125-0.114-0.274-0.158-0.447l-0.54-1.83c-0.046-0.167-0.097-0.296-0.152-0.388s-0.129-0.171-0.223-0.237h1.24
		c0.003,0.046,0.009,0.091,0.018,0.132c0.008,0.042,0.025,0.109,0.052,0.203l0.57,2.074l0.445-1.614
		c0.023-0.09,0.035-0.169,0.035-0.235c0-0.097-0.02-0.188-0.058-0.272c-0.039-0.085-0.106-0.181-0.203-0.287H8.548z"/>
	<path d="M10.732,26.973c0.05-0.037,0.089-0.071,0.118-0.105c0.028-0.033,0.051-0.074,0.067-0.125
		c0.017-0.05,0.028-0.11,0.033-0.182c0.005-0.072,0.007-0.164,0.007-0.278v-2.095c0-0.08-0.001-0.146-0.002-0.197
		s-0.005-0.096-0.01-0.133c-0.005-0.036-0.011-0.066-0.018-0.09c-0.007-0.023-0.017-0.048-0.03-0.075
		c-0.02-0.046-0.042-0.082-0.065-0.107c-0.023-0.024-0.057-0.054-0.1-0.087h1.415c-0.046,0.036-0.084,0.072-0.112,0.107
		s-0.053,0.079-0.073,0.132c-0.01,0.021-0.017,0.042-0.022,0.065c-0.005,0.023-0.008,0.052-0.01,0.085
		c-0.002,0.033-0.003,0.074-0.005,0.122c-0.002,0.049-0.003,0.107-0.003,0.178v2.095c0,0.11,0.003,0.201,0.008,0.272
		c0.005,0.072,0.016,0.133,0.032,0.183c0.017,0.051,0.04,0.093,0.068,0.128s0.067,0.07,0.117,0.107H10.732z"/>
	<path d="M12.437,26.098c0.17,0.137,0.35,0.239,0.54,0.308s0.385,0.103,0.585,0.103c0.17,0,0.303-0.033,0.4-0.101
		c0.097-0.066,0.145-0.161,0.145-0.284c0-0.054-0.007-0.1-0.022-0.138s-0.042-0.077-0.083-0.115s-0.097-0.078-0.17-0.12
		c-0.073-0.041-0.17-0.091-0.29-0.147c-0.126-0.06-0.229-0.11-0.305-0.149c-0.077-0.04-0.141-0.075-0.192-0.105
		s-0.095-0.059-0.13-0.085s-0.073-0.059-0.112-0.095c-0.097-0.087-0.172-0.192-0.225-0.315c-0.054-0.123-0.08-0.255-0.08-0.395
		c0-0.157,0.031-0.299,0.092-0.426c0.062-0.126,0.149-0.234,0.263-0.324c0.113-0.091,0.25-0.159,0.41-0.208
		c0.16-0.048,0.34-0.072,0.54-0.072c0.316,0,0.615,0.052,0.895,0.155v0.614c-0.264-0.156-0.512-0.234-0.745-0.234
		c-0.144,0-0.258,0.029-0.343,0.09c-0.085,0.06-0.127,0.14-0.127,0.24c0,0.043,0.008,0.081,0.022,0.114
		c0.015,0.034,0.041,0.067,0.078,0.101s0.085,0.065,0.145,0.098c0.06,0.031,0.137,0.067,0.23,0.107
		c0.106,0.047,0.199,0.088,0.277,0.125c0.079,0.036,0.147,0.072,0.208,0.107s0.114,0.07,0.163,0.104
		c0.048,0.035,0.096,0.074,0.143,0.118c0.227,0.203,0.34,0.453,0.34,0.75c0,0.359-0.142,0.643-0.425,0.85
		c-0.137,0.097-0.285,0.167-0.445,0.21c-0.16,0.043-0.361,0.065-0.605,0.065c-0.17,0-0.334-0.016-0.492-0.045
		c-0.159-0.03-0.328-0.079-0.508-0.146L12.437,26.098z"/>
	<path d="M16.592,26.282c0,0.11,0.003,0.201,0.008,0.272c0.005,0.072,0.015,0.133,0.03,0.183c0.015,0.051,0.038,0.093,0.068,0.128
		c0.03,0.035,0.068,0.07,0.115,0.107h-1.41c0.05-0.037,0.089-0.071,0.118-0.105c0.028-0.033,0.051-0.074,0.067-0.125
		c0.017-0.05,0.028-0.11,0.033-0.182c0.005-0.072,0.007-0.164,0.007-0.278v-2.095c0-0.08-0.001-0.146-0.002-0.197
		s-0.005-0.096-0.01-0.133c-0.005-0.036-0.011-0.066-0.018-0.09c-0.007-0.023-0.017-0.048-0.03-0.075
		c-0.02-0.046-0.042-0.082-0.065-0.107c-0.023-0.024-0.057-0.054-0.1-0.087h1.41c-0.047,0.036-0.083,0.072-0.11,0.107
		c-0.027,0.035-0.05,0.079-0.07,0.132c-0.01,0.021-0.017,0.042-0.022,0.065c-0.005,0.023-0.008,0.052-0.01,0.085
		c-0.002,0.033-0.003,0.074-0.005,0.122c-0.002,0.049-0.003,0.107-0.003,0.178v0.665h0.91v-0.665c0-0.08-0.001-0.146-0.002-0.197
		c-0.002-0.052-0.005-0.095-0.01-0.13c-0.006-0.035-0.012-0.065-0.018-0.09c-0.007-0.025-0.018-0.051-0.03-0.078
		c-0.02-0.046-0.042-0.082-0.065-0.107c-0.023-0.024-0.057-0.054-0.1-0.087h1.415c-0.047,0.036-0.084,0.072-0.112,0.107
		s-0.053,0.079-0.073,0.132c-0.01,0.021-0.017,0.041-0.022,0.062c-0.005,0.022-0.008,0.05-0.01,0.083s-0.003,0.074-0.005,0.122
		c-0.002,0.049-0.003,0.109-0.003,0.183v2.095c0,0.084,0.001,0.151,0.003,0.203s0.004,0.095,0.008,0.13
		c0.003,0.035,0.009,0.064,0.018,0.088c0.008,0.022,0.019,0.048,0.032,0.074c0.02,0.044,0.042,0.079,0.064,0.105
		c0.023,0.026,0.057,0.057,0.101,0.09h-1.415c0.05-0.037,0.089-0.072,0.118-0.107s0.051-0.077,0.067-0.125
		c0.017-0.049,0.028-0.109,0.033-0.183s0.007-0.165,0.007-0.275v-0.895h-0.91V26.282z"/>
	<path d="M20.713,23.492c0.146,0,0.28,0.021,0.402,0.061c0.121,0.04,0.227,0.097,0.314,0.171c0.089,0.073,0.157,0.16,0.205,0.261
		c0.049,0.101,0.073,0.212,0.073,0.336c0,0.171-0.046,0.311-0.136,0.419s-0.229,0.196-0.42,0.264
		c0.243,0.047,0.432,0.149,0.565,0.31c0.133,0.16,0.2,0.36,0.2,0.601c0,0.156-0.03,0.302-0.091,0.438
		c-0.06,0.135-0.146,0.25-0.26,0.347c-0.116,0.101-0.241,0.171-0.375,0.213c-0.133,0.042-0.302,0.062-0.505,0.062h-1.61
		c0.051-0.037,0.09-0.071,0.118-0.105c0.028-0.033,0.051-0.075,0.067-0.125s0.027-0.111,0.032-0.183s0.008-0.164,0.008-0.278v-2.093
		c0-0.08-0.001-0.146-0.003-0.2c-0.001-0.054-0.005-0.098-0.01-0.133s-0.011-0.064-0.018-0.09s-0.017-0.051-0.03-0.078
		c-0.02-0.043-0.041-0.078-0.064-0.104c-0.023-0.027-0.057-0.057-0.101-0.091H20.713z M20.248,24.838
		c0.02,0.007,0.036,0.012,0.05,0.015c0.013,0.004,0.031,0.005,0.055,0.005c0.127,0,0.23-0.042,0.31-0.127
		c0.08-0.085,0.12-0.196,0.12-0.333c0-0.116-0.034-0.212-0.104-0.287s-0.158-0.112-0.266-0.112c-0.026,0-0.051,0.001-0.074,0.005
		c-0.023,0.003-0.054,0.012-0.09,0.024V24.838z M20.248,26.418c0.073,0.043,0.154,0.064,0.244,0.064c0.15,0,0.268-0.054,0.353-0.162
		s0.128-0.261,0.128-0.458c0-0.373-0.198-0.56-0.595-0.56c-0.014,0-0.032,0-0.056,0s-0.048,0.002-0.074,0.005V26.418z"/>
	<path d="M22.292,26.973c0.087-0.094,0.147-0.19,0.183-0.293c0.035-0.102,0.053-0.238,0.053-0.412v-1.95
		c0-0.1-0.004-0.186-0.013-0.257c-0.009-0.072-0.024-0.138-0.048-0.198c-0.023-0.06-0.054-0.118-0.092-0.175
		c-0.039-0.057-0.09-0.12-0.152-0.189h1.085l1.64,2.17v-1.465c0-0.091-0.004-0.169-0.01-0.235c-0.007-0.066-0.02-0.127-0.038-0.18
		c-0.019-0.054-0.042-0.103-0.072-0.147c-0.03-0.046-0.068-0.093-0.115-0.143h1.011c-0.047,0.046-0.086,0.093-0.115,0.14
		c-0.03,0.047-0.054,0.098-0.07,0.152s-0.029,0.116-0.037,0.183c-0.009,0.066-0.013,0.144-0.013,0.23v2.875
		c-0.287-0.058-0.54-0.158-0.76-0.303c-0.221-0.146-0.415-0.341-0.585-0.588l-1.07-1.415v1.495c0,0.087,0.004,0.163,0.013,0.23
		c0.008,0.066,0.021,0.126,0.037,0.18s0.04,0.104,0.07,0.15c0.03,0.046,0.068,0.095,0.115,0.145H22.292z"/>
	<path d="M27.287,26.393c0.073,0.026,0.152,0.046,0.237,0.058s0.196,0.018,0.333,0.018c0.183,0,0.332-0.021,0.447-0.065
		c0.115-0.043,0.221-0.118,0.317-0.225l-0.195,0.795h-2.33c0.051-0.037,0.09-0.072,0.118-0.107s0.051-0.077,0.067-0.128
		c0.017-0.05,0.027-0.11,0.032-0.183c0.005-0.071,0.008-0.164,0.008-0.277v-2.085c0-0.08-0.001-0.146-0.003-0.2
		c-0.001-0.053-0.005-0.097-0.01-0.132s-0.011-0.065-0.018-0.09c-0.007-0.025-0.017-0.051-0.03-0.078
		c-0.02-0.043-0.041-0.078-0.064-0.104c-0.023-0.027-0.057-0.057-0.101-0.09h1.9c0.047,0,0.082-0.002,0.105-0.006
		c0.022-0.003,0.048-0.011,0.074-0.024v0.77c-0.066-0.086-0.138-0.145-0.215-0.175c-0.076-0.03-0.189-0.045-0.34-0.045h-0.335v0.85
		h0.555c0.033,0,0.062-0.001,0.083-0.005c0.021-0.003,0.046-0.012,0.072-0.024v0.734c-0.023-0.036-0.047-0.067-0.07-0.092
		c-0.023-0.025-0.05-0.045-0.08-0.061c-0.029-0.015-0.064-0.024-0.104-0.029c-0.04-0.006-0.089-0.008-0.146-0.008h-0.31V26.393z"/>
</g>
<path d="M27.123,3.432c-0.338-0.669-1.026-1.053-1.888-1.053c-0.786,0-1.717,0.303-2.765,0.901c-1.268,0.723-2.955,0.97-4.74,1.233
	c-4.404,0.645-9.885,1.45-11.145,10.436c-0.106,0.757,0.119,1.54,0.602,2.096c0.391,0.449,0.899,0.697,1.432,0.697l0,0
	c0.612,0,1.754-0.338,2.527-2.597c0.13-0.381,0.251-0.769,0.373-1.157c0.973-3.111,1.892-6.05,7.651-6.05
	c0.81,0,1.708,0.059,2.676,0.177c0.096,1.105,0.236,4.866-1.9,7.614c-1.378,1.773-3.459,2.817-6.186,3.103
	c-0.072,0.008-0.14,0.033-0.199,0.074c-0.603,0.422-0.846,1.045-0.65,1.667c0.315,1,1.628,1.647,3.345,1.647
	c0.646,0,1.347-0.088,2.082-0.261c2.073-0.488,4.022-2.215,5.49-4.863c1.316-2.374,2.16-5.323,2.313-8.066
	c0.046-0.403,0.084-0.746,0.117-1.039C26.436,6.4,26.436,6.4,26.714,6.037c0.043-0.056,0.091-0.119,0.145-0.193
	C27.386,5.133,27.492,4.163,27.123,3.432z M26.178,5.34c-0.051,0.069-0.096,0.128-0.137,0.181c-0.422,0.551-0.429,0.619-0.625,2.378
	c-0.032,0.292-0.07,0.633-0.119,1.06c-0.287,5.114-3.103,11.223-7.153,12.176c-0.672,0.158-1.307,0.238-1.888,0.238
	c-1.514,0-2.376-0.546-2.536-1.054c-0.091-0.288,0.067-0.508,0.246-0.656c2.91-0.33,5.148-1.479,6.652-3.419
	c2.738-3.529,2.061-8.366,2.031-8.57c-0.028-0.187-0.176-0.333-0.364-0.358c-1.131-0.15-2.179-0.226-3.118-0.226
	c-6.382,0-7.486,3.53-8.461,6.645c-0.119,0.381-0.238,0.761-0.366,1.135c-0.439,1.286-1.068,2.023-1.724,2.023l0,0
	c-0.284,0-0.565-0.144-0.792-0.406c-0.324-0.373-0.475-0.904-0.402-1.422C8.594,6.708,13.299,6.018,17.85,5.35
	c1.867-0.274,3.63-0.533,5.037-1.335c1.694-0.965,3.059-1.029,3.476-0.202C26.59,4.259,26.513,4.887,26.178,5.34z"/>
</svg>
