<?xml version="1.0" encoding="utf-8"?>
<!-- Generator: Adobe Illustrator 17.0.0, SVG Export Plug-In . SVG Version: 6.00 Build 0)  -->
<!DOCTYPE svg PUBLIC "-//W3C//DTD SVG 1.1//EN" "http://www.w3.org/Graphics/SVG/1.1/DTD/svg11.dtd">
<svg version="1.1" id="Layer_1" xmlns="http://www.w3.org/2000/svg" xmlns:xlink="http://www.w3.org/1999/xlink" x="0px" y="0px"
	 width="33.9px" height="28.6px" viewBox="0 0 33.9 28.6" enable-background="new 0 0 33.9 28.6" xml:space="preserve">
<g>
	<path fill="#231F20" d="M33.9,28.6H0V0h33.9V28.6z M1,27.6h31.9V1H1V27.6z"/>
</g>
<g id="Layer_2">
</g>
<rect x="0.5" y="0.5" fill="#FFFFFF" width="32.9" height="27.6"/>
<rect x="0" y="23.418" fill="none" width="33.9" height="4.682"/>
<g enable-background="new    ">
	<path d="M9.55,23.498c-0.013,0.046-0.022,0.082-0.027,0.107c-0.005,0.024-0.008,0.051-0.008,0.077c0,0.04,0.006,0.089,0.018,0.146
		s0.031,0.13,0.058,0.22l0.575,1.875l0.52-1.695c0.027-0.08,0.043-0.139,0.05-0.178c0.006-0.038,0.01-0.075,0.01-0.112
		c0-0.087-0.018-0.165-0.055-0.234c-0.037-0.07-0.097-0.139-0.18-0.205h1.03l-1.17,3.56c-0.167-0.03-0.311-0.07-0.432-0.12
		c-0.122-0.05-0.228-0.112-0.318-0.188c-0.09-0.075-0.165-0.166-0.225-0.272c-0.06-0.106-0.11-0.231-0.15-0.375l-0.34-1.14
		l-0.57,2.095c-0.177-0.033-0.33-0.077-0.458-0.133c-0.128-0.055-0.238-0.125-0.33-0.21s-0.168-0.189-0.23-0.314
		c-0.062-0.125-0.114-0.274-0.158-0.447l-0.54-1.83c-0.046-0.167-0.097-0.296-0.152-0.388s-0.129-0.171-0.223-0.237h1.24
		c0.003,0.046,0.009,0.091,0.018,0.132c0.008,0.042,0.025,0.109,0.052,0.203l0.57,2.074l0.445-1.614
		c0.023-0.09,0.035-0.169,0.035-0.235c0-0.097-0.02-0.188-0.058-0.272c-0.039-0.085-0.106-0.181-0.203-0.287H9.55z"/>
	<path d="M11.735,26.973c0.05-0.037,0.089-0.071,0.118-0.105c0.028-0.033,0.051-0.074,0.067-0.125
		c0.017-0.05,0.028-0.11,0.033-0.182c0.005-0.072,0.007-0.164,0.007-0.278v-2.095c0-0.08-0.001-0.146-0.002-0.197
		s-0.005-0.096-0.01-0.133c-0.005-0.036-0.011-0.066-0.018-0.09c-0.007-0.023-0.017-0.048-0.03-0.075
		c-0.02-0.046-0.042-0.082-0.065-0.107c-0.023-0.024-0.057-0.054-0.1-0.087h0.99c0.237,0,0.424,0,0.562,0.002
		s0.249,0.006,0.333,0.013c0.083,0.007,0.15,0.018,0.2,0.032c0.05,0.016,0.104,0.036,0.16,0.062c0.16,0.07,0.287,0.176,0.38,0.317
		s0.14,0.298,0.14,0.468c0,0.2-0.055,0.369-0.165,0.508c-0.11,0.138-0.282,0.257-0.515,0.357c0.534,0.923,0.934,1.486,1.2,1.689
		c-0.14,0.018-0.269,0.028-0.385,0.035c-0.117,0.007-0.232,0.01-0.345,0.01c-0.104,0-0.191-0.005-0.263-0.015
		c-0.071-0.01-0.136-0.03-0.192-0.06c-0.057-0.03-0.108-0.07-0.155-0.12c-0.047-0.05-0.097-0.115-0.15-0.195
		c-0.074-0.106-0.159-0.252-0.255-0.438c-0.097-0.185-0.22-0.436-0.37-0.752v0.869c0,0.11,0.002,0.201,0.007,0.272
		c0.005,0.072,0.016,0.133,0.032,0.183c0.017,0.051,0.04,0.093,0.068,0.128s0.067,0.07,0.117,0.107H11.735z M12.905,25.208
		c0.183-0.037,0.327-0.113,0.432-0.23c0.105-0.116,0.158-0.26,0.158-0.43c0-0.127-0.032-0.237-0.095-0.33
		c-0.063-0.094-0.145-0.153-0.245-0.18c-0.037-0.011-0.074-0.017-0.113-0.021c-0.038-0.003-0.084-0.005-0.137-0.005V25.208z"/>
	<path d="M16.32,26.393c0.074,0.026,0.153,0.046,0.238,0.058s0.196,0.018,0.333,0.018c0.183,0,0.333-0.021,0.447-0.065
		c0.116-0.043,0.221-0.118,0.318-0.225l-0.195,0.795h-2.33c0.05-0.037,0.089-0.072,0.118-0.107s0.051-0.077,0.067-0.128
		c0.017-0.05,0.028-0.11,0.033-0.183c0.005-0.071,0.007-0.164,0.007-0.277v-2.085c0-0.08-0.001-0.146-0.002-0.2
		c-0.001-0.053-0.005-0.097-0.01-0.132c-0.005-0.035-0.011-0.065-0.018-0.09c-0.007-0.025-0.017-0.051-0.03-0.078
		c-0.02-0.043-0.042-0.078-0.065-0.104c-0.023-0.027-0.057-0.057-0.1-0.09h1.9c0.046,0,0.082-0.002,0.105-0.006
		c0.023-0.003,0.048-0.011,0.075-0.024v0.77c-0.066-0.086-0.138-0.145-0.215-0.175s-0.19-0.045-0.34-0.045H16.32v0.85h0.555
		c0.033,0,0.061-0.001,0.083-0.005c0.021-0.003,0.046-0.012,0.073-0.024v0.734c-0.023-0.036-0.047-0.067-0.07-0.092
		c-0.023-0.025-0.05-0.045-0.08-0.061c-0.03-0.015-0.065-0.024-0.105-0.029c-0.04-0.006-0.088-0.008-0.145-0.008h-0.31V26.393z"/>
	<path d="M19.846,23.498l1.02,2.774c0.033,0.094,0.063,0.171,0.09,0.232c0.027,0.062,0.056,0.118,0.085,0.168
		c0.03,0.05,0.065,0.098,0.105,0.143s0.09,0.098,0.15,0.157H19.77c0.083-0.066,0.14-0.122,0.17-0.168
		c0.03-0.045,0.045-0.096,0.045-0.152c0-0.036-0.005-0.076-0.015-0.12c-0.01-0.043-0.03-0.107-0.061-0.194l-0.14-0.42h-1.05
		l-0.146,0.42c-0.029,0.08-0.051,0.145-0.062,0.194c-0.012,0.051-0.018,0.094-0.018,0.131c0,0.053,0.012,0.098,0.035,0.135
		c0.023,0.036,0.077,0.095,0.16,0.175h-1.085c0.057-0.06,0.104-0.112,0.14-0.157c0.037-0.045,0.069-0.093,0.098-0.143
		s0.056-0.108,0.08-0.175c0.025-0.067,0.055-0.152,0.088-0.256l0.71-2.064c0.023-0.066,0.041-0.12,0.055-0.16
		s0.023-0.072,0.03-0.098c0.007-0.024,0.011-0.045,0.013-0.06c0.001-0.016,0.002-0.031,0.002-0.048c0-0.057-0.014-0.107-0.042-0.152
		s-0.081-0.1-0.158-0.162H19.846z M19.225,24.383l-0.35,1.045h0.72L19.225,24.383z"/>
	<path d="M22.92,26.268c0,0.087,0.005,0.163,0.013,0.23c0.009,0.066,0.021,0.127,0.037,0.182c0.018,0.056,0.04,0.106,0.07,0.153
		c0.03,0.046,0.068,0.093,0.115,0.14H21.73c0.05-0.037,0.089-0.072,0.117-0.107s0.051-0.077,0.067-0.125
		c0.017-0.049,0.027-0.108,0.032-0.18c0.006-0.072,0.008-0.164,0.008-0.278v-2.189c-0.076-0.014-0.161-0.021-0.255-0.021
		c-0.066,0-0.126,0.004-0.178,0.011s-0.101,0.018-0.147,0.034c-0.047,0.018-0.096,0.04-0.147,0.068s-0.11,0.065-0.178,0.112
		l0.205-0.815l0.085,0.005l0.561,0.011h1.109c0.171,0,0.304,0,0.4,0s0.173-0.001,0.23-0.003c0.057-0.002,0.101-0.005,0.132-0.01
		c0.032-0.005,0.067-0.011,0.107-0.018l-0.18,0.83c-0.047-0.09-0.104-0.151-0.173-0.186c-0.068-0.033-0.169-0.05-0.302-0.05
		c-0.104,0-0.205,0.01-0.306,0.03V26.268z"/>
	<path d="M25.224,26.282c0,0.11,0.003,0.201,0.008,0.272c0.005,0.072,0.016,0.133,0.03,0.183c0.015,0.051,0.037,0.093,0.067,0.128
		s0.068,0.07,0.115,0.107h-1.41c0.05-0.037,0.089-0.071,0.117-0.105c0.028-0.033,0.051-0.074,0.067-0.125
		c0.017-0.05,0.028-0.11,0.033-0.182c0.005-0.072,0.007-0.164,0.007-0.278v-2.095c0-0.08-0.001-0.146-0.002-0.197
		c-0.002-0.052-0.005-0.096-0.01-0.133c-0.006-0.036-0.012-0.066-0.018-0.09c-0.007-0.023-0.018-0.048-0.03-0.075
		c-0.021-0.046-0.042-0.082-0.065-0.107c-0.023-0.024-0.057-0.054-0.1-0.087h1.41c-0.047,0.036-0.084,0.072-0.11,0.107
		s-0.05,0.079-0.07,0.132c-0.01,0.021-0.017,0.042-0.022,0.065c-0.005,0.023-0.008,0.052-0.01,0.085s-0.003,0.074-0.005,0.122
		c-0.002,0.049-0.003,0.107-0.003,0.178v0.665h0.91v-0.665c0-0.08-0.001-0.146-0.002-0.197c-0.002-0.052-0.005-0.095-0.01-0.13
		c-0.006-0.035-0.012-0.065-0.018-0.09c-0.007-0.025-0.018-0.051-0.03-0.078c-0.021-0.046-0.042-0.082-0.065-0.107
		c-0.023-0.024-0.057-0.054-0.1-0.087h1.415c-0.047,0.036-0.084,0.072-0.112,0.107s-0.053,0.079-0.073,0.132
		c-0.01,0.021-0.017,0.041-0.022,0.062c-0.005,0.022-0.008,0.05-0.01,0.083s-0.003,0.074-0.005,0.122
		c-0.002,0.049-0.003,0.109-0.003,0.183v2.095c0,0.084,0.001,0.151,0.003,0.203s0.004,0.095,0.008,0.13
		c0.003,0.035,0.009,0.064,0.018,0.088c0.008,0.022,0.019,0.048,0.032,0.074c0.02,0.044,0.042,0.079,0.064,0.105
		c0.023,0.026,0.057,0.057,0.101,0.09H25.91c0.05-0.037,0.089-0.072,0.117-0.107s0.051-0.077,0.067-0.125
		c0.017-0.049,0.028-0.109,0.033-0.183s0.007-0.165,0.007-0.275v-0.895h-0.91V26.282z"/>
</g>
<g>
	<path d="M19.097,6.477c0.114,0,0.207-0.092,0.207-0.207V5.638c0-0.114-0.093-0.207-0.207-0.207S18.89,5.524,18.89,5.638V6.27
		C18.89,6.385,18.983,6.477,19.097,6.477z"/>
	<path d="M15.335,5.324c0.032,0.018,0.066,0.026,0.1,0.026c0.073,0,0.143-0.038,0.181-0.106c0.056-0.1,0.02-0.226-0.08-0.281
		c-0.139-0.078-0.266-0.184-0.365-0.308C15.1,4.565,14.97,4.552,14.88,4.623c-0.089,0.072-0.103,0.202-0.031,0.291
		C14.982,5.079,15.15,5.221,15.335,5.324z"/>
	<path d="M12.561,6.642c-0.082,0.08-0.082,0.211-0.002,0.292c0.091,0.093,0.197,0.168,0.314,0.223
		c0.029,0.013,0.058,0.02,0.088,0.02c0.078,0,0.152-0.044,0.187-0.119c0.049-0.103,0.005-0.227-0.099-0.275
		c-0.072-0.034-0.138-0.081-0.195-0.139C12.773,6.563,12.642,6.562,12.561,6.642z"/>
	<path d="M12.166,9.854c-0.193-0.03-0.394,0.037-0.53,0.175c-0.08,0.082-0.079,0.212,0.003,0.292
		c0.04,0.039,0.093,0.059,0.145,0.059c0.054,0,0.107-0.021,0.148-0.062c0.043-0.044,0.111-0.066,0.17-0.056
		c0.113,0.019,0.219-0.059,0.237-0.172C12.356,9.978,12.279,9.872,12.166,9.854z"/>
	<path d="M10.732,10.678c-0.074-0.087-0.205-0.097-0.292-0.023c-0.093,0.079-0.211,0.134-0.331,0.153
		c-0.113,0.018-0.189,0.124-0.171,0.237c0.016,0.102,0.104,0.174,0.204,0.174c0.011,0,0.022-0.001,0.033-0.003
		c0.197-0.032,0.382-0.117,0.534-0.247C10.796,10.895,10.806,10.765,10.732,10.678z"/>
	<path d="M10.628,12.809c-0.055,0.201-0.004,0.424,0.133,0.581c0.041,0.047,0.098,0.071,0.156,0.071
		c0.048,0,0.096-0.017,0.135-0.051c0.086-0.075,0.096-0.205,0.021-0.292c-0.046-0.053-0.064-0.134-0.046-0.201
		c0.03-0.11-0.035-0.224-0.145-0.254C10.772,12.634,10.658,12.699,10.628,12.809z"/>
	<path d="M11.036,13.962c-0.054,0.042-0.128,0.061-0.194,0.057c-0.11-0.008-0.214,0.074-0.225,0.187
		c-0.01,0.114,0.074,0.214,0.188,0.224c0.02,0.002,0.04,0.003,0.06,0.003c0.152,0,0.304-0.051,0.424-0.144
		c0.09-0.07,0.107-0.2,0.037-0.29C11.257,13.909,11.127,13.892,11.036,13.962z"/>
	<path d="M11.453,7.816c0.001,0,0.002,0,0.003,0c0.113,0,0.205-0.091,0.207-0.204c0.001-0.114-0.09-0.208-0.204-0.21
		c-0.061-0.001-0.122-0.021-0.171-0.058c-0.092-0.068-0.221-0.048-0.289,0.043c-0.068,0.092-0.049,0.221,0.043,0.289
		C11.16,7.764,11.306,7.814,11.453,7.816z"/>
	<path d="M20.456,5.828c0.015,0,0.03-0.002,0.044-0.005c0.269-0.059,0.516-0.206,0.695-0.414c0.074-0.087,0.065-0.217-0.022-0.292
		c-0.086-0.074-0.217-0.065-0.292,0.022c-0.121,0.141-0.288,0.24-0.47,0.28c-0.111,0.024-0.182,0.135-0.158,0.246
		C20.276,5.762,20.362,5.828,20.456,5.828z"/>
	<path d="M21.775,6.653c0.188,0.125,0.416,0.193,0.641,0.193c0.001,0,0.002,0,0.003,0c0.114,0,0.207-0.093,0.206-0.207
		c0-0.114-0.093-0.206-0.207-0.206c-0.001,0-0.002,0-0.002,0c-0.145,0-0.292-0.044-0.413-0.124
		c-0.095-0.063-0.223-0.037-0.287,0.058C21.654,6.461,21.679,6.59,21.775,6.653z"/>
	<path d="M21.096,7.597c0.005,0.114,0.104,0.205,0.216,0.197c0.426-0.019,0.856-0.002,1.279,0.049
		c0.009,0.001,0.017,0.001,0.025,0.001c0.103,0,0.192-0.077,0.205-0.182c0.014-0.113-0.067-0.216-0.18-0.23
		c-0.445-0.054-0.899-0.072-1.347-0.052C21.179,7.386,21.091,7.483,21.096,7.597z"/>
	<path d="M23.546,9.565h0.535c0.114,0,0.207-0.092,0.207-0.207c0-0.114-0.093-0.207-0.207-0.207h-0.535
		c-0.114,0-0.207,0.092-0.207,0.207C23.339,9.472,23.432,9.565,23.546,9.565z"/>
	<path d="M22.74,11.216c-0.312,0.002-0.618,0.086-0.886,0.244c-0.099,0.058-0.131,0.185-0.073,0.283
		c0.038,0.066,0.107,0.102,0.178,0.102c0.036,0,0.072-0.009,0.105-0.029c0.206-0.121,0.44-0.186,0.679-0.187
		c0.114-0.001,0.206-0.094,0.206-0.208c-0.001-0.114-0.093-0.206-0.207-0.206C22.741,11.216,22.741,11.216,22.74,11.216z"/>
	<path d="M22.957,14.398l0.151,0.437c0.03,0.086,0.11,0.139,0.196,0.139c0.023,0,0.045-0.004,0.068-0.012
		c0.108-0.037,0.165-0.155,0.128-0.263l-0.151-0.436c-0.037-0.108-0.153-0.165-0.263-0.128
		C22.977,14.172,22.919,14.29,22.957,14.398z"/>
	<path d="M24.084,12.852l-0.336,0.112c-0.108,0.036-0.166,0.154-0.13,0.262c0.029,0.086,0.11,0.141,0.196,0.141
		c0.022,0,0.044-0.004,0.066-0.011l0.335-0.112c0.109-0.036,0.167-0.153,0.131-0.262C24.309,12.874,24.192,12.815,24.084,12.852z"/>
	<path d="M24.143,11.347l-0.286,0.297c-0.079,0.082-0.077,0.213,0.006,0.293c0.04,0.039,0.092,0.058,0.143,0.058
		c0.054,0,0.108-0.021,0.149-0.063l0.286-0.298c0.079-0.082,0.076-0.213-0.006-0.292C24.353,11.262,24.222,11.264,24.143,11.347z"/>
	<path d="M17.957,5.043c0.018,0,0.036-0.002,0.054-0.007c0.11-0.03,0.175-0.144,0.145-0.254c-0.041-0.151-0.054-0.306-0.04-0.461
		c0.011-0.114-0.072-0.215-0.186-0.226c-0.115-0.01-0.215,0.073-0.225,0.186c-0.02,0.205-0.002,0.41,0.052,0.609
		C17.783,4.983,17.866,5.043,17.957,5.043z"/>
	<path d="M22.36,9.577V9.139c0-0.114-0.093-0.207-0.207-0.207s-0.207,0.092-0.207,0.207v0.438c0,0.114,0.093,0.207,0.207,0.207
		S22.36,9.691,22.36,9.577z"/>
	<path d="M16.126,4.215c0.114,0,0.207-0.092,0.207-0.207V3.814c0-0.114-0.093-0.207-0.207-0.207s-0.207,0.092-0.207,0.207v0.195
		C15.919,4.123,16.011,4.215,16.126,4.215z"/>
	<path d="M16.308,6.149c0,0.114,0.093,0.207,0.207,0.207s0.207-0.092,0.207-0.207V5.857c0-0.114-0.093-0.207-0.207-0.207
		s-0.207,0.092-0.207,0.207V6.149z"/>
	<path d="M10.146,9.565c0.032,0,0.065-0.008,0.095-0.024c0.101-0.053,0.141-0.178,0.088-0.279c-0.111-0.212-0.337-0.349-0.576-0.35
		l0,0c-0.114,0-0.207,0.092-0.207,0.206s0.092,0.207,0.207,0.207c0.084,0,0.17,0.053,0.209,0.128
		C9.999,9.524,10.071,9.565,10.146,9.565z"/>
	<path d="M12.088,8.885c0.022,0,0.044-0.004,0.066-0.011l0.145-0.049c0.109-0.036,0.167-0.153,0.131-0.262s-0.153-0.167-0.261-0.131
		l-0.147,0.049c-0.108,0.036-0.166,0.153-0.13,0.262C11.921,8.831,12.002,8.885,12.088,8.885z"/>
	<path d="M12.579,5.678c0.114,0,0.207-0.092,0.207-0.207V5.423c0-0.114-0.093-0.207-0.207-0.207c-0.114,0-0.207,0.092-0.207,0.207
		v0.049C12.372,5.586,12.465,5.678,12.579,5.678z"/>
	<path d="M14.371,6.259c0.114,0,0.207-0.092,0.207-0.207V5.954c0-0.114-0.093-0.207-0.207-0.207s-0.207,0.092-0.207,0.207v0.097
		C14.164,6.166,14.257,6.259,14.371,6.259z"/>
	<path d="M10.823,15.228h-0.194c-0.114,0-0.207,0.092-0.207,0.207c0,0.114,0.093,0.207,0.207,0.207h0.194
		c0.114,0,0.207-0.092,0.207-0.207S10.938,15.228,10.823,15.228z"/>
	<path d="M22.566,13.395c-0.055-0.019-0.103-0.065-0.124-0.119c-0.042-0.106-0.161-0.159-0.268-0.117
		c-0.106,0.041-0.159,0.161-0.117,0.268c0.065,0.167,0.206,0.302,0.376,0.36c0.022,0.008,0.045,0.011,0.067,0.011
		c0.086,0,0.166-0.054,0.196-0.14C22.731,13.549,22.674,13.432,22.566,13.395z"/>
	<path d="M24.441,19.512l-1.932-1.067c0.091-0.19,0.156-0.387,0.2-0.588c1.94-1.677,3.052-4.101,3.052-6.667
		c0-4.859-3.953-8.812-8.811-8.812S8.139,6.332,8.139,11.19c0,2.566,1.112,4.989,3.052,6.666c0.044,0.201,0.109,0.399,0.2,0.588
		l-1.932,1.067c-0.161,0.089-0.244,0.274-0.203,0.454s0.195,0.311,0.379,0.322l2.871,0.168l0.734,1.531
		c0.063,0.131,0.189,0.219,0.333,0.233c0.013,0.001,0.027,0.002,0.04,0.002c0.13,0,0.253-0.061,0.332-0.167l3.006-4.035l3.006,4.035
		c0.079,0.105,0.202,0.167,0.332,0.167c0.013,0,0.027-0.001,0.04-0.002c0.144-0.014,0.27-0.102,0.333-0.233l0.734-1.531l2.871-0.168
		c0.184-0.011,0.339-0.142,0.379-0.322C24.686,19.786,24.603,19.601,24.441,19.512z M12.134,18.086
		c-0.416-0.87-0.083-2.046,0.238-2.83c0.591,0.568,1.764,0.694,2.885,0.694c0.123,0,0.243-0.004,0.364-0.006
		c-0.001,0.029-0.003,0.058-0.003,0.087c0,0.216,0.03,0.421,0.084,0.61L12.134,18.086z M18.146,15.112
		c-0.016-0.033-0.031-0.065-0.049-0.097c0.788-0.785,1.964-1.663,2.535-1.495c0.212,0.062,0.36,0.318,0.44,0.76
		c0.036,0.2-0.025,0.301-0.081,0.367c-0.312,0.36-1.263,0.517-2.823,0.466C18.16,15.112,18.154,15.112,18.146,15.112z
		 M16.981,16.955c-0.253,0-0.536-0.395-0.536-0.924s0.283-0.924,0.536-0.924s0.536,0.395,0.536,0.924S17.234,16.955,16.981,16.955z
		 M12.828,14.28c0.08-0.442,0.228-0.698,0.44-0.76c0.048-0.014,0.1-0.021,0.156-0.021c0.622,0,1.697,0.827,2.419,1.556
		c-0.01,0.019-0.018,0.039-0.027,0.058c-1.61,0.047-2.591-0.114-2.909-0.482C12.852,14.568,12.793,14.471,12.828,14.28z
		 M20.381,12.681c-1.06,0.072-2.286,1.166-2.858,1.738c-0.165-0.09-0.348-0.139-0.542-0.139c-0.209,0-0.405,0.059-0.58,0.163
		c-0.555-0.557-1.775-1.66-2.839-1.76c-0.208-0.471-0.316-0.972-0.316-1.491c0-2.042,1.661-3.703,3.703-3.703
		s3.704,1.661,3.704,3.703C20.654,11.8,20.571,12.259,20.381,12.681z M18.341,15.943c0.144,0.003,0.289,0.008,0.433,0.008
		c1.107,0,2.189-0.129,2.757-0.684c0.32,0.784,0.648,1.953,0.234,2.819l-3.511-1.422c0.058-0.196,0.09-0.408,0.09-0.633
		C18.345,16.001,18.342,15.972,18.341,15.943z M8.966,11.19c0-4.403,3.582-7.984,7.984-7.984s7.984,3.582,7.984,7.984
		c0,2.052-0.785,4.004-2.177,5.479c-0.134-1.222-0.735-2.346-0.888-2.617c-0.114-0.559-0.341-0.952-0.675-1.173
		c0.196-0.491,0.287-1.028,0.287-1.69c0-2.498-2.033-4.531-4.531-4.531s-4.531,2.033-4.531,4.531c0,0.579,0.113,1.138,0.324,1.668
		c-0.354,0.216-0.593,0.615-0.712,1.195c-0.154,0.271-0.754,1.395-0.888,2.617C9.751,15.195,8.966,13.242,8.966,11.19z
		 M13.69,21.011l-0.543-1.134c-0.065-0.136-0.199-0.225-0.349-0.234l-1.687-0.099l1.03-0.569l3.956-1.602
		c0.056,0.061,0.117,0.115,0.18,0.163L13.69,21.011z M21.103,19.643c-0.15,0.009-0.284,0.098-0.349,0.234l-0.543,1.134l-2.566-3.444
		c0.072-0.051,0.14-0.109,0.203-0.175l3.912,1.584l1.029,0.568L21.103,19.643z"/>
</g>
</svg>
