<?xml version="1.0" encoding="utf-8"?>
<!-- Generator: Adobe Illustrator 17.0.0, SVG Export Plug-In . SVG Version: 6.00 Build 0)  -->
<!DOCTYPE svg PUBLIC "-//W3C//DTD SVG 1.1//EN" "http://www.w3.org/Graphics/SVG/1.1/DTD/svg11.dtd">
<svg version="1.1" id="Layer_1" xmlns="http://www.w3.org/2000/svg" xmlns:xlink="http://www.w3.org/1999/xlink" x="0px" y="0px"
	 width="43.42px" height="43.53px" viewBox="0 0 43.42 43.53" enable-background="new 0 0 43.42 43.53" xml:space="preserve">
<path fill="none" d="M30.168,1.265c6.627,0,12,5.373,12,12l0,0C42.168,6.637,36.796,1.265,30.168,1.265H14l0,0H30.168z"/>
<path fill="none" d="M40.919,30.265L40.919,30.265c0,5.928-4.822,10.75-10.75,10.75H14l0,0h16.169
	C36.096,41.015,40.919,36.193,40.919,30.265z"/>
<linearGradient id="SVGID_1_" gradientUnits="userSpaceOnUse" x1="92.476" y1="567.0451" x2="92.476" y2="608.0451" gradientTransform="matrix(1 0 0 1 -76.5165 -565.7798)">
	<stop  offset="0" style="stop-color:#00CAF2"/>
	<stop  offset="0.8599" style="stop-color:#00A4E9"/>
	<stop  offset="1" style="stop-color:#008DD3"/>
</linearGradient>
<path fill="url(#SVGID_1_)" d="M2.5,13.265v17c0,5.928,4.822,10.75,10.75,10.75h16.169v-38.5H13.25
	C7.322,2.515,2.5,7.337,2.5,13.265z"/>
<path fill="#00AFEC" d="M30.169,0.015H14v1.25h16.168c6.627,0,12,5.373,12,12l0,0v17l0,0c0,6.627-5.373,12-12,12H14v1.25h16.169
	c7.306,0,13.25-5.944,13.25-13.25v-17C43.419,5.959,37.474,0.015,30.169,0.015z"/>
<path fill="#00AFEC" d="M30.168,1.265H14v1.25h16.169c5.928,0,10.75,4.822,10.75,10.75l0,0v17l0,0c0,5.928-4.822,10.75-10.75,10.75
	H14v1.25h16.168c6.627,0,12-5.373,12-12v-17C42.168,6.638,36.796,1.265,30.168,1.265z"/>
<path fill="#00AFEC" d="M30.169,2.515c5.928,0,10.75,4.822,10.75,10.75l0,0C40.919,7.337,36.096,2.515,30.169,2.515H14l0,0H30.169z"
	/>
<path fill="#00AFEC" d="M30.168,42.265H14l0,0H30.168c6.627,0,12-5.372,12-12l0,0C42.168,36.892,36.796,42.265,30.168,42.265z"/>
<path fill="none" d="M13.25,1.265c-6.627,0-12,5.373-12,12l0,0C1.25,6.637,6.623,1.265,13.25,1.265h16.168l0,0H13.25z"/>
<path fill="none" d="M2.5,30.265L2.5,30.265c0,5.928,4.822,10.75,10.75,10.75h16.169l0,0H13.25C7.322,41.015,2.5,36.193,2.5,30.265z
	"/>
<linearGradient id="SVGID_2_" gradientUnits="userSpaceOnUse" x1="-717.1345" y1="567.0451" x2="-717.1345" y2="608.0451" gradientTransform="matrix(-1 0 0 1 -689.6749 -565.7798)">
	<stop  offset="0" style="stop-color:#00CAF2"/>
	<stop  offset="0.8599" style="stop-color:#00A4E9"/>
	<stop  offset="1" style="stop-color:#008DD3"/>
</linearGradient>
<path fill="url(#SVGID_2_)" d="M40.919,13.265v17c0,5.928-4.822,10.75-10.75,10.75H14v-38.5h16.169
	C36.096,2.515,40.919,7.337,40.919,13.265z"/>
<path fill="#00AFEC" d="M13.25,0.015h16.169v1.25H13.25c-6.627,0-12,5.373-12,12l0,0v17l0,0c0,6.627,5.373,12,12,12h16.168v1.25
	H13.25C5.944,43.515,0,37.571,0,30.265v-17C0,5.959,5.944,0.015,13.25,0.015z"/>
<path fill="#00AFEC" d="M13.25,1.265h16.168v1.25H13.25c-5.928,0-10.75,4.822-10.75,10.75l0,0v17l0,0
	c0,5.928,4.822,10.75,10.75,10.75h16.169v1.25H13.25c-6.627,0-12-5.373-12-12v-17C1.25,6.638,6.623,1.265,13.25,1.265z"/>
<path fill="#00AFEC" d="M13.25,2.515c-5.928,0-10.75,4.822-10.75,10.75l0,0C2.5,7.337,7.322,2.515,13.25,2.515h16.169l0,0H13.25z"/>
<path fill="#00AFEC" d="M13.25,42.265h16.168l0,0H13.25c-6.627,0-12-5.372-12-12l0,0C1.25,36.892,6.623,42.265,13.25,42.265z"/>
<g>
	<linearGradient id="SVGID_3_" gradientUnits="userSpaceOnUse" x1="22.4112" y1="34.2375" x2="22.4112" y2="8.5859">
		<stop  offset="0" style="stop-color:#4F9ADB"/>
		<stop  offset="1" style="stop-color:#1E3C89"/>
	</linearGradient>
	<path opacity="0.5" fill="url(#SVGID_3_)" stroke="#FFFFFF" stroke-miterlimit="10" d="M23.714,8.586v4.679
		c2.953,0,5.356,2.403,5.356,5.356s-2.403,5.356-5.356,5.356H20.03l2.272-2.272l-3.309-3.309l-7.92,7.92l7.92,7.92l3.309-3.309
		l-2.272-2.272h3.684c5.534,0,10.036-4.502,10.036-10.036C33.75,13.088,29.248,8.586,23.714,8.586z"/>
	<linearGradient id="SVGID_4_" gradientUnits="userSpaceOnUse" x1="21.71" y1="33.9453" x2="21.71" y2="8.2937">
		<stop  offset="0" style="stop-color:#4F9ADB"/>
		<stop  offset="1" style="stop-color:#1E3C89"/>
	</linearGradient>
	<path fill="url(#SVGID_4_)" stroke="#001A55" stroke-width="0.3" stroke-miterlimit="10" d="M23.013,8.294v4.679
		c2.953,0,5.356,2.403,5.356,5.356s-2.403,5.356-5.356,5.356h-3.684l2.272-2.272l-3.309-3.309l-7.92,7.92l7.92,7.92l3.309-3.309
		l-2.272-2.272h3.684c5.534,0,10.036-4.502,10.036-10.036C33.048,12.796,28.547,8.294,23.013,8.294z"/>
	<linearGradient id="SVGID_5_" gradientUnits="userSpaceOnUse" x1="22.0814" y1="33.9453" x2="22.0814" y2="8.2937">
		<stop  offset="0" style="stop-color:#4F9ADB"/>
		<stop  offset="1" style="stop-color:#1E3C89"/>
	</linearGradient>
	<path opacity="0.6" fill="url(#SVGID_5_)" d="M23.384,8.294v4.679c2.953,0,5.356,2.403,5.356,5.356s-2.403,5.356-5.356,5.356H19.7
		l2.272-2.272l-3.309-3.309l-7.92,7.92l7.92,7.92l3.309-3.309L19.7,28.365h3.684c5.534,0,10.036-4.502,10.036-10.036
		C33.42,12.796,28.918,8.294,23.384,8.294z"/>
</g>
</svg>
