<?xml version="1.0" encoding="utf-8"?>
<!-- Generator: Adobe Illustrator 17.0.0, SVG Export Plug-In . SVG Version: 6.00 Build 0)  -->
<!DOCTYPE svg PUBLIC "-//W3C//DTD SVG 1.1//EN" "http://www.w3.org/Graphics/SVG/1.1/DTD/svg11.dtd">
<svg version="1.1" id="Layer_1" xmlns="http://www.w3.org/2000/svg" xmlns:xlink="http://www.w3.org/1999/xlink" x="0px" y="0px"
	 width="43.42px" height="43.53px" viewBox="0 0 43.42 43.53" enable-background="new 0 0 43.42 43.53" xml:space="preserve">
<path fill="none" d="M30.168,1.265c6.627,0,12,5.373,12,12v0C42.168,6.637,36.796,1.265,30.168,1.265L14,1.265v0H30.168z"/>
<path fill="none" d="M40.919,30.265L40.919,30.265c0,5.928-4.822,10.75-10.75,10.75H14v0h16.169
	C36.096,41.015,40.919,36.193,40.919,30.265z"/>
<linearGradient id="SVGID_1_" gradientUnits="userSpaceOnUse" x1="-2.5393" y1="42.2649" x2="-2.5393" y2="1.2649" gradientTransform="matrix(1 0 0 -1 18.4985 43.5302)">
	<stop  offset="0" style="stop-color:#00CAF2"/>
	<stop  offset="0.8599" style="stop-color:#00A4E9"/>
	<stop  offset="1" style="stop-color:#008DD3"/>
</linearGradient>
<path fill="url(#SVGID_1_)" d="M2.5,13.265v17c0,5.928,4.822,10.75,10.75,10.75h16.169v-38.5H13.25
	C7.322,2.515,2.5,7.337,2.5,13.265z"/>
<path fill="#00AFEC" d="M30.169,0.015H14v1.25h16.168c6.627,0,12,5.373,12,12v0v17v0c0,6.627-5.373,12-12,12H14v1.25h16.169
	c7.306,0,13.25-5.944,13.25-13.25v-17C43.419,5.959,37.474,0.015,30.169,0.015z"/>
<path fill="#00AFEC" d="M30.168,1.265H14v1.25h16.169c5.928,0,10.75,4.822,10.75,10.75v0v17v0c0,5.928-4.822,10.75-10.75,10.75H14
	v1.25h16.168c6.627,0,12-5.373,12-12v-17C42.168,6.638,36.796,1.265,30.168,1.265z"/>
<path fill="#00AFEC" d="M30.169,2.515c5.928,0,10.75,4.822,10.75,10.75v0C40.919,7.337,36.096,2.515,30.169,2.515L14,2.515v0H30.169
	z"/>
<path fill="#00AFEC" d="M30.168,42.265H14v0L30.168,42.265c6.627,0,12-5.372,12-12v0C42.168,36.892,36.796,42.265,30.168,42.265z"/>
<path fill="none" d="M13.25,1.265c-6.627,0-12,5.373-12,12v0C1.25,6.637,6.623,1.265,13.25,1.265l16.168,0v0H13.25z"/>
<path fill="none" d="M2.5,30.265L2.5,30.265c0,5.928,4.822,10.75,10.75,10.75h16.169v0H13.25C7.322,41.015,2.5,36.193,2.5,30.265z"
	/>
<linearGradient id="SVGID_2_" gradientUnits="userSpaceOnUse" x1="-14.5393" y1="42.2649" x2="-14.5393" y2="1.2649" gradientTransform="matrix(-1 0 0 -1 12.92 43.5302)">
	<stop  offset="0" style="stop-color:#00CAF2"/>
	<stop  offset="0.8599" style="stop-color:#00A4E9"/>
	<stop  offset="1" style="stop-color:#008DD3"/>
</linearGradient>
<path fill="url(#SVGID_2_)" d="M40.919,13.265v17c0,5.928-4.822,10.75-10.75,10.75H14v-38.5h16.169
	C36.096,2.515,40.919,7.337,40.919,13.265z"/>
<path fill="#00AFEC" d="M13.25,0.015l16.169,0v1.25H13.25c-6.627,0-12,5.373-12,12v0v17v0c0,6.627,5.373,12,12,12h16.168v1.25H13.25
	C5.944,43.515,0,37.571,0,30.265l0-17C0,5.959,5.944,0.015,13.25,0.015z"/>
<path fill="#00AFEC" d="M13.25,1.265h16.168v1.25H13.25c-5.928,0-10.75,4.822-10.75,10.75v0v17v0c0,5.928,4.822,10.75,10.75,10.75
	h16.169v1.25H13.25c-6.627,0-12-5.373-12-12v-17C1.25,6.638,6.623,1.265,13.25,1.265z"/>
<path fill="#00AFEC" d="M13.25,2.515c-5.928,0-10.75,4.822-10.75,10.75v0C2.5,7.337,7.322,2.515,13.25,2.515l16.169,0v0H13.25z"/>
<path fill="#00AFEC" d="M13.25,42.265h16.168v0L13.25,42.265c-6.627,0-12-5.372-12-12v0C1.25,36.892,6.623,42.265,13.25,42.265z"/>
<g opacity="0.47">
	<path fill="#FFFFFF" d="M12.051,14.962l6.601,7.543l-6.601,7.544c-1.122,1.122-1.122,2.941,0,4.063
		c1.122,1.122,2.941,1.121,4.063,0l6.346-7.253l6.346,7.253c1.122,1.122,2.94,1.122,4.063,0c1.122-1.122,1.122-2.941,0-4.063
		l-6.601-7.544l6.601-7.543c1.122-1.122,1.122-2.94,0-4.062c-1.122-1.122-2.941-1.122-4.063,0l-6.346,7.254L16.114,10.9
		c-1.122-1.122-2.941-1.122-4.063,0C10.93,12.022,10.93,13.84,12.051,14.962z"/>
</g>
<g opacity="0.5">
	<path fill="#FFFFFF" stroke="#2E3192" stroke-miterlimit="10" d="M11.051,13.962l6.601,7.543l-6.601,7.544
		c-1.122,1.122-1.122,2.941,0,4.063c1.122,1.122,2.941,1.121,4.063,0l6.346-7.253l6.346,7.253c1.122,1.122,2.94,1.122,4.063,0
		c1.122-1.122,1.122-2.941,0-4.063l-6.601-7.544l6.601-7.543c1.122-1.122,1.122-2.94,0-4.062c-1.122-1.122-2.941-1.122-4.063,0
		l-6.346,7.254L15.114,9.9c-1.122-1.122-2.941-1.122-4.063,0C9.93,11.022,9.93,12.84,11.051,13.962z"/>
</g>
<g>
	<linearGradient id="SVGID_3_" gradientUnits="userSpaceOnUse" x1="21.9395" y1="34.2121" x2="21.9395" y2="9.0411">
		<stop  offset="0" style="stop-color:#4F9ADB"/>
		<stop  offset="1" style="stop-color:#1E3C89"/>
	</linearGradient>
	<path fill="url(#SVGID_3_)" d="M11.415,13.999l6.674,7.627l-6.674,7.628c-1.134,1.135-1.134,2.973,0,4.108
		c1.135,1.134,2.974,1.133,4.108,0l6.417-7.334l6.417,7.334c1.134,1.134,2.973,1.134,4.108,0c1.134-1.135,1.134-2.973,0-4.108
		l-6.674-7.628l6.674-7.627c1.134-1.134,1.134-2.973,0-4.107c-1.135-1.134-2.973-1.134-4.108,0l-6.417,7.335l-6.417-7.335
		c-1.135-1.134-2.974-1.134-4.108,0C10.281,11.027,10.281,12.865,11.415,13.999z"/>
</g>
</svg>
