<?xml version="1.0" encoding="utf-8"?>
<!-- Generator: Adobe Illustrator 15.0.0, SVG Export Plug-In  -->
<!DOCTYPE svg PUBLIC "-//W3C//DTD SVG 1.1//EN" "http://www.w3.org/Graphics/SVG/1.1/DTD/svg11.dtd" [
	<!ENTITY ns_flows "http://ns.adobe.com/Flows/1.0/">
]>
<svg version="1.1"
	 xmlns="http://www.w3.org/2000/svg" xmlns:xlink="http://www.w3.org/1999/xlink" xmlns:a="http://ns.adobe.com/AdobeSVGViewerExtensions/3.0/"
	 x="0px" y="0px" width="217px" height="75px" viewBox="0 0 217 75" overflow="visible" enable-background="new 0 0 217 75"
	 xml:space="preserve">
<defs>
</defs>
<g>
	<defs>
		<rect id="SVGID_1_" x="0" width="216.564" height="74.68"/>
	</defs>
	<clipPath id="SVGID_2_">
		<use xlink:href="#SVGID_1_"  overflow="visible"/>
	</clipPath>
	<path clip-path="url(#SVGID_2_)" d="M26.554,42.668l2.025,2.596l-9.48,7.877l-1.767-2.282c0.647-0.492,1.034-1.521,1.034-2.327
		c0-2.104-0.904-3.85-3.102-3.85c-3.146,0-3.706,4.162-3.706,6.624c0,8.861,4.223,14.276,8.618,14.276
		c3.361,0,5.171-1.387,7.455-3.759l2.197,2.282c-3.447,5.058-7.195,8.324-13.444,8.324c-7.325,0-14.134-4.297-14.134-14.411
		S9.576,40.43,18.237,40.43c2.758,0,4.87,1.478,6.981,3.179L26.554,42.668z"/>
	
		<path clip-path="url(#SVGID_2_)" fill="none" stroke="#000000" stroke-width="4.5" stroke-linecap="round" stroke-linejoin="round" d="
		M26.554,42.668l2.025,2.596l-9.48,7.877l-1.767-2.282c0.647-0.492,1.034-1.521,1.034-2.327c0-2.104-0.904-3.85-3.102-3.85
		c-3.146,0-3.706,4.162-3.706,6.624c0,8.861,4.223,14.276,8.618,14.276c3.361,0,5.171-1.387,7.455-3.759l2.197,2.282
		c-3.447,5.058-7.195,8.324-13.444,8.324c-7.325,0-14.134-4.297-14.134-14.411S9.576,40.43,18.237,40.43
		c2.758,0,4.87,1.478,6.981,3.179L26.554,42.668z"/>
	<path clip-path="url(#SVGID_2_)" d="M52.903,58.538c0,6.682-4.056,11.947-11.567,11.947c-6.434,0-10.871-4.97-10.871-11.585
		c0-6.682,4.057-11.947,11.568-11.947C48.466,46.953,52.903,51.922,52.903,58.538 M40.448,50.08c-2.155,0-3.138,1.118-3.138,5.693
		c0,5.299,2.314,11.585,5.61,11.585c2.155,0,3.138-1.119,3.138-5.693C46.058,56.365,43.744,50.08,40.448,50.08"/>
	
		<path clip-path="url(#SVGID_2_)" fill="none" stroke="#000000" stroke-width="4.5" stroke-linecap="round" stroke-linejoin="round" d="
		M52.903,58.538c0,6.682-4.056,11.947-11.567,11.947c-6.434,0-10.871-4.97-10.871-11.585c0-6.682,4.057-11.947,11.568-11.947
		C48.466,46.953,52.903,51.922,52.903,58.538z M40.448,50.08c-2.155,0-3.138,1.118-3.138,5.693c0,5.299,2.314,11.585,5.61,11.585
		c2.155,0,3.138-1.119,3.138-5.693C46.058,56.365,43.744,50.08,40.448,50.08z"/>
	<path clip-path="url(#SVGID_2_)" d="M67.165,68.214c-0.729,1.087-3.296,2.271-5.958,2.271c-4.722,0-6.275-3.159-6.275-7.57V50.045
		h-1.458v-2.566h8.303v15.535c0,2.6,0.571,3.588,2.663,3.588c2.091,0,2.694-0.988,2.694-3.588V50.045h-1.395v-2.566h8.24v19.912
		h1.426v2.567h-7.764L67.165,68.214z"/>
	
		<path clip-path="url(#SVGID_2_)" fill="none" stroke="#000000" stroke-width="4.5" stroke-linecap="round" stroke-linejoin="round" d="
		M67.165,68.214c-0.729,1.087-3.296,2.271-5.958,2.271c-4.722,0-6.275-3.159-6.275-7.57V50.045h-1.458v-2.566h8.303v15.535
		c0,2.6,0.571,3.588,2.663,3.588c2.091,0,2.694-0.988,2.694-3.588V50.045h-1.395v-2.566h8.24v19.912h1.426v2.567h-7.764
		L67.165,68.214z"/>
	<polygon clip-path="url(#SVGID_2_)" points="77.624,69.958 77.624,67.391 78.923,67.391 78.923,50.045 77.624,50.045 77.624,47.48 
		84.85,47.48 92.456,58.571 92.52,58.571 92.52,50.045 90.903,50.045 90.903,47.48 97.21,47.48 97.21,50.045 95.752,50.045 
		95.752,69.958 91.632,69.958 82.219,55.28 82.156,55.28 82.156,67.391 83.994,67.391 83.994,69.958 	"/>
	
		<polygon clip-path="url(#SVGID_2_)" fill="none" stroke="#000000" stroke-width="4.5" stroke-linecap="round" stroke-linejoin="round" points="
		77.624,69.958 77.624,67.391 78.923,67.391 78.923,50.045 77.624,50.045 77.624,47.48 84.85,47.48 92.456,58.571 92.52,58.571 
		92.52,50.045 90.903,50.045 90.903,47.48 97.21,47.48 97.21,50.045 95.752,50.045 95.752,69.958 91.632,69.958 82.219,55.28 
		82.156,55.28 82.156,67.391 83.994,67.391 83.994,69.958 	"/>
	<path clip-path="url(#SVGID_2_)" d="M102.693,69.958v-2.567h2.028V50.506c-2.281,0-2.979,1.055-3.359,3.193H99.08l0.444-6.747
		h2.409v0.527h12.423v-0.527h2.408l0.444,6.747h-2.282c-0.38-2.139-1.077-3.193-3.359-3.193v16.885h1.965v2.567H102.693z"/>
	
		<path clip-path="url(#SVGID_2_)" fill="none" stroke="#000000" stroke-width="4.5" stroke-linecap="round" stroke-linejoin="round" d="
		M102.693,69.958v-2.567h2.028V50.506c-2.281,0-2.979,1.055-3.359,3.193H99.08l0.444-6.747h2.409v0.527h12.423v-0.527h2.408
		l0.444,6.747h-2.282c-0.38-2.139-1.077-3.193-3.359-3.193v16.885h1.965v2.567H102.693z"/>
	<path clip-path="url(#SVGID_2_)" d="M119.808,50.046h-1.458v-2.567h9.031c6.72,0,11.441,4.016,11.441,11.19
		c0,7.504-4.404,11.289-11.314,11.289h-9.316v-2.567h1.616V50.046z M126.653,67.391c4.596,0,5.325-5.102,5.325-8.854
		c0-4.377-0.762-8.491-5.325-8.491V67.391z"/>
	
		<path clip-path="url(#SVGID_2_)" fill="none" stroke="#000000" stroke-width="4.5" stroke-linecap="round" stroke-linejoin="round" d="
		M119.808,50.046h-1.458v-2.567h9.031c6.72,0,11.441,4.016,11.441,11.19c0,7.504-4.404,11.289-11.314,11.289h-9.316v-2.567h1.616
		V50.046z M126.653,67.391c4.596,0,5.325-5.102,5.325-8.854c0-4.377-0.762-8.491-5.325-8.491V67.391z"/>
	<path clip-path="url(#SVGID_2_)" d="M162.973,58.538c0,6.682-4.058,11.947-11.568,11.947c-6.434,0-10.87-4.97-10.87-11.585
		c0-6.682,4.057-11.947,11.567-11.947C158.536,46.953,162.973,51.922,162.973,58.538 M150.518,50.08
		c-2.155,0-3.138,1.118-3.138,5.693c0,5.299,2.313,11.585,5.609,11.585c2.155,0,3.138-1.119,3.138-5.693
		C156.127,56.365,153.814,50.08,150.518,50.08"/>
	
		<path clip-path="url(#SVGID_2_)" fill="none" stroke="#000000" stroke-width="4.5" stroke-linecap="round" stroke-linejoin="round" d="
		M162.973,58.538c0,6.682-4.058,11.947-11.568,11.947c-6.434,0-10.87-4.97-10.87-11.585c0-6.682,4.057-11.947,11.567-11.947
		C158.536,46.953,162.973,51.922,162.973,58.538z M150.518,50.08c-2.155,0-3.138,1.118-3.138,5.693
		c0,5.299,2.313,11.585,5.609,11.585c2.155,0,3.138-1.119,3.138-5.693C156.127,56.365,153.814,50.08,150.518,50.08z"/>
	<path clip-path="url(#SVGID_2_)" d="M182.336,53.107c1.236-2.534,2.694-6.154,5.863-6.154c1.046,0,2.028,0.724,3.138,0.724
		c0.349,0,0.697-0.032,1.046-0.23l1.046,1.119l-7.004,21.394h-5.832l-2.504-8.558h-0.062l-2.409,8.558h-5.831l-6.117-19.913h-1.047
		V47.48h9.002v2.565h-0.951l3.867,13.199h0.063l2.028-6.188l-2.251-7.011h-1.045V47.48h8.937v2.565h-0.887L182.336,53.107z
		 M188.643,53.206c-1.109,0-2.154-0.658-3.264-0.658c-1.395,0-2.44,1.186-2.44,2.534c0,0.165,0.127,0.593,0.222,0.955l2.155,7.372
		h0.063L188.643,53.206z"/>
	
		<path clip-path="url(#SVGID_2_)" fill="none" stroke="#000000" stroke-width="4.5" stroke-linecap="round" stroke-linejoin="round" d="
		M182.336,53.107c1.236-2.534,2.694-6.154,5.863-6.154c1.046,0,2.028,0.724,3.138,0.724c0.349,0,0.697-0.032,1.046-0.23l1.046,1.119
		l-7.004,21.394h-5.832l-2.504-8.558h-0.062l-2.409,8.558h-5.831l-6.117-19.913h-1.047V47.48h9.002v2.565h-0.951l3.867,13.199h0.063
		l2.028-6.188l-2.251-7.011h-1.045V47.48h8.937v2.565h-0.887L182.336,53.107z M188.643,53.206c-1.109,0-2.154-0.658-3.264-0.658
		c-1.395,0-2.44,1.186-2.44,2.534c0,0.165,0.127,0.593,0.222,0.955l2.155,7.372h0.063L188.643,53.206z"/>
	<polygon clip-path="url(#SVGID_2_)" points="194.729,69.958 194.729,67.391 196.029,67.391 196.029,50.045 194.729,50.045 
		194.729,47.48 201.956,47.48 209.561,58.571 209.625,58.571 209.625,50.045 208.008,50.045 208.008,47.48 214.315,47.48 
		214.315,50.045 212.857,50.045 212.857,69.958 208.738,69.958 199.325,55.28 199.261,55.28 199.261,67.391 201.099,67.391 
		201.099,69.958 	"/>
	
		<polygon clip-path="url(#SVGID_2_)" fill="none" stroke="#000000" stroke-width="4.5" stroke-linecap="round" stroke-linejoin="round" points="
		194.729,69.958 194.729,67.391 196.029,67.391 196.029,50.045 194.729,50.045 194.729,47.48 201.956,47.48 209.561,58.571 
		209.625,58.571 209.625,50.045 208.008,50.045 208.008,47.48 214.315,47.48 214.315,50.045 212.857,50.045 212.857,69.958 
		208.738,69.958 199.325,55.28 199.261,55.28 199.261,67.391 201.099,67.391 201.099,69.958 	"/>
	<path clip-path="url(#SVGID_2_)" fill="#014386" d="M26.554,38.791l2.025,2.596l-9.48,7.877l-1.767-2.282
		c0.647-0.492,1.034-1.522,1.034-2.327c0-2.104-0.904-3.85-3.102-3.85c-3.146,0-3.706,4.162-3.706,6.624
		c0,8.861,4.223,14.276,8.618,14.276c3.361,0,5.171-1.387,7.455-3.759l2.197,2.282c-3.447,5.058-7.195,8.324-13.444,8.324
		c-7.325,0-14.134-4.297-14.134-14.411s7.326-17.588,15.987-17.588c2.758,0,4.87,1.477,6.981,3.178L26.554,38.791z"/>
	
		<path clip-path="url(#SVGID_2_)" fill="none" stroke="#014386" stroke-width="4.5" stroke-linecap="round" stroke-linejoin="round" d="
		M26.554,38.791l2.025,2.596l-9.48,7.877l-1.767-2.282c0.647-0.492,1.034-1.522,1.034-2.327c0-2.104-0.904-3.85-3.102-3.85
		c-3.146,0-3.706,4.162-3.706,6.624c0,8.861,4.223,14.276,8.618,14.276c3.361,0,5.171-1.387,7.455-3.759l2.197,2.282
		c-3.447,5.058-7.195,8.324-13.444,8.324c-7.325,0-14.134-4.297-14.134-14.411s7.326-17.588,15.987-17.588
		c2.758,0,4.87,1.477,6.981,3.178L26.554,38.791z"/>
	<path clip-path="url(#SVGID_2_)" fill="#014386" d="M52.903,54.659c0,6.683-4.056,11.948-11.567,11.948
		c-6.434,0-10.871-4.97-10.871-11.585c0-6.682,4.057-11.948,11.568-11.948C48.466,43.074,52.903,48.044,52.903,54.659
		 M40.448,46.202c-2.155,0-3.138,1.118-3.138,5.693c0,5.299,2.314,11.585,5.61,11.585c2.155,0,3.138-1.119,3.138-5.693
		C46.058,52.487,43.744,46.202,40.448,46.202"/>
	
		<path clip-path="url(#SVGID_2_)" fill="none" stroke="#014386" stroke-width="4.5" stroke-linecap="round" stroke-linejoin="round" d="
		M52.903,54.659c0,6.683-4.056,11.948-11.567,11.948c-6.434,0-10.871-4.97-10.871-11.585c0-6.682,4.057-11.948,11.568-11.948
		C48.466,43.074,52.903,48.044,52.903,54.659z M40.448,46.202c-2.155,0-3.138,1.118-3.138,5.693c0,5.299,2.314,11.585,5.61,11.585
		c2.155,0,3.138-1.119,3.138-5.693C46.058,52.487,43.744,46.202,40.448,46.202z"/>
	<path clip-path="url(#SVGID_2_)" fill="#014386" d="M67.165,64.336c-0.729,1.086-3.296,2.271-5.958,2.271
		c-4.722,0-6.275-3.159-6.275-7.57V46.168h-1.458v-2.567h8.303v15.535c0,2.6,0.571,3.588,2.663,3.588
		c2.091,0,2.694-0.988,2.694-3.588V46.168h-1.395v-2.567h8.24v19.912h1.426v2.567h-7.764L67.165,64.336z"/>
	
		<path clip-path="url(#SVGID_2_)" fill="none" stroke="#014386" stroke-width="4.5" stroke-linecap="round" stroke-linejoin="round" d="
		M67.165,64.336c-0.729,1.086-3.296,2.271-5.958,2.271c-4.722,0-6.275-3.159-6.275-7.57V46.168h-1.458v-2.567h8.303v15.535
		c0,2.6,0.571,3.588,2.663,3.588c2.091,0,2.694-0.988,2.694-3.588V46.168h-1.395v-2.567h8.24v19.912h1.426v2.567h-7.764
		L67.165,64.336z"/>
	<polygon clip-path="url(#SVGID_2_)" fill="#014386" points="77.624,66.081 77.624,63.513 78.923,63.513 78.923,46.167 
		77.624,46.167 77.624,43.602 84.85,43.602 92.456,54.693 92.52,54.693 92.52,46.167 90.903,46.167 90.903,43.602 97.21,43.602 
		97.21,46.167 95.752,46.167 95.752,66.081 91.632,66.081 82.219,51.402 82.156,51.402 82.156,63.513 83.994,63.513 83.994,66.081 	
		"/>
	
		<polygon clip-path="url(#SVGID_2_)" fill="none" stroke="#014386" stroke-width="4.5" stroke-linecap="round" stroke-linejoin="round" points="
		77.624,66.081 77.624,63.513 78.923,63.513 78.923,46.167 77.624,46.167 77.624,43.602 84.85,43.602 92.456,54.693 92.52,54.693 
		92.52,46.167 90.903,46.167 90.903,43.602 97.21,43.602 97.21,46.167 95.752,46.167 95.752,66.081 91.632,66.081 82.219,51.402 
		82.156,51.402 82.156,63.513 83.994,63.513 83.994,66.081 	"/>
	<path clip-path="url(#SVGID_2_)" fill="#014386" d="M102.693,66.081v-2.567h2.028V46.628c-2.281,0-2.979,1.054-3.359,3.193H99.08
		l0.444-6.747h2.409v0.527h12.423v-0.527h2.408l0.444,6.747h-2.282c-0.38-2.14-1.077-3.193-3.359-3.193v16.885h1.965v2.567H102.693z
		"/>
	
		<path clip-path="url(#SVGID_2_)" fill="none" stroke="#014386" stroke-width="4.5" stroke-linecap="round" stroke-linejoin="round" d="
		M102.693,66.081v-2.567h2.028V46.628c-2.281,0-2.979,1.054-3.359,3.193H99.08l0.444-6.747h2.409v0.527h12.423v-0.527h2.408
		l0.444,6.747h-2.282c-0.38-2.14-1.077-3.193-3.359-3.193v16.885h1.965v2.567H102.693z"/>
	<path clip-path="url(#SVGID_2_)" fill="#014386" d="M119.808,46.168h-1.458v-2.567h9.031c6.72,0,11.441,4.015,11.441,11.19
		c0,7.504-4.404,11.289-11.314,11.289h-9.316v-2.567h1.616V46.168z M126.653,63.513c4.596,0,5.325-5.102,5.325-8.854
		c0-4.377-0.762-8.49-5.325-8.49V63.513z"/>
	
		<path clip-path="url(#SVGID_2_)" fill="none" stroke="#014386" stroke-width="4.5" stroke-linecap="round" stroke-linejoin="round" d="
		M119.808,46.168h-1.458v-2.567h9.031c6.72,0,11.441,4.015,11.441,11.19c0,7.504-4.404,11.289-11.314,11.289h-9.316v-2.567h1.616
		V46.168z M126.653,63.513c4.596,0,5.325-5.102,5.325-8.854c0-4.377-0.762-8.49-5.325-8.49V63.513z"/>
	<path clip-path="url(#SVGID_2_)" fill="#014386" d="M162.973,54.659c0,6.683-4.058,11.948-11.568,11.948
		c-6.434,0-10.87-4.97-10.87-11.585c0-6.682,4.057-11.948,11.567-11.948C158.536,43.074,162.973,48.044,162.973,54.659
		 M150.518,46.202c-2.155,0-3.138,1.118-3.138,5.693c0,5.299,2.313,11.585,5.609,11.585c2.155,0,3.138-1.119,3.138-5.693
		C156.127,52.487,153.814,46.202,150.518,46.202"/>
	
		<path clip-path="url(#SVGID_2_)" fill="none" stroke="#014386" stroke-width="4.5" stroke-linecap="round" stroke-linejoin="round" d="
		M162.973,54.659c0,6.683-4.058,11.948-11.568,11.948c-6.434,0-10.87-4.97-10.87-11.585c0-6.682,4.057-11.948,11.567-11.948
		C158.536,43.074,162.973,48.044,162.973,54.659z M150.518,46.202c-2.155,0-3.138,1.118-3.138,5.693
		c0,5.299,2.313,11.585,5.609,11.585c2.155,0,3.138-1.119,3.138-5.693C156.127,52.487,153.814,46.202,150.518,46.202z"/>
	<path clip-path="url(#SVGID_2_)" fill="#014386" d="M182.336,49.229c1.236-2.534,2.694-6.154,5.863-6.154
		c1.046,0,2.028,0.724,3.138,0.724c0.349,0,0.697-0.032,1.046-0.23l1.046,1.119l-7.004,21.394h-5.832l-2.504-8.558h-0.062
		l-2.409,8.558h-5.831l-6.117-19.913h-1.047v-2.566h9.002v2.566h-0.951l3.867,13.199h0.063l2.028-6.188l-2.251-7.011h-1.045v-2.566
		h8.937v2.566h-0.887L182.336,49.229z M188.643,49.328c-1.109,0-2.154-0.658-3.264-0.658c-1.395,0-2.44,1.186-2.44,2.534
		c0,0.165,0.127,0.593,0.222,0.955l2.155,7.372h0.063L188.643,49.328z"/>
	
		<path clip-path="url(#SVGID_2_)" fill="none" stroke="#014386" stroke-width="4.5" stroke-linecap="round" stroke-linejoin="round" d="
		M182.336,49.229c1.236-2.534,2.694-6.154,5.863-6.154c1.046,0,2.028,0.724,3.138,0.724c0.349,0,0.697-0.032,1.046-0.23l1.046,1.119
		l-7.004,21.394h-5.832l-2.504-8.558h-0.062l-2.409,8.558h-5.831l-6.117-19.913h-1.047v-2.566h9.002v2.566h-0.951l3.867,13.199
		h0.063l2.028-6.188l-2.251-7.011h-1.045v-2.566h8.937v2.566h-0.887L182.336,49.229z M188.643,49.328
		c-1.109,0-2.154-0.658-3.264-0.658c-1.395,0-2.44,1.186-2.44,2.534c0,0.165,0.127,0.593,0.222,0.955l2.155,7.372h0.063
		L188.643,49.328z"/>
	<polygon clip-path="url(#SVGID_2_)" fill="#014386" points="194.729,66.081 194.729,63.513 196.029,63.513 196.029,46.167 
		194.729,46.167 194.729,43.602 201.956,43.602 209.561,54.693 209.625,54.693 209.625,46.167 208.008,46.167 208.008,43.602 
		214.315,43.602 214.315,46.167 212.857,46.167 212.857,66.081 208.738,66.081 199.325,51.402 199.261,51.402 199.261,63.513 
		201.099,63.513 201.099,66.081 	"/>
	
		<polygon clip-path="url(#SVGID_2_)" fill="none" stroke="#014386" stroke-width="4.5" stroke-linecap="round" stroke-linejoin="round" points="
		194.729,66.081 194.729,63.513 196.029,63.513 196.029,46.167 194.729,46.167 194.729,43.602 201.956,43.602 209.561,54.693 
		209.625,54.693 209.625,46.167 208.008,46.167 208.008,43.602 214.315,43.602 214.315,46.167 212.857,46.167 212.857,66.081 
		208.738,66.081 199.325,51.402 199.261,51.402 199.261,63.513 201.099,63.513 201.099,66.081 	"/>
	<path clip-path="url(#SVGID_2_)" d="M181.271,19.885c-4.416,0-7.874,2.796-7.874,6.364c0,1.365,0.537,2.408,1.239,3.262
		c-0.397-0.149-0.822-0.224-1.239-0.224c-1.498,0-3.76,0.907-4.313,3.264c-0.453,0.298-0.884,0.52-1.206,0.553l4.094-10.425
		c0.186-0.471,0.123-1.003-0.16-1.422c-0.287-0.418-0.761-0.668-1.267-0.668h-4.321c-0.671-0.355-1.494-0.528-2.493-0.528
		c-5.485,0-11.469,6.202-12.092,12.208c-0.602,0.433-1.199,0.793-1.618,0.835l2.346-5.978c0.492-1.232,0.742-2.325,0.742-3.249
		c0-2.282-1.634-3.816-4.065-3.816c-1.977,0-3.488,0.52-4.905,1.376c-0.717-0.867-1.852-1.376-3.233-1.376
		c-1.483,0-2.676,0.287-3.761,0.775c-0.246-0.159-0.535-0.247-0.834-0.247h-4.219l0.65-1.445c0.213-0.475,0.021-0.047-0.262-0.483
		c-0.282-0.435-0.502-0.127-1.021-0.127l-2.796-1.548l2.099-5.428c0.184-0.472,0.122-1.001-0.164-1.419
		c-0.287-0.417-0.758-0.666-1.265-0.666h-4.809c-0.634,0-1.202,0.394-1.429,0.988l-2.479,6.525h-3.331
		c-0.603,0-1.149,0.354-1.396,0.904l-1.163,2.592c-0.022,0.055-0.034,0.114-0.05,0.17c-1.115-0.498-2.532-0.767-4.203-0.767
		c-4.416,0-7.874,2.796-7.874,6.364c0,1.365,0.534,2.408,1.24,3.262c-0.399-0.149-0.824-0.224-1.24-0.224
		c-1.497,0-3.76,0.907-4.312,3.265c-0.456,0.297-0.884,0.519-1.207,0.552l4.094-10.425c0.183-0.471,0.124-1.003-0.161-1.422
		c-0.1-0.146-0.223-0.272-0.361-0.374c1.672-0.747,2.847-2.275,2.847-3.992c0-2.335-2.066-4.166-4.702-4.166
		c-3.133,0-3.137,2.848-3.137,5.043c0,1.372-1.2,2.086-0.051,2.821h-0.616c-0.643,0-1.214,0.397-1.436,0.997l-1.289,3.461
		c-0.324,0.221-0.668,0.434-1.032,0.621c0.539-0.65,0.798-1.476,0.798-2.274c0-1.9-1.659-3.333-3.856-3.333
		c-1.026,0-2.147,0.268-3.257,0.76c-0.24-0.15-0.521-0.232-0.813-0.232H79.46c-0.64,0-1.213,0.396-1.436,0.996l-3.56,9.557
		c-0.036,0.029-0.071,0.058-0.108,0.088c-0.884,0.722-2.205,1.798-2.951,1.874l2.345-5.978c0.493-1.232,0.743-2.325,0.743-3.249
		c0-2.282-1.634-3.816-4.068-3.816c-1.002,0-1.871,0.135-2.653,0.363l0.137-0.357c3.179-1.211,10.547-4.688,10.547-10.863
		c0-3.385-2.378-5.662-5.916-5.662c-5.885,0-8.415,5.571-9.804,9.238c-0.285-4.011-8.232,0.265-10.338-1.138
		C42.798,5.242,36.4,20.874,36.4,29.019c0,6.652,4.109,10.625,10.992,10.625c2.31,0,4.503-0.658,6.342-1.495
		c0.043,0.106,0.096,0.212,0.165,0.311c0.286,0.412,0.755,0.657,1.257,0.657h4.491c0.636,0,1.204-0.394,1.431-0.988l3.978-10.468
		c0.278-0.223,0.565-0.437,0.836-0.593l-1.855,4.851c-0.382,0.956-0.585,1.897-0.585,2.723c0,2.945,2.129,5.002,5.177,5.002
		c1.503,0,2.825-0.401,3.992-0.985c0.286,0.286,0.668,0.458,1.079,0.458h4.491c0.634,0,1.201-0.392,1.43-0.984l2.271-5.925
		c0.282-0.731,0.57-1.411,0.862-2.039c0.78,1.452,2.348,2.314,4.419,2.314c0.871,0,1.689-0.118,2.458-0.314
		c-0.299,0.891-0.449,1.676-0.449,2.385c0,2.949,2.153,5.091,5.124,5.091c2.235,0,4.072-0.885,5.588-1.942
		c1.346,1.233,3.413,1.942,5.981,1.942c4.163,0,7.497-1.925,8.623-4.723c0.109,2.874,2.213,4.723,5.432,4.723
		c1.73,0,3.318-0.481,4.733-1.16c0.285,0.396,0.745,0.633,1.233,0.633h4.493c0.634,0,1.205-0.394,1.43-0.987l4.12-10.825
		c0.163-0.112,0.311-0.202,0.449-0.276l-3.786,10.015c-0.177,0.471-0.114,0.998,0.174,1.412c0.284,0.414,0.755,0.661,1.259,0.661
		h4.546c0.632,0,1.202-0.392,1.428-0.984l4.132-10.778c0.133-0.144,0.261-0.249,0.382-0.327l-1.871,4.892
		c-0.381,0.956-0.585,1.897-0.585,2.722c0,2.945,2.129,5.002,5.179,5.002c2.32,0,4.207-0.953,5.757-2.062
		c1.061,1.293,2.646,2.062,4.545,2.062c1.705,0,3.188-0.494,4.324-1.063c0.879,0.686,2,1.063,3.233,1.063
		c2.233,0,4.07-0.885,5.587-1.942c1.346,1.233,3.413,1.942,5.982,1.942c5.149,0,9.034-2.943,9.034-6.849
		c0-1.826-0.857-3.167-1.847-4.215c0.156,0.024,0.315,0.035,0.472,0.035c2.48,0,3.963-1.939,3.963-3.815
		C188.296,21.725,185.671,19.885,181.271,19.885 M160.509,31.918c-0.181,0.457-0.312,0.901-0.404,1.376
		c-0.244,0.101-0.399,0.116-0.501,0.12c-0.057-0.042-0.207-0.318-0.207-0.839c0-1.63,1.272-5.121,3.144-6.163L160.509,31.918z
		 M176.495,31.283c0.936,0.797,1.501,1.329,1.509,1.797c-0.085,0.245-0.792,0.797-1.665,0.953c0.251-0.436,0.386-0.944,0.386-1.5
		C176.724,32.067,176.642,31.65,176.495,31.283 M181.147,26.064c-0.182-0.216-0.301-0.411-0.301-0.562
		c0-0.241,0.145-0.381,0.32-0.464c-0.035,0.178-0.055,0.363-0.055,0.553C181.112,25.754,181.125,25.914,181.147,26.064
		 M56.07,30.723c-2.047,1.453-5.487,2.211-6.882,2.211c-4.218,0-4.546-3.973-4.546-5.189c0-4.294,2.651-9.681,5.673-12.728
		c-0.415,0.654-0.65,1.389-0.65,2.095c0,2.477,2.065,4.343,4.805,4.343c2.453,0,4.611-1.203,6.113-2.879L56.07,30.723z
		 M105.696,31.283c0.938,0.797,1.5,1.329,1.51,1.797c-0.086,0.246-0.793,0.797-1.664,0.954c0.248-0.436,0.385-0.945,0.385-1.501
		C105.927,32.067,105.844,31.65,105.696,31.283 M126.678,31.1c-1.78,1.296-3.188,1.974-4.186,2.008l3.985-10.467h3.353L126.678,31.1
		z M118.509,22.641l-1.078,2.86c0.045-0.232,0.068-0.466,0.068-0.7c0-0.81-0.187-1.532-0.538-2.16H118.509z M115.169,31.501
		c-0.108,0.287-0.203,0.562-0.285,0.832c-0.133-1.591-0.917-2.795-1.82-3.751c0.157,0.022,1.091,1.253,1.25,1.253
		c1.625,0,2.041-2.057,2.674-3.159L115.169,31.501z"/>
	<path clip-path="url(#SVGID_2_)" fill="#014386" d="M172.295,26.829c0,0,1.211-0.83,1.468-1.468c0.255-0.637,1.53-4.019,1.53-4.019
		l4.85-1.404c0,0,3.508,2.616,3.574,2.808c0.062,0.191-3.51,3.508-3.51,3.508s-4.531,0.128-5.106,0.638
		c-0.574,0.511-1.593,1.341-1.593,1.341L172.295,26.829z"/>
	<path clip-path="url(#SVGID_2_)" fill="#014386" d="M48.245,31.391c1.638,0,5.865-0.879,8.243-2.855v2.372
		c-1.109,1.054-5.337,4.128-10.039,4.128c-6.236,0-9.46-3.557-9.46-9.092c0-7.644,6.607-21.57,17.069-21.57
		c3.698,0,6.233,2.46,6.233,5.929c0,3.032-3.116,6.547-6.763,6.547c-2.005,0-3.274-1.318-3.274-2.812
		c0-1.099,1.162-2.635,2.746-2.635c1.216,0,2.115,0.746,2.115,1.625c0,0.791-0.424,1.625-1.111,1.977
		c1.163,0,3.383-1.055,3.383-4.129c0-1.406-1.214-2.856-3.647-2.856c-5.284,0-11.571,9.532-11.571,16.65
		C42.169,27.833,43.754,31.391,48.245,31.391"/>
	
		<path clip-path="url(#SVGID_2_)" fill="none" stroke="#014386" stroke-width="4" stroke-linecap="round" stroke-linejoin="round" d="
		M48.245,31.391c1.638,0,5.865-0.879,8.243-2.855v2.372c-1.109,1.054-5.337,4.128-10.039,4.128c-6.236,0-9.46-3.557-9.46-9.092
		c0-7.644,6.607-21.57,17.069-21.57c3.698,0,6.233,2.46,6.233,5.929c0,3.032-3.116,6.547-6.763,6.547
		c-2.005,0-3.274-1.318-3.274-2.812c0-1.099,1.162-2.635,2.746-2.635c1.216,0,2.115,0.746,2.115,1.625
		c0,0.791-0.424,1.625-1.111,1.977c1.163,0,3.383-1.055,3.383-4.129c0-1.406-1.214-2.856-3.647-2.856
		c-5.284,0-11.571,9.532-11.571,16.65C42.169,27.833,43.754,31.391,48.245,31.391z"/>
	<path clip-path="url(#SVGID_2_)" fill="#014386" d="M75.984,6.129c0,4.746-5.55,8.04-10.2,9.665l-1.848,4.833
		c1.69-1.23,3.169-2.108,5.547-2.108c1.482,0,2.537,0.79,2.537,2.284c0,0.703-0.212,1.625-0.635,2.679l-2.378,6.063
		c-0.104,0.307-0.159,0.57-0.159,0.835c0,0.702,0.424,1.185,1.533,1.185c1.639,0,3.594-1.976,5.021-3.03v2.372
		c-1.85,1.537-4.281,4.128-7.715,4.128c-2.061,0-3.647-1.273-3.647-3.47c0-0.614,0.159-1.362,0.476-2.153l2.167-5.666
		c0.053-0.219,0.106-0.395,0.106-0.527c0-0.703-0.633-1.01-1.109-1.01c-1.005,0-1.901,0.659-2.854,1.45l-4.121,10.85h-4.491
		l8.664-23.327C64.622,6.438,66.789,2,71.598,2C74.452,2,75.984,3.714,75.984,6.129 M72.653,6.833c0-0.659-0.318-1.231-1.161-1.231
		c-1.744,0-2.854,2.591-4.598,7.293C69.907,11.622,72.653,8.854,72.653,6.833"/>
	
		<path clip-path="url(#SVGID_2_)" fill="none" stroke="#014386" stroke-width="4" stroke-linecap="round" stroke-linejoin="round" d="
		M75.984,6.129c0,4.746-5.55,8.04-10.2,9.665l-1.848,4.833c1.69-1.23,3.169-2.108,5.547-2.108c1.482,0,2.537,0.79,2.537,2.284
		c0,0.703-0.212,1.625-0.635,2.679l-2.378,6.063c-0.104,0.307-0.159,0.57-0.159,0.835c0,0.702,0.424,1.185,1.533,1.185
		c1.639,0,3.594-1.976,5.021-3.03v2.372c-1.85,1.537-4.281,4.128-7.715,4.128c-2.061,0-3.647-1.273-3.647-3.47
		c0-0.614,0.159-1.362,0.476-2.153l2.167-5.666c0.053-0.219,0.106-0.395,0.106-0.527c0-0.703-0.633-1.01-1.109-1.01
		c-1.005,0-1.901,0.659-2.854,1.45l-4.121,10.85h-4.491l8.664-23.327C64.622,6.438,66.789,2,71.598,2
		C74.452,2,75.984,3.714,75.984,6.129z M72.653,6.833c0-0.659-0.318-1.231-1.161-1.231c-1.744,0-2.854,2.591-4.598,7.293
		C69.907,11.622,72.653,8.854,72.653,6.833z"/>
	<path clip-path="url(#SVGID_2_)" fill="#014386" d="M72.76,34.51l5.759-15.463h4.647l-0.475,1.228
		c1.587-1.185,3.278-1.756,4.547-1.756c1.319,0,2.323,0.747,2.323,1.801c0,1.01-0.634,1.977-2.165,1.977
		c-0.686,0-1.375-0.265-1.64-0.79c-0.263,0.483-0.527,0.921-0.527,1.669c0,0.791,0.424,1.757,2.167,1.757
		c2.429,0,4.859-1.538,6.127-2.767v2.196c-1.586,1.669-4.067,3.514-7.291,3.514c-2.323,0-3.433-1.318-3.433-3.119
		c0-0.967,0.58-2.547,1.374-3.602c-2.061,1.581-3.594,4.701-4.651,7.424L77.25,34.51H72.76z"/>
	
		<path clip-path="url(#SVGID_2_)" fill="none" stroke="#014386" stroke-width="4" stroke-linecap="round" stroke-linejoin="round" d="
		M72.76,34.51l5.759-15.463h4.647l-0.475,1.228c1.587-1.185,3.278-1.756,4.547-1.756c1.319,0,2.323,0.747,2.323,1.801
		c0,1.01-0.634,1.977-2.165,1.977c-0.686,0-1.375-0.265-1.64-0.79c-0.263,0.483-0.527,0.921-0.527,1.669
		c0,0.791,0.424,1.757,2.167,1.757c2.429,0,4.859-1.538,6.127-2.767v2.196c-1.586,1.669-4.067,3.514-7.291,3.514
		c-2.323,0-3.433-1.318-3.433-3.119c0-0.967,0.58-2.547,1.374-3.602c-2.061,1.581-3.594,4.701-4.651,7.424L77.25,34.51H72.76z"/>
	<path clip-path="url(#SVGID_2_)" fill="#014386" d="M94.685,29.545c-0.106,0.307-0.159,0.571-0.159,0.835
		c0,0.703,0.423,1.185,1.532,1.185c1.638,0,3.594-1.976,5.021-3.029v2.372c-1.85,1.537-4.282,4.128-7.715,4.128
		c-2.009,0-3.592-1.318-3.592-3.557c0-0.615,0.158-1.32,0.421-2.066l3.856-10.366h4.756L94.685,29.545z M97.854,11.182
		c1.798,0,3.171,1.142,3.171,2.636c0,1.625-1.744,2.943-3.594,2.943c-1.742,0-3.117-1.097-3.117-2.548
		C94.314,12.763,95.689,11.182,97.854,11.182"/>
	
		<path clip-path="url(#SVGID_2_)" fill="none" stroke="#014386" stroke-width="4" stroke-linecap="round" stroke-linejoin="round" d="
		M94.685,29.545c-0.106,0.307-0.159,0.571-0.159,0.835c0,0.703,0.423,1.185,1.532,1.185c1.638,0,3.594-1.976,5.021-3.029v2.372
		c-1.85,1.537-4.282,4.128-7.715,4.128c-2.009,0-3.592-1.318-3.592-3.557c0-0.615,0.158-1.32,0.421-2.066l3.856-10.366h4.756
		L94.685,29.545z M97.854,11.182c1.798,0,3.171,1.142,3.171,2.636c0,1.625-1.744,2.943-3.594,2.943
		c-1.742,0-3.117-1.097-3.117-2.548C94.314,12.763,95.689,11.182,97.854,11.182z"/>
	<path clip-path="url(#SVGID_2_)" fill="#014386" d="M109.531,18.343c1.639,0,5.493,0.308,5.493,3.382
		c0,1.143-0.896,2.285-2.43,2.285c-0.582,0-1.689-0.396-1.689-1.494c0-0.922,0.901-1.494,1.426-1.494
		c-0.688-0.528-1.318-0.703-2.325-0.703c-1.425,0-2.43,0.879-2.43,2.109c0,2.461,4.862,3.603,4.862,7.293
		c0,2.855-3.012,5.314-7.503,5.314c-3.33,0-6.183-1.36-6.183-4.435c0-2.417,2.166-2.856,2.906-2.856
		c0.845,0,1.795,0.528,1.795,1.713c0,1.098-0.95,1.539-1.795,1.539c-0.106,0-0.263,0-0.37-0.045c0.37,1.407,1.797,1.582,2.854,1.582
		c1.745,0,3.643-1.23,3.643-2.461c0-2.723-4.596-3.646-4.596-6.897C103.188,20.452,105.99,18.343,109.531,18.343"/>
	
		<path clip-path="url(#SVGID_2_)" fill="none" stroke="#014386" stroke-width="4" stroke-linecap="round" stroke-linejoin="round" d="
		M109.531,18.343c1.639,0,5.493,0.308,5.493,3.382c0,1.143-0.896,2.285-2.43,2.285c-0.582,0-1.689-0.396-1.689-1.494
		c0-0.922,0.901-1.494,1.426-1.494c-0.688-0.528-1.318-0.703-2.325-0.703c-1.425,0-2.43,0.879-2.43,2.109
		c0,2.461,4.862,3.603,4.862,7.293c0,2.855-3.012,5.314-7.503,5.314c-3.33,0-6.183-1.36-6.183-4.435
		c0-2.417,2.166-2.856,2.906-2.856c0.845,0,1.795,0.528,1.795,1.713c0,1.098-0.95,1.539-1.795,1.539c-0.106,0-0.263,0-0.37-0.045
		c0.37,1.407,1.797,1.582,2.854,1.582c1.745,0,3.643-1.23,3.643-2.461c0-2.723-4.596-3.646-4.596-6.897
		C103.188,20.452,105.99,18.343,109.531,18.343z"/>
	<path clip-path="url(#SVGID_2_)" fill="#014386" d="M116.345,15.443h4.386l2.853-7.511h4.809l-2.906,7.511h4.916l-1.164,2.593
		h-4.757l-4.385,11.51c-0.105,0.307-0.159,0.57-0.159,0.835c0,0.702,0.424,1.185,1.532,1.185c1.853,0,4.069-1.406,6.132-3.03v2.372
		c-1.851,1.537-4.968,4.128-8.614,4.128c-2.535,0-3.909-1.318-3.909-3.426c0-0.79,0.21-1.668,0.58-2.635l4.122-10.939h-4.598
		L116.345,15.443z"/>
	
		<path clip-path="url(#SVGID_2_)" fill="none" stroke="#014386" stroke-width="4" stroke-linecap="round" stroke-linejoin="round" d="
		M116.345,15.443h4.386l2.853-7.511h4.809l-2.906,7.511h4.916l-1.164,2.593h-4.757l-4.385,11.51
		c-0.105,0.307-0.159,0.57-0.159,0.835c0,0.702,0.424,1.185,1.532,1.185c1.853,0,4.069-1.406,6.132-3.03v2.372
		c-1.851,1.537-4.968,4.128-8.614,4.128c-2.535,0-3.909-1.318-3.909-3.426c0-0.79,0.21-1.668,0.58-2.635l4.122-10.939h-4.598
		L116.345,15.443z"/>
	<path clip-path="url(#SVGID_2_)" fill="#014386" d="M124.956,34.51l5.759-15.463h4.651l-0.477,1.273
		c1.534-1.099,2.906-1.801,5.073-1.801c1.479,0,2.485,0.791,2.536,2.197c1.692-1.318,3.223-2.197,5.601-2.197
		c1.481,0,2.536,0.791,2.536,2.284c0,0.704-0.211,1.625-0.634,2.68l-2.378,6.063c-0.104,0.307-0.156,0.57-0.156,0.835
		c0,0.702,0.42,1.185,1.53,1.185c1.638,0,3.594-1.977,5.021-3.031v2.373c-1.851,1.537-4.281,4.128-7.716,4.128
		c-2.062,0-3.646-1.273-3.646-3.47c0-0.614,0.159-1.362,0.476-2.153l2.169-5.666c0.05-0.219,0.104-0.395,0.104-0.527
		c0-0.703-0.633-1.01-1.109-1.01c-0.847,0-1.693,0.35-2.433,1.273l-4.227,11.027h-4.543l4.069-10.763
		c0.052-0.219,0.104-0.395,0.104-0.527c0-0.703-0.632-1.01-1.11-1.01c-0.845,0-1.638,0.438-2.429,1.054l-4.281,11.246H124.956z"/>
	
		<path clip-path="url(#SVGID_2_)" fill="none" stroke="#014386" stroke-width="4" stroke-linecap="round" stroke-linejoin="round" d="
		M124.956,34.51l5.759-15.463h4.651l-0.477,1.273c1.534-1.099,2.906-1.801,5.073-1.801c1.479,0,2.485,0.791,2.536,2.197
		c1.692-1.318,3.223-2.197,5.601-2.197c1.481,0,2.536,0.791,2.536,2.284c0,0.704-0.211,1.625-0.634,2.68l-2.378,6.063
		c-0.104,0.307-0.156,0.57-0.156,0.835c0,0.702,0.42,1.185,1.53,1.185c1.638,0,3.594-1.977,5.021-3.031v2.373
		c-1.851,1.537-4.281,4.128-7.716,4.128c-2.062,0-3.646-1.273-3.646-3.47c0-0.614,0.159-1.362,0.476-2.153l2.169-5.666
		c0.05-0.219,0.104-0.395,0.104-0.527c0-0.703-0.633-1.01-1.109-1.01c-0.847,0-1.693,0.35-2.433,1.273l-4.227,11.027h-4.543
		l4.069-10.763c0.052-0.219,0.104-0.395,0.104-0.527c0-0.703-0.632-1.01-1.11-1.01c-0.845,0-1.638,0.438-2.429,1.054l-4.281,11.246
		H124.956z"/>
	<path clip-path="url(#SVGID_2_)" fill="#014386" d="M165.483,29.545c-0.106,0.307-0.16,0.57-0.16,0.835
		c0,0.703,0.424,1.185,1.532,1.185c1.64,0,3.594-1.977,5.02-3.031v2.373c-1.849,1.537-4.281,4.128-7.713,4.128
		c-1.27,0-2.326-0.526-2.958-1.448c-1.218,0.79-2.803,1.448-4.598,1.448c-2.538,0-4.438-1.844-4.438-4.832
		c0-5.754,5.918-11.686,10.618-11.686c0.794,0,1.534,0.134,2.061,0.529h4.756L165.483,29.545z M156.922,29.501
		c0,1.273,0.58,2.372,1.798,2.372c0.527,0,1.108-0.22,1.85-0.659c0.051-0.57,0.156-1.142,0.422-1.801l2.799-7.599
		c-0.316-0.176-0.685-0.308-1.108-0.308C159.037,21.506,156.922,26.998,156.922,29.501"/>
	
		<path clip-path="url(#SVGID_2_)" fill="none" stroke="#014386" stroke-width="4" stroke-linecap="round" stroke-linejoin="round" d="
		M165.483,29.545c-0.106,0.307-0.16,0.57-0.16,0.835c0,0.703,0.424,1.185,1.532,1.185c1.64,0,3.594-1.977,5.02-3.031v2.373
		c-1.849,1.537-4.281,4.128-7.713,4.128c-1.27,0-2.326-0.526-2.958-1.448c-1.218,0.79-2.803,1.448-4.598,1.448
		c-2.538,0-4.438-1.844-4.438-4.832c0-5.754,5.918-11.686,10.618-11.686c0.794,0,1.534,0.134,2.061,0.529h4.756L165.483,29.545z
		 M156.922,29.501c0,1.273,0.58,2.372,1.798,2.372c0.527,0,1.108-0.22,1.85-0.659c0.051-0.57,0.156-1.142,0.422-1.801l2.799-7.599
		c-0.316-0.176-0.685-0.308-1.108-0.308C159.037,21.506,156.922,26.998,156.922,29.501z"/>
	<path clip-path="url(#SVGID_2_)" fill="#014386" d="M180.33,18.343c1.636,0,5.494,0.308,5.494,3.382
		c0,1.143-0.899,2.285-2.434,2.285c-0.579,0-1.687-0.396-1.687-1.494c0-0.922,0.896-1.494,1.424-1.494
		c-0.686-0.528-1.319-0.703-2.324-0.703c-1.427,0-2.43,0.879-2.43,2.109c0,2.461,4.86,3.602,4.86,7.293
		c0,2.855-3.012,5.314-7.502,5.314c-3.328,0-6.182-1.361-6.182-4.435c0-2.417,2.165-2.856,2.904-2.856
		c0.846,0,1.797,0.528,1.797,1.713c0,1.098-0.951,1.539-1.797,1.539c-0.107,0-0.264,0-0.368-0.045
		c0.368,1.407,1.795,1.582,2.852,1.582c1.745,0,3.646-1.23,3.646-2.461c0-2.723-4.596-3.646-4.596-6.897
		C173.988,20.452,176.788,18.343,180.33,18.343"/>
	
		<path clip-path="url(#SVGID_2_)" fill="none" stroke="#014386" stroke-width="4" stroke-linecap="round" stroke-linejoin="round" d="
		M180.33,18.343c1.636,0,5.494,0.308,5.494,3.382c0,1.143-0.899,2.285-2.434,2.285c-0.579,0-1.687-0.396-1.687-1.494
		c0-0.922,0.896-1.494,1.424-1.494c-0.686-0.528-1.319-0.703-2.324-0.703c-1.427,0-2.43,0.879-2.43,2.109
		c0,2.461,4.86,3.602,4.86,7.293c0,2.855-3.012,5.314-7.502,5.314c-3.328,0-6.182-1.361-6.182-4.435
		c0-2.417,2.165-2.856,2.904-2.856c0.846,0,1.797,0.528,1.797,1.713c0,1.098-0.951,1.539-1.797,1.539c-0.107,0-0.264,0-0.368-0.045
		c0.368,1.407,1.795,1.582,2.852,1.582c1.745,0,3.646-1.23,3.646-2.461c0-2.723-4.596-3.646-4.596-6.897
		C173.988,20.452,176.788,18.343,180.33,18.343z"/>
	<path clip-path="url(#SVGID_2_)" fill="#014386" d="M133.5,21.66l12.38,0.383l-3.638,8.424c0,0-1.276-0.511-1.978,0.893
		c-0.702,1.404-8.553,4.594-8.553,4.594l-2.104,0.064l1.467-4.276L133.5,21.66z"/>
	<rect x="106.967" y="19.404" clip-path="url(#SVGID_2_)" fill="#014386" width="4.524" height="5.412"/>
	<rect x="103.241" y="28.011" clip-path="url(#SVGID_2_)" fill="#014386" width="5.325" height="4.614"/>
	<rect x="111.501" y="19.39" clip-path="url(#SVGID_2_)" fill="#014386" width="18.422" height="11.844"/>
	<path clip-path="url(#SVGID_2_)" fill="#FFFFFF" d="M48.245,31.391c1.638,0,5.865-0.879,8.243-2.855v2.372
		c-1.109,1.054-5.337,4.128-10.039,4.128c-6.236,0-9.46-3.557-9.46-9.092c0-7.644,6.607-21.57,17.069-21.57
		c3.698,0,6.233,2.46,6.233,5.929c0,3.032-3.116,6.547-6.763,6.547c-2.005,0-3.274-1.318-3.274-2.812
		c0-1.099,1.162-2.635,2.746-2.635c1.216,0,2.115,0.746,2.115,1.625c0,0.791-0.424,1.625-1.111,1.977
		c1.163,0,3.383-1.055,3.383-4.129c0-1.406-1.214-2.856-3.647-2.856c-5.284,0-11.571,9.532-11.571,16.65
		C42.169,27.833,43.754,31.391,48.245,31.391"/>
	<path clip-path="url(#SVGID_2_)" fill="none" stroke="#014386" stroke-width="0.5" d="M48.245,31.391
		c1.638,0,5.865-0.879,8.243-2.855v2.372c-1.109,1.054-5.337,4.128-10.039,4.128c-6.236,0-9.46-3.557-9.46-9.092
		c0-7.644,6.607-21.57,17.069-21.57c3.698,0,6.233,2.46,6.233,5.929c0,3.032-3.116,6.547-6.763,6.547
		c-2.005,0-3.274-1.318-3.274-2.812c0-1.099,1.162-2.635,2.746-2.635c1.216,0,2.115,0.746,2.115,1.625
		c0,0.791-0.424,1.625-1.111,1.977c1.163,0,3.383-1.055,3.383-4.129c0-1.406-1.214-2.856-3.647-2.856
		c-5.284,0-11.571,9.532-11.571,16.65C42.169,27.833,43.754,31.391,48.245,31.391z"/>
	<path clip-path="url(#SVGID_2_)" fill="#FFFFFF" d="M75.984,6.129c0,4.746-5.55,8.04-10.2,9.665l-1.848,4.833
		c1.69-1.23,3.169-2.108,5.547-2.108c1.482,0,2.537,0.79,2.537,2.284c0,0.703-0.212,1.625-0.635,2.679l-2.378,6.063
		c-0.104,0.307-0.159,0.57-0.159,0.835c0,0.702,0.424,1.185,1.533,1.185c1.639,0,3.594-1.976,5.021-3.03v2.372
		c-1.85,1.537-4.281,4.128-7.715,4.128c-2.061,0-3.647-1.273-3.647-3.47c0-0.614,0.159-1.362,0.476-2.153l2.167-5.666
		c0.053-0.219,0.106-0.395,0.106-0.527c0-0.703-0.633-1.01-1.109-1.01c-1.005,0-1.901,0.659-2.854,1.45l-4.121,10.85h-4.491
		l8.664-23.327C64.622,6.438,66.789,2,71.598,2C74.452,2,75.984,3.714,75.984,6.129 M72.653,6.833c0-0.659-0.318-1.231-1.161-1.231
		c-1.744,0-2.854,2.591-4.598,7.293C69.907,11.622,72.653,8.854,72.653,6.833"/>
	<path clip-path="url(#SVGID_2_)" fill="none" stroke="#014386" stroke-width="0.5" d="M75.984,6.129c0,4.746-5.55,8.04-10.2,9.665
		l-1.848,4.833c1.69-1.23,3.169-2.108,5.547-2.108c1.482,0,2.537,0.79,2.537,2.284c0,0.703-0.212,1.625-0.635,2.679l-2.378,6.063
		c-0.104,0.307-0.159,0.57-0.159,0.835c0,0.702,0.424,1.185,1.533,1.185c1.639,0,3.594-1.976,5.021-3.03v2.372
		c-1.85,1.537-4.281,4.128-7.715,4.128c-2.061,0-3.647-1.273-3.647-3.47c0-0.614,0.159-1.362,0.476-2.153l2.167-5.666
		c0.053-0.219,0.106-0.395,0.106-0.527c0-0.703-0.633-1.01-1.109-1.01c-1.005,0-1.901,0.659-2.854,1.45l-4.121,10.85h-4.491
		l8.664-23.327C64.622,6.438,66.789,2,71.598,2C74.452,2,75.984,3.714,75.984,6.129z M72.653,6.833c0-0.659-0.318-1.231-1.161-1.231
		c-1.744,0-2.854,2.591-4.598,7.293C69.907,11.622,72.653,8.854,72.653,6.833z"/>
	<path clip-path="url(#SVGID_2_)" fill="#FFFFFF" d="M72.76,34.51l5.759-15.463h4.647l-0.475,1.228
		c1.587-1.185,3.278-1.756,4.547-1.756c1.319,0,2.323,0.747,2.323,1.801c0,1.01-0.634,1.977-2.165,1.977
		c-0.686,0-1.375-0.265-1.64-0.79c-0.263,0.483-0.527,0.921-0.527,1.669c0,0.791,0.424,1.757,2.167,1.757
		c2.429,0,4.859-1.538,6.127-2.767v2.196c-1.586,1.669-4.067,3.514-7.291,3.514c-2.323,0-3.433-1.318-3.433-3.119
		c0-0.967,0.58-2.547,1.374-3.602c-2.061,1.581-3.594,4.701-4.651,7.424L77.25,34.51H72.76z"/>
	<path clip-path="url(#SVGID_2_)" fill="none" stroke="#014386" stroke-width="0.5" d="M72.76,34.51l5.759-15.463h4.647
		l-0.475,1.228c1.587-1.185,3.278-1.756,4.547-1.756c1.319,0,2.323,0.747,2.323,1.801c0,1.01-0.634,1.977-2.165,1.977
		c-0.686,0-1.375-0.265-1.64-0.79c-0.263,0.483-0.527,0.921-0.527,1.669c0,0.791,0.424,1.757,2.167,1.757
		c2.429,0,4.859-1.538,6.127-2.767v2.196c-1.586,1.669-4.067,3.514-7.291,3.514c-2.323,0-3.433-1.318-3.433-3.119
		c0-0.967,0.58-2.547,1.374-3.602c-2.061,1.581-3.594,4.701-4.651,7.424L77.25,34.51H72.76z"/>
	<path clip-path="url(#SVGID_2_)" fill="#FFFFFF" d="M116.345,15.443h4.386l2.853-7.511h4.809l-2.906,7.511h4.916l-1.164,2.593
		h-4.757l-4.385,11.51c-0.105,0.307-0.159,0.57-0.159,0.835c0,0.702,0.424,1.185,1.532,1.185c1.853,0,4.069-1.406,6.132-3.03v2.372
		c-1.851,1.537-4.968,4.128-8.614,4.128c-2.535,0-3.909-1.318-3.909-3.426c0-0.79,0.21-1.668,0.58-2.635l4.122-10.939h-4.598
		L116.345,15.443z"/>
	<path clip-path="url(#SVGID_2_)" fill="none" stroke="#014386" stroke-width="0.5" d="M116.345,15.443h4.386l2.853-7.511h4.809
		l-2.906,7.511h4.916l-1.164,2.593h-4.757l-4.385,11.51c-0.105,0.307-0.159,0.57-0.159,0.835c0,0.702,0.424,1.185,1.532,1.185
		c1.853,0,4.069-1.406,6.132-3.03v2.372c-1.851,1.537-4.968,4.128-8.614,4.128c-2.535,0-3.909-1.318-3.909-3.426
		c0-0.79,0.21-1.668,0.58-2.635l4.122-10.939h-4.598L116.345,15.443z"/>
	<path clip-path="url(#SVGID_2_)" fill="#FFFFFF" d="M124.956,34.51l5.759-15.463h4.651l-0.477,1.273
		c1.534-1.099,2.906-1.801,5.073-1.801c1.479,0,2.485,0.791,2.536,2.197c1.692-1.318,3.223-2.197,5.601-2.197
		c1.481,0,2.536,0.791,2.536,2.284c0,0.704-0.211,1.625-0.634,2.68l-2.378,6.063c-0.104,0.307-0.156,0.57-0.156,0.835
		c0,0.702,0.42,1.185,1.53,1.185c1.638,0,3.594-1.977,5.021-3.031v2.373c-1.851,1.537-4.281,4.128-7.716,4.128
		c-2.062,0-3.646-1.273-3.646-3.47c0-0.614,0.159-1.362,0.476-2.153l2.169-5.666c0.05-0.219,0.104-0.395,0.104-0.527
		c0-0.703-0.633-1.01-1.109-1.01c-0.847,0-1.693,0.35-2.433,1.273l-4.227,11.027h-4.543l4.069-10.763
		c0.052-0.219,0.104-0.395,0.104-0.527c0-0.703-0.632-1.01-1.11-1.01c-0.845,0-1.638,0.438-2.429,1.054l-4.281,11.246H124.956z"/>
	<path clip-path="url(#SVGID_2_)" fill="none" stroke="#014386" stroke-width="0.5" d="M124.956,34.51l5.759-15.463h4.651
		l-0.477,1.273c1.534-1.099,2.906-1.801,5.073-1.801c1.479,0,2.485,0.791,2.536,2.197c1.692-1.318,3.223-2.197,5.601-2.197
		c1.481,0,2.536,0.791,2.536,2.284c0,0.704-0.211,1.625-0.634,2.68l-2.378,6.063c-0.104,0.307-0.156,0.57-0.156,0.835
		c0,0.702,0.42,1.185,1.53,1.185c1.638,0,3.594-1.977,5.021-3.031v2.373c-1.851,1.537-4.281,4.128-7.716,4.128
		c-2.062,0-3.646-1.273-3.646-3.47c0-0.614,0.159-1.362,0.476-2.153l2.169-5.666c0.05-0.219,0.104-0.395,0.104-0.527
		c0-0.703-0.633-1.01-1.109-1.01c-0.847,0-1.693,0.35-2.433,1.273l-4.227,11.027h-4.543l4.069-10.763
		c0.052-0.219,0.104-0.395,0.104-0.527c0-0.703-0.632-1.01-1.11-1.01c-0.845,0-1.638,0.438-2.429,1.054l-4.281,11.246H124.956z"/>
	<path clip-path="url(#SVGID_2_)" fill="#FFFFFF" d="M165.483,29.545c-0.106,0.307-0.16,0.57-0.16,0.835
		c0,0.703,0.424,1.185,1.532,1.185c1.64,0,3.594-1.977,5.02-3.031v2.373c-1.849,1.537-4.281,4.128-7.713,4.128
		c-1.27,0-2.326-0.526-2.958-1.448c-1.218,0.79-2.803,1.448-4.598,1.448c-2.538,0-4.438-1.844-4.438-4.832
		c0-5.754,5.918-11.686,10.618-11.686c0.794,0,1.534,0.134,2.061,0.529h4.756L165.483,29.545z M156.922,29.501
		c0,1.273,0.58,2.372,1.798,2.372c0.527,0,1.108-0.22,1.85-0.659c0.051-0.57,0.156-1.142,0.422-1.801l2.799-7.599
		c-0.316-0.176-0.685-0.308-1.108-0.308C159.037,21.506,156.922,26.998,156.922,29.501"/>
	<path clip-path="url(#SVGID_2_)" fill="none" stroke="#014386" stroke-width="0.5" d="M165.483,29.545
		c-0.106,0.307-0.16,0.57-0.16,0.835c0,0.703,0.424,1.185,1.532,1.185c1.64,0,3.594-1.977,5.02-3.031v2.373
		c-1.849,1.537-4.281,4.128-7.713,4.128c-1.27,0-2.326-0.526-2.958-1.448c-1.218,0.79-2.803,1.448-4.598,1.448
		c-2.538,0-4.438-1.844-4.438-4.832c0-5.754,5.918-11.686,10.618-11.686c0.794,0,1.534,0.134,2.061,0.529h4.756L165.483,29.545z
		 M156.922,29.501c0,1.273,0.58,2.372,1.798,2.372c0.527,0,1.108-0.22,1.85-0.659c0.051-0.57,0.156-1.142,0.422-1.801l2.799-7.599
		c-0.316-0.176-0.685-0.308-1.108-0.308C159.037,21.506,156.922,26.998,156.922,29.501z"/>
	<path clip-path="url(#SVGID_2_)" fill="#FFFFFF" d="M180.33,18.343c1.636,0,5.494,0.308,5.494,3.382
		c0,1.143-0.899,2.285-2.434,2.285c-0.579,0-1.687-0.396-1.687-1.494c0-0.922,0.896-1.494,1.424-1.494
		c-0.686-0.528-1.319-0.703-2.324-0.703c-1.427,0-2.43,0.879-2.43,2.109c0,2.461,4.86,3.602,4.86,7.293
		c0,2.855-3.012,5.314-7.502,5.314c-3.328,0-6.182-1.361-6.182-4.435c0-2.417,2.165-2.856,2.904-2.856
		c0.846,0,1.797,0.528,1.797,1.713c0,1.098-0.951,1.539-1.797,1.539c-0.107,0-0.264,0-0.368-0.045
		c0.368,1.407,1.795,1.582,2.852,1.582c1.745,0,3.646-1.23,3.646-2.461c0-2.723-4.596-3.646-4.596-6.897
		C173.988,20.452,176.788,18.343,180.33,18.343"/>
	<path clip-path="url(#SVGID_2_)" fill="none" stroke="#014386" stroke-width="0.5" d="M180.33,18.343
		c1.636,0,5.494,0.308,5.494,3.382c0,1.143-0.899,2.285-2.434,2.285c-0.579,0-1.687-0.396-1.687-1.494
		c0-0.922,0.896-1.494,1.424-1.494c-0.686-0.528-1.319-0.703-2.324-0.703c-1.427,0-2.43,0.879-2.43,2.109
		c0,2.461,4.86,3.602,4.86,7.293c0,2.855-3.012,5.314-7.502,5.314c-3.328,0-6.182-1.361-6.182-4.435
		c0-2.417,2.165-2.856,2.904-2.856c0.846,0,1.797,0.528,1.797,1.713c0,1.098-0.951,1.539-1.797,1.539c-0.107,0-0.264,0-0.368-0.045
		c0.368,1.407,1.795,1.582,2.852,1.582c1.745,0,3.646-1.23,3.646-2.461c0-2.723-4.596-3.646-4.596-6.897
		C173.988,20.452,176.788,18.343,180.33,18.343z"/>
	<rect x="60.208" y="46.391" clip-path="url(#SVGID_2_)" fill="#014386" width="18.357" height="15.836"/>
	<rect x="124.614" y="48.006" clip-path="url(#SVGID_2_)" fill="#014386" width="7.466" height="15.513"/>
	<rect x="181.864" y="49.3" clip-path="url(#SVGID_2_)" fill="#014386" width="4.977" height="4.523"/>
	<rect x="200.841" y="53.824" clip-path="url(#SVGID_2_)" fill="#014386" width="7.469" height="8.08"/>
	<rect x="82.609" y="53.824" clip-path="url(#SVGID_2_)" fill="#014386" width="7.467" height="8.08"/>
	<path clip-path="url(#SVGID_2_)" fill="#FFFFFF" d="M26.554,38.791l2.025,2.596l-9.48,7.877l-1.767-2.282
		c0.647-0.492,1.034-1.522,1.034-2.327c0-2.104-0.904-3.85-3.102-3.85c-3.146,0-3.706,4.162-3.706,6.624
		c0,8.861,4.223,14.276,8.618,14.276c3.361,0,5.171-1.387,7.455-3.759l2.197,2.282c-3.447,5.058-7.195,8.324-13.444,8.324
		c-7.325,0-14.134-4.297-14.134-14.411s7.326-17.588,15.987-17.588c2.758,0,4.87,1.477,6.981,3.178L26.554,38.791z"/>
	<path clip-path="url(#SVGID_2_)" fill="#FFFFFF" d="M52.903,54.659c0,6.683-4.056,11.948-11.567,11.948
		c-6.434,0-10.871-4.97-10.871-11.585c0-6.682,4.057-11.948,11.568-11.948C48.466,43.074,52.903,48.044,52.903,54.659
		 M40.448,46.202c-2.155,0-3.138,1.118-3.138,5.693c0,5.299,2.314,11.585,5.61,11.585c2.155,0,3.138-1.119,3.138-5.693
		C46.058,52.487,43.744,46.202,40.448,46.202"/>
	<path clip-path="url(#SVGID_2_)" fill="#FFFFFF" d="M67.165,64.336c-0.729,1.086-3.296,2.271-5.958,2.271
		c-4.722,0-6.275-3.159-6.275-7.57V46.168h-1.458v-2.567h8.303v15.535c0,2.6,0.571,3.588,2.663,3.588
		c2.091,0,2.694-0.988,2.694-3.588V46.168h-1.395v-2.567h8.24v19.912h1.426v2.567h-7.764L67.165,64.336z"/>
	<polygon clip-path="url(#SVGID_2_)" fill="#FFFFFF" points="77.624,66.081 77.624,63.513 78.923,63.513 78.923,46.167 
		77.624,46.167 77.624,43.602 84.85,43.602 92.456,54.693 92.52,54.693 92.52,46.167 90.903,46.167 90.903,43.602 97.21,43.602 
		97.21,46.167 95.752,46.167 95.752,66.081 91.632,66.081 82.219,51.402 82.156,51.402 82.156,63.513 83.994,63.513 83.994,66.081 	
		"/>
	<path clip-path="url(#SVGID_2_)" fill="#FFFFFF" d="M102.693,66.081v-2.567h2.028V46.628c-2.281,0-2.979,1.054-3.359,3.193H99.08
		l0.444-6.747h2.409v0.527h12.423v-0.527h2.408l0.444,6.747h-2.282c-0.38-2.14-1.077-3.193-3.359-3.193v16.885h1.965v2.567H102.693z
		"/>
	<path clip-path="url(#SVGID_2_)" fill="#FFFFFF" d="M119.808,46.168h-1.458v-2.567h9.031c6.72,0,11.441,4.015,11.441,11.19
		c0,7.504-4.404,11.289-11.314,11.289h-9.316v-2.567h1.616V46.168z M126.653,63.513c4.596,0,5.325-5.102,5.325-8.854
		c0-4.377-0.762-8.49-5.325-8.49V63.513z"/>
	<path clip-path="url(#SVGID_2_)" fill="#FFFFFF" d="M162.973,54.659c0,6.683-4.058,11.948-11.568,11.948
		c-6.434,0-10.87-4.97-10.87-11.585c0-6.682,4.057-11.948,11.567-11.948C158.536,43.074,162.973,48.044,162.973,54.659
		 M150.518,46.202c-2.155,0-3.138,1.118-3.138,5.693c0,5.299,2.313,11.585,5.609,11.585c2.155,0,3.138-1.119,3.138-5.693
		C156.127,52.487,153.814,46.202,150.518,46.202"/>
	<path clip-path="url(#SVGID_2_)" fill="#FFFFFF" d="M182.336,49.229c1.236-2.534,2.694-6.154,5.863-6.154
		c1.046,0,2.028,0.724,3.138,0.724c0.349,0,0.697-0.032,1.046-0.23l1.046,1.119l-7.004,21.394h-5.832l-2.504-8.558h-0.062
		l-2.409,8.558h-5.831l-6.117-19.913h-1.047v-2.566h9.002v2.566h-0.951l3.867,13.199h0.063l2.028-6.188l-2.251-7.011h-1.045v-2.566
		h8.937v2.566h-0.887L182.336,49.229z M188.643,49.328c-1.109,0-2.154-0.658-3.264-0.658c-1.395,0-2.44,1.186-2.44,2.534
		c0,0.165,0.127,0.593,0.222,0.955l2.155,7.372h0.063L188.643,49.328z"/>
	<polygon clip-path="url(#SVGID_2_)" fill="#FFFFFF" points="194.729,66.081 194.729,63.513 196.029,63.513 196.029,46.167 
		194.729,46.167 194.729,43.602 201.956,43.602 209.561,54.693 209.625,54.693 209.625,46.167 208.008,46.167 208.008,43.602 
		214.315,43.602 214.315,46.167 212.857,46.167 212.857,66.081 208.738,66.081 199.325,51.402 199.261,51.402 199.261,63.513 
		201.099,63.513 201.099,66.081 	"/>
	<polygon clip-path="url(#SVGID_2_)" fill="#014386" points="104.263,30.109 97.038,30.108 97.038,20.531 104.263,22.417 	"/>
	
		<polygon clip-path="url(#SVGID_2_)" fill="none" stroke="#014386" stroke-width="4" stroke-linecap="round" stroke-linejoin="round" points="
		104.263,30.109 97.038,30.108 97.038,20.531 104.263,22.417 	"/>
	<path clip-path="url(#SVGID_2_)" fill="#FFFFFF" d="M97.854,11.183c1.799,0,3.172,1.142,3.172,2.636
		c0,1.624-1.745,2.942-3.594,2.942c-1.743,0-3.117-1.096-3.117-2.548C94.314,12.764,95.688,11.183,97.854,11.183 M94.685,29.545
		c-0.105,0.307-0.158,0.57-0.158,0.835c0,0.703,0.422,1.185,1.532,1.185c1.637,0,3.594-1.976,5.02-3.03v2.372
		c-1.85,1.537-4.282,4.128-7.715,4.128c-2.008,0-3.591-1.317-3.591-3.556c0-0.616,0.158-1.32,0.421-2.066l3.856-10.367h4.756
		L94.685,29.545z"/>
	<path clip-path="url(#SVGID_2_)" fill="none" stroke="#014386" stroke-width="0.5" d="M97.854,11.183
		c1.799,0,3.172,1.142,3.172,2.636c0,1.624-1.745,2.942-3.594,2.942c-1.743,0-3.117-1.096-3.117-2.548
		C94.314,12.764,95.688,11.183,97.854,11.183z M94.685,29.545c-0.105,0.307-0.158,0.57-0.158,0.835c0,0.703,0.422,1.185,1.532,1.185
		c1.637,0,3.594-1.976,5.02-3.03v2.372c-1.85,1.537-4.282,4.128-7.715,4.128c-2.008,0-3.591-1.317-3.591-3.556
		c0-0.616,0.158-1.32,0.421-2.066l3.856-10.367h4.756L94.685,29.545z"/>
	<path clip-path="url(#SVGID_2_)" fill="#FFFFFF" d="M109.531,18.343c1.639,0,5.493,0.308,5.493,3.382
		c0,1.143-0.896,2.285-2.43,2.285c-0.582,0-1.689-0.396-1.689-1.494c0-0.922,0.901-1.494,1.426-1.494
		c-0.688-0.528-1.318-0.703-2.325-0.703c-1.425,0-2.43,0.879-2.43,2.109c0,2.461,4.862,3.603,4.862,7.293
		c0,2.855-3.012,5.314-7.503,5.314c-3.33,0-6.183-1.36-6.183-4.435c0-2.417,2.166-2.856,2.906-2.856
		c0.845,0,1.795,0.528,1.795,1.713c0,1.098-0.95,1.539-1.795,1.539c-0.106,0-0.263,0-0.37-0.045c0.37,1.407,1.797,1.582,2.854,1.582
		c1.745,0,3.643-1.23,3.643-2.461c0-2.723-4.596-3.646-4.596-6.897C103.188,20.452,105.99,18.343,109.531,18.343"/>
	<path clip-path="url(#SVGID_2_)" fill="none" stroke="#014386" stroke-width="0.5" d="M109.531,18.343
		c1.639,0,5.493,0.308,5.493,3.382c0,1.143-0.896,2.285-2.43,2.285c-0.582,0-1.689-0.396-1.689-1.494
		c0-0.922,0.901-1.494,1.426-1.494c-0.688-0.528-1.318-0.703-2.325-0.703c-1.425,0-2.43,0.879-2.43,2.109
		c0,2.461,4.862,3.603,4.862,7.293c0,2.855-3.012,5.314-7.503,5.314c-3.33,0-6.183-1.36-6.183-4.435
		c0-2.417,2.166-2.856,2.906-2.856c0.845,0,1.795,0.528,1.795,1.713c0,1.098-0.95,1.539-1.795,1.539c-0.106,0-0.263,0-0.37-0.045
		c0.37,1.407,1.797,1.582,2.854,1.582c1.745,0,3.643-1.23,3.643-2.461c0-2.723-4.596-3.646-4.596-6.897
		C103.188,20.452,105.99,18.343,109.531,18.343z"/>
</g>
</svg>
