<?xml version="1.0" encoding="utf-8"?>
<!-- Generator: Adobe Illustrator 17.0.0, SVG Export Plug-In . SVG Version: 6.00 Build 0)  -->
<!DOCTYPE svg PUBLIC "-//W3C//DTD SVG 1.1//EN" "http://www.w3.org/Graphics/SVG/1.1/DTD/svg11.dtd">
<svg version="1.1" id="Layer_1" xmlns="http://www.w3.org/2000/svg" xmlns:xlink="http://www.w3.org/1999/xlink" x="0px" y="0px"
	 width="217px" height="75px" viewBox="0 0 217 75" enable-background="new 0 0 217 75" xml:space="preserve">
<g>
	<path d="M127.971,63.093c-0.294-0.214-0.578-0.382-0.866-0.514c-0.297-0.136-0.632-0.245-1.001-0.326
		c-0.336-0.071-0.721-0.12-1.138-0.144c-0.371-0.021-0.826-0.033-1.365-0.033h-2.856c-0.155,0-0.303,0.028-0.443,0.074
		c-0.145-0.047-0.298-0.074-0.457-0.074h-2.424c-0.597,0-1.136,0.354-1.373,0.901c-0.083,0.191-0.124,0.394-0.124,0.595
		l-0.681-0.901c-0.283-0.374-0.726-0.595-1.194-0.595h-2.604c-0.591,0-1.127,0.349-1.367,0.889s-0.141,1.171,0.255,1.61
		c0.098,0.108,0.179,0.205,0.237,0.293c0.03,0.044,0.054,0.086,0.067,0.122c0.004,0.011,0.015,0.043,0.022,0.11
		c0.015,0.122,0.02,0.27,0.02,0.44v1.145l-1.334-3.629c-0.217-0.589-0.777-0.98-1.405-0.98h-2.94c-0.631,0-1.194,0.396-1.408,0.99
		c-0.187,0.52-0.071,1.093,0.286,1.497l-1.766,5.138c-0.071,0.222-0.133,0.403-0.187,0.547c-0.03,0.079-0.06,0.149-0.091,0.205
		c-0.028,0.049-0.06,0.095-0.096,0.14c-0.067,0.083-0.154,0.18-0.259,0.29c-0.178,0.188-0.289,0.416-0.351,0.657
		c-0.075-0.29-0.233-0.558-0.466-0.762c-0.001-0.027-0.008-0.342-0.008-0.521v-5.027c0-0.154,0.005-0.51,0.005-0.51
		c0.474-0.397,0.655-1.048,0.452-1.636c-0.208-0.603-0.776-1.008-1.415-1.008h-3.396c-0.194,0-0.379,0.04-0.548,0.112
		c-0.176-0.072-0.369-0.112-0.567-0.112h-3.384c-0.289,0-0.551,0.097-0.777,0.249c-0.161-0.105-0.338-0.188-0.536-0.225
		c-0.348-0.063-0.701-0.111-1.059-0.144c-0.357-0.033-0.711-0.049-1.059-0.049c-0.814,0-1.595,0.11-2.319,0.327
		c-0.492,0.147-0.93,0.359-1.342,0.6c-0.066-0.133-0.146-0.259-0.251-0.369c-0.285-0.298-0.676-0.462-1.081-0.462
		c-0.084,0-0.169,0.008-0.254,0.022l-0.228,0.037c-0.034,0.004-0.08,0.006-0.137,0.008c-0.125,0.004-0.295,0.005-0.509,0.005
		l-3.597,0.001l-1.286-0.022c0,0-0.262-0.015-0.291-0.015c-0.682,0-1.282,0.464-1.451,1.132l-0.197,0.784l-0.331-0.899
		c-0.216-0.589-0.777-0.98-1.405-0.98h-2.94c-0.631,0-1.194,0.396-1.408,0.99c-0.187,0.52-0.071,1.093,0.286,1.497l-0.85,2.473
		l-0.215-1.845c-0.02-0.148-0.033-0.267-0.04-0.358c-0.005-0.073-0.011-0.139-0.017-0.188c0.004-0.004,0.009-0.008,0.013-0.013
		c0.429-0.428,0.558-1.071,0.327-1.632c-0.231-0.56-0.777-0.925-1.383-0.925h-2.976c-0.66,0-1.242,0.433-1.433,1.064l-0.229,0.755
		l-0.342-0.87c-0.225-0.572-0.778-0.949-1.393-0.949h-2.652c-0.605,0-1.151,0.365-1.383,0.924c-0.231,0.56-0.104,1.203,0.325,1.632
		c0.05,0.05,0.066,0.076,0.054,0.093c0,0.043-0.003,0.091-0.007,0.143l-0.03,0.338l-0.592,4.903c-0.02,0.197-0.04,0.361-0.062,0.488
		c-0.01,0.056-0.021,0.104-0.018,0.118c-0.033,0.044-0.074,0.09-0.122,0.138c-0.43,0.427-0.559,1.071-0.328,1.632
		c0.231,0.56,0.777,0.926,1.383,0.926h2.496c0.524,0,0.987-0.281,1.251-0.713c0.098,0.073,0.199,0.144,0.306,0.211
		c0.234,0.147,0.536,0.314,0.909,0.495c0.206,0.1,0.43,0.15,0.653,0.15c0.205,0,0.41-0.042,0.602-0.127
		c0.135-0.059,0.258-0.137,0.368-0.23c0.228,0.137,0.493,0.214,0.77,0.214h3.288c0.002,0,0.004-0.001,0.006-0.001
		s0.004,0.001,0.006,0.001h2.604c0.54,0,1.032-0.29,1.296-0.749c0.264,0.457,0.755,0.749,1.296,0.749h3.66
		c0.182,0,0.355-0.042,0.52-0.104c0.166,0.063,0.34,0.104,0.524,0.104h3.42c0.605,0,1.15-0.364,1.382-0.923
		c0.232-0.559,0.105-1.202-0.322-1.63c-0.05-0.051-0.071-0.08-0.072-0.081c-0.017-0.057-0.028-0.12-0.037-0.188
		c-0.011-0.083-0.013-0.183-0.015-0.285c0.033,0.065,0.057,0.132,0.092,0.196c0.461,0.837,1.115,1.536,1.944,2.079
		c0.27,0.177,0.546,0.329,0.812,0.451c0.281,0.131,0.584,0.24,0.907,0.326c0.298,0.078,0.62,0.136,0.957,0.172
		c0.313,0.033,0.654,0.051,1.024,0.051c0.571,0,1.08-0.029,1.513-0.085c0.417-0.054,0.853-0.146,1.294-0.269
		c0.209,0.109,0.437,0.186,0.684,0.186h3.384c0.194,0,0.378-0.04,0.547-0.112c0.177,0.072,0.369,0.112,0.569,0.112h3.396
		c0.641,0,1.198-0.415,1.405-1.021c0.014-0.043,0.013-0.087,0.023-0.13c0.02,0.082,0.031,0.166,0.065,0.245
		c0.236,0.55,0.777,0.906,1.375,0.906h2.604c0.54,0,1.032-0.29,1.296-0.749c0.264,0.457,0.755,0.749,1.296,0.749h3.661
		c0.033,0,0.062-0.012,0.095-0.014c0.033,0.002,0.063,0.014,0.097,0.014h2.436c0.597,0,1.136-0.354,1.373-0.901
		c0.104-0.238,0.141-0.493,0.116-0.742c0.338,0.356,0.704,0.665,1.097,0.923c0.689,0.454,1.482,0.771,2.357,0.944
		c0.096,0.019,0.192,0.028,0.289,0.028c0.344,0,0.681-0.119,0.95-0.341c0.002-0.002,0.004-0.004,0.006-0.006
		c0.16,0.058,0.329,0.095,0.507,0.095h3.024c0.415,0,0.773-0.007,1.08-0.02c0.343-0.016,0.645-0.042,0.904-0.081
		c0.294-0.044,0.559-0.103,0.793-0.173c0.26-0.079,0.52-0.186,0.734-0.299c0.468-0.228,0.896-0.528,1.274-0.895
		c0.363-0.353,0.677-0.758,0.933-1.207c0.245-0.434,0.437-0.907,0.57-1.413c0.133-0.505,0.2-1.034,0.2-1.574
		c0-0.946-0.199-1.832-0.592-2.633C129.268,64.304,128.699,63.624,127.971,63.093z M72.219,71.164
		c-0.049-0.085-0.108-0.166-0.174-0.241c0.005-0.015,0.011-0.029,0.017-0.045h0.373C72.35,70.965,72.278,71.062,72.219,71.164z
		 M76.587,66.99c0.231,0,0.463-0.054,0.675-0.161v2.111l-0.719-1.956C76.558,66.984,76.572,66.99,76.587,66.99z M89.541,69.187
		c-0.132,0.038-0.261,0.069-0.392,0.088c-0.121,0.018-0.245,0.025-0.371,0.025c-0.214,0-0.394-0.031-0.536-0.094
		c-0.128-0.057-0.229-0.132-0.319-0.239c-0.11-0.13-0.199-0.3-0.267-0.507c-0.079-0.239-0.118-0.531-0.118-0.867
		c0-0.819,0.184-1.148,0.261-1.249c0.045-0.059,0.121-0.157,0.475-0.157c0.213,0,0.407,0.026,0.572,0.078
		c0.187,0.06,0.415,0.174,0.659,0.331c0.246,0.158,0.528,0.238,0.81,0.238c0.181,0,0.359-0.045,0.531-0.111v1.916
		c-0.037,0.015-0.075,0.022-0.111,0.04c-0.255,0.128-0.487,0.236-0.7,0.326C89.858,69.081,89.694,69.142,89.541,69.187z
		 M106.466,71.164c-0.049-0.085-0.108-0.166-0.174-0.241c0.005-0.015,0.011-0.029,0.017-0.045h0.373
		C106.597,70.965,106.525,71.062,106.466,71.164z"/>
	<path d="M158.691,63c-0.231-0.559-0.777-0.924-1.383-0.924h-2.424c-0.597,0-1.136,0.354-1.373,0.901
		c-0.083,0.191-0.124,0.394-0.124,0.595l-0.681-0.901c-0.283-0.374-0.726-0.595-1.194-0.595h-2.604
		c-0.128,0-0.252,0.023-0.373,0.055c-0.113-0.027-0.227-0.055-0.347-0.055h-3.396c-0.068,0-0.129,0.023-0.195,0.033
		c-0.09-0.017-0.18-0.033-0.273-0.033h-2.472c-0.457,0-0.868,0.214-1.141,0.557c-0.283-0.352-0.711-0.557-1.164-0.557h-2.892
		c-0.392,0-0.759,0.153-1.032,0.413c-0.27-0.256-0.634-0.413-1.032-0.413h-2.976c-0.65,0-1.227,0.42-1.425,1.039
		c-0.199,0.619,0.024,1.296,0.554,1.675c0.084,0.061,0.111,0.106,0.122,0.123c0.022,0.037,0.103,0.188,0.214,0.584l1.279,4.329
		c0.129,0.52,0.293,0.982,0.487,1.373c0.227,0.462,0.521,0.863,0.876,1.192c0.345,0.32,0.755,0.583,1.221,0.783
		c0.407,0.174,0.882,0.313,1.409,0.413c0.094,0.018,0.188,0.026,0.279,0.026c0.663,0,1.264-0.442,1.443-1.104l0.145-0.531
		c0.16,0.202,0.34,0.387,0.537,0.55c0.331,0.276,0.719,0.507,1.151,0.685c0.393,0.162,0.831,0.285,1.342,0.377
		c0.089,0.017,0.179,0.024,0.267,0.024c0.636,0,1.216-0.407,1.421-1.03l0.896-2.728v0.401c0,0.188-0.002,0.348-0.012,0.515
		c-0.461,0.392-0.644,1.025-0.454,1.606c0.201,0.615,0.775,1.032,1.423,1.032h3.396c0.153,0,0.301-0.027,0.441-0.07
		c0.142,0.045,0.292,0.07,0.446,0.07h2.436c0.597,0,1.136-0.354,1.373-0.901c0.104-0.238,0.141-0.493,0.116-0.742
		c0.338,0.356,0.704,0.665,1.097,0.923c0.689,0.454,1.482,0.771,2.357,0.944c0.096,0.019,0.192,0.028,0.289,0.028
		c0.344,0,0.681-0.119,0.95-0.341c0.346-0.284,0.547-0.709,0.547-1.156v-6.9c0-0.139,0.005-0.263,0.017-0.361
		c0.009-0.067,0.019-0.128,0.038-0.192c0,0,0.018-0.027,0.07-0.079C158.795,64.203,158.923,63.56,158.691,63z"/>
</g>
<g>
	<path fill="#014386" d="M127.971,61.968c-0.294-0.214-0.578-0.382-0.866-0.514c-0.297-0.136-0.632-0.245-1.001-0.326
		c-0.336-0.071-0.721-0.12-1.138-0.144c-0.371-0.021-0.826-0.033-1.365-0.033h-2.856c-0.155,0-0.303,0.028-0.443,0.074
		c-0.145-0.047-0.298-0.074-0.457-0.074h-2.424c-0.597,0-1.136,0.354-1.373,0.901c-0.083,0.191-0.124,0.394-0.124,0.595
		l-0.681-0.901c-0.283-0.374-0.726-0.595-1.194-0.595h-2.604c-0.591,0-1.127,0.349-1.367,0.889s-0.141,1.171,0.255,1.61
		c0.098,0.108,0.179,0.205,0.237,0.293c0.03,0.044,0.054,0.086,0.067,0.122c0.004,0.011,0.015,0.043,0.022,0.11
		c0.015,0.122,0.02,0.27,0.02,0.44v1.145l-1.334-3.629c-0.217-0.589-0.777-0.98-1.405-0.98h-2.94c-0.631,0-1.194,0.396-1.408,0.99
		c-0.187,0.52-0.071,1.093,0.286,1.497l-1.766,5.138c-0.071,0.222-0.133,0.403-0.187,0.547c-0.03,0.079-0.06,0.149-0.091,0.205
		c-0.028,0.049-0.06,0.095-0.096,0.14c-0.067,0.083-0.154,0.18-0.259,0.29c-0.178,0.188-0.289,0.416-0.351,0.657
		c-0.075-0.29-0.233-0.558-0.466-0.762c-0.001-0.027-0.008-0.342-0.008-0.521v-5.027c0-0.154,0.005-0.51,0.005-0.51
		c0.474-0.397,0.655-1.048,0.452-1.636c-0.208-0.603-0.776-1.008-1.415-1.008h-3.396c-0.194,0-0.379,0.04-0.548,0.112
		c-0.176-0.072-0.369-0.112-0.567-0.112h-3.384c-0.289,0-0.551,0.097-0.777,0.249c-0.161-0.105-0.338-0.188-0.536-0.225
		c-0.348-0.063-0.701-0.111-1.059-0.144c-0.357-0.033-0.711-0.049-1.059-0.049c-0.814,0-1.595,0.11-2.319,0.327
		c-0.492,0.147-0.93,0.359-1.342,0.6c-0.066-0.133-0.146-0.259-0.251-0.369c-0.285-0.298-0.676-0.462-1.081-0.462
		c-0.084,0-0.169,0.008-0.254,0.022l-0.228,0.037c-0.034,0.004-0.08,0.006-0.137,0.008c-0.125,0.004-0.295,0.005-0.509,0.005
		l-3.597,0.001l-1.286-0.022c0,0-0.262-0.015-0.291-0.015c-0.682,0-1.282,0.464-1.451,1.132l-0.197,0.784l-0.331-0.899
		c-0.216-0.589-0.777-0.98-1.405-0.98h-2.94c-0.631,0-1.194,0.396-1.408,0.99c-0.187,0.52-0.071,1.093,0.286,1.497l-0.85,2.473
		l-0.215-1.845c-0.02-0.148-0.033-0.267-0.04-0.358c-0.005-0.073-0.011-0.139-0.017-0.188c0.004-0.004,0.009-0.008,0.013-0.013
		c0.429-0.428,0.558-1.071,0.327-1.632c-0.231-0.56-0.777-0.925-1.383-0.925h-2.976c-0.66,0-1.242,0.433-1.433,1.064l-0.229,0.755
		l-0.342-0.87c-0.225-0.572-0.778-0.949-1.393-0.949h-2.652c-0.605,0-1.151,0.365-1.383,0.924c-0.231,0.56-0.104,1.203,0.325,1.632
		c0.05,0.05,0.066,0.076,0.054,0.093c0,0.043-0.003,0.091-0.007,0.143l-0.03,0.338l-0.592,4.903c-0.02,0.197-0.04,0.361-0.062,0.488
		c-0.01,0.056-0.021,0.104-0.018,0.118c-0.033,0.044-0.074,0.09-0.122,0.138c-0.43,0.427-0.559,1.071-0.328,1.632
		c0.231,0.56,0.777,0.926,1.383,0.926h2.496c0.524,0,0.987-0.281,1.251-0.713c0.098,0.073,0.199,0.144,0.306,0.211
		c0.234,0.147,0.536,0.314,0.909,0.495c0.206,0.1,0.43,0.15,0.653,0.15c0.205,0,0.41-0.042,0.602-0.127
		c0.135-0.059,0.258-0.137,0.368-0.23c0.228,0.137,0.493,0.214,0.77,0.214h3.288c0.002,0,0.004-0.001,0.006-0.001
		s0.004,0.001,0.006,0.001h2.604c0.54,0,1.032-0.29,1.296-0.749c0.264,0.457,0.755,0.749,1.296,0.749h3.66
		c0.182,0,0.355-0.042,0.52-0.104c0.166,0.063,0.34,0.104,0.524,0.104h3.42c0.605,0,1.15-0.364,1.382-0.923
		c0.232-0.559,0.105-1.202-0.322-1.63c-0.05-0.051-0.071-0.08-0.072-0.081c-0.017-0.057-0.028-0.12-0.037-0.188
		c-0.011-0.083-0.013-0.183-0.015-0.285c0.033,0.065,0.057,0.132,0.092,0.196c0.461,0.837,1.115,1.536,1.944,2.079
		c0.27,0.177,0.546,0.329,0.812,0.451c0.281,0.131,0.584,0.24,0.907,0.326c0.298,0.078,0.62,0.136,0.957,0.172
		c0.313,0.033,0.654,0.051,1.024,0.051c0.571,0,1.08-0.029,1.513-0.085c0.417-0.054,0.853-0.146,1.294-0.269
		c0.209,0.109,0.437,0.186,0.684,0.186h3.384c0.194,0,0.378-0.04,0.547-0.112c0.177,0.072,0.369,0.112,0.569,0.112h3.396
		c0.641,0,1.198-0.415,1.405-1.021c0.014-0.043,0.013-0.087,0.023-0.13c0.02,0.082,0.031,0.166,0.065,0.245
		c0.236,0.55,0.777,0.906,1.375,0.906h2.604c0.54,0,1.032-0.29,1.296-0.749c0.264,0.457,0.755,0.749,1.296,0.749h3.661
		c0.033,0,0.062-0.012,0.095-0.014c0.033,0.002,0.063,0.014,0.097,0.014h2.436c0.597,0,1.136-0.354,1.373-0.901
		c0.104-0.238,0.141-0.493,0.116-0.742c0.338,0.356,0.704,0.665,1.097,0.923c0.689,0.454,1.482,0.771,2.357,0.944
		c0.096,0.019,0.192,0.028,0.289,0.028c0.344,0,0.681-0.119,0.95-0.341c0.002-0.002,0.004-0.004,0.006-0.006
		c0.16,0.058,0.329,0.095,0.507,0.095h3.024c0.415,0,0.773-0.007,1.08-0.02c0.343-0.016,0.645-0.042,0.904-0.081
		c0.294-0.044,0.559-0.103,0.793-0.173c0.26-0.079,0.52-0.186,0.734-0.299c0.468-0.228,0.896-0.528,1.274-0.895
		c0.363-0.353,0.677-0.758,0.933-1.207c0.245-0.434,0.437-0.907,0.57-1.413c0.133-0.505,0.2-1.034,0.2-1.574
		c0-0.946-0.199-1.832-0.592-2.633C129.268,63.179,128.699,62.499,127.971,61.968z M72.219,70.039
		c-0.049-0.085-0.108-0.166-0.174-0.241c0.005-0.015,0.011-0.029,0.017-0.045h0.373C72.35,69.84,72.278,69.937,72.219,70.039z
		 M76.587,65.865c0.231,0,0.463-0.054,0.675-0.161v2.111l-0.719-1.956C76.558,65.859,76.572,65.865,76.587,65.865z M89.541,68.062
		c-0.132,0.038-0.261,0.069-0.392,0.088c-0.121,0.018-0.245,0.025-0.371,0.025c-0.214,0-0.394-0.031-0.536-0.094
		c-0.128-0.057-0.229-0.132-0.319-0.239c-0.11-0.13-0.199-0.3-0.267-0.507c-0.079-0.239-0.118-0.531-0.118-0.867
		c0-0.819,0.184-1.148,0.261-1.249c0.045-0.059,0.121-0.157,0.475-0.157c0.213,0,0.407,0.026,0.572,0.078
		c0.187,0.06,0.415,0.174,0.659,0.331c0.246,0.158,0.528,0.238,0.81,0.238c0.181,0,0.359-0.045,0.531-0.111v1.916
		c-0.037,0.015-0.075,0.022-0.111,0.04c-0.255,0.128-0.487,0.236-0.7,0.326C89.858,67.956,89.694,68.017,89.541,68.062z
		 M106.466,70.039c-0.049-0.085-0.108-0.166-0.174-0.241c0.005-0.015,0.011-0.029,0.017-0.045h0.373
		C106.597,69.84,106.525,69.937,106.466,70.039z"/>
	<path fill="#014386" d="M158.691,61.875c-0.231-0.559-0.777-0.924-1.383-0.924h-2.424c-0.597,0-1.136,0.354-1.373,0.901
		c-0.083,0.191-0.124,0.394-0.124,0.595l-0.681-0.901c-0.283-0.374-0.726-0.595-1.194-0.595h-2.604
		c-0.128,0-0.252,0.023-0.373,0.055c-0.113-0.027-0.227-0.055-0.347-0.055h-3.396c-0.068,0-0.129,0.023-0.195,0.033
		c-0.09-0.017-0.18-0.033-0.273-0.033h-2.472c-0.457,0-0.868,0.214-1.141,0.557c-0.283-0.352-0.711-0.557-1.164-0.557h-2.892
		c-0.392,0-0.759,0.153-1.032,0.413c-0.27-0.256-0.634-0.413-1.032-0.413h-2.976c-0.65,0-1.227,0.42-1.425,1.039
		c-0.199,0.619,0.024,1.296,0.554,1.675c0.084,0.061,0.111,0.106,0.122,0.123c0.022,0.037,0.103,0.188,0.214,0.584l1.279,4.329
		c0.129,0.52,0.293,0.982,0.487,1.373c0.227,0.462,0.521,0.863,0.876,1.192c0.345,0.32,0.755,0.583,1.221,0.783
		c0.407,0.174,0.882,0.313,1.409,0.413c0.094,0.018,0.188,0.026,0.279,0.026c0.663,0,1.264-0.442,1.443-1.104l0.145-0.531
		c0.16,0.202,0.34,0.387,0.537,0.55c0.331,0.276,0.719,0.507,1.151,0.685c0.393,0.162,0.831,0.285,1.342,0.377
		c0.089,0.017,0.179,0.024,0.267,0.024c0.636,0,1.216-0.407,1.421-1.03l0.896-2.728v0.401c0,0.188-0.002,0.348-0.012,0.515
		c-0.461,0.392-0.644,1.025-0.454,1.606c0.201,0.615,0.775,1.032,1.423,1.032h3.396c0.153,0,0.301-0.027,0.441-0.07
		c0.142,0.045,0.292,0.07,0.446,0.07h2.436c0.597,0,1.136-0.354,1.373-0.901c0.104-0.238,0.141-0.493,0.116-0.742
		c0.338,0.356,0.704,0.665,1.097,0.923c0.689,0.454,1.482,0.771,2.357,0.944c0.096,0.019,0.192,0.028,0.289,0.028
		c0.344,0,0.681-0.119,0.95-0.341c0.346-0.284,0.547-0.709,0.547-1.156v-6.9c0-0.139,0.005-0.263,0.017-0.361
		c0.009-0.067,0.019-0.128,0.038-0.192c0,0,0.018-0.027,0.07-0.079C158.795,63.078,158.923,62.435,158.691,61.875z"/>
</g>
<g>
	<g>
		<path d="M40.886,35.186l1.67,2.141l-7.818,6.496l-1.457-1.882c0.534-0.406,0.853-1.254,0.853-1.919
			c0-1.735-0.745-3.175-2.558-3.175c-2.594,0-3.056,3.432-3.056,5.462c0,7.307,3.482,11.772,7.107,11.772
			c2.772,0,4.264-1.144,6.148-3.1l1.812,1.882c-2.843,4.171-5.933,6.864-11.086,6.864c-6.04,0-11.655-3.543-11.655-11.884
			S26.886,33.34,34.028,33.34c2.274,0,4.016,1.219,5.757,2.622L40.886,35.186z"/>
	</g>
	<g>
		<path d="M32.5,61.583c-6.233,0-13.511-3.598-13.511-13.739c0-9.173,6.606-16.359,15.039-16.359c2.343,0,4.217,1.013,5.807,2.173
			c0.808-0.556,1.91-0.388,2.515,0.387l1.67,2.141c0.617,0.79,0.494,1.928-0.277,2.568l-7.818,6.496
			c-0.387,0.321-0.889,0.472-1.388,0.417c-0.5-0.055-0.957-0.31-1.265-0.708l-1.457-1.881c-0.303-0.391-0.437-0.887-0.373-1.378
			c0.064-0.491,0.323-0.936,0.716-1.235c0.032-0.046,0.121-0.291,0.121-0.442c0-1.32-0.475-1.32-0.703-1.32
			c-0.78,0-1.201,1.859-1.201,3.607c0,6.126,2.726,9.917,5.251,9.917c2.044,0,3.093-0.747,4.811-2.531
			c0.7-0.726,1.974-0.726,2.674,0l1.812,1.882c0.609,0.633,0.691,1.606,0.196,2.332C42.533,57.704,39.011,61.583,32.5,61.583z
			 M27.778,37.234c-3.08,2.238-5.078,6.115-5.078,10.609c0,9.305,7.501,10.028,9.8,10.028c2.644,0,4.726-0.778,6.716-2.632
			c-1.004,0.434-2.17,0.697-3.589,0.697c-5.821,0-8.962-7.021-8.962-13.628C26.665,40.195,27.055,38.475,27.778,37.234z
			 M33.083,35.236c1.786,0.625,2.907,2.393,2.907,4.785c0,0.117-0.006,0.238-0.017,0.362l3.21-2.666
			c-0.2-0.069-0.391-0.172-0.563-0.311c-1.779-1.434-3.038-2.211-4.592-2.211C33.709,35.195,33.394,35.209,33.083,35.236z"/>
	</g>
	<g>
		<path d="M62.615,48.273c0,5.51-3.345,9.852-9.539,9.852c-5.306,0-8.965-4.098-8.965-9.553c0-5.51,3.346-9.852,9.539-9.852
			C58.956,38.719,62.615,42.817,62.615,48.273 M52.344,41.298c-1.777,0-2.588,0.922-2.588,4.695c0,4.37,1.908,9.553,4.626,9.553
			c1.777,0,2.588-0.923,2.588-4.695C56.97,46.481,55.062,41.298,52.344,41.298"/>
	</g>
	<g>
		<path d="M53.076,59.98c-6.27,0-10.82-4.798-10.82-11.409c0-7.003,4.579-11.708,11.395-11.708c6.269,0,10.819,4.798,10.819,11.409
			C64.47,55.276,59.891,59.98,53.076,59.98z M48.287,42.468c-1.65,1.562-2.32,3.877-2.32,6.103c0,3.852,2.112,6.716,5.314,7.49
			c-2.292-2.215-3.38-6.725-3.38-10.069C47.901,45.125,47.901,43.74,48.287,42.468z M55.444,40.782
			c2.293,2.215,3.381,6.724,3.381,10.069c0,0.868,0,2.252-0.386,3.525c1.65-1.562,2.32-3.877,2.32-6.103
			C60.759,44.421,58.648,41.556,55.444,40.782z M52.344,43.153c-0.298,0-0.397,0.042-0.398,0.042
			c0.006,0.012-0.334,0.472-0.334,2.798c0,4.213,1.834,7.698,2.771,7.698c0.298,0,0.397-0.042,0.398-0.042
			c-0.006-0.012,0.334-0.472,0.334-2.798C55.115,46.639,53.28,43.153,52.344,43.153z"/>
	</g>
	<g>
		<path d="M74.376,56.252c-0.601,0.896-2.718,1.873-4.913,1.873c-3.894,0-5.175-2.605-5.175-6.242V41.269h-1.202v-2.116h6.847
			v12.811c0,2.144,0.471,2.959,2.196,2.959c1.724,0,2.222-0.815,2.222-2.959V41.269H73.2v-2.116h6.795v16.42h1.176v2.117h-6.402
			L74.376,56.252z"/>
	</g>
	<g>
		<path d="M69.462,59.98c-2.625,0-7.03-1.052-7.03-8.098v-8.876c-0.703-0.264-1.202-0.942-1.202-1.737v-2.116
			c0-1.024,0.831-1.855,1.855-1.855h6.847c0.706,0,1.32,0.395,1.634,0.975c0.314-0.581,0.927-0.975,1.634-0.975h6.795
			c1.025,0,1.855,0.831,1.855,1.855v14.693c0.689,0.271,1.176,0.942,1.176,1.727v2.117c0,1.024-0.831,1.855-1.855,1.855h-6.402
			c-0.457,0-0.883-0.167-1.212-0.45C72.35,59.644,70.888,59.98,69.462,59.98z M66.125,41.008c0.012,0.085,0.018,0.172,0.018,0.261
			v10.613c0,4.048,1.713,4.387,3.319,4.387c0.144,0,0.286-0.006,0.425-0.015c-1.811-1.048-1.811-3.381-1.811-4.291V41.008H66.125z
			 M76.185,55.834h1.972c-0.012-0.085-0.018-0.173-0.018-0.262V41.008h-1.952c0.012,0.085,0.018,0.172,0.018,0.261v10.694
			c0,0.611,0,1.863-0.551,2.937c0.241,0.231,0.42,0.527,0.511,0.862L76.185,55.834z M71.87,53.055
			c0.131,0.014,0.416,0.011,0.539-0.002c0.038-0.158,0.086-0.479,0.086-1.09v-8.978c-0.275-0.113-0.517-0.29-0.707-0.513v9.491
			C71.788,52.567,71.833,52.892,71.87,53.055z"/>
	</g>
	<g>
		<polygon points="83,57.69 83,55.573 84.072,55.573 84.072,41.269 83,41.269 83,39.154 88.959,39.154 95.231,48.3 95.284,48.3 
			95.284,41.269 93.951,41.269 93.951,39.154 99.152,39.154 99.152,41.269 97.949,41.269 97.949,57.69 94.552,57.69 86.79,45.586 
			86.738,45.586 86.738,55.573 88.253,55.573 88.253,57.69 		"/>
	</g>
	<g>
		<path d="M97.949,59.545h-3.398c-0.632,0-1.221-0.322-1.562-0.854l-4.397-6.856v1.913c0.862,0.16,1.516,0.916,1.516,1.825v2.117
			c0,1.024-0.831,1.855-1.855,1.855H83c-1.025,0-1.855-0.831-1.855-1.855v-2.117c0-0.744,0.438-1.387,1.071-1.682V42.951
			c-0.633-0.296-1.071-0.938-1.071-1.682v-2.115c0-1.024,0.831-1.855,1.855-1.855h5.959c0.612,0,1.184,0.301,1.53,0.806l1.606,2.341
			v-1.292c0-1.024,0.831-1.855,1.855-1.855h5.201c1.025,0,1.855,0.831,1.855,1.855v2.115c0,0.795-0.5,1.473-1.202,1.737V57.69
			C99.805,58.714,98.974,59.545,97.949,59.545z M95.566,55.834h0.528V49.97c-0.761,0.367-1.882,0.123-2.393-0.621l-5.719-8.34
			h-2.073c0.012,0.085,0.018,0.172,0.018,0.259v2.648c0.777-0.379,1.927-0.109,2.425,0.668L95.566,55.834z"/>
	</g>
	<g>
		<path d="M103.673,57.69v-2.117h1.672V41.649c-1.881,0-2.457,0.87-2.77,2.633h-1.882l0.366-5.564h1.987v0.435h10.244v-0.435h1.986
			l0.366,5.564h-1.882c-0.313-1.764-0.888-2.633-2.77-2.633v13.924h1.62v2.117H103.673z"/>
	</g>
	<g>
		<path d="M112.612,59.545h-8.939c-1.025,0-1.855-0.831-1.855-1.855v-2.117c0-0.963,0.734-1.755,1.673-1.847v-7.829
			c-0.271,0.154-0.584,0.241-0.915,0.241h-1.882c-0.513,0-1.003-0.213-1.355-0.587c-0.351-0.374-0.531-0.878-0.497-1.39l0.366-5.564
			c0.064-0.975,0.874-1.734,1.851-1.734h1.987c0.454,0,0.87,0.163,1.193,0.434h7.859c0.322-0.271,0.738-0.434,1.193-0.434h1.985
			c0.978,0,1.787,0.759,1.851,1.734l0.366,5.564c0.034,0.512-0.147,1.015-0.497,1.39c-0.351,0.374-0.842,0.587-1.355,0.587h-1.882
			c-0.33,0-0.643-0.087-0.914-0.241v7.835c0.914,0.116,1.62,0.896,1.62,1.841v2.117C114.467,58.714,113.636,59.545,112.612,59.545z
			 M107.183,55.834h1.971c-0.012-0.085-0.019-0.173-0.019-0.262V41.649c0-0.225,0.04-0.441,0.114-0.641h-2.162
			c0.073,0.2,0.114,0.416,0.114,0.641v13.924C107.201,55.661,107.195,55.749,107.183,55.834z"/>
	</g>
	<g>
		<path d="M117.787,41.27h-1.202v-2.117h7.447c5.542,0,9.435,3.312,9.435,9.228c0,6.188-3.632,9.309-9.33,9.309h-7.682v-2.117h1.333
			L117.787,41.27L117.787,41.27z M123.431,55.573c3.79,0,4.391-4.207,4.391-7.301c0-3.609-0.628-7.002-4.391-7.002V55.573z"/>
	</g>
	<g>
		<path d="M124.136,59.545h-7.682c-1.024,0-1.855-0.831-1.855-1.855v-2.117c0-0.843,0.562-1.554,1.332-1.781V43.007
			c-0.702-0.264-1.202-0.942-1.202-1.737v-2.117c0-1.024,0.831-1.855,1.855-1.855h7.447c6.859,0,11.29,4.35,11.29,11.083
			C135.322,55.371,131.14,59.545,124.136,59.545z M119.623,55.834h1.971c-0.012-0.085-0.019-0.173-0.019-0.262V41.27
			c0-0.089,0.006-0.176,0.019-0.262h-1.971c0.012,0.085,0.019,0.173,0.019,0.262v14.303
			C119.642,55.661,119.636,55.749,119.623,55.834z M128.365,42.035c0.873,1.468,1.313,3.55,1.313,6.237
			c0,3.333-0.685,5.479-1.652,6.849c2.383-1.065,3.586-3.319,3.586-6.74C131.611,45.423,130.448,43.229,128.365,42.035z
			 M125.287,44.086v8.392c0.391-0.791,0.68-2.086,0.68-4.206C125.967,46.067,125.687,44.806,125.287,44.086z"/>
	</g>
	<g>
		<path d="M153.382,48.273c0,5.51-3.346,9.852-9.539,9.852c-5.306,0-8.964-4.098-8.964-9.553c0-5.51,3.346-9.852,9.539-9.852
			C149.723,38.719,153.382,42.817,153.382,48.273 M143.111,41.298c-1.777,0-2.588,0.922-2.588,4.695c0,4.37,1.907,9.553,4.625,9.553
			c1.777,0,2.588-0.923,2.588-4.695C147.737,46.481,145.829,41.298,143.111,41.298"/>
	</g>
	<g>
		<path d="M143.843,59.98c-6.269,0-10.819-4.798-10.819-11.409c0-7.003,4.579-11.708,11.393-11.708
			c6.269,0,10.82,4.798,10.82,11.409C155.237,55.276,150.658,59.98,143.843,59.98z M139.054,42.468
			c-1.65,1.562-2.319,3.877-2.319,6.103c0,3.852,2.112,6.716,5.313,7.49c-2.292-2.215-3.38-6.725-3.38-10.069
			C138.668,45.125,138.668,43.74,139.054,42.468z M146.212,40.782c2.293,2.215,3.381,6.725,3.381,10.069
			c0,0.868,0,2.252-0.387,3.526c1.651-1.562,2.321-3.878,2.321-6.104C151.527,44.421,149.415,41.556,146.212,40.782z
			 M143.111,43.153c-0.298,0-0.397,0.042-0.398,0.042c0.006,0.012-0.334,0.472-0.334,2.798c0,4.213,1.834,7.698,2.77,7.698
			c0.298,0,0.396-0.042,0.398-0.042c-0.006-0.012,0.334-0.472,0.334-2.798C145.881,46.639,144.047,43.153,143.111,43.153z"/>
	</g>
	<g>
		<path d="M169.35,43.794c1.019-2.09,2.222-5.075,4.835-5.075c0.863,0,1.672,0.597,2.588,0.597c0.288,0,0.575-0.026,0.863-0.19
			l0.863,0.923l-5.776,17.642h-4.809l-2.065-7.057h-0.051l-1.987,7.057h-4.808l-5.044-16.421h-0.863v-2.117h7.423v2.115h-0.784
			l3.189,10.884h0.052l1.672-5.103l-1.856-5.782h-0.862v-2.115h7.37v2.115h-0.731L169.35,43.794z M174.551,43.876
			c-0.915,0-1.776-0.543-2.692-0.543c-1.15,0-2.012,0.978-2.012,2.09c0,0.136,0.105,0.489,0.183,0.788l1.777,6.079h0.052
			L174.551,43.876z"/>
	</g>
	<g>
		<path d="M172.721,59.547h-4.809c-0.824,0-1.549-0.544-1.781-1.334l-0.275-0.941l-0.26,0.923c-0.225,0.8-0.955,1.353-1.786,1.353
			h-4.808c-0.815,0-1.534-0.532-1.773-1.31l-4.666-15.188c-0.766-0.229-1.324-0.938-1.324-1.778v-2.116
			c0-1.024,0.831-1.855,1.855-1.855h7.423c0.25,0,0.488,0.049,0.705,0.139c0.217-0.089,0.456-0.139,0.705-0.139h7.37
			c0.64,0,1.205,0.325,1.538,0.818c0.879-0.748,1.967-1.253,3.348-1.253c0.742,0,1.367,0.22,1.87,0.397
			c0.285,0.1,0.592,0.201,0.748,0.2c0.006,0,0.01,0,0.015,0c0.729-0.358,1.611-0.199,2.172,0.399l0.862,0.923
			c0.462,0.494,0.618,1.201,0.408,1.844l-5.776,17.642C174.235,59.031,173.524,59.547,172.721,59.547z M169.302,55.836h2.074
			l0.554-1.693c-0.847,0.027-1.666-0.519-1.904-1.333l-1.839-6.306c-0.105-0.391-0.196-0.728-0.196-1.082
			c0-0.118,0.005-0.234,0.015-0.348c-0.194-0.203-0.343-0.451-0.43-0.73l-0.784-2.525c-0.082-0.266-0.102-0.542-0.064-0.809h-2.074
			l1.758,5.474c0.119,0.372,0.118,0.773-0.003,1.144l-0.383,1.166c0.734,0.09,1.392,0.603,1.601,1.32L169.302,55.836z
			 M160.372,55.836h2.033l0.515-1.828c-0.803-0.023-1.552-0.56-1.778-1.333l-3.189-10.885c-0.075-0.257-0.093-0.523-0.056-0.781
			h-2.078L160.372,55.836z M171.716,45.336c0.016,0.063,0.035,0.132,0.055,0.201l0.14,0.498l0.255-0.799
			C171.95,45.185,171.771,45.157,171.716,45.336z M172.677,41.553c0.399,0.072,0.758,0.181,1.071,0.277
			c0.306,0.093,0.623,0.19,0.802,0.19c0.446,0,0.872,0.16,1.204,0.444l0.436-1.334c-0.527-0.074-0.982-0.234-1.367-0.369
			c-0.212-0.074-0.532-0.187-0.639-0.187C173.621,40.575,173.137,40.943,172.677,41.553z"/>
	</g>
	<g>
		<polygon points="179.569,57.69 179.569,55.573 180.641,55.573 180.641,41.269 179.569,41.269 179.569,39.154 185.529,39.154 
			191.8,48.3 191.853,48.3 191.853,41.269 190.52,41.269 190.52,39.154 195.721,39.154 195.721,41.269 194.518,41.269 
			194.518,57.69 191.122,57.69 183.359,45.586 183.307,45.586 183.307,55.573 184.822,55.573 184.822,57.69 		"/>
	</g>
	<g>
		<path d="M194.519,59.545h-3.397c-0.632,0-1.221-0.322-1.561-0.854l-4.399-6.858v1.915c0.862,0.159,1.516,0.916,1.516,1.824v2.117
			c0,1.024-0.831,1.855-1.855,1.855h-5.253c-1.024,0-1.855-0.831-1.855-1.855v-2.117c0-0.745,0.439-1.388,1.073-1.683V42.952
			c-0.634-0.296-1.073-0.938-1.073-1.683v-2.115c0-1.024,0.831-1.855,1.855-1.855h5.96c0.612,0,1.185,0.302,1.53,0.806l1.605,2.34
			v-1.291c0-1.024,0.831-1.855,1.855-1.855h5.201c1.024,0,1.855,0.831,1.855,1.855v2.115c0,0.795-0.5,1.473-1.202,1.737V57.69
			C196.374,58.714,195.543,59.545,194.519,59.545z M192.137,55.834h0.527v-5.865c-0.76,0.369-1.884,0.123-2.393-0.62l-5.718-8.34
			h-2.072c0.011,0.085,0.018,0.172,0.018,0.259v2.647c0.78-0.375,1.927-0.106,2.424,0.668L192.137,55.834z"/>
	</g>
	<g>
		<path fill="#014386" d="M40.886,31.988l1.67,2.141l-7.818,6.496l-1.457-1.882c0.534-0.406,0.853-1.255,0.853-1.919
			c0-1.735-0.745-3.175-2.558-3.175c-2.594,0-3.056,3.432-3.056,5.462c0,7.307,3.482,11.772,7.107,11.772
			c2.772,0,4.264-1.144,6.148-3.1l1.812,1.882c-2.843,4.171-5.933,6.864-11.086,6.864c-6.04,0-11.655-3.543-11.655-11.884
			s6.041-14.504,13.183-14.504c2.274,0,4.016,1.218,5.757,2.621L40.886,31.988z"/>
	</g>
	<g>
		<path fill="#014386" d="M32.5,58.386c-6.233,0-13.511-3.598-13.511-13.739c0-9.173,6.606-16.359,15.039-16.359
			c2.345,0,4.217,1.012,5.808,2.172c0.808-0.556,1.91-0.387,2.514,0.388l1.67,2.141c0.617,0.79,0.494,1.928-0.277,2.568
			l-7.818,6.496c-0.387,0.321-0.889,0.472-1.388,0.417c-0.5-0.055-0.957-0.31-1.265-0.708l-1.457-1.881
			c-0.303-0.391-0.437-0.887-0.373-1.378c0.064-0.491,0.323-0.936,0.716-1.235c0.031-0.046,0.121-0.291,0.121-0.442
			c0-1.32-0.475-1.32-0.703-1.32c-0.78,0-1.201,1.859-1.201,3.607c0,6.126,2.726,9.917,5.251,9.917c2.044,0,3.093-0.747,4.811-2.531
			c0.7-0.727,1.973-0.726,2.673,0l1.812,1.881c0.609,0.632,0.691,1.606,0.197,2.331C42.533,54.506,39.011,58.386,32.5,58.386z
			 M27.777,34.038c-3.079,2.238-5.077,6.115-5.077,10.608c0,9.305,7.501,10.028,9.8,10.028c2.644,0,4.726-0.778,6.715-2.631
			c-1.004,0.433-2.169,0.696-3.588,0.696c-5.821,0-8.962-7.021-8.962-13.628C26.665,36.999,27.055,35.278,27.777,34.038z
			 M33.084,32.04c1.785,0.625,2.906,2.393,2.906,4.784c0,0.117-0.006,0.238-0.017,0.362l3.21-2.667
			c-0.201-0.068-0.391-0.172-0.563-0.311c-1.779-1.433-3.037-2.21-4.592-2.21C33.709,31.999,33.395,32.013,33.084,32.04z"/>
	</g>
	<g>
		<path fill="#014386" d="M62.615,45.074c0,5.511-3.345,9.853-9.539,9.853c-5.306,0-8.965-4.098-8.965-9.553
			c0-5.51,3.346-9.853,9.539-9.853C58.956,35.52,62.615,39.619,62.615,45.074 M52.344,38.1c-1.777,0-2.588,0.922-2.588,4.695
			c0,4.37,1.908,9.553,4.626,9.553c1.777,0,2.588-0.923,2.588-4.695C56.97,43.283,55.062,38.1,52.344,38.1"/>
	</g>
	<g>
		<path fill="#014386" d="M53.076,56.782c-6.27,0-10.82-4.798-10.82-11.409c0-7.003,4.579-11.708,11.395-11.708
			c6.269,0,10.819,4.798,10.819,11.409C64.47,52.077,59.891,56.782,53.076,56.782z M48.287,39.269
			c-1.65,1.563-2.32,3.878-2.32,6.104c0,3.852,2.111,6.716,5.315,7.49c-2.292-2.215-3.381-6.725-3.381-10.07
			C47.901,41.926,47.901,40.542,48.287,39.269z M55.444,37.584c2.294,2.214,3.382,6.724,3.382,10.07c0,0.868,0,2.252-0.386,3.525
			c1.65-1.563,2.319-3.878,2.319-6.104C60.759,41.221,58.647,38.357,55.444,37.584z M52.344,39.955
			c-0.298,0-0.397,0.042-0.398,0.042c0.006,0.012-0.334,0.472-0.334,2.797c0,4.213,1.834,7.699,2.771,7.699
			c0.298,0,0.397-0.042,0.398-0.042c-0.006-0.012,0.334-0.472,0.334-2.798C55.115,43.441,53.28,39.955,52.344,39.955z"/>
	</g>
	<g>
		<path fill="#014386" d="M74.376,53.054c-0.601,0.896-2.718,1.873-4.913,1.873c-3.894,0-5.175-2.605-5.175-6.242V38.072h-1.202
			v-2.117h6.847v12.811c0,2.144,0.471,2.959,2.196,2.959c1.724,0,2.222-0.815,2.222-2.959V38.072H73.2v-2.117h6.795v16.42h1.176
			v2.117h-6.402L74.376,53.054z"/>
	</g>
	<g>
		<path fill="#014386" d="M69.462,56.782c-2.625,0-7.03-1.052-7.03-8.098v-8.875c-0.703-0.264-1.202-0.942-1.202-1.737v-2.117
			c0-1.024,0.831-1.855,1.855-1.855h6.847c0.706,0,1.32,0.395,1.634,0.975c0.314-0.581,0.927-0.975,1.634-0.975h6.795
			c1.025,0,1.855,0.831,1.855,1.855v14.693c0.689,0.271,1.176,0.942,1.176,1.727v2.117c0,1.024-0.831,1.855-1.855,1.855h-6.402
			c-0.457,0-0.883-0.167-1.212-0.45C72.349,56.446,70.888,56.782,69.462,56.782z M66.125,37.81c0.012,0.085,0.018,0.173,0.018,0.262
			v10.612c0,4.048,1.713,4.387,3.319,4.387c0.144,0,0.286-0.006,0.425-0.015c-1.811-1.048-1.811-3.381-1.811-4.291V37.81H66.125z
			 M76.185,52.637h1.972c-0.012-0.085-0.018-0.173-0.018-0.262V37.81h-1.952c0.012,0.085,0.018,0.173,0.018,0.262v10.694
			c0,0.611,0,1.863-0.551,2.937c0.241,0.231,0.42,0.527,0.511,0.862L76.185,52.637z M71.87,49.857
			c0.131,0.014,0.416,0.011,0.539-0.002c0.038-0.158,0.086-0.479,0.086-1.09v-8.977c-0.275-0.114-0.517-0.29-0.707-0.513v9.49
			C71.788,49.369,71.833,49.694,71.87,49.857z"/>
	</g>
	<g>
		<polygon fill="#014386" points="83,54.493 83,52.375 84.072,52.375 84.072,38.071 83,38.071 83,35.956 88.959,35.956 
			95.231,45.102 95.284,45.102 95.284,38.071 93.951,38.071 93.951,35.956 99.152,35.956 99.152,38.071 97.949,38.071 
			97.949,54.493 94.552,54.493 86.79,42.388 86.738,42.388 86.738,52.375 88.253,52.375 88.253,54.493 		"/>
	</g>
	<g>
		<path fill="#014386" d="M97.949,56.348h-3.398c-0.632,0-1.221-0.322-1.562-0.854l-4.397-6.857v1.913
			c0.862,0.16,1.516,0.916,1.516,1.825v2.118c0,1.024-0.831,1.855-1.855,1.855H83c-1.025,0-1.855-0.831-1.855-1.855v-2.118
			c0-0.744,0.438-1.387,1.071-1.682V39.753c-0.633-0.296-1.071-0.938-1.071-1.682v-2.116c0-1.024,0.831-1.855,1.855-1.855h5.959
			c0.612,0,1.184,0.301,1.53,0.806l1.606,2.342v-1.293c0-1.024,0.831-1.855,1.855-1.855h5.201c1.025,0,1.855,0.831,1.855,1.855
			v2.116c0,0.795-0.5,1.473-1.202,1.737v14.685C99.805,55.517,98.974,56.348,97.949,56.348z M95.566,52.637h0.528v-5.865
			c-0.761,0.366-1.882,0.123-2.393-0.621l-5.719-8.341h-2.073c0.012,0.085,0.018,0.172,0.018,0.26v2.648
			c0.777-0.379,1.927-0.109,2.425,0.668L95.566,52.637z"/>
	</g>
	<g>
		<path fill="#014386" d="M103.673,54.493v-2.117h1.672V38.451c-1.881,0-2.457,0.869-2.77,2.633h-1.882l0.366-5.564h1.987v0.435
			h10.244V35.52h1.986l0.366,5.564h-1.882c-0.313-1.765-0.888-2.633-2.77-2.633v13.924h1.62v2.117L103.673,54.493L103.673,54.493z"
			/>
	</g>
	<g>
		<path fill="#014386" d="M112.612,56.347h-8.939c-1.025,0-1.855-0.83-1.855-1.855v-2.117c0-0.963,0.734-1.755,1.673-1.847v-7.83
			c-0.271,0.154-0.584,0.241-0.915,0.241h-1.882c-0.513,0-1.003-0.213-1.355-0.587c-0.351-0.374-0.531-0.878-0.497-1.39l0.366-5.564
			c0.064-0.975,0.874-1.734,1.851-1.734h1.987c0.454,0,0.87,0.163,1.193,0.434h7.859c0.322-0.271,0.738-0.434,1.193-0.434h1.985
			c0.978,0,1.787,0.759,1.851,1.734l0.366,5.564c0.034,0.512-0.147,1.015-0.497,1.39c-0.351,0.374-0.842,0.587-1.355,0.587h-1.882
			c-0.33,0-0.643-0.087-0.914-0.241v7.835c0.914,0.116,1.62,0.896,1.62,1.841v2.117C114.467,55.516,113.636,56.347,112.612,56.347z
			 M107.088,37.81c0.073,0.2,0.114,0.416,0.114,0.641v13.925c0,0.089-0.006,0.176-0.018,0.262l1.971-0.001
			c-0.012-0.085-0.019-0.173-0.019-0.262V38.451c0-0.225,0.04-0.441,0.114-0.641H107.088z"/>
	</g>
	<g>
		<path fill="#014386" d="M117.787,38.072h-1.202v-2.117h7.447c5.542,0,9.435,3.311,9.435,9.228c0,6.188-3.632,9.309-9.33,9.309
			h-7.682v-2.117h1.333L117.787,38.072L117.787,38.072z M123.431,52.375c3.79,0,4.391-4.207,4.391-7.301
			c0-3.609-0.628-7.001-4.391-7.001V52.375z"/>
	</g>
	<g>
		<path fill="#014386" d="M124.136,56.347h-7.682c-1.024,0-1.855-0.831-1.855-1.855v-2.117c0-0.843,0.562-1.554,1.332-1.781V39.809
			c-0.702-0.264-1.202-0.942-1.202-1.737v-2.117c0-1.024,0.831-1.855,1.855-1.855h7.447c6.859,0,11.29,4.35,11.29,11.083
			C135.322,52.173,131.14,56.347,124.136,56.347z M119.623,52.637h1.971c-0.012-0.085-0.019-0.173-0.019-0.262V38.073
			c0-0.089,0.006-0.176,0.019-0.263h-1.971c0.012,0.085,0.019,0.173,0.019,0.262v14.303
			C119.642,52.463,119.636,52.551,119.623,52.637z M128.364,38.836c0.874,1.468,1.313,3.55,1.313,6.238
			c0,3.333-0.685,5.479-1.652,6.849c2.383-1.065,3.586-3.319,3.586-6.74C131.611,42.226,130.448,40.031,128.364,38.836z
			 M125.287,40.889v8.391c0.391-0.791,0.68-2.086,0.68-4.206C125.967,42.869,125.687,41.609,125.287,40.889z"/>
	</g>
	<g>
		<path fill="#014386" d="M153.382,45.074c0,5.511-3.346,9.853-9.539,9.853c-5.306,0-8.964-4.098-8.964-9.553
			c0-5.51,3.346-9.853,9.539-9.853C149.723,35.52,153.382,39.619,153.382,45.074 M143.111,38.1c-1.777,0-2.588,0.922-2.588,4.695
			c0,4.37,1.907,9.553,4.625,9.553c1.777,0,2.588-0.923,2.588-4.695C147.737,43.283,145.829,38.1,143.111,38.1"/>
	</g>
	<g>
		<path fill="#014386" d="M143.843,56.782c-6.269,0-10.819-4.798-10.819-11.409c0-7.003,4.579-11.708,11.393-11.708
			c6.269,0,10.82,4.798,10.82,11.409C155.237,52.077,150.658,56.782,143.843,56.782z M139.054,39.269
			c-1.65,1.562-2.319,3.878-2.319,6.104c0,3.852,2.111,6.716,5.314,7.49c-2.293-2.215-3.381-6.725-3.381-10.07
			C138.668,41.926,138.668,40.542,139.054,39.269z M146.211,37.584c2.293,2.214,3.381,6.725,3.381,10.07
			c0,0.868,0,2.252-0.387,3.526c1.651-1.563,2.321-3.878,2.321-6.105C151.527,41.222,149.414,38.357,146.211,37.584z
			 M143.111,39.955c-0.298,0-0.397,0.042-0.398,0.042c0.006,0.012-0.334,0.472-0.334,2.797c0,4.213,1.834,7.699,2.77,7.699
			c0.298,0,0.396-0.042,0.398-0.042c-0.006-0.012,0.334-0.472,0.334-2.798C145.881,43.441,144.047,39.955,143.111,39.955z"/>
	</g>
	<g>
		<path fill="#014386" d="M169.35,40.596c1.019-2.09,2.222-5.075,4.835-5.075c0.863,0,1.672,0.597,2.588,0.597
			c0.288,0,0.575-0.026,0.863-0.19l0.863,0.923l-5.776,17.642h-4.809l-2.065-7.057h-0.051l-1.987,7.057h-4.808l-5.044-16.421h-0.863
			v-2.116h7.423v2.116h-0.784l3.189,10.884h0.052l1.672-5.103l-1.856-5.782h-0.862v-2.116h7.37v2.116h-0.731L169.35,40.596z
			 M174.551,40.678c-0.915,0-1.776-0.543-2.692-0.543c-1.15,0-2.012,0.978-2.012,2.09c0,0.136,0.105,0.489,0.183,0.788l1.777,6.079
			h0.052L174.551,40.678z"/>
	</g>
	<g>
		<path fill="#014386" d="M172.721,56.349h-4.809c-0.824,0-1.549-0.544-1.781-1.334l-0.275-0.941l-0.26,0.923
			c-0.225,0.8-0.955,1.353-1.786,1.353h-4.808c-0.815,0-1.534-0.532-1.773-1.31l-4.666-15.188c-0.766-0.229-1.324-0.938-1.324-1.778
			v-2.116c0-1.024,0.831-1.855,1.855-1.855h7.423c0.25,0,0.488,0.049,0.705,0.139c0.217-0.089,0.456-0.139,0.705-0.139h7.37
			c0.64,0,1.205,0.325,1.538,0.818c0.879-0.748,1.967-1.253,3.348-1.253c0.742,0,1.367,0.22,1.87,0.397
			c0.285,0.1,0.592,0.202,0.748,0.2c0.006,0,0.01,0,0.015,0c0.729-0.358,1.611-0.2,2.172,0.399l0.862,0.923
			c0.462,0.494,0.618,1.201,0.408,1.844l-5.776,17.642C174.235,55.834,173.524,56.349,172.721,56.349z M169.302,52.638h2.074
			l0.554-1.693c-0.847,0.016-1.666-0.519-1.904-1.333l-1.839-6.306c-0.105-0.391-0.196-0.728-0.196-1.082
			c0-0.118,0.005-0.234,0.015-0.349c-0.194-0.203-0.343-0.451-0.429-0.73l-0.784-2.523c-0.083-0.266-0.103-0.543-0.065-0.811h-2.074
			l1.758,5.475c0.119,0.372,0.118,0.773-0.003,1.144l-0.382,1.164c0.734,0.09,1.391,0.603,1.6,1.32L169.302,52.638z M160.372,52.638
			h2.033l0.515-1.826c-0.804-0.023-1.552-0.56-1.778-1.333l-3.189-10.885c-0.076-0.258-0.093-0.524-0.056-0.783h-2.078
			L160.372,52.638z M171.716,42.139c0.016,0.063,0.035,0.132,0.055,0.201l0.14,0.498l0.255-0.799
			C171.95,41.986,171.771,41.96,171.716,42.139z M172.677,38.355c0.399,0.072,0.758,0.181,1.071,0.277
			c0.306,0.093,0.623,0.19,0.802,0.19c0.446,0,0.872,0.16,1.204,0.444l0.436-1.334c-0.527-0.074-0.982-0.234-1.367-0.369
			c-0.212-0.074-0.532-0.187-0.639-0.187C173.621,37.377,173.137,37.745,172.677,38.355z"/>
	</g>
	<g>
		<polygon fill="#014386" points="179.569,54.493 179.569,52.375 180.641,52.375 180.641,38.071 179.569,38.071 179.569,35.956 
			185.529,35.956 191.8,45.102 191.853,45.102 191.853,38.071 190.52,38.071 190.52,35.956 195.721,35.956 195.721,38.071 
			194.518,38.071 194.518,54.493 191.122,54.493 183.359,42.388 183.307,42.388 183.307,52.375 184.822,52.375 184.822,54.493 		"/>
	</g>
	<g>
		<path fill="#014386" d="M194.519,56.348h-3.397c-0.632,0-1.221-0.322-1.561-0.854l-4.399-6.859v1.915
			c0.862,0.159,1.516,0.916,1.516,1.824v2.118c0,1.024-0.831,1.855-1.855,1.855h-5.253c-1.024,0-1.855-0.831-1.855-1.855v-2.118
			c0-0.745,0.439-1.388,1.073-1.683V39.754c-0.634-0.296-1.073-0.938-1.073-1.683v-2.116c0-1.024,0.831-1.855,1.855-1.855h5.96
			c0.612,0,1.185,0.302,1.53,0.806l1.605,2.341v-1.292c0-1.024,0.831-1.855,1.855-1.855h5.201c1.024,0,1.855,0.831,1.855,1.855
			v2.116c0,0.795-0.5,1.473-1.202,1.737v14.685C196.374,55.517,195.543,56.348,194.519,56.348z M192.137,52.637h0.527v-5.866
			c-0.76,0.37-1.884,0.123-2.393-0.62l-5.718-8.341h-2.072c0.011,0.085,0.018,0.172,0.018,0.26v2.647
			c0.78-0.375,1.927-0.106,2.424,0.668L192.137,52.637z"/>
	</g>
	<g>
		<path d="M168.471,16.398c-3.642,0-6.493,2.306-6.493,5.248c0,1.126,0.443,1.986,1.022,2.69c-0.327-0.123-0.678-0.185-1.022-0.185
			c-1.235,0-3.101,0.748-3.557,2.692c-0.374,0.246-0.729,0.429-0.995,0.456l3.376-8.597c0.153-0.388,0.101-0.827-0.132-1.173
			c-0.237-0.345-0.628-0.551-1.045-0.551h-3.563c-0.553-0.293-1.232-0.435-2.056-0.435c-4.523,0-9.458,5.114-9.971,10.067
			c-0.496,0.357-0.989,0.654-1.334,0.689l1.935-4.93c0.406-1.016,0.612-1.917,0.612-2.679c0-1.882-1.347-3.147-3.352-3.147
			c-1.63,0-2.876,0.429-4.045,1.135c-0.591-0.715-1.527-1.135-2.666-1.135c-1.223,0-2.207,0.237-3.101,0.639
			c-0.203-0.131-0.441-0.204-0.688-0.204h-3.479l0.536-1.192c0.176-0.392,0.017-0.039-0.216-0.398
			c-0.233-0.359-0.414-0.105-0.842-0.105l-2.306-1.277l1.731-4.476c0.152-0.389,0.101-0.825-0.135-1.17
			c-0.237-0.344-0.625-0.549-1.043-0.549h-3.966c-0.523,0-0.991,0.325-1.178,0.815l-2.044,5.381h-2.747
			c-0.497,0-0.948,0.292-1.151,0.745l-0.959,2.137c-0.018,0.045-0.028,0.094-0.041,0.14c-0.919-0.411-2.088-0.632-3.466-0.632
			c-3.642,0-6.493,2.306-6.493,5.248c0,1.126,0.44,1.986,1.023,2.69c-0.329-0.123-0.679-0.185-1.023-0.185
			c-1.234,0-3.101,0.748-3.556,2.692c-0.376,0.245-0.729,0.428-0.995,0.455l3.376-8.597c0.151-0.388,0.102-0.827-0.133-1.173
			c-0.082-0.12-0.184-0.224-0.298-0.308c1.379-0.616,2.348-1.876,2.348-3.292c0-1.926-1.704-3.435-3.877-3.435
			c-2.584,0-2.587,2.349-2.587,4.159c0,1.131-0.99,1.72-0.042,2.326h-0.508c-0.53,0-1.001,0.327-1.184,0.822l-1.063,2.854
			c-0.267,0.182-0.551,0.358-0.851,0.512c0.444-0.536,0.658-1.217,0.658-1.875c0-1.567-1.368-2.749-3.18-2.749
			c-0.846,0-1.77,0.221-2.686,0.627c-0.198-0.124-0.43-0.191-0.67-0.191h-3.833c-0.528,0-1,0.327-1.184,0.821l-2.936,7.881
			c-0.03,0.024-0.059,0.048-0.089,0.073c-0.729,0.595-1.818,1.483-2.433,1.545l1.934-4.93c0.407-1.016,0.613-1.917,0.613-2.679
			c0-1.882-1.347-3.147-3.355-3.147c-0.826,0-1.543,0.111-2.188,0.299l0.113-0.294c2.622-0.999,8.697-3.866,8.697-8.958
			c0-2.791-1.961-4.669-4.879-4.669c-4.853,0-6.939,4.594-8.085,7.618c-0.235-3.308-6.788,0.219-8.525-0.938
			c-7.916-5.278-13.193,7.613-13.193,14.33c0,5.485,3.388,8.762,9.064,8.762c1.905,0,3.713-0.543,5.23-1.233
			c0.035,0.087,0.079,0.175,0.136,0.256c0.236,0.34,0.623,0.542,1.037,0.542h3.703c0.524,0,0.993-0.325,1.18-0.815l3.28-8.632
			c0.229-0.184,0.466-0.36,0.689-0.489l-1.53,4c-0.315,0.788-0.482,1.564-0.482,2.245c0,2.429,1.756,4.125,4.269,4.125
			c1.239,0,2.33-0.331,3.292-0.812c0.236,0.236,0.551,0.378,0.89,0.378h3.703c0.523,0,0.99-0.323,1.179-0.811l1.873-4.886
			c0.233-0.603,0.47-1.164,0.711-1.681c0.643,1.197,1.936,1.908,3.644,1.908c0.718,0,1.393-0.097,2.027-0.259
			c-0.247,0.735-0.37,1.382-0.37,1.967c0,2.432,1.775,4.198,4.225,4.198c1.843,0,3.358-0.73,4.608-1.601
			c1.11,1.017,2.814,1.601,4.932,1.601c3.433,0,6.182-1.587,7.111-3.895c0.09,2.37,1.825,3.895,4.479,3.895
			c1.427,0,2.736-0.397,3.903-0.957c0.235,0.327,0.614,0.522,1.017,0.522h3.705c0.523,0,0.994-0.325,1.179-0.814l3.397-8.927
			c0.134-0.092,0.256-0.167,0.37-0.228l-3.122,8.259c-0.146,0.388-0.094,0.823,0.143,1.164c0.234,0.341,0.623,0.545,1.038,0.545
			h3.749c0.521,0,0.991-0.323,1.178-0.811l3.407-8.888c0.11-0.119,0.215-0.205,0.315-0.27l-1.543,4.034
			c-0.314,0.788-0.482,1.564-0.482,2.245c0,2.429,1.756,4.125,4.271,4.125c1.913,0,3.469-0.786,4.747-1.7
			c0.875,1.066,2.182,1.7,3.748,1.7c1.406,0,2.629-0.407,3.566-0.877c0.725,0.566,1.649,0.877,2.666,0.877
			c1.841,0,3.356-0.73,4.607-1.601c1.11,1.017,2.814,1.601,4.933,1.601c4.246,0,7.45-2.427,7.45-5.648
			c0-1.506-0.707-2.612-1.523-3.476c0.129,0.02,0.26,0.029,0.389,0.029c2.045,0,3.268-1.599,3.268-3.146
			C174.265,17.915,172.1,16.398,168.471,16.398 M151.35,26.321c-0.149,0.377-0.257,0.743-0.333,1.135
			c-0.201,0.083-0.329,0.096-0.413,0.099c-0.047-0.035-0.171-0.262-0.171-0.692c0-1.344,1.049-4.223,2.593-5.082L151.35,26.321z
			 M164.533,25.797c0.772,0.657,1.238,1.096,1.244,1.482c-0.07,0.202-0.653,0.657-1.373,0.786c0.207-0.36,0.318-0.778,0.318-1.237
			C164.722,26.444,164.654,26.1,164.533,25.797 M168.369,21.493c-0.15-0.178-0.248-0.339-0.248-0.463
			c0-0.199,0.12-0.314,0.264-0.383c-0.029,0.147-0.045,0.299-0.045,0.456C168.34,21.238,168.351,21.37,168.369,21.493
			 M65.226,25.335c-1.688,1.198-4.525,1.823-5.675,1.823c-3.478,0-3.749-3.276-3.749-4.279c0-3.541,2.186-7.983,4.678-10.496
			c-0.342,0.539-0.536,1.145-0.536,1.728c0,2.043,1.703,3.581,3.962,3.581c2.023,0,3.802-0.992,5.041-2.374L65.226,25.335z
			 M106.15,25.797c0.774,0.657,1.237,1.096,1.245,1.482c-0.071,0.203-0.654,0.657-1.372,0.787c0.205-0.36,0.317-0.779,0.317-1.238
			C106.34,26.444,106.272,26.1,106.15,25.797 M123.452,25.646c-1.468,1.069-2.629,1.628-3.452,1.656l3.286-8.631h2.765
			L123.452,25.646z M116.716,18.671l-0.889,2.358c0.037-0.191,0.056-0.384,0.056-0.577c0-0.668-0.154-1.263-0.444-1.781H116.716z
			 M113.961,25.977c-0.089,0.237-0.167,0.463-0.235,0.686c-0.11-1.312-0.756-2.305-1.501-3.093c0.129,0.018,0.9,1.033,1.031,1.033
			c1.34,0,1.683-1.696,2.205-2.605L113.961,25.977z"/>
	</g>
	<g>
		<path fill="#014386" d="M161.07,22.124c0,0,0.999-0.684,1.211-1.211c0.21-0.525,1.262-3.314,1.262-3.314l3.999-1.158
			c0,0,2.893,2.157,2.947,2.316c0.051,0.158-2.894,2.893-2.894,2.893s-3.736,0.106-4.211,0.526
			c-0.473,0.421-1.314,1.106-1.314,1.106L161.07,22.124z"/>
	</g>
	<g>
		<path fill="#014386" d="M58.773,25.886c1.351,0,4.836-0.725,6.797-2.354v1.956c-0.915,0.869-4.401,3.404-8.279,3.404
			c-5.142,0-7.801-2.933-7.801-7.498c0-6.304,5.448-17.787,14.076-17.787c3.05,0,5.14,2.029,5.14,4.889
			c0,2.5-2.57,5.399-5.577,5.399c-1.653,0-2.7-1.087-2.7-2.319c0-0.906,0.958-2.173,2.264-2.173c1.003,0,1.744,0.615,1.744,1.34
			c0,0.652-0.35,1.34-0.916,1.63c0.959,0,2.79-0.87,2.79-3.405c0-1.159-1.001-2.355-3.007-2.355c-4.357,0-9.542,7.86-9.542,13.73
			C53.763,22.952,55.07,25.886,58.773,25.886"/>
	</g>
	<g>
		<path fill="#014386" d="M57.293,30.541c-5.829,0-9.451-3.505-9.451-9.147c0-6.852,5.97-19.437,15.725-19.437
			c3.934,0,6.789,2.75,6.789,6.539c0,3.259-3.157,7.048-7.226,7.048c-2.48,0-4.349-1.706-4.349-3.968
			c0-0.037,0.001-0.073,0.002-0.11c-1.862,2.414-3.371,5.818-3.371,8.878c0,1.171,0.327,3.893,3.361,3.893
			c1.143,0,4.207-0.697,5.743-1.973c0.492-0.409,1.176-0.497,1.755-0.225c0.579,0.272,0.949,0.854,0.949,1.493v1.956
			c0,0.452-0.186,0.884-0.513,1.195C65.578,27.757,61.685,30.541,57.293,30.541z M58.8,6.775c-1.891,1.249-3.29,3.013-4.134,4.277
			c-2.109,3.161-3.526,7.317-3.526,10.342c0,3.594,1.877,5.596,5.44,5.826c-3.068-0.954-4.467-3.926-4.467-6.877
			C52.114,15.691,55.065,9.721,58.8,6.775z M62.387,11.177c-0.136,0.106-0.244,0.257-0.289,0.366
			C62.176,11.409,62.273,11.286,62.387,11.177z"/>
	</g>
	<g>
		<path fill="#014386" d="M81.648,5.054c0,3.914-4.577,6.63-8.411,7.97l-1.524,3.985c1.394-1.014,2.613-1.738,4.574-1.738
			c1.222,0,2.092,0.651,2.092,1.883c0,0.58-0.175,1.34-0.524,2.209l-1.961,5c-0.086,0.253-0.131,0.47-0.131,0.689
			c0,0.579,0.35,0.977,1.264,0.977c1.352,0,2.964-1.629,4.14-2.499v1.956c-1.526,1.267-3.53,3.404-6.362,3.404
			c-1.7,0-3.007-1.05-3.007-2.861c0-0.506,0.131-1.123,0.393-1.775l1.787-4.672c0.044-0.181,0.087-0.326,0.087-0.435
			c0-0.58-0.522-0.833-0.915-0.833c-0.829,0-1.568,0.543-2.354,1.196l-3.398,8.947h-3.703L70.84,9.221
			c1.438-3.912,3.225-7.572,7.191-7.572C80.385,1.649,81.648,3.063,81.648,5.054 M78.901,5.635c0-0.543-0.262-1.015-0.957-1.015
			c-1.438,0-2.354,2.137-3.792,6.014C76.637,9.584,78.901,7.301,78.901,5.635"/>
	</g>
	<g>
		<path fill="#014386" d="M74.806,30.541c-2.698,0-4.657-1.897-4.657-4.511c0-0.058,0.001-0.117,0.003-0.177l-1.212,3.19
			c-0.243,0.641-0.857,1.064-1.542,1.064h-3.704c-0.54,0-1.046-0.265-1.354-0.708s-0.38-1.009-0.192-1.516l7.145-19.236
			C70.404,5.628,72.473,0,78.031,0c3.15,0,5.266,2.031,5.266,5.054c0,4.356-4.031,7.097-7.168,8.569
			c0.052-0.001,0.105-0.001,0.157-0.001c2.203,0,3.741,1.453,3.741,3.533c0,0.812-0.216,1.762-0.643,2.824l-1.594,4.064
			c0.519-0.331,1.128-0.827,1.492-1.124c0.319-0.26,0.624-0.508,0.905-0.715c0.5-0.37,1.166-0.426,1.723-0.146
			c0.556,0.281,0.906,0.85,0.906,1.473v1.956c0,0.49-0.218,0.955-0.596,1.269c-0.199,0.165-0.406,0.346-0.623,0.535
			C80.025,28.662,77.869,30.541,74.806,30.541z M74.715,17.171c0.587,0.424,1,1.101,1,1.977c0,0.29-0.061,0.532-0.11,0.726
			l-0.023,0.094c-0.017,0.069-0.037,0.137-0.063,0.203l-1.787,4.672c-0.257,0.642-0.284,1.043-0.284,1.186
			c0,1.002,0.738,1.212,1.358,1.212c0.153,0,0.303-0.009,0.451-0.026c-0.78-0.499-1.143-1.334-1.143-2.163
			c0-0.391,0.069-0.778,0.218-1.218l1.988-5.073c0.37-0.922,0.41-1.43,0.41-1.607c0-0.1-0.016-0.153-0.022-0.165
			c-0.014-0.008-0.149-0.07-0.421-0.07C75.694,16.921,75.194,17.003,74.715,17.171z M66.068,26.808h0.194l2.995-7.883
			c0.101-0.266,0.269-0.502,0.488-0.683c0.174-0.144,0.35-0.287,0.53-0.425c-0.234-0.418-0.281-0.928-0.102-1.396l1.524-3.985
			c0.174-0.453,0.538-0.808,0.997-0.968c0.01-0.003,0.02-0.007,0.03-0.01c-0.241-0.418-0.29-0.929-0.117-1.396
			c0.797-2.149,1.503-4.052,2.414-5.344c-1.014,1.122-1.821,2.867-2.632,5.074L66.068,26.808z"/>
	</g>
	<g>
		<path fill="#014386" d="M78.989,28.458l4.749-12.751h3.832l-0.392,1.013c1.309-0.977,2.703-1.448,3.75-1.448
			c1.088,0,1.916,0.616,1.916,1.485c0,0.833-0.523,1.63-1.785,1.63c-0.566,0-1.134-0.219-1.352-0.651
			c-0.217,0.398-0.435,0.759-0.435,1.376c0,0.652,0.35,1.449,1.787,1.449c2.003,0,4.007-1.268,5.053-2.282v1.811
			c-1.308,1.376-3.354,2.898-6.012,2.898c-1.916,0-2.831-1.087-2.831-2.572c0-0.797,0.478-2.1,1.133-2.97
			c-1.7,1.304-2.964,3.877-3.835,6.122l-1.874,4.891H78.989z"/>
	</g>
	<g>
		<path fill="#014386" d="M82.692,30.107h-3.703c-0.54,0-1.047-0.265-1.355-0.708c-0.308-0.444-0.38-1.01-0.191-1.517l4.749-12.751
			c0.24-0.645,0.856-1.073,1.545-1.073h3.832c0.241,0,0.476,0.053,0.689,0.151c0.909-0.381,1.825-0.586,2.669-0.586
			c2.033,0,3.565,1.347,3.565,3.134c0,0.278-0.034,0.557-0.103,0.828c0.211-0.161,0.404-0.327,0.573-0.49
			c0.476-0.461,1.181-0.593,1.791-0.335c0.61,0.259,1.006,0.856,1.006,1.519v1.811c0,0.423-0.162,0.829-0.454,1.136
			c-2.12,2.232-4.613,3.411-7.208,3.411c-1.537,0-2.786-0.558-3.57-1.512c-0.14,0.324-0.282,0.67-0.426,1.039l-1.871,4.884
			C83.988,29.686,83.375,30.107,82.692,30.107z M81.363,26.809h0.194l1.468-3.831c0.873-2.249,1.806-3.997,2.823-5.284
			c-0.077-0.105-0.141-0.219-0.191-0.338h-0.773L81.363,26.809z"/>
	</g>
	<g>
		<path fill="#014386" d="M97.07,24.364c-0.087,0.253-0.131,0.471-0.131,0.689c0,0.58,0.349,0.977,1.263,0.977
			c1.351,0,2.964-1.629,4.14-2.498v1.956c-1.526,1.267-3.531,3.404-6.362,3.404c-1.657,0-2.962-1.087-2.962-2.933
			c0-0.507,0.13-1.089,0.347-1.704l3.18-8.548h3.922L97.07,24.364z M99.683,9.221c1.483,0,2.615,0.942,2.615,2.174
			c0,1.34-1.438,2.427-2.964,2.427c-1.437,0-2.57-0.905-2.57-2.101C96.764,10.525,97.897,9.221,99.683,9.221"/>
	</g>
	<g>
		<path fill="#014386" d="M95.98,30.541c-2.672,0-4.611-1.927-4.611-4.583c0-0.673,0.144-1.409,0.441-2.251l3.19-8.576
			c0.184-0.493,0.587-0.86,1.073-1.005c-0.601-0.647-0.958-1.482-0.958-2.406c0-1.995,1.747-4.149,4.569-4.149
			c2.391,0,4.264,1.679,4.264,3.823c0,1.4-0.848,2.663-2.106,3.4c0.298,0.448,0.358,1.013,0.161,1.515l-3.035,7.733
			c0.518-0.33,1.126-0.825,1.489-1.121c0.32-0.261,0.625-0.509,0.907-0.716c0.5-0.371,1.166-0.426,1.722-0.145
			c0.556,0.28,0.906,0.85,0.906,1.472v1.956c0,0.49-0.218,0.955-0.596,1.269c-0.199,0.165-0.406,0.346-0.623,0.535
			C101.198,28.663,99.042,30.541,95.98,30.541z M97.691,17.356l-2.78,7.474c-0.2,0.568-0.244,0.93-0.244,1.129
			c0,1.117,0.822,1.284,1.313,1.284c0.153,0,0.304-0.009,0.453-0.027c-0.78-0.499-1.144-1.334-1.144-2.164
			c0-0.399,0.07-0.788,0.221-1.226l2.538-6.47H97.691z M99.683,10.87c-0.904,0-1.27,0.6-1.27,0.85c0,0.184,0.359,0.452,0.921,0.452
			c0.759,0,1.314-0.512,1.314-0.778C100.648,11.141,100.26,10.87,99.683,10.87z"/>
	</g>
	<g>
		<path fill="#014386" d="M109.312,15.126c1.352,0,4.53,0.254,4.53,2.789c0,0.943-0.739,1.884-2.004,1.884
			c-0.48,0-1.393-0.327-1.393-1.232c0-0.76,0.743-1.232,1.176-1.232c-0.567-0.435-1.087-0.58-1.917-0.58
			c-1.175,0-2.004,0.725-2.004,1.739c0,2.029,4.009,2.971,4.009,6.014c0,2.354-2.484,4.382-6.187,4.382
			c-2.746,0-5.099-1.122-5.099-3.657c0-1.993,1.786-2.355,2.396-2.355c0.697,0,1.48,0.435,1.48,1.413
			c0,0.905-0.783,1.269-1.48,1.269c-0.087,0-0.217,0-0.305-0.037c0.305,1.16,1.482,1.305,2.354,1.305
			c1.439,0,3.004-1.014,3.004-2.029c0-2.245-3.79-3.007-3.79-5.688C104.081,16.865,106.392,15.126,109.312,15.126"/>
	</g>
	<g>
		<path fill="#014386" d="M105.522,30.541c-4.099,0-6.748-2.083-6.748-5.307c0-2.675,2.22-4.101,4.212-4
			c-0.333-0.598-0.553-1.296-0.553-2.123c0-1.611,0.771-3.084,2.172-4.148c1.262-0.958,2.934-1.486,4.707-1.486
			c3.87,0,6.179,1.659,6.179,4.438c0,1.619-1.187,3.29-3.2,3.509c0.61,0.811,1.068,1.809,1.068,3.085
			C113.359,27.947,109.99,30.541,105.522,30.541z M108.599,22.347c0.529,0.653,0.922,1.442,0.922,2.451
			c0,0.483-0.129,0.937-0.354,1.352c0.581-0.48,0.893-1.065,0.893-1.641C110.06,23.729,109.514,23.144,108.599,22.347z
			 M105.949,24.321c-0.002,0.196-0.023,0.385-0.06,0.568c0.129-0.073,0.234-0.151,0.304-0.22
			C106.15,24.567,106.063,24.448,105.949,24.321z M106.071,18.117c-0.196,0.268-0.34,0.6-0.34,0.993c0,0.525,0.386,0.95,1.202,1.655
			c-0.507-0.622-0.883-1.358-0.883-2.27C106.051,18.367,106.058,18.241,106.071,18.117z"/>
	</g>
	<g>
		<path fill="#014386" d="M114.931,12.735h3.617l2.353-6.194h3.966l-2.396,6.194h4.054l-0.96,2.138h-3.923l-3.616,9.492
			c-0.087,0.253-0.131,0.47-0.131,0.689c0,0.579,0.35,0.977,1.263,0.977c1.528,0,3.355-1.159,5.057-2.499v1.956
			c-1.526,1.267-4.097,3.404-7.103,3.404c-2.09,0-3.223-1.087-3.223-2.825c0-0.651,0.173-1.375,0.478-2.173l3.399-9.021h-3.792
			L114.931,12.735z"/>
	</g>
	<g>
		<path fill="#014386" d="M117.111,30.541c-2.96,0-4.873-1.756-4.873-4.475c0-0.826,0.192-1.73,0.587-2.762l2.556-6.782h-1.408
			c-0.559,0-1.08-0.283-1.384-0.753c-0.304-0.469-0.35-1.061-0.121-1.571l0.958-2.138c0.266-0.593,0.855-0.975,1.505-0.975h2.48
			l1.948-5.13c0.243-0.641,0.857-1.064,1.542-1.064h3.965c0.544,0,1.053,0.268,1.36,0.717c0.308,0.449,0.374,1.02,0.178,1.528
			l-1.528,3.949h1.648c0.56,0,1.081,0.283,1.384,0.753c0.304,0.47,0.35,1.061,0.12,1.572l-0.96,2.138
			c-0.266,0.593-0.854,0.974-1.504,0.974h-2.786l-2.95,7.743c0.695-0.212,1.759-0.764,3.365-2.029
			c0.496-0.391,1.172-0.465,1.74-0.188c0.569,0.276,0.929,0.852,0.929,1.484v1.956c0,0.49-0.218,0.955-0.596,1.269
			C123.672,28.082,120.71,30.541,117.111,30.541z M119.277,14.214c0.169,0.39,0.184,0.835,0.031,1.24l-3.399,9.021
			c-0.248,0.648-0.372,1.181-0.372,1.591c0,0.44,0,1.176,1.574,1.176c0.101,0,0.202-0.003,0.303-0.01
			c-0.798-0.497-1.168-1.341-1.168-2.18c0-0.394,0.069-0.782,0.218-1.22l3.637-9.547c0.157-0.412,0.467-0.734,0.85-0.91
			c-0.164-0.39-0.175-0.833-0.019-1.236l1.528-3.949h-0.421l-1.948,5.13C119.938,13.719,119.644,14.034,119.277,14.214z"/>
	</g>
	<g>
		<path fill="#014386" d="M122.032,28.458l4.749-12.751h3.835l-0.393,1.05c1.265-0.906,2.396-1.485,4.183-1.485
			c1.22,0,2.049,0.652,2.091,1.812c1.395-1.087,2.658-1.812,4.619-1.812c1.221,0,2.091,0.652,2.091,1.883
			c0,0.581-0.174,1.34-0.523,2.21l-1.961,5c-0.086,0.253-0.129,0.47-0.129,0.689c0,0.579,0.346,0.977,1.262,0.977
			c1.351,0,2.964-1.63,4.141-2.499v1.957c-1.526,1.267-3.53,3.404-6.363,3.404c-1.7,0-3.007-1.05-3.007-2.861
			c0-0.506,0.131-1.123,0.393-1.775l1.789-4.672c0.041-0.181,0.086-0.326,0.086-0.435c0-0.58-0.522-0.833-0.915-0.833
			c-0.698,0-1.396,0.289-2.006,1.05l-3.486,9.093h-3.746l3.355-8.876c0.043-0.181,0.086-0.326,0.086-0.435
			c0-0.58-0.521-0.833-0.915-0.833c-0.697,0-1.351,0.361-2.003,0.869l-3.53,9.274C125.735,28.458,122.032,28.458,122.032,28.458z"/>
	</g>
	<g>
		<path fill="#014386" d="M139.635,30.541c-2.529,0-4.409-1.668-4.633-4.032l-0.974,2.539c-0.244,0.638-0.857,1.059-1.54,1.059
			h-3.746c-0.542,0-1.049-0.266-1.357-0.712c-0.057-0.083-0.106-0.17-0.147-0.259c-0.265,0.588-0.852,0.971-1.504,0.971h-3.703
			c-0.54,0-1.046-0.265-1.355-0.708c-0.308-0.444-0.379-1.01-0.191-1.517l4.749-12.751c0.24-0.645,0.857-1.073,1.545-1.073h3.836
			c0.248,0,0.49,0.056,0.707,0.159c0.891-0.376,1.874-0.595,3.083-0.595c1.114,0,2.066,0.383,2.731,1.034
			c1.148-0.646,2.389-1.034,3.979-1.034c2.203,0,3.741,1.453,3.741,3.533c0,0.813-0.216,1.762-0.641,2.823l-1.595,4.065
			c0.519-0.331,1.127-0.827,1.491-1.123c0.32-0.26,0.624-0.508,0.905-0.716c0.5-0.37,1.167-0.426,1.723-0.146
			c0.556,0.281,0.906,0.85,0.906,1.473v1.957c0,0.49-0.218,0.955-0.596,1.269c-0.2,0.166-0.407,0.347-0.625,0.537
			C144.852,28.664,142.697,30.541,139.635,30.541z M139.54,17.169c0.589,0.424,1.004,1.102,1.004,1.979
			c0,0.28-0.056,0.509-0.101,0.693l-0.026,0.106c-0.017,0.077-0.04,0.151-0.068,0.224l-1.789,4.672
			c-0.257,0.642-0.283,1.042-0.283,1.186c0,1.002,0.738,1.212,1.357,1.212c0.153,0,0.304-0.009,0.453-0.027
			c-0.779-0.499-1.141-1.333-1.141-2.163c0-0.397,0.069-0.785,0.217-1.22l1.987-5.071c0.37-0.921,0.409-1.431,0.409-1.607
			c0-0.1-0.016-0.153-0.022-0.165c-0.014-0.008-0.148-0.07-0.42-0.07C140.518,16.921,140.013,17.004,139.54,17.169z M131.129,26.809
			h0.225l3.08-8.034c0.06-0.159,0.146-0.308,0.253-0.441c0.125-0.156,0.252-0.298,0.381-0.427c-0.131-0.229-0.209-0.49-0.219-0.764
			c-0.003-0.107-0.025-0.147-0.025-0.147c-0.018-0.014-0.147-0.075-0.418-0.075c-0.612,0-1.111,0.083-1.578,0.249
			c0.588,0.424,1.003,1.102,1.003,1.979c0,0.286-0.06,0.527-0.107,0.721l-0.023,0.092c-0.016,0.069-0.037,0.138-0.062,0.205
			L131.129,26.809z M124.406,26.809h0.192l3.125-8.211c0.107-0.282,0.29-0.529,0.527-0.714c0.151-0.118,0.321-0.244,0.507-0.368
			c-0.027-0.052-0.051-0.105-0.072-0.159h-0.759L124.406,26.809z"/>
	</g>
	<g>
		<path fill="#014386" d="M155.452,24.364c-0.087,0.253-0.132,0.47-0.132,0.689c0,0.58,0.35,0.977,1.263,0.977
			c1.352,0,2.964-1.63,4.14-2.499v1.957c-1.525,1.267-3.53,3.404-6.36,3.404c-1.047,0-1.918-0.434-2.439-1.194
			c-1.004,0.651-2.311,1.194-3.792,1.194c-2.093,0-3.66-1.521-3.66-3.985c0-4.745,4.88-9.637,8.756-9.637
			c0.655,0,1.265,0.111,1.7,0.436h3.922L155.452,24.364z M148.392,24.328c0,1.05,0.478,1.956,1.483,1.956
			c0.435,0,0.914-0.181,1.526-0.543c0.042-0.47,0.129-0.942,0.348-1.485l2.308-6.266c-0.261-0.145-0.565-0.254-0.914-0.254
			C150.136,17.735,148.392,22.264,148.392,24.328"/>
	</g>
	<g>
		<path fill="#014386" d="M154.363,30.541c-1.015,0-1.948-0.286-2.707-0.812c-1.141,0.534-2.34,0.812-3.524,0.812
			c-3.076,0-5.309-2.369-5.309-5.634c0-5.379,5.445-11.286,10.405-11.286c0.849,0,1.558,0.143,2.152,0.436h3.469
			c0.545,0,1.056,0.269,1.363,0.72c0.308,0.451,0.372,1.024,0.173,1.532l-3.034,7.733c0.519-0.331,1.126-0.826,1.488-1.122
			c0.319-0.26,0.623-0.508,0.904-0.715c0.5-0.371,1.168-0.426,1.723-0.146c0.556,0.28,0.907,0.85,0.907,1.473v1.957
			c0,0.49-0.218,0.955-0.595,1.268c-0.198,0.165-0.405,0.345-0.621,0.534C159.581,28.661,157.425,30.541,154.363,30.541z
			 M152.92,26.382c0.138,0.104,0.262,0.232,0.364,0.382c0.271,0.395,0.736,0.478,1.079,0.478c0.152,0,0.303-0.009,0.451-0.026
			c-0.78-0.499-1.143-1.334-1.143-2.163c0-0.399,0.071-0.79,0.223-1.228l2.537-6.469h-0.851c0.155,0.372,0.173,0.8,0.025,1.204
			l-2.308,6.267c-0.15,0.372-0.217,0.665-0.253,1.061C153.028,26.059,152.986,26.226,152.92,26.382z M147.582,20.704
			c-0.88,1.286-1.461,2.763-1.461,4.202c0,1.381,0.67,2.236,1.805,2.327c-0.74-0.635-1.184-1.66-1.184-2.906
			C146.743,23.333,147.028,22.004,147.582,20.704z M151.302,20.699c-0.701,1.027-1.185,2.438-1.252,3.406
			c0.05-0.156,0.107-0.312,0.171-0.469L151.302,20.699z"/>
	</g>
	<g>
		<path fill="#014386" d="M167.695,15.126c1.349,0,4.531,0.254,4.531,2.789c0,0.943-0.741,1.884-2.007,1.884
			c-0.477,0-1.391-0.327-1.391-1.232c0-0.76,0.739-1.232,1.174-1.232c-0.566-0.435-1.088-0.58-1.916-0.58
			c-1.177,0-2.004,0.725-2.004,1.739c0,2.029,4.008,2.97,4.008,6.014c0,2.354-2.484,4.382-6.186,4.382
			c-2.744,0-5.098-1.122-5.098-3.657c0-1.993,1.785-2.355,2.395-2.355c0.698,0,1.482,0.435,1.482,1.413
			c0,0.905-0.784,1.269-1.482,1.269c-0.088,0-0.218,0-0.303-0.037c0.303,1.16,1.48,1.305,2.352,1.305
			c1.439,0,3.007-1.014,3.007-2.029c0-2.245-3.79-3.007-3.79-5.688C162.466,16.865,164.775,15.126,167.695,15.126"/>
	</g>
	<g>
		<path fill="#014386" d="M163.903,30.541c-4.099,0-6.748-2.083-6.748-5.307c0-2.676,2.188-4.106,4.213-4
			c-0.333-0.598-0.553-1.296-0.553-2.123c0.001-3.16,3.023-5.634,6.88-5.634c3.87,0,6.18,1.659,6.18,4.438
			c0,1.619-1.189,3.29-3.204,3.509c0.61,0.811,1.067,1.81,1.067,3.085C171.739,27.947,168.37,30.541,163.903,30.541z
			 M166.984,22.351c0.527,0.652,0.92,1.44,0.92,2.447c0,0.482-0.129,0.935-0.354,1.349c0.579-0.479,0.89-1.063,0.89-1.638
			C168.44,23.73,167.897,23.145,166.984,22.351z M164.331,24.32c-0.002,0.196-0.021,0.385-0.057,0.567
			c0.128-0.073,0.232-0.15,0.301-0.218C164.532,24.566,164.444,24.447,164.331,24.32z M164.453,18.121
			c-0.217,0.301-0.338,0.636-0.338,0.99c0,0.524,0.385,0.948,1.198,1.65c-0.506-0.621-0.88-1.356-0.88-2.267
			C164.432,18.368,164.439,18.244,164.453,18.121z"/>
	</g>
	<g>
		<path fill="#014386" d="M129.078,17.862l10.209,0.316l-3,6.947c0,0-1.052-0.421-1.631,0.736c-0.579,1.158-7.053,3.788-7.053,3.788
			l-1.735,0.053l1.21-3.526L129.078,17.862z"/>
	</g>
	<g>
		<rect x="107.198" y="16.001" fill="#014386" width="3.731" height="4.463"/>
	</g>
	<g>
		<rect x="104.125" y="23.099" fill="#014386" width="4.391" height="3.805"/>
	</g>
	<g>
		<rect x="110.937" y="15.99" fill="#014386" width="15.191" height="9.767"/>
	</g>
	<g>
		<path fill="#FFFFFF" d="M58.773,25.886c1.351,0,4.836-0.725,6.797-2.354v1.956c-0.915,0.869-4.401,3.404-8.279,3.404
			c-5.142,0-7.801-2.933-7.801-7.498c0-6.304,5.448-17.787,14.076-17.787c3.05,0,5.14,2.029,5.14,4.889
			c0,2.5-2.57,5.399-5.577,5.399c-1.653,0-2.7-1.087-2.7-2.319c0-0.906,0.958-2.173,2.264-2.173c1.003,0,1.744,0.615,1.744,1.34
			c0,0.652-0.35,1.34-0.916,1.63c0.959,0,2.79-0.87,2.79-3.405c0-1.159-1.001-2.355-3.007-2.355c-4.357,0-9.542,7.86-9.542,13.73
			C53.763,22.952,55.07,25.886,58.773,25.886"/>
	</g>
	<g>
		<path fill="#014386" d="M57.293,29.098c-5.089,0-8.008-2.808-8.008-7.704c0-6.343,5.423-17.993,14.282-17.993
			c3.148,0,5.346,2.095,5.346,5.096c0,2.539-2.58,5.605-5.783,5.605c-1.657,0-2.906-1.086-2.906-2.525
			c0-1.078,1.102-2.379,2.471-2.379c1.094,0,1.95,0.679,1.95,1.546c0,0.467-0.161,0.929-0.426,1.288
			c0.859-0.314,1.887-1.205,1.887-3.063c0-1.035-0.877-2.149-2.801-2.149c-4.101,0-9.336,7.584-9.336,13.524
			c0,2.58,1.262,5.336,4.804,5.336c1.314,0,4.728-0.697,6.666-2.307l0.338-0.281v2.484l-0.064,0.061
			C64.7,26.6,61.212,29.098,57.293,29.098z M63.567,3.813c-3.745,0-7.332,2.286-10.102,6.438c-2.289,3.432-3.768,7.805-3.768,11.143
			c0,4.634,2.768,7.292,7.595,7.292c3.683,0,7.07-2.371,8.072-3.288v-1.446c-2.055,1.49-5.3,2.14-6.591,2.14
			c-3.851,0-5.217-3.097-5.217-5.749c0-6.729,5.721-13.936,9.748-13.936c2.11,0,3.214,1.288,3.214,2.561
			c0,2.728-2.019,3.611-2.996,3.611l-0.094-0.39c0.474-0.242,0.804-0.838,0.804-1.447c0-0.625-0.69-1.134-1.538-1.134
			c-1.194,0-2.058,1.175-2.058,1.967c0,1.204,1.072,2.113,2.494,2.113c2.893,0,5.371-2.855,5.371-5.193
			C68.501,5.739,66.472,3.813,63.567,3.813z"/>
	</g>
	<g>
		<path fill="#FFFFFF" d="M81.648,5.054c0,3.914-4.577,6.63-8.411,7.97l-1.524,3.985c1.394-1.014,2.613-1.738,4.574-1.738
			c1.222,0,2.092,0.651,2.092,1.883c0,0.58-0.175,1.34-0.524,2.209l-1.961,5c-0.086,0.253-0.131,0.47-0.131,0.689
			c0,0.579,0.35,0.977,1.264,0.977c1.352,0,2.964-1.629,4.14-2.499v1.956c-1.526,1.267-3.53,3.404-6.362,3.404
			c-1.7,0-3.007-1.05-3.007-2.861c0-0.506,0.131-1.123,0.393-1.775l1.787-4.672c0.044-0.181,0.087-0.326,0.087-0.435
			c0-0.58-0.522-0.833-0.915-0.833c-0.829,0-1.568,0.543-2.354,1.196l-3.398,8.947h-3.703L70.84,9.221
			c1.438-3.912,3.225-7.572,7.191-7.572C80.385,1.649,81.648,3.063,81.648,5.054 M78.901,5.635c0-0.543-0.262-1.015-0.957-1.015
			c-1.438,0-2.354,2.137-3.792,6.014C76.637,9.584,78.901,7.301,78.901,5.635"/>
	</g>
	<g>
		<path fill="#014386" d="M74.806,29.097c-1.922,0-3.214-1.233-3.214-3.068c0-0.546,0.141-1.187,0.407-1.852l1.806-4.757
			c0.029-0.114,0.054-0.213,0.054-0.273c0-0.457-0.434-0.627-0.708-0.627c-0.76,0-1.466,0.523-2.18,1.114l-3.43,9.029h-4.142
			L70.647,9.15c1.371-3.728,3.185-7.706,7.384-7.706c2.358,0,3.823,1.384,3.823,3.611c0,4.734-6.354,7.386-8.459,8.133l-1.247,3.261
			c1.15-0.786,2.345-1.383,4.139-1.383c1.418,0,2.298,0.801,2.298,2.09c0,0.618-0.186,1.408-0.539,2.286l-1.96,4.998
			c-0.08,0.236-0.117,0.428-0.117,0.613c0,0.331,0.11,0.771,1.058,0.771c0.978,0,2.141-0.949,3.168-1.786
			c0.3-0.244,0.586-0.477,0.85-0.672l0.329-0.243v2.461L81.3,25.646c-0.207,0.172-0.423,0.36-0.649,0.557
			C79.17,27.492,77.328,29.097,74.806,29.097z M73.151,18.108c0.543,0,1.121,0.364,1.121,1.039c0,0.111-0.031,0.233-0.066,0.374
			l-0.027,0.109l-1.795,4.698c-0.248,0.62-0.379,1.207-0.379,1.702c0,1.613,1.1,2.656,2.801,2.656c2.368,0,4.146-1.549,5.574-2.793
			c0.201-0.176,0.395-0.344,0.582-0.501v-1.442c-0.163,0.129-0.332,0.267-0.506,0.408c-1.08,0.881-2.304,1.878-3.429,1.878
			c-1.279,0-1.47-0.741-1.47-1.183c0-0.232,0.044-0.465,0.142-0.755l1.964-5.009c0.334-0.83,0.51-1.568,0.51-2.134
			c0-1.051-0.705-1.677-1.886-1.677c-1.959,0-3.176,0.769-4.453,1.699l-0.562,0.409l1.807-4.724l0.09-0.031
			c1.941-0.678,8.273-3.243,8.273-7.776c0-2.003-1.275-3.199-3.41-3.199c-3.934,0-5.675,3.839-6.997,7.437l-7.042,18.959h3.265
			l3.367-8.865l0.042-0.035C71.455,18.696,72.239,18.108,73.151,18.108z M73.793,11.009l0.166-0.447
			c1.414-3.812,2.363-6.149,3.985-6.149c0.718,0,1.163,0.468,1.163,1.221c0,1.696-2.232,4.072-4.875,5.189L73.793,11.009z
			 M77.944,4.826c-1.265,0-2.161,2.034-3.425,5.415c2.271-1.109,4.176-3.177,4.176-4.606C78.695,5.266,78.564,4.826,77.944,4.826z"
			/>
	</g>
	<g>
		<path fill="#FFFFFF" d="M78.989,28.458l4.749-12.751h3.832l-0.392,1.013c1.309-0.977,2.703-1.448,3.75-1.448
			c1.088,0,1.916,0.616,1.916,1.485c0,0.833-0.523,1.63-1.785,1.63c-0.566,0-1.134-0.219-1.352-0.651
			c-0.217,0.398-0.435,0.759-0.435,1.376c0,0.652,0.35,1.449,1.787,1.449c2.003,0,4.007-1.268,5.053-2.282v1.811
			c-1.308,1.376-3.354,2.898-6.012,2.898c-1.916,0-2.831-1.087-2.831-2.572c0-0.797,0.478-2.1,1.133-2.97
			c-1.7,1.304-2.964,3.877-3.835,6.122l-1.874,4.891H78.989z"/>
	</g>
	<g>
		<path fill="#014386" d="M82.834,28.664h-4.141l4.903-13.164h4.276l-0.26,0.671c1.108-0.7,2.311-1.106,3.317-1.106
			c1.23,0,2.122,0.711,2.122,1.691c0,0.847-0.521,1.837-1.992,1.837c-0.55,0-1.027-0.176-1.325-0.474
			c-0.146,0.284-0.256,0.571-0.256,0.993c0,0.567,0.274,1.243,1.581,1.243c1.806,0,3.767-1.117,4.909-2.224l0.35-0.339v2.38
			l-0.057,0.06c-1.284,1.351-3.395,2.962-6.162,2.962c-1.902,0-3.037-1.038-3.037-2.778c0-0.505,0.178-1.182,0.458-1.832
			c-0.975,1.146-1.901,2.84-2.762,5.059L82.834,28.664z M79.286,28.252h3.264l1.823-4.758c1.181-3.042,2.494-5.131,3.902-6.212
			l0.29,0.287c-0.612,0.813-1.092,2.064-1.092,2.846c0,1.504,0.957,2.366,2.625,2.366c2.58,0,4.573-1.494,5.806-2.774v-1.262
			c-1.158,0.994-2.993,2.022-4.846,2.022c-1.849,0-1.993-1.267-1.993-1.655c0-0.634,0.215-1.027,0.423-1.407l0.225-0.414
			l0.177,0.351c0.165,0.327,0.624,0.538,1.169,0.538c1.164,0,1.579-0.736,1.579-1.424c0-0.741-0.719-1.279-1.71-1.279
			c-1.091,0-2.447,0.526-3.626,1.407l-0.574,0.429l0.542-1.4h-3.388L79.286,28.252z"/>
	</g>
	<g>
		<path fill="#FFFFFF" d="M114.931,12.735h3.617l2.353-6.194h3.966l-2.396,6.194h4.054l-0.96,2.138h-3.923l-3.616,9.492
			c-0.087,0.253-0.131,0.47-0.131,0.689c0,0.579,0.35,0.977,1.263,0.977c1.528,0,3.355-1.159,5.057-2.499v1.956
			c-1.526,1.267-4.097,3.404-7.103,3.404c-2.09,0-3.223-1.087-3.223-2.825c0-0.651,0.173-1.375,0.478-2.173l3.399-9.021h-3.792
			L114.931,12.735z"/>
	</g>
	<g>
		<path fill="#014386" d="M117.111,29.098c-2.148,0-3.43-1.133-3.43-3.032c0-0.647,0.161-1.382,0.492-2.246l3.294-8.741h-3.812
			l1.143-2.551h3.609l2.352-6.194h4.409l-2.396,6.194h4.072l-1.145,2.551h-3.915l-3.566,9.358c-0.08,0.236-0.117,0.428-0.117,0.615
			c0,0.331,0.11,0.771,1.057,0.771c1.236,0,2.802-0.78,4.929-2.454l0.333-0.263v2.478l-0.074,0.062
			C122.788,26.94,120.189,29.098,117.111,29.098z M114.291,14.667h3.772l-3.504,9.3c-0.313,0.818-0.465,1.504-0.465,2.1
			c0,1.665,1.1,2.619,3.017,2.619c2.884,0,5.379-2.035,6.897-3.295v-1.439c-2.037,1.556-3.585,2.284-4.85,2.284
			c-1.278,0-1.469-0.741-1.469-1.183c0-0.235,0.043-0.467,0.142-0.755l3.67-9.631h3.931l0.775-1.726h-4.036l2.396-6.194h-3.522
			l-2.352,6.194h-3.626L114.291,14.667z"/>
	</g>
	<g>
		<path fill="#FFFFFF" d="M122.032,28.458l4.749-12.751h3.835l-0.393,1.05c1.265-0.906,2.396-1.485,4.183-1.485
			c1.22,0,2.049,0.652,2.091,1.812c1.395-1.087,2.658-1.812,4.619-1.812c1.221,0,2.091,0.652,2.091,1.883
			c0,0.581-0.174,1.34-0.523,2.21l-1.961,5c-0.086,0.253-0.129,0.47-0.129,0.689c0,0.579,0.346,0.977,1.262,0.977
			c1.351,0,2.964-1.63,4.141-2.499v1.957c-1.526,1.267-3.53,3.404-6.363,3.404c-1.7,0-3.007-1.05-3.007-2.861
			c0-0.506,0.131-1.123,0.393-1.775l1.789-4.672c0.041-0.181,0.086-0.326,0.086-0.435c0-0.58-0.522-0.833-0.915-0.833
			c-0.698,0-1.396,0.289-2.006,1.05l-3.486,9.093h-3.746l3.355-8.876c0.043-0.181,0.086-0.326,0.086-0.435
			c0-0.58-0.521-0.833-0.915-0.833c-0.697,0-1.351,0.361-2.003,0.869l-3.53,9.274C125.735,28.458,122.032,28.458,122.032,28.458z"/>
	</g>
	<g>
		<path fill="#014386" d="M139.635,29.098c-1.921,0-3.212-1.233-3.212-3.068c0-0.546,0.141-1.186,0.407-1.852l1.812-4.78
			c0.025-0.101,0.048-0.196,0.048-0.251c0-0.457-0.435-0.627-0.709-0.627c-0.698,0-1.313,0.319-1.825,0.948l-3.526,9.195h-4.186
			l3.48-9.238c0.028-0.116,0.053-0.216,0.053-0.277c0-0.46-0.424-0.627-0.709-0.627c-0.553,0-1.12,0.244-1.831,0.791l-3.56,9.352
			h-4.142l4.903-13.164h4.276l-0.269,0.717c1.111-0.72,2.202-1.152,3.762-1.152c1.227,0,2.061,0.616,2.256,1.633
			c1.356-1.014,2.617-1.633,4.454-1.633c1.417,0,2.298,0.801,2.298,2.09c0,0.619-0.186,1.41-0.537,2.287l-1.961,4.998
			c-0.078,0.231-0.114,0.422-0.114,0.613c0,0.331,0.11,0.771,1.056,0.771c0.977,0,2.141-0.949,3.167-1.786
			c0.3-0.245,0.586-0.478,0.85-0.673l0.329-0.243v2.462l-0.074,0.062c-0.209,0.172-0.425,0.361-0.652,0.558
			C143.999,27.494,142.157,29.098,139.635,29.098z M137.98,18.109c0.544,0,1.121,0.364,1.121,1.039c0,0.105-0.027,0.218-0.06,0.349
			l-0.031,0.131l-1.797,4.701c-0.248,0.62-0.378,1.208-0.378,1.702c0,1.613,1.099,2.656,2.8,2.656c2.368,0,4.145-1.548,5.573-2.792
			c0.202-0.176,0.396-0.345,0.584-0.503v-1.443c-0.163,0.129-0.333,0.267-0.507,0.409c-1.08,0.88-2.304,1.878-3.427,1.878
			c-1.277,0-1.468-0.741-1.468-1.183c0-0.235,0.044-0.474,0.14-0.755l1.964-5.009c0.333-0.83,0.508-1.568,0.508-2.134
			c0-1.051-0.705-1.677-1.885-1.677c-1.858,0-3.054,0.648-4.492,1.768l-0.318,0.248l-0.014-0.403
			c-0.036-1.01-0.741-1.613-1.885-1.613c-1.709,0-2.784,0.53-4.064,1.446l-0.551,0.395l0.527-1.406h-3.395l-4.595,12.339h3.264
			l3.499-9.195l0.046-0.035c0.81-0.631,1.467-0.913,2.13-0.913c0.544,0,1.121,0.364,1.121,1.039c0,0.111-0.031,0.234-0.065,0.376
			l-0.026,0.106l-3.258,8.622h3.307l3.467-9.016C136.413,18.488,137.141,18.109,137.98,18.109z"/>
	</g>
	<g>
		<path fill="#FFFFFF" d="M155.452,24.364c-0.087,0.253-0.132,0.47-0.132,0.689c0,0.58,0.35,0.977,1.263,0.977
			c1.352,0,2.964-1.63,4.14-2.499v1.957c-1.525,1.267-3.53,3.404-6.36,3.404c-1.047,0-1.918-0.434-2.439-1.194
			c-1.004,0.651-2.311,1.194-3.792,1.194c-2.093,0-3.66-1.521-3.66-3.985c0-4.745,4.88-9.637,8.756-9.637
			c0.655,0,1.265,0.111,1.7,0.436h3.922L155.452,24.364z M148.392,24.328c0,1.05,0.478,1.956,1.483,1.956
			c0.435,0,0.914-0.181,1.526-0.543c0.042-0.47,0.129-0.942,0.348-1.485l2.308-6.266c-0.261-0.145-0.565-0.254-0.914-0.254
			C150.136,17.735,148.392,22.264,148.392,24.328"/>
	</g>
	<g>
		<path fill="#014386" d="M154.363,29.097c-1.041,0-1.917-0.397-2.492-1.123c-0.868,0.535-2.178,1.123-3.739,1.123
			c-2.277,0-3.866-1.723-3.866-4.191c0-4.207,4.431-9.843,8.962-9.843c0.763,0,1.342,0.143,1.766,0.436h4.157l-3.507,8.939
			c-0.081,0.233-0.118,0.425-0.118,0.613c0,0.331,0.11,0.771,1.057,0.771c0.978,0,2.141-0.949,3.167-1.786
			c0.3-0.244,0.585-0.478,0.85-0.673l0.329-0.243v2.462l-0.074,0.062c-0.207,0.172-0.422,0.359-0.647,0.555
			C158.728,27.492,156.884,29.097,154.363,29.097z M151.98,27.415l0.114,0.166c0.488,0.712,1.294,1.104,2.269,1.104
			c2.368,0,4.146-1.55,5.574-2.795c0.201-0.175,0.394-0.343,0.58-0.499v-1.442c-0.163,0.128-0.332,0.266-0.505,0.408
			c-1.08,0.881-2.303,1.879-3.428,1.879c-1.279,0-1.47-0.741-1.47-1.183c0-0.234,0.046-0.474,0.143-0.756l3.29-8.384h-3.688
			l-0.056-0.041c-0.349-0.262-0.879-0.395-1.575-0.395c-3.654,0-8.55,4.662-8.55,9.431c0,2.26,1.388,3.779,3.454,3.779
			c1.561,0,2.863-0.631,3.679-1.161L151.98,27.415z M149.875,26.49c-1.026,0-1.689-0.849-1.689-2.162
			c0-0.99,0.395-2.665,1.276-4.174c0.988-1.693,2.295-2.625,3.68-2.625c0.343,0,0.675,0.091,1.014,0.28l0.155,0.086l-2.369,6.432
			c-0.237,0.586-0.304,1.073-0.336,1.432l-0.01,0.105l-0.091,0.054C150.836,26.313,150.334,26.49,149.875,26.49z M153.143,17.941
			c-2.952,0-4.544,4.533-4.544,6.387c0,0.846,0.335,1.75,1.276,1.75c0.362,0,0.775-0.143,1.331-0.462
			c0.055-0.529,0.165-0.976,0.352-1.437l2.242-6.088C153.578,17.989,153.363,17.941,153.143,17.941z"/>
	</g>
	<g>
		<path fill="#FFFFFF" d="M167.695,15.126c1.349,0,4.531,0.254,4.531,2.789c0,0.943-0.741,1.884-2.007,1.884
			c-0.477,0-1.391-0.327-1.391-1.232c0-0.76,0.739-1.232,1.174-1.232c-0.566-0.435-1.088-0.58-1.916-0.58
			c-1.177,0-2.004,0.725-2.004,1.739c0,2.029,4.008,2.97,4.008,6.014c0,2.354-2.484,4.382-6.186,4.382
			c-2.744,0-5.098-1.122-5.098-3.657c0-1.993,1.785-2.355,2.395-2.355c0.698,0,1.482,0.435,1.482,1.413
			c0,0.905-0.784,1.269-1.482,1.269c-0.088,0-0.218,0-0.303-0.037c0.303,1.16,1.48,1.305,2.352,1.305
			c1.439,0,3.007-1.014,3.007-2.029c0-2.245-3.79-3.007-3.79-5.688C162.466,16.865,164.775,15.126,167.695,15.126"/>
	</g>
	<g>
		<path fill="#014386" d="M163.903,29.097c-3.272,0-5.305-1.481-5.305-3.863c0-2.101,1.878-2.561,2.601-2.561
			c0.839,0,1.688,0.556,1.688,1.619c0,1.011-0.871,1.473-1.682,1.475c0.291,0.582,0.95,0.855,2.042,0.855
			c1.335,0,2.801-0.954,2.801-1.824c0-0.977-0.824-1.676-1.696-2.416c-0.982-0.832-2.094-1.776-2.094-3.271
			c0.001-2.35,2.389-4.191,5.437-4.191c1.425,0,4.737,0.292,4.737,2.995c0,1.013-0.776,2.09-2.214,2.09
			c-0.663,0-1.597-0.446-1.597-1.438c0-0.626,0.435-1.099,0.884-1.313c-0.391-0.212-0.809-0.293-1.421-0.293
			c-1.058,0-1.797,0.631-1.797,1.533c0,0.817,0.755,1.462,1.629,2.21c1.115,0.953,2.379,2.033,2.379,3.804
			C170.296,27.125,167.547,29.097,163.903,29.097z M161.2,23.085c-0.022,0-2.189,0.025-2.189,2.149c0,2.544,2.527,3.451,4.892,3.451
			c3.41,0,5.98-1.795,5.98-4.176c0-1.581-1.136-2.552-2.235-3.491c-0.912-0.78-1.773-1.516-1.773-2.523
			c0-1.127,0.929-1.946,2.21-1.946c0.9,0,1.453,0.169,2.042,0.623l0.48,0.37h-0.606c-0.341,0-0.968,0.389-0.968,1.026
			c0,0.767,0.813,1.026,1.185,1.026c1.17,0,1.801-0.864,1.801-1.678c0-2.331-3.024-2.583-4.324-2.583
			c-2.817,0-5.024,1.66-5.024,3.779c0,1.304,0.991,2.145,1.948,2.957c0.905,0.768,1.842,1.562,1.842,2.731
			c0,1.108-1.622,2.236-3.213,2.236c-0.536,0-2.169,0-2.551-1.458l-0.106-0.408l0.387,0.167c0.048,0.02,0.161,0.02,0.222,0.02
			c0.589,0,1.276-0.278,1.276-1.063C162.476,23.463,161.814,23.085,161.2,23.085z"/>
	</g>
	<g>
		<rect x="68.639" y="38.256" fill="#014386" width="15.138" height="13.059"/>
	</g>
	<g>
		<rect x="121.75" y="39.587" fill="#014386" width="6.157" height="12.793"/>
	</g>
	<g>
		<rect x="168.96" y="40.655" fill="#014386" width="4.104" height="3.73"/>
	</g>
	<g>
		<rect x="184.61" y="44.385" fill="#014386" width="6.159" height="6.663"/>
	</g>
	<g>
		<rect x="87.111" y="44.385" fill="#014386" width="6.158" height="6.663"/>
	</g>
	<g>
		<path fill="#FFFFFF" d="M40.886,31.988l1.67,2.141l-7.818,6.496l-1.457-1.882c0.534-0.406,0.853-1.255,0.853-1.919
			c0-1.735-0.745-3.175-2.558-3.175c-2.594,0-3.056,3.432-3.056,5.462c0,7.307,3.482,11.772,7.107,11.772
			c2.772,0,4.264-1.144,6.148-3.1l1.812,1.882c-2.843,4.171-5.933,6.864-11.086,6.864c-6.04,0-11.655-3.543-11.655-11.884
			s6.041-14.504,13.183-14.504c2.274,0,4.016,1.218,5.757,2.621L40.886,31.988z"/>
	</g>
	<g>
		<path fill="#FFFFFF" d="M62.615,45.074c0,5.511-3.345,9.853-9.539,9.853c-5.306,0-8.965-4.098-8.965-9.553
			c0-5.51,3.346-9.853,9.539-9.853C58.956,35.52,62.615,39.619,62.615,45.074 M52.344,38.1c-1.777,0-2.588,0.922-2.588,4.695
			c0,4.37,1.908,9.553,4.626,9.553c1.777,0,2.588-0.923,2.588-4.695C56.97,43.283,55.062,38.1,52.344,38.1"/>
	</g>
	<g>
		<path fill="#FFFFFF" d="M74.376,53.054c-0.601,0.896-2.718,1.873-4.913,1.873c-3.894,0-5.175-2.605-5.175-6.242V38.072h-1.202
			v-2.117h6.847v12.811c0,2.144,0.471,2.959,2.196,2.959c1.724,0,2.222-0.815,2.222-2.959V38.072H73.2v-2.117h6.795v16.42h1.176
			v2.117h-6.402L74.376,53.054z"/>
	</g>
	<g>
		<polygon fill="#FFFFFF" points="83,54.493 83,52.375 84.072,52.375 84.072,38.071 83,38.071 83,35.956 88.959,35.956 
			95.231,45.102 95.284,45.102 95.284,38.071 93.951,38.071 93.951,35.956 99.152,35.956 99.152,38.071 97.949,38.071 
			97.949,54.493 94.552,54.493 86.79,42.388 86.738,42.388 86.738,52.375 88.253,52.375 88.253,54.493 		"/>
	</g>
	<g>
		<path fill="#FFFFFF" d="M103.673,54.493v-2.117h1.672V38.451c-1.881,0-2.457,0.869-2.77,2.633h-1.882l0.366-5.564h1.987v0.435
			h10.244V35.52h1.986l0.366,5.564h-1.882c-0.313-1.765-0.888-2.633-2.77-2.633v13.924h1.62v2.117L103.673,54.493L103.673,54.493z"
			/>
	</g>
	<g>
		<path fill="#FFFFFF" d="M117.787,38.072h-1.202v-2.117h7.447c5.542,0,9.435,3.311,9.435,9.228c0,6.188-3.632,9.309-9.33,9.309
			h-7.682v-2.117h1.333L117.787,38.072L117.787,38.072z M123.431,52.375c3.79,0,4.391-4.207,4.391-7.301
			c0-3.609-0.628-7.001-4.391-7.001V52.375z"/>
	</g>
	<g>
		<path fill="#FFFFFF" d="M153.382,45.074c0,5.511-3.346,9.853-9.539,9.853c-5.306,0-8.964-4.098-8.964-9.553
			c0-5.51,3.346-9.853,9.539-9.853C149.723,35.52,153.382,39.619,153.382,45.074 M143.111,38.1c-1.777,0-2.588,0.922-2.588,4.695
			c0,4.37,1.907,9.553,4.625,9.553c1.777,0,2.588-0.923,2.588-4.695C147.737,43.283,145.829,38.1,143.111,38.1"/>
	</g>
	<g>
		<path fill="#FFFFFF" d="M169.35,40.596c1.019-2.09,2.222-5.075,4.835-5.075c0.863,0,1.672,0.597,2.588,0.597
			c0.288,0,0.575-0.026,0.863-0.19l0.863,0.923l-5.776,17.642h-4.809l-2.065-7.057h-0.051l-1.987,7.057h-4.808l-5.044-16.421h-0.863
			v-2.116h7.423v2.116h-0.784l3.189,10.884h0.052l1.672-5.103l-1.856-5.782h-0.862v-2.116h7.37v2.116h-0.731L169.35,40.596z
			 M174.551,40.678c-0.915,0-1.776-0.543-2.692-0.543c-1.15,0-2.012,0.978-2.012,2.09c0,0.136,0.105,0.489,0.183,0.788l1.777,6.079
			h0.052L174.551,40.678z"/>
	</g>
	<g>
		<polygon fill="#FFFFFF" points="179.569,54.493 179.569,52.375 180.641,52.375 180.641,38.071 179.569,38.071 179.569,35.956 
			185.529,35.956 191.8,45.102 191.853,45.102 191.853,38.071 190.52,38.071 190.52,35.956 195.721,35.956 195.721,38.071 
			194.518,38.071 194.518,54.493 191.122,54.493 183.359,42.388 183.307,42.388 183.307,52.375 184.822,52.375 184.822,54.493 		"/>
	</g>
	<g>
		<polygon fill="#014386" points="104.968,24.829 99.01,24.828 99.01,16.931 104.968,18.486 		"/>
	</g>
	<g>
		<path fill="#014386" d="M104.968,26.478C104.968,26.478,104.968,26.478,104.968,26.478l-5.958-0.001
			c-0.91,0-1.649-0.738-1.649-1.649V16.93c0-0.511,0.237-0.993,0.641-1.305c0.405-0.312,0.931-0.419,1.425-0.29l5.958,1.555
			c0.726,0.19,1.233,0.845,1.233,1.596v6.343c0,0.437-0.174,0.857-0.483,1.166C105.825,26.305,105.405,26.478,104.968,26.478z
			 M100.659,23.179h2.66V19.76l-2.66-0.694V23.179z"/>
	</g>
	<g>
		<path fill="#FFFFFF" d="M99.683,9.222c1.484,0,2.616,0.942,2.616,2.174c0,1.339-1.439,2.426-2.964,2.426
			c-1.437,0-2.57-0.904-2.57-2.101C96.764,10.526,97.897,9.222,99.683,9.222 M97.07,24.364c-0.087,0.253-0.13,0.47-0.13,0.689
			c0,0.58,0.348,0.977,1.263,0.977c1.35,0,2.964-1.629,4.14-2.499v1.956c-1.526,1.267-3.531,3.404-6.362,3.404
			c-1.656,0-2.961-1.086-2.961-2.932c0-0.508,0.13-1.089,0.347-1.704l3.18-8.549h3.922L97.07,24.364z"/>
	</g>
	<g>
		<path fill="#014386" d="M95.98,29.097c-1.865,0-3.167-1.291-3.167-3.139c0-0.5,0.121-1.096,0.359-1.772l3.231-8.687h4.368
			l-3.509,8.939c-0.08,0.233-0.116,0.425-0.116,0.613c0,0.331,0.11,0.771,1.057,0.771c0.976,0,2.141-0.949,3.168-1.787
			c0.3-0.244,0.585-0.477,0.849-0.672l0.329-0.243v2.461l-0.074,0.062c-0.207,0.172-0.423,0.36-0.649,0.557
			C100.344,27.492,98.502,29.097,95.98,29.097z M96.689,15.912l-3.13,8.415c-0.221,0.629-0.334,1.179-0.334,1.632
			c0,1.631,1.107,2.726,2.755,2.726c2.367,0,4.145-1.549,5.574-2.793c0.201-0.176,0.395-0.344,0.582-0.501v-1.442
			c-0.162,0.128-0.331,0.266-0.505,0.407c-1.081,0.881-2.306,1.879-3.429,1.879c-1.279,0-1.47-0.741-1.47-1.183
			c0-0.233,0.045-0.473,0.142-0.755l3.291-8.385H96.689z M99.335,14.028c-1.557,0-2.777-1.013-2.777-2.308
			c0-0.664,0.311-1.338,0.854-1.847c0.589-0.553,1.395-0.857,2.271-0.857c1.609,0,2.822,1.023,2.822,2.38
			C102.505,12.798,101.024,14.028,99.335,14.028z M99.683,9.428c-0.77,0-1.476,0.265-1.988,0.745
			c-0.461,0.432-0.724,0.996-0.724,1.547c0,1.063,1.038,1.895,2.364,1.895c1.469,0,2.757-1.038,2.757-2.22
			C102.092,10.274,101.056,9.428,99.683,9.428z"/>
	</g>
	<g>
		<path fill="#FFFFFF" d="M109.312,15.126c1.352,0,4.53,0.254,4.53,2.789c0,0.943-0.739,1.884-2.004,1.884
			c-0.48,0-1.393-0.327-1.393-1.232c0-0.76,0.743-1.232,1.176-1.232c-0.567-0.435-1.087-0.58-1.917-0.58
			c-1.175,0-2.004,0.725-2.004,1.739c0,2.029,4.009,2.971,4.009,6.014c0,2.354-2.484,4.382-6.187,4.382
			c-2.746,0-5.099-1.122-5.099-3.657c0-1.993,1.786-2.355,2.396-2.355c0.697,0,1.48,0.435,1.48,1.413
			c0,0.905-0.783,1.269-1.48,1.269c-0.087,0-0.217,0-0.305-0.037c0.305,1.16,1.482,1.305,2.354,1.305
			c1.439,0,3.004-1.014,3.004-2.029c0-2.245-3.79-3.007-3.79-5.688C104.081,16.865,106.392,15.126,109.312,15.126"/>
	</g>
	<g>
		<path fill="#014386" d="M105.522,29.097c-3.272,0-5.305-1.481-5.305-3.863c0-2.101,1.879-2.561,2.603-2.561
			c0.838,0,1.686,0.556,1.686,1.619c0,1.012-0.871,1.474-1.682,1.475c0.292,0.582,0.951,0.855,2.044,0.855
			c1.334,0,2.798-0.954,2.798-1.824c0-0.977-0.824-1.676-1.696-2.416c-0.981-0.832-2.094-1.776-2.094-3.271
			c0-1.15,0.568-2.214,1.601-2.999c1.013-0.769,2.375-1.192,3.835-1.192c1.424,0,4.736,0.292,4.736,2.995
			c0,1.013-0.775,2.09-2.211,2.09c-0.664,0-1.599-0.446-1.599-1.438c0-0.626,0.436-1.099,0.885-1.313
			c-0.392-0.212-0.809-0.293-1.421-0.293c-1.058,0-1.797,0.631-1.797,1.533c0,0.817,0.755,1.463,1.63,2.21
			c1.115,0.953,2.38,2.034,2.38,3.804C111.916,27.125,109.167,29.097,105.522,29.097z M102.82,23.085
			c-0.022,0-2.19,0.025-2.19,2.149c0,2.544,2.527,3.451,4.893,3.451c3.41,0,5.981-1.795,5.981-4.176c0-1.58-1.136-2.551-2.236-3.49
			c-0.912-0.78-1.774-1.516-1.774-2.524c0-1.127,0.929-1.946,2.21-1.946c0.897,0,1.451,0.169,2.043,0.623l0.482,0.37h-0.608
			c-0.333,0-0.97,0.399-0.97,1.026c0,0.767,0.815,1.026,1.186,1.026c1.168,0,1.798-0.864,1.798-1.678
			c0-2.331-3.024-2.583-4.324-2.583c-1.371,0-2.644,0.394-3.586,1.109c-0.928,0.704-1.439,1.652-1.438,2.67
			c0,1.304,0.991,2.145,1.948,2.957c0.906,0.768,1.842,1.562,1.842,2.731c0,1.108-1.62,2.236-3.21,2.236
			c-0.536,0-2.169,0-2.553-1.458l-0.106-0.404l0.385,0.162c0.05,0.021,0.164,0.021,0.225,0.021c0.588,0,1.274-0.278,1.274-1.063
			C104.094,23.463,103.434,23.085,102.82,23.085z"/>
	</g>
</g>
<g>
	<path fill="#FFEE56" d="M64.516,62.442h2.976c-0.184,0.184-0.308,0.334-0.372,0.45c-0.064,0.115-0.096,0.254-0.096,0.414
		c0,0.048,0,0.088,0,0.119c0,0.032,0.004,0.078,0.012,0.139c0.008,0.06,0.016,0.144,0.024,0.252
		c0.008,0.107,0.024,0.254,0.048,0.438l0.552,4.729c0.04,0.464,0.11,0.83,0.21,1.098c0.1,0.269,0.253,0.502,0.462,0.702h-3.288
		c0.152-0.176,0.258-0.334,0.318-0.474c0.06-0.141,0.09-0.298,0.09-0.475c0-0.063-0.004-0.142-0.012-0.233
		c-0.008-0.092-0.02-0.198-0.036-0.318l-0.444-3.888l-1.656,5.531c-0.312-0.151-0.566-0.289-0.762-0.413
		c-0.196-0.124-0.362-0.257-0.498-0.396c-0.136-0.14-0.252-0.304-0.348-0.492c-0.096-0.188-0.196-0.426-0.3-0.714l-1.344-3.516
		l-0.384,3.731c-0.016,0.137-0.026,0.24-0.03,0.312c-0.004,0.071-0.008,0.128-0.012,0.168c-0.004,0.04-0.006,0.074-0.006,0.102
		c0,0.028,0,0.062,0,0.103c0,0.208,0.042,0.388,0.126,0.54c0.084,0.151,0.229,0.296,0.438,0.432h-2.496
		c0.104-0.104,0.192-0.204,0.264-0.3c0.072-0.097,0.132-0.206,0.18-0.33s0.086-0.266,0.114-0.426c0.028-0.16,0.054-0.36,0.078-0.601
		l0.588-4.872c0.016-0.168,0.028-0.3,0.036-0.396s0.012-0.185,0.012-0.265c0-0.231-0.038-0.438-0.114-0.617
		c-0.076-0.181-0.202-0.358-0.378-0.534h2.652l1.92,4.884L64.516,62.442z"/>
	<path fill="#FFEE56" d="M73.719,62.442l2.448,6.66c0.08,0.224,0.152,0.41,0.216,0.558c0.064,0.148,0.132,0.282,0.204,0.402
		c0.072,0.12,0.156,0.233,0.252,0.342s0.216,0.234,0.36,0.378h-3.66c0.2-0.16,0.336-0.294,0.408-0.402
		c0.072-0.107,0.108-0.229,0.108-0.365c0-0.088-0.012-0.185-0.036-0.288c-0.024-0.104-0.072-0.26-0.144-0.469L73.54,68.25h-2.52
		l-0.348,1.008c-0.072,0.192-0.122,0.349-0.15,0.469c-0.028,0.12-0.042,0.224-0.042,0.312c0,0.128,0.028,0.236,0.084,0.324
		c0.056,0.088,0.184,0.228,0.384,0.42h-2.604c0.136-0.144,0.248-0.27,0.336-0.378s0.166-0.222,0.234-0.342
		c0.068-0.12,0.132-0.26,0.192-0.42s0.13-0.364,0.21-0.612l1.704-4.956c0.056-0.16,0.1-0.288,0.132-0.384
		c0.032-0.097,0.056-0.174,0.072-0.234c0.016-0.06,0.026-0.107,0.03-0.144c0.004-0.036,0.006-0.074,0.006-0.114
		c0-0.136-0.034-0.258-0.102-0.366c-0.068-0.107-0.194-0.237-0.378-0.39H73.719z M72.231,64.566l-0.84,2.508h1.728L72.231,64.566z"
		/>
	<path fill="#FFEE56" d="M81.099,69.09c0,0.209,0.01,0.393,0.03,0.553s0.05,0.306,0.09,0.438s0.096,0.254,0.168,0.366
		c0.072,0.112,0.164,0.224,0.276,0.336h-3.42c0.12-0.088,0.214-0.174,0.282-0.258c0.068-0.084,0.122-0.185,0.162-0.3
		c0.04-0.116,0.066-0.261,0.078-0.433c0.012-0.172,0.018-0.394,0.018-0.666V63.87c-0.184-0.032-0.388-0.048-0.612-0.048
		c-0.16,0-0.302,0.008-0.426,0.024c-0.124,0.016-0.242,0.044-0.354,0.084c-0.112,0.04-0.23,0.094-0.354,0.161
		c-0.124,0.068-0.266,0.158-0.426,0.271l0.492-1.956l0.204,0.012l1.344,0.024h2.664c0.408,0,0.728,0,0.96,0
		c0.232,0,0.416-0.002,0.552-0.006c0.136-0.004,0.242-0.013,0.318-0.024c0.076-0.012,0.162-0.025,0.258-0.042l-0.432,1.992
		c-0.112-0.216-0.25-0.364-0.414-0.444s-0.406-0.12-0.726-0.12c-0.249,0-0.492,0.024-0.732,0.072V69.09z"/>
	<path fill="#FFEE56" d="M90.795,70.639c-0.392,0.111-0.772,0.191-1.14,0.239s-0.808,0.072-1.32,0.072
		c-0.312,0-0.6-0.014-0.864-0.042c-0.264-0.028-0.51-0.072-0.738-0.132c-0.228-0.061-0.446-0.138-0.654-0.234
		c-0.208-0.096-0.417-0.212-0.624-0.348c-0.624-0.408-1.108-0.924-1.452-1.548c-0.344-0.624-0.516-1.309-0.516-2.053
		c0-0.647,0.134-1.262,0.402-1.842s0.638-1.062,1.11-1.445c0.416-0.336,0.918-0.593,1.506-0.769s1.218-0.264,1.89-0.264
		c0.304,0,0.612,0.014,0.924,0.042s0.62,0.07,0.924,0.126l0.096,1.764c-0.36-0.231-0.698-0.397-1.014-0.498
		c-0.316-0.1-0.658-0.149-1.026-0.149c-0.728,0-1.282,0.248-1.662,0.743c-0.38,0.497-0.57,1.217-0.57,2.16
		c0,0.496,0.064,0.94,0.192,1.332c0.128,0.393,0.31,0.729,0.546,1.008c0.236,0.28,0.522,0.494,0.858,0.643
		c0.336,0.148,0.716,0.222,1.14,0.222c0.2,0,0.396-0.014,0.588-0.042c0.192-0.027,0.39-0.072,0.594-0.132s0.424-0.14,0.66-0.24
		c0.236-0.1,0.498-0.222,0.786-0.366L90.795,70.639z"/>
	<path fill="#FFEE56" d="M94.683,69.126c0,0.265,0.006,0.482,0.018,0.654c0.012,0.172,0.036,0.318,0.072,0.438
		c0.036,0.12,0.09,0.223,0.162,0.307c0.072,0.084,0.164,0.17,0.276,0.258h-3.384c0.12-0.088,0.214-0.172,0.282-0.252
		s0.122-0.18,0.162-0.3s0.066-0.267,0.078-0.438c0.012-0.172,0.018-0.394,0.018-0.666v-5.027c0-0.192-0.002-0.351-0.006-0.475
		s-0.012-0.229-0.024-0.317s-0.026-0.16-0.042-0.217c-0.016-0.056-0.04-0.115-0.072-0.18c-0.048-0.112-0.1-0.198-0.156-0.258
		c-0.056-0.061-0.136-0.13-0.24-0.21h3.384c-0.112,0.088-0.2,0.174-0.264,0.258s-0.12,0.19-0.168,0.318
		c-0.024,0.048-0.042,0.1-0.054,0.155c-0.012,0.057-0.021,0.125-0.024,0.204c-0.004,0.08-0.008,0.179-0.012,0.294
		c-0.004,0.116-0.006,0.259-0.006,0.427v1.596h2.184v-1.596c0-0.192-0.002-0.351-0.006-0.475s-0.012-0.228-0.024-0.312
		s-0.026-0.156-0.042-0.216c-0.016-0.061-0.04-0.122-0.072-0.187c-0.048-0.112-0.1-0.198-0.156-0.258
		c-0.056-0.061-0.136-0.13-0.24-0.21h3.396c-0.112,0.088-0.202,0.174-0.27,0.258c-0.068,0.084-0.126,0.19-0.174,0.318
		c-0.024,0.048-0.042,0.098-0.054,0.149c-0.012,0.053-0.021,0.118-0.024,0.198s-0.008,0.178-0.012,0.294
		c-0.004,0.116-0.006,0.262-0.006,0.438v5.027c0,0.2,0.001,0.362,0.006,0.486c0.004,0.124,0.01,0.228,0.018,0.312
		c0.008,0.084,0.022,0.154,0.042,0.21c0.02,0.057,0.046,0.116,0.078,0.181c0.048,0.104,0.1,0.188,0.156,0.252
		c0.056,0.063,0.136,0.136,0.24,0.216h-3.396c0.12-0.088,0.214-0.174,0.282-0.258s0.122-0.185,0.162-0.3
		c0.04-0.116,0.066-0.263,0.078-0.438c0.012-0.176,0.018-0.396,0.018-0.66v-2.147h-2.184V69.126z"/>
	<path fill="#FFEE56" d="M107.966,62.442l2.448,6.66c0.08,0.224,0.152,0.41,0.217,0.558c0.064,0.148,0.131,0.282,0.203,0.402
		s0.156,0.233,0.252,0.342s0.217,0.234,0.361,0.378h-3.661c0.2-0.16,0.336-0.294,0.408-0.402c0.072-0.107,0.108-0.229,0.108-0.365
		c0-0.088-0.012-0.185-0.036-0.288c-0.024-0.104-0.072-0.26-0.144-0.469l-0.336-1.008h-2.52l-0.348,1.008
		c-0.072,0.192-0.122,0.349-0.15,0.469c-0.028,0.12-0.042,0.224-0.042,0.312c0,0.128,0.028,0.236,0.084,0.324
		c0.056,0.088,0.184,0.228,0.384,0.42h-2.604c0.136-0.144,0.248-0.27,0.336-0.378s0.166-0.222,0.234-0.342
		c0.068-0.12,0.132-0.26,0.192-0.42s0.13-0.364,0.21-0.612l1.704-4.956c0.056-0.16,0.1-0.288,0.132-0.384
		c0.032-0.097,0.056-0.174,0.072-0.234c0.016-0.06,0.026-0.107,0.03-0.144c0.004-0.036,0.006-0.074,0.006-0.114
		c0-0.136-0.034-0.258-0.102-0.366c-0.068-0.107-0.194-0.237-0.378-0.39H107.966z M106.479,64.566l-0.84,2.508h1.728L106.479,64.566
		z"/>
	<path fill="#FFEE56" d="M111.639,70.782c0.208-0.224,0.354-0.458,0.438-0.702s0.126-0.574,0.126-0.99v-4.68
		c0-0.24-0.01-0.446-0.03-0.618c-0.02-0.172-0.058-0.33-0.113-0.474c-0.057-0.145-0.131-0.284-0.223-0.42s-0.214-0.288-0.365-0.456
		h2.604l3.937,5.208v-3.517c0-0.216-0.009-0.403-0.024-0.563c-0.017-0.16-0.046-0.304-0.09-0.432s-0.103-0.246-0.174-0.354
		c-0.072-0.108-0.164-0.222-0.276-0.342h2.424c-0.112,0.112-0.204,0.224-0.275,0.336c-0.072,0.112-0.129,0.234-0.168,0.366
		c-0.041,0.132-0.07,0.277-0.091,0.438c-0.02,0.16-0.029,0.345-0.029,0.552v6.9c-0.688-0.136-1.296-0.378-1.824-0.726
		c-0.528-0.349-0.996-0.818-1.404-1.41l-2.567-3.396v3.588c0,0.209,0.01,0.393,0.029,0.553c0.021,0.16,0.05,0.304,0.09,0.432
		s0.097,0.248,0.168,0.36c0.072,0.111,0.164,0.228,0.276,0.348H111.639z"/>
	<path fill="#FFEE56" d="M123.626,62.442c0.504,0,0.93,0.01,1.277,0.03c0.349,0.02,0.652,0.058,0.912,0.113
		c0.26,0.057,0.49,0.131,0.69,0.223s0.403,0.214,0.612,0.365c0.527,0.385,0.938,0.875,1.229,1.471s0.438,1.254,0.438,1.974
		c0,0.416-0.051,0.814-0.15,1.194c-0.101,0.38-0.242,0.731-0.426,1.056c-0.185,0.324-0.408,0.614-0.672,0.87
		c-0.265,0.256-0.561,0.464-0.889,0.624c-0.168,0.088-0.338,0.158-0.51,0.21s-0.366,0.094-0.582,0.126s-0.466,0.054-0.75,0.066
		c-0.284,0.012-0.622,0.018-1.014,0.018h-3.024c0.12-0.088,0.214-0.172,0.282-0.252s0.122-0.18,0.162-0.3s0.065-0.267,0.078-0.438
		c0.012-0.172,0.018-0.394,0.018-0.666v-4.979c0-0.208-0.002-0.378-0.006-0.511c-0.004-0.132-0.012-0.239-0.024-0.323
		c-0.012-0.084-0.025-0.156-0.042-0.216c-0.016-0.061-0.04-0.122-0.071-0.187c-0.048-0.112-0.101-0.198-0.156-0.258
		c-0.056-0.061-0.136-0.13-0.24-0.21H123.626z M123.626,69.391c0.12,0.04,0.231,0.067,0.336,0.084
		c0.104,0.016,0.224,0.023,0.359,0.023c0.376,0,0.683-0.058,0.919-0.174c0.235-0.116,0.441-0.313,0.617-0.594
		c0.344-0.536,0.517-1.229,0.517-2.076c0-0.448-0.047-0.854-0.139-1.218s-0.226-0.674-0.401-0.931
		c-0.177-0.256-0.387-0.453-0.63-0.594c-0.244-0.14-0.519-0.21-0.822-0.21c-0.112,0-0.225,0.006-0.336,0.019
		c-0.112,0.012-0.252,0.037-0.42,0.077V69.391z"/>
	<path fill="#FFEE56" d="M139.573,62.442c-0.031,0.112-0.054,0.198-0.065,0.258c-0.013,0.06-0.019,0.122-0.019,0.186
		c0,0.097,0.015,0.213,0.042,0.349c0.028,0.136,0.074,0.312,0.139,0.528l1.38,4.5l1.248-4.068c0.063-0.192,0.104-0.334,0.12-0.426
		c0.016-0.092,0.023-0.183,0.023-0.271c0-0.208-0.044-0.396-0.132-0.563s-0.232-0.332-0.432-0.492h2.472l-2.808,8.544
		c-0.4-0.072-0.746-0.168-1.038-0.288s-0.546-0.27-0.763-0.45c-0.216-0.18-0.396-0.397-0.54-0.654
		c-0.144-0.256-0.264-0.556-0.359-0.899l-0.816-2.736l-1.368,5.028c-0.424-0.08-0.79-0.187-1.098-0.318s-0.572-0.3-0.792-0.504
		s-0.404-0.456-0.552-0.756c-0.148-0.3-0.274-0.658-0.378-1.074l-1.296-4.392c-0.112-0.4-0.234-0.71-0.366-0.93
		c-0.132-0.221-0.311-0.41-0.534-0.57h2.976c0.008,0.112,0.022,0.218,0.042,0.317c0.021,0.101,0.062,0.263,0.126,0.486l1.368,4.98
		l1.068-3.876c0.056-0.217,0.084-0.404,0.084-0.564c0-0.231-0.046-0.45-0.138-0.654c-0.093-0.203-0.255-0.434-0.486-0.689H139.573z"
		/>
	<path fill="#FFEE56" d="M144.817,70.782c0.12-0.088,0.214-0.172,0.282-0.252s0.122-0.18,0.162-0.3s0.065-0.267,0.078-0.438
		c0.012-0.172,0.018-0.394,0.018-0.666v-5.027c0-0.192-0.002-0.351-0.006-0.475s-0.012-0.229-0.024-0.317
		c-0.012-0.088-0.025-0.16-0.042-0.217c-0.016-0.056-0.04-0.115-0.071-0.18c-0.048-0.112-0.101-0.198-0.156-0.258
		c-0.056-0.061-0.136-0.13-0.24-0.21h3.396c-0.112,0.088-0.202,0.174-0.271,0.258c-0.067,0.084-0.126,0.19-0.174,0.318
		c-0.023,0.048-0.042,0.1-0.054,0.155c-0.013,0.057-0.021,0.125-0.024,0.204c-0.004,0.08-0.008,0.179-0.012,0.294
		c-0.004,0.116-0.006,0.259-0.006,0.427v5.027c0,0.265,0.006,0.482,0.018,0.654s0.038,0.318,0.078,0.438
		c0.04,0.12,0.094,0.223,0.162,0.307c0.067,0.084,0.162,0.17,0.282,0.258H144.817z"/>
	<path fill="#FFEE56" d="M149.102,70.782c0.208-0.224,0.354-0.458,0.438-0.702s0.126-0.574,0.126-0.99v-4.68
		c0-0.24-0.01-0.446-0.03-0.618c-0.02-0.172-0.058-0.33-0.113-0.474c-0.057-0.145-0.131-0.284-0.223-0.42s-0.214-0.288-0.365-0.456
		h2.604l3.937,5.208v-3.517c0-0.216-0.009-0.403-0.024-0.563c-0.017-0.16-0.046-0.304-0.09-0.432s-0.103-0.246-0.174-0.354
		c-0.072-0.108-0.164-0.222-0.276-0.342h2.424c-0.112,0.112-0.204,0.224-0.275,0.336c-0.072,0.112-0.129,0.234-0.168,0.366
		c-0.041,0.132-0.07,0.277-0.091,0.438c-0.02,0.16-0.029,0.345-0.029,0.552v6.9c-0.688-0.136-1.296-0.378-1.824-0.726
		c-0.528-0.349-0.996-0.818-1.404-1.41l-2.567-3.396v3.588c0,0.209,0.01,0.393,0.029,0.553c0.021,0.16,0.05,0.304,0.09,0.432
		s0.097,0.248,0.168,0.36c0.072,0.111,0.164,0.228,0.276,0.348H149.102z"/>
</g>
</svg>
