<?xml version="1.0" encoding="utf-8"?>
<!-- Generator: Adobe Illustrator 15.0.0, SVG Export Plug-In  -->
<!DOCTYPE svg PUBLIC "-//W3C//DTD SVG 1.1//EN" "http://www.w3.org/Graphics/SVG/1.1/DTD/svg11.dtd" [
	<!ENTITY ns_flows "http://ns.adobe.com/Flows/1.0/">
]>
<svg version="1.1"
	 xmlns="http://www.w3.org/2000/svg" xmlns:xlink="http://www.w3.org/1999/xlink" xmlns:a="http://ns.adobe.com/AdobeSVGViewerExtensions/3.0/"
	 x="0px" y="0px" width="89px" height="80px" viewBox="0 0 89 80" overflow="visible" enable-background="new 0 0 89 80"
	 xml:space="preserve">
<defs>
</defs>
<g>
	<defs>
		<rect id="SVGID_1_" y="0" width="88.671" height="80.446"/>
	</defs>
	<clipPath id="SVGID_2_">
		<use xlink:href="#SVGID_1_"  overflow="visible"/>
	</clipPath>
	
		<path clip-path="url(#SVGID_2_)" fill="none" stroke="#231F20" stroke-width="4" stroke-linecap="round" stroke-linejoin="round" stroke-miterlimit="10" d="
		M75.656,48.439c1.469-12.594,0.96-30.144-12.781-39.681C40-7.117,9.125,7.972,11.5,23.258
		C44.375-3.409,75.656,48.439,75.656,48.439z"/>
	
		<circle clip-path="url(#SVGID_2_)" fill="none" stroke="#231F20" stroke-width="4" stroke-linecap="round" stroke-linejoin="round" stroke-miterlimit="10" cx="78.358" cy="56.881" r="8.313"/>
	
		<path clip-path="url(#SVGID_2_)" fill="none" stroke="#231F20" stroke-width="4" stroke-linecap="round" stroke-linejoin="round" stroke-miterlimit="10" d="
		M11.5,23.259c0,0-4.25,2.851-4.75,6.393c-0.443,3.14,2.448,10.964,10.739,1.772c8.867-9.832,25.941-7.164,33.136,4.422
		c6.09,9.805,14.062-2.316,9.625-6.194"/>
	<path clip-path="url(#SVGID_2_)" fill="#231F20" d="M37.687,54.931c0,2.14-2.108,3.875-4.708,3.875s-4.708-1.735-4.708-3.875
		c0-2.141,2.108-3.875,4.708-3.875S37.687,52.79,37.687,54.931"/>
	
		<path clip-path="url(#SVGID_2_)" fill="none" stroke="#231F20" stroke-width="4" stroke-linecap="round" stroke-linejoin="round" stroke-miterlimit="10" d="
		M10.821,36.061c0,0-2.946,3.323-1.071,6.823"/>
	
		<path clip-path="url(#SVGID_2_)" fill="none" stroke="#231F20" stroke-width="4" stroke-linecap="round" stroke-linejoin="round" stroke-miterlimit="10" d="
		M27.037,41.992c-0.005,4.723,8.78,5.188,10.404,1.579c1.434-3.188-2.003-6.635-2.753-6.688"/>
	
		<path clip-path="url(#SVGID_2_)" fill="none" stroke="#231F20" stroke-width="4" stroke-linecap="round" stroke-linejoin="round" stroke-miterlimit="10" d="
		M37.074,44.176c4.095-0.729,4.589,3.429,9.446,2.521c3.978-0.744,6.812-6.34,17.438-2.139c-4.562,4.139-19.562,15.639-30.979,5.502
		"/>
	
		<path clip-path="url(#SVGID_2_)" fill="none" stroke="#231F20" stroke-width="4" stroke-linecap="round" stroke-linejoin="round" stroke-miterlimit="10" d="
		M28.516,44.8c-4.095-0.729-4.222,2.805-9.079,1.896C15.46,45.952,12.625,40.356,2,44.558c4.562,4.139,19.562,15.639,30.978,5.502"
		/>
	
		<path clip-path="url(#SVGID_2_)" fill="none" stroke="#231F20" stroke-width="4" stroke-linecap="round" stroke-linejoin="round" stroke-miterlimit="10" d="
		M57.839,39.065c0,0,0.9,2.885,0,3.977"/>
	
		<path clip-path="url(#SVGID_2_)" fill="none" stroke="#231F20" stroke-width="4" stroke-linecap="round" stroke-linejoin="round" stroke-miterlimit="10" d="
		M56.375,50.092c0,0,14.25,28.354-24.5,28.354S8.199,49.268,8.199,49.268"/>
	<path clip-path="url(#SVGID_2_)" fill="#231F20" d="M18.666,34.734c4.167-0.954,7.285,1.955,9.568,0.347
		C29.622,32.355,25.61,28.656,18.666,34.734"/>
	
		<path clip-path="url(#SVGID_2_)" fill="none" stroke="#231F20" stroke-width="4" stroke-linecap="round" stroke-linejoin="round" stroke-miterlimit="10" d="
		M18.666,34.734c4.167-0.954,7.285,1.955,9.568,0.347C29.622,32.355,25.61,28.656,18.666,34.734z"/>
	<path clip-path="url(#SVGID_2_)" fill="#231F20" d="M47.291,34.734c-4.167-0.954-7.285,1.955-9.567,0.347
		C36.334,32.355,40.347,28.656,47.291,34.734"/>
	
		<path clip-path="url(#SVGID_2_)" fill="none" stroke="#231F20" stroke-width="4" stroke-linecap="round" stroke-linejoin="round" stroke-miterlimit="10" d="
		M47.291,34.734c-4.167-0.954-7.285,1.955-9.567,0.347C36.334,32.355,40.347,28.656,47.291,34.734z"/>
</g>
</svg>
