<?xml version="1.0" encoding="utf-8"?>
<!-- Generator: Adobe Illustrator 17.1.0, SVG Export Plug-In . SVG Version: 6.00 Build 0)  -->
<!DOCTYPE svg PUBLIC "-//W3C//DTD SVG 1.1//EN" "http://www.w3.org/Graphics/SVG/1.1/DTD/svg11.dtd">
<svg version="1.1" id="Layer_1" xmlns="http://www.w3.org/2000/svg" xmlns:xlink="http://www.w3.org/1999/xlink" x="0px" y="0px"
	 width="33.9px" height="28.6px" viewBox="0 0 33.9 28.6" enable-background="new 0 0 33.9 28.6" xml:space="preserve">
<g id="Layer_1_1_">
	
		<linearGradient id="SVGID_1_" gradientUnits="userSpaceOnUse" x1="411.8731" y1="1096.3068" x2="439.0569" y2="1128.7032" gradientTransform="matrix(1 0 0 1 -408.515 -1098.2051)">
		<stop  offset="0" style="stop-color:#FFFFFF"/>
		<stop  offset="1" style="stop-color:#C8C8C8"/>
	</linearGradient>
	<rect x="0.5" y="0.5" fill="url(#SVGID_1_)" width="32.9" height="27.6"/>
	<g>
		<path fill="#231F20" d="M33.9,28.6H0V0h33.9V28.6z M1,27.6h31.9V1H1V27.6z"/>
	</g>
	<g>
		<path fill="#231F20" d="M26.832,6.112h-0.248v-1.7c0-1.115-0.904-2.019-2.019-2.019h-0.912c-0.094,0-0.183,0.015-0.274,0.028
			c-0.155-0.038-0.316-0.065-0.483-0.065h-3.35c-0.144,0-0.284,0.016-0.419,0.045c-0.135-0.029-0.275-0.045-0.419-0.045H17.86
			c-0.333,0-0.648,0.081-0.925,0.224c-0.281-0.145-0.597-0.224-0.924-0.224h-0.887c-0.403,0-0.776,0.121-1.091,0.324
			c-0.318-0.203-0.69-0.324-1.084-0.324h-0.964c-0.441,0-0.852,0.151-1.192,0.401c-0.211-0.111-0.43-0.206-0.664-0.267
			C9.774,2.396,9.31,2.356,8.532,2.356H7.068c-1.115,0-2.019,0.904-2.019,2.019v4.517c0,1.115,0.904,2.019,2.019,2.019H7.98
			c0.42,0,0.807-0.133,1.13-0.352c0.328,0.219,0.709,0.352,1.114,0.352h0.967c0.481,0,0.932-0.17,1.286-0.463
			c0.354,0.293,0.806,0.463,1.286,0.463h0.993c0.056,0,0.109-0.016,0.165-0.02c0.067,0.007,0.132,0.02,0.201,0.02h0.848
			c0.328,0,0.637-0.078,0.911-0.216c0.278,0.14,0.588,0.216,0.91,0.216h0.916c0.144,0,0.284-0.016,0.419-0.045
			c0.135,0.029,0.275,0.045,0.419,0.045h3.436c0.115,0,0.226-0.015,0.335-0.034c0.11,0.018,0.22,0.034,0.335,0.034h3.18
			c1.115,0,2.019-0.904,2.019-2.019v-0.76C28.851,7.016,27.947,6.112,26.832,6.112z"/>
		<g>
			<path fill="#FFFFFF" d="M7.068,8.893V4.376h1.464c0.555,0,0.916,0.023,1.085,0.068c0.259,0.068,0.476,0.215,0.651,0.442
				c0.174,0.227,0.261,0.52,0.261,0.879c0,0.277-0.051,0.51-0.15,0.699c-0.101,0.189-0.229,0.338-0.385,0.445
				c-0.155,0.109-0.313,0.18-0.473,0.215C9.304,7.167,8.988,7.189,8.575,7.189H7.98v1.704H7.068z M7.98,5.14v1.282h0.5
				c0.359,0,0.599-0.023,0.72-0.071C9.322,6.304,9.417,6.23,9.486,6.129c0.069-0.1,0.104-0.218,0.104-0.351
				c0-0.165-0.049-0.3-0.145-0.407s-0.219-0.174-0.367-0.2C8.969,5.15,8.75,5.14,8.421,5.14H7.98z"/>
			<path fill="#FFFFFF" d="M14.757,8.893h-0.993L13.37,7.867h-1.804l-0.373,1.026h-0.967l1.76-4.517h0.964L14.757,8.893z
				 M13.078,7.106L12.456,5.43l-0.61,1.676H13.078z"/>
			<path fill="#FFFFFF" d="M15.123,8.893V4.376h0.887l1.849,3.016V4.376h0.848v4.517h-0.916l-1.82-2.946v2.946H15.123z"/>
			<path fill="#FFFFFF" d="M19.546,8.893V4.376h3.35V5.14h-2.438v1.001h2.268v0.761h-2.268v1.229h2.524v0.761h-3.436V8.893z"/>
			<path fill="#FFFFFF" d="M23.652,8.893v-4.48h0.912v3.719h2.268v0.761H23.652z"/>
		</g>
	</g>
	<g>
		<g>
			<path fill="#FFFFFF" d="M16.94,25.66c-3.138,0-5.166-1.703-5.166-4.339c0-1.514,0.596-2.589,1.341-3.429
				c-0.565-0.646-0.906-1.462-0.906-2.702c0-2.939,2.495-4.759,4.806-4.759c2.33,0,4.806,1.477,4.806,4.213
				c0,1.216-0.37,1.943-0.87,2.612c0.685,0.734,1.172,1.61,1.172,3.057C22.125,23.615,19.434,25.66,16.94,25.66z M16.734,20.567
				c0.198,0.2,0.444,0.387,0.686,0.522C17.251,20.946,17.028,20.774,16.734,20.567z"/>
			<path fill="#231F20" d="M17.016,11.495c1.663,0,3.743,1.008,3.743,3.149c0,1.281-0.491,1.785-1.248,2.708
				c0.983,0.861,1.551,1.512,1.551,2.96c0,2.667-2.137,4.283-4.122,4.283c-2.099,0-4.102-0.945-4.102-3.275
				c0-1.575,0.775-2.541,1.834-3.464c-0.983-0.714-1.399-1.365-1.399-2.667C13.273,13.007,15.144,11.495,17.016,11.495
				 M18.113,16.471c0.265-0.336,0.358-0.63,0.358-1.071c0-1.029-1.039-2.142-1.947-2.142c-0.491,0-0.907,0.252-0.907,0.861
				C15.617,15.107,17.545,15.967,18.113,16.471 M18.075,22.371c0.435,0,0.907-0.315,0.907-0.861c0-0.945-2.608-2.457-3.232-2.834
				c-0.303,0.273-0.492,0.714-0.492,1.155C15.257,21.111,17.016,22.371,18.075,22.371 M17.016,9.369
				c-3.236,0-5.869,2.611-5.869,5.821c0,1.045,0.202,1.909,0.644,2.668c-0.619,0.888-1.079,2.009-1.079,3.463
				c0,3.231,2.503,5.401,6.228,5.401c3.005,0,6.248-2.45,6.248-6.409c0-1.377-0.38-2.353-0.924-3.127
				c0.36-0.651,0.621-1.451,0.621-2.542C22.885,11.342,19.901,9.369,17.016,9.369L17.016,9.369z"/>
		</g>
	</g>
</g>
<g id="Layer_2">
</g>
</svg>
