<?xml version="1.0" encoding="utf-8"?>
<!-- Generator: Adobe Illustrator 17.1.0, SVG Export Plug-In . SVG Version: 6.00 Build 0)  -->
<!DOCTYPE svg PUBLIC "-//W3C//DTD SVG 1.1//EN" "http://www.w3.org/Graphics/SVG/1.1/DTD/svg11.dtd">
<svg version="1.1" id="Layer_1" xmlns="http://www.w3.org/2000/svg" xmlns:xlink="http://www.w3.org/1999/xlink" x="0px" y="0px"
	 width="33.9px" height="28.6px" viewBox="0 0 33.9 28.6" enable-background="new 0 0 33.9 28.6" xml:space="preserve">
<g id="Layer_1_1_">
	
		<linearGradient id="SVGID_1_" gradientUnits="userSpaceOnUse" x1="411.8731" y1="1096.3068" x2="439.0569" y2="1128.7032" gradientTransform="matrix(1 0 0 1 -408.515 -1098.2051)">
		<stop  offset="0" style="stop-color:#FFFFFF"/>
		<stop  offset="1" style="stop-color:#C8C8C8"/>
	</linearGradient>
	<rect x="0.5" y="0.5" fill="url(#SVGID_1_)" width="32.9" height="27.6"/>
	<g>
		<path fill="#231F20" d="M33.9,28.6H0V0h33.9V28.6z M1,27.6h31.9V1H1V27.6z"/>
	</g>
	<g>
		<path fill="#231F20" d="M26.832,6.112h-0.248v-1.7c0-1.115-0.904-2.019-2.019-2.019h-0.912c-0.094,0-0.183,0.015-0.274,0.028
			c-0.155-0.038-0.316-0.065-0.483-0.065h-3.35c-0.144,0-0.284,0.016-0.419,0.045c-0.135-0.029-0.275-0.045-0.419-0.045H17.86
			c-0.333,0-0.648,0.081-0.925,0.224c-0.281-0.145-0.597-0.224-0.924-0.224h-0.887c-0.403,0-0.776,0.121-1.091,0.324
			c-0.318-0.203-0.69-0.324-1.084-0.324h-0.964c-0.441,0-0.852,0.151-1.192,0.401c-0.211-0.111-0.43-0.206-0.664-0.267
			C9.774,2.396,9.31,2.356,8.532,2.356H7.068c-1.115,0-2.019,0.904-2.019,2.019v4.517c0,1.115,0.904,2.019,2.019,2.019H7.98
			c0.42,0,0.807-0.133,1.13-0.352c0.328,0.219,0.709,0.352,1.114,0.352h0.967c0.481,0,0.932-0.17,1.286-0.463
			c0.354,0.293,0.806,0.463,1.286,0.463h0.993c0.056,0,0.109-0.016,0.165-0.02c0.067,0.007,0.132,0.02,0.201,0.02h0.848
			c0.328,0,0.637-0.078,0.911-0.216c0.278,0.14,0.588,0.216,0.91,0.216h0.916c0.144,0,0.284-0.016,0.419-0.045
			c0.135,0.029,0.275,0.045,0.419,0.045h3.436c0.115,0,0.226-0.015,0.335-0.034c0.11,0.018,0.22,0.034,0.335,0.034h3.18
			c1.115,0,2.019-0.904,2.019-2.019v-0.76C28.851,7.016,27.947,6.112,26.832,6.112z"/>
		<g>
			<path fill="#FFFFFF" d="M7.068,8.893V4.376h1.464c0.555,0,0.916,0.023,1.085,0.068c0.259,0.068,0.476,0.215,0.651,0.442
				c0.174,0.227,0.261,0.52,0.261,0.879c0,0.277-0.051,0.51-0.15,0.699c-0.101,0.189-0.229,0.338-0.385,0.445
				c-0.155,0.109-0.313,0.18-0.473,0.215C9.304,7.167,8.988,7.189,8.575,7.189H7.98v1.704H7.068z M7.98,5.14v1.282h0.5
				c0.359,0,0.599-0.023,0.72-0.071C9.322,6.304,9.417,6.23,9.486,6.129c0.069-0.1,0.104-0.218,0.104-0.351
				c0-0.165-0.049-0.3-0.145-0.407s-0.219-0.174-0.367-0.2C8.969,5.15,8.75,5.14,8.421,5.14H7.98z"/>
			<path fill="#FFFFFF" d="M14.757,8.893h-0.993L13.37,7.867h-1.804l-0.373,1.026h-0.967l1.76-4.517h0.964L14.757,8.893z
				 M13.078,7.106L12.456,5.43l-0.61,1.676H13.078z"/>
			<path fill="#FFFFFF" d="M15.123,8.893V4.376h0.887l1.849,3.016V4.376h0.848v4.517h-0.916l-1.82-2.946v2.946H15.123z"/>
			<path fill="#FFFFFF" d="M19.546,8.893V4.376h3.35V5.14h-2.438v1.001h2.268v0.761h-2.268v1.229h2.524v0.761h-3.436V8.893z"/>
			<path fill="#FFFFFF" d="M23.652,8.893v-4.48h0.912v3.719h2.268v0.761H23.652z"/>
		</g>
	</g>
	<g>
		<g>
			<path fill="#FFFFFF" d="M19.842,25.244c-0.372,0-0.7-0.191-0.891-0.483h-5.46c-0.525,0-0.971-0.383-1.051-0.901l-0.265-1.722
				c-0.061-0.395,0.105-0.79,0.43-1.023c0.643-0.463,1.207-0.922,1.695-1.379c-1.858-0.971-2.799-2.371-2.799-4.163
				c0-3.583,2.992-5.724,5.884-5.724c2.412,0,5.013,1.819,5.013,4.758c0,1.599-0.771,3.035-1.765,4.269h0.514
				c0.292,0,0.57,0.12,0.771,0.332s0.306,0.497,0.29,0.788l-0.228,4.241c-0.03,0.564-0.496,1.007-1.062,1.007H19.842z"/>
			<path fill="#231F20" d="M17.385,10.912c1.891,0,3.951,1.386,3.951,3.695c0,2.562-2.609,4.85-4.235,6.299l0.038,0.021h1.721
				c0.586,0,1.096-0.231,1.21-0.987h1.077l-0.227,4.241h-1.078l-0.019-0.483H13.49l-0.265-1.722c2.041-1.47,4.499-3.737,4.499-6.677
				c0-1.134-0.605-2.583-1.777-2.583c-0.529,0-0.889,0.504-0.889,1.029c0,0.987,1.248,1.722,1.626,1.911l-1.701,3.233
				c-1.078-0.525-2.42-1.428-2.42-3.317C12.564,12.634,14.984,10.912,17.385,10.912 M21.147,19.94h0.005 M17.385,8.786
				c-3.415,0-6.947,2.539-6.947,6.787c0,1.265,0.401,2.919,2.087,4.274c-0.173,0.134-0.354,0.269-0.541,0.404
				c-0.649,0.467-0.98,1.258-0.859,2.048l0.265,1.722c0.159,1.037,1.052,1.803,2.101,1.803h5.002
				c0.368,0.302,0.838,0.483,1.349,0.483h1.078c1.13,0,2.063-0.884,2.123-2.013l0.221-4.136c0.007-0.072,0.011-0.145,0.011-0.219
				c0-0.714-0.351-1.346-0.89-1.731c0.641-1.08,1.077-2.287,1.077-3.602C23.462,11.011,20.308,8.786,17.385,8.786L17.385,8.786z"/>
		</g>
	</g>
</g>
<g id="Layer_2">
</g>
</svg>
